M48
; DRILL file {KiCad (5.1.9)-1} date 01/15/21 03:21:56
; FORMAT={-:-/ absolute / inch / decimal}
; #@! TF.CreationDate,2021-01-15T03:21:56+08:00
; #@! TF.GenerationSoftware,Kicad,Pcbnew,(5.1.9)-1
; #@! TF.FileFunction,Plated,1,2,PTH
FMAT,2
INCH
T1C0.0157
T2C0.0315
T3C0.0394
T4C0.0512
%
G90
G05
T1
X5.3065Y-3.9825
X5.349Y-4.4392
X5.4109Y-3.95
X5.4109Y-4.2478
X5.44Y-4.3
X5.497Y-4.251
X5.5105Y-4.6885
X5.5605Y-4.6885
X5.608Y-3.866
X5.7105Y-4.6885
X5.7605Y-4.6885
X5.7771Y-3.7951
X5.8056Y-3.8522
X5.8056Y-3.9978
X5.81Y-4.689
X5.8105Y-4.4325
X5.8695Y-3.9958
X5.8695Y-4.149
X5.871Y-3.849
X5.917Y-4.241
X5.917Y-4.398
X5.919Y-3.799
X6.1175Y-4.3982
X6.1245Y-4.05
X6.1255Y-3.949
X6.1255Y-3.999
X6.1255Y-4.099
X6.216Y-4.04
X6.2321Y-4.3303
X6.273Y-4.2114
X6.2799Y-4.3842
X6.302Y-4.279
X6.3256Y-4.2426
X6.365Y-4.5557
X6.3778Y-4.3303
X6.465Y-4.384
X6.5259Y-4.2459
X6.529Y-3.955
X6.5499Y-4.5108
X6.575Y-4.3835
X6.595Y-4.24
T2
X4.9996Y-4.648
X5.0021Y-3.8025
X5.098Y-4.648
X5.1005Y-3.8025
X5.2796Y-4.6465
X5.3511Y-3.7135
X5.378Y-4.6465
X5.4495Y-3.7135
X5.9965Y-3.667
X6.014Y-4.686
X6.0949Y-3.667
X6.1124Y-4.686
X6.727Y-4.6805
X6.737Y-3.6655
X6.8254Y-4.6805
X6.8354Y-3.6655
T3
X5.2035Y-3.803
X5.2035Y-3.903
X5.2035Y-4.003
X5.2035Y-4.103
X5.2035Y-4.203
X5.2035Y-4.303
X5.2035Y-4.403
X5.2035Y-4.503
T4
X6.24Y-3.8097
X6.366Y-4.1758
X6.4132Y-4.0695
X6.5274Y-3.79
X6.6809Y-3.9711
T0
M30
