G04 #@! TF.GenerationSoftware,KiCad,Pcbnew,(5.1.9)-1*
G04 #@! TF.CreationDate,2021-01-15T03:22:01+08:00*
G04 #@! TF.ProjectId,opl3,6f706c33-2e6b-4696-9361-645f70636258,rev?*
G04 #@! TF.SameCoordinates,Original*
G04 #@! TF.FileFunction,Copper,L1,Top*
G04 #@! TF.FilePolarity,Positive*
%FSLAX46Y46*%
G04 Gerber Fmt 4.6, Leading zero omitted, Abs format (unit mm)*
G04 Created by KiCad (PCBNEW (5.1.9)-1) date 2021-01-15 03:22:01*
%MOMM*%
%LPD*%
G01*
G04 APERTURE LIST*
G04 #@! TA.AperFunction,ComponentPad*
%ADD10C,1.600000*%
G04 #@! TD*
G04 #@! TA.AperFunction,ComponentPad*
%ADD11R,1.600000X1.600000*%
G04 #@! TD*
G04 #@! TA.AperFunction,SMDPad,CuDef*
%ADD12R,1.800000X2.000000*%
G04 #@! TD*
G04 #@! TA.AperFunction,SMDPad,CuDef*
%ADD13R,0.650000X1.060000*%
G04 #@! TD*
G04 #@! TA.AperFunction,ComponentPad*
%ADD14O,2.200000X4.000000*%
G04 #@! TD*
G04 #@! TA.AperFunction,ComponentPad*
%ADD15O,4.000000X2.200000*%
G04 #@! TD*
G04 #@! TA.AperFunction,ComponentPad*
%ADD16R,4.000000X2.200000*%
G04 #@! TD*
G04 #@! TA.AperFunction,ComponentPad*
%ADD17O,1.700000X1.700000*%
G04 #@! TD*
G04 #@! TA.AperFunction,ComponentPad*
%ADD18R,1.700000X1.700000*%
G04 #@! TD*
G04 #@! TA.AperFunction,ViaPad*
%ADD19C,0.800000*%
G04 #@! TD*
G04 #@! TA.AperFunction,Conductor*
%ADD20C,0.250000*%
G04 #@! TD*
G04 #@! TA.AperFunction,Conductor*
%ADD21C,0.500000*%
G04 #@! TD*
G04 #@! TA.AperFunction,Conductor*
%ADD22C,0.254000*%
G04 #@! TD*
G04 #@! TA.AperFunction,Conductor*
%ADD23C,0.100000*%
G04 #@! TD*
G04 APERTURE END LIST*
G04 #@! TO.P,U4,8*
G04 #@! TO.N,+5V*
G04 #@! TA.AperFunction,SMDPad,CuDef*
G36*
G01*
X165164800Y-110689100D02*
X164964800Y-110689100D01*
G75*
G02*
X164864800Y-110589100I0J100000D01*
G01*
X164864800Y-109314100D01*
G75*
G02*
X164964800Y-109214100I100000J0D01*
G01*
X165164800Y-109214100D01*
G75*
G02*
X165264800Y-109314100I0J-100000D01*
G01*
X165264800Y-110589100D01*
G75*
G02*
X165164800Y-110689100I-100000J0D01*
G01*
G37*
G04 #@! TD.AperFunction*
G04 #@! TO.P,U4,7*
G04 #@! TO.N,Net-(C22-Pad2)*
G04 #@! TA.AperFunction,SMDPad,CuDef*
G36*
G01*
X165814800Y-110689100D02*
X165614800Y-110689100D01*
G75*
G02*
X165514800Y-110589100I0J100000D01*
G01*
X165514800Y-109314100D01*
G75*
G02*
X165614800Y-109214100I100000J0D01*
G01*
X165814800Y-109214100D01*
G75*
G02*
X165914800Y-109314100I0J-100000D01*
G01*
X165914800Y-110589100D01*
G75*
G02*
X165814800Y-110689100I-100000J0D01*
G01*
G37*
G04 #@! TD.AperFunction*
G04 #@! TO.P,U4,6*
G04 #@! TO.N,Net-(R5-Pad1)*
G04 #@! TA.AperFunction,SMDPad,CuDef*
G36*
G01*
X166464800Y-110689100D02*
X166264800Y-110689100D01*
G75*
G02*
X166164800Y-110589100I0J100000D01*
G01*
X166164800Y-109314100D01*
G75*
G02*
X166264800Y-109214100I100000J0D01*
G01*
X166464800Y-109214100D01*
G75*
G02*
X166564800Y-109314100I0J-100000D01*
G01*
X166564800Y-110589100D01*
G75*
G02*
X166464800Y-110689100I-100000J0D01*
G01*
G37*
G04 #@! TD.AperFunction*
G04 #@! TO.P,U4,5*
G04 #@! TO.N,Net-(C20-Pad1)*
G04 #@! TA.AperFunction,SMDPad,CuDef*
G36*
G01*
X167114800Y-110689100D02*
X166914800Y-110689100D01*
G75*
G02*
X166814800Y-110589100I0J100000D01*
G01*
X166814800Y-109314100D01*
G75*
G02*
X166914800Y-109214100I100000J0D01*
G01*
X167114800Y-109214100D01*
G75*
G02*
X167214800Y-109314100I0J-100000D01*
G01*
X167214800Y-110589100D01*
G75*
G02*
X167114800Y-110689100I-100000J0D01*
G01*
G37*
G04 #@! TD.AperFunction*
G04 #@! TO.P,U4,4*
G04 #@! TO.N,GND*
G04 #@! TA.AperFunction,SMDPad,CuDef*
G36*
G01*
X167114800Y-116414100D02*
X166914800Y-116414100D01*
G75*
G02*
X166814800Y-116314100I0J100000D01*
G01*
X166814800Y-115039100D01*
G75*
G02*
X166914800Y-114939100I100000J0D01*
G01*
X167114800Y-114939100D01*
G75*
G02*
X167214800Y-115039100I0J-100000D01*
G01*
X167214800Y-116314100D01*
G75*
G02*
X167114800Y-116414100I-100000J0D01*
G01*
G37*
G04 #@! TD.AperFunction*
G04 #@! TO.P,U4,3*
G04 #@! TO.N,Net-(C19-Pad1)*
G04 #@! TA.AperFunction,SMDPad,CuDef*
G36*
G01*
X166464800Y-116414100D02*
X166264800Y-116414100D01*
G75*
G02*
X166164800Y-116314100I0J100000D01*
G01*
X166164800Y-115039100D01*
G75*
G02*
X166264800Y-114939100I100000J0D01*
G01*
X166464800Y-114939100D01*
G75*
G02*
X166564800Y-115039100I0J-100000D01*
G01*
X166564800Y-116314100D01*
G75*
G02*
X166464800Y-116414100I-100000J0D01*
G01*
G37*
G04 #@! TD.AperFunction*
G04 #@! TO.P,U4,2*
G04 #@! TO.N,Net-(R3-Pad1)*
G04 #@! TA.AperFunction,SMDPad,CuDef*
G36*
G01*
X165814800Y-116414100D02*
X165614800Y-116414100D01*
G75*
G02*
X165514800Y-116314100I0J100000D01*
G01*
X165514800Y-115039100D01*
G75*
G02*
X165614800Y-114939100I100000J0D01*
G01*
X165814800Y-114939100D01*
G75*
G02*
X165914800Y-115039100I0J-100000D01*
G01*
X165914800Y-116314100D01*
G75*
G02*
X165814800Y-116414100I-100000J0D01*
G01*
G37*
G04 #@! TD.AperFunction*
G04 #@! TO.P,U4,1*
G04 #@! TO.N,Net-(C21-Pad2)*
G04 #@! TA.AperFunction,SMDPad,CuDef*
G36*
G01*
X165164800Y-116414100D02*
X164964800Y-116414100D01*
G75*
G02*
X164864800Y-116314100I0J100000D01*
G01*
X164864800Y-115039100D01*
G75*
G02*
X164964800Y-114939100I100000J0D01*
G01*
X165164800Y-114939100D01*
G75*
G02*
X165264800Y-115039100I0J-100000D01*
G01*
X165264800Y-116314100D01*
G75*
G02*
X165164800Y-116414100I-100000J0D01*
G01*
G37*
G04 #@! TD.AperFunction*
G04 #@! TD*
G04 #@! TO.P,U2,16*
G04 #@! TO.N,Net-(C17-Pad1)*
G04 #@! TA.AperFunction,SMDPad,CuDef*
G36*
G01*
X154786500Y-96644600D02*
X154786500Y-96344600D01*
G75*
G02*
X154936500Y-96194600I150000J0D01*
G01*
X156236500Y-96194600D01*
G75*
G02*
X156386500Y-96344600I0J-150000D01*
G01*
X156386500Y-96644600D01*
G75*
G02*
X156236500Y-96794600I-150000J0D01*
G01*
X154936500Y-96794600D01*
G75*
G02*
X154786500Y-96644600I0J150000D01*
G01*
G37*
G04 #@! TD.AperFunction*
G04 #@! TO.P,U2,15*
G04 #@! TO.N,N/C*
G04 #@! TA.AperFunction,SMDPad,CuDef*
G36*
G01*
X154786500Y-97914600D02*
X154786500Y-97614600D01*
G75*
G02*
X154936500Y-97464600I150000J0D01*
G01*
X156236500Y-97464600D01*
G75*
G02*
X156386500Y-97614600I0J-150000D01*
G01*
X156386500Y-97914600D01*
G75*
G02*
X156236500Y-98064600I-150000J0D01*
G01*
X154936500Y-98064600D01*
G75*
G02*
X154786500Y-97914600I0J150000D01*
G01*
G37*
G04 #@! TD.AperFunction*
G04 #@! TO.P,U2,14*
G04 #@! TO.N,Net-(U2-Pad14)*
G04 #@! TA.AperFunction,SMDPad,CuDef*
G36*
G01*
X154786500Y-99184600D02*
X154786500Y-98884600D01*
G75*
G02*
X154936500Y-98734600I150000J0D01*
G01*
X156236500Y-98734600D01*
G75*
G02*
X156386500Y-98884600I0J-150000D01*
G01*
X156386500Y-99184600D01*
G75*
G02*
X156236500Y-99334600I-150000J0D01*
G01*
X154936500Y-99334600D01*
G75*
G02*
X154786500Y-99184600I0J150000D01*
G01*
G37*
G04 #@! TD.AperFunction*
G04 #@! TO.P,U2,13*
G04 #@! TO.N,Net-(C18-Pad2)*
G04 #@! TA.AperFunction,SMDPad,CuDef*
G36*
G01*
X154786500Y-100454600D02*
X154786500Y-100154600D01*
G75*
G02*
X154936500Y-100004600I150000J0D01*
G01*
X156236500Y-100004600D01*
G75*
G02*
X156386500Y-100154600I0J-150000D01*
G01*
X156386500Y-100454600D01*
G75*
G02*
X156236500Y-100604600I-150000J0D01*
G01*
X154936500Y-100604600D01*
G75*
G02*
X154786500Y-100454600I0J150000D01*
G01*
G37*
G04 #@! TD.AperFunction*
G04 #@! TO.P,U2,12*
G04 #@! TO.N,Net-(R1-Pad2)*
G04 #@! TA.AperFunction,SMDPad,CuDef*
G36*
G01*
X154786500Y-101724600D02*
X154786500Y-101424600D01*
G75*
G02*
X154936500Y-101274600I150000J0D01*
G01*
X156236500Y-101274600D01*
G75*
G02*
X156386500Y-101424600I0J-150000D01*
G01*
X156386500Y-101724600D01*
G75*
G02*
X156236500Y-101874600I-150000J0D01*
G01*
X154936500Y-101874600D01*
G75*
G02*
X154786500Y-101724600I0J150000D01*
G01*
G37*
G04 #@! TD.AperFunction*
G04 #@! TO.P,U2,11*
G04 #@! TO.N,Net-(C15-Pad1)*
G04 #@! TA.AperFunction,SMDPad,CuDef*
G36*
G01*
X154786500Y-102994600D02*
X154786500Y-102694600D01*
G75*
G02*
X154936500Y-102544600I150000J0D01*
G01*
X156236500Y-102544600D01*
G75*
G02*
X156386500Y-102694600I0J-150000D01*
G01*
X156386500Y-102994600D01*
G75*
G02*
X156236500Y-103144600I-150000J0D01*
G01*
X154936500Y-103144600D01*
G75*
G02*
X154786500Y-102994600I0J150000D01*
G01*
G37*
G04 #@! TD.AperFunction*
G04 #@! TO.P,U2,10*
G04 #@! TO.N,Net-(C16-Pad2)*
G04 #@! TA.AperFunction,SMDPad,CuDef*
G36*
G01*
X154786500Y-104264600D02*
X154786500Y-103964600D01*
G75*
G02*
X154936500Y-103814600I150000J0D01*
G01*
X156236500Y-103814600D01*
G75*
G02*
X156386500Y-103964600I0J-150000D01*
G01*
X156386500Y-104264600D01*
G75*
G02*
X156236500Y-104414600I-150000J0D01*
G01*
X154936500Y-104414600D01*
G75*
G02*
X154786500Y-104264600I0J150000D01*
G01*
G37*
G04 #@! TD.AperFunction*
G04 #@! TO.P,U2,9*
G04 #@! TO.N,+5V*
G04 #@! TA.AperFunction,SMDPad,CuDef*
G36*
G01*
X154786500Y-105534600D02*
X154786500Y-105234600D01*
G75*
G02*
X154936500Y-105084600I150000J0D01*
G01*
X156236500Y-105084600D01*
G75*
G02*
X156386500Y-105234600I0J-150000D01*
G01*
X156386500Y-105534600D01*
G75*
G02*
X156236500Y-105684600I-150000J0D01*
G01*
X154936500Y-105684600D01*
G75*
G02*
X154786500Y-105534600I0J150000D01*
G01*
G37*
G04 #@! TD.AperFunction*
G04 #@! TO.P,U2,8*
G04 #@! TO.N,Net-(U1-Pad20)*
G04 #@! TA.AperFunction,SMDPad,CuDef*
G36*
G01*
X148286500Y-105534600D02*
X148286500Y-105234600D01*
G75*
G02*
X148436500Y-105084600I150000J0D01*
G01*
X149736500Y-105084600D01*
G75*
G02*
X149886500Y-105234600I0J-150000D01*
G01*
X149886500Y-105534600D01*
G75*
G02*
X149736500Y-105684600I-150000J0D01*
G01*
X148436500Y-105684600D01*
G75*
G02*
X148286500Y-105534600I0J150000D01*
G01*
G37*
G04 #@! TD.AperFunction*
G04 #@! TO.P,U2,7*
G04 #@! TO.N,Net-(U1-Pad19)*
G04 #@! TA.AperFunction,SMDPad,CuDef*
G36*
G01*
X148286500Y-104264600D02*
X148286500Y-103964600D01*
G75*
G02*
X148436500Y-103814600I150000J0D01*
G01*
X149736500Y-103814600D01*
G75*
G02*
X149886500Y-103964600I0J-150000D01*
G01*
X149886500Y-104264600D01*
G75*
G02*
X149736500Y-104414600I-150000J0D01*
G01*
X148436500Y-104414600D01*
G75*
G02*
X148286500Y-104264600I0J150000D01*
G01*
G37*
G04 #@! TD.AperFunction*
G04 #@! TO.P,U2,6*
G04 #@! TO.N,+5V*
G04 #@! TA.AperFunction,SMDPad,CuDef*
G36*
G01*
X148286500Y-102994600D02*
X148286500Y-102694600D01*
G75*
G02*
X148436500Y-102544600I150000J0D01*
G01*
X149736500Y-102544600D01*
G75*
G02*
X149886500Y-102694600I0J-150000D01*
G01*
X149886500Y-102994600D01*
G75*
G02*
X149736500Y-103144600I-150000J0D01*
G01*
X148436500Y-103144600D01*
G75*
G02*
X148286500Y-102994600I0J150000D01*
G01*
G37*
G04 #@! TD.AperFunction*
G04 #@! TO.P,U2,5*
G04 #@! TO.N,Net-(U1-Pad23)*
G04 #@! TA.AperFunction,SMDPad,CuDef*
G36*
G01*
X148286500Y-101724600D02*
X148286500Y-101424600D01*
G75*
G02*
X148436500Y-101274600I150000J0D01*
G01*
X149736500Y-101274600D01*
G75*
G02*
X149886500Y-101424600I0J-150000D01*
G01*
X149886500Y-101724600D01*
G75*
G02*
X149736500Y-101874600I-150000J0D01*
G01*
X148436500Y-101874600D01*
G75*
G02*
X148286500Y-101724600I0J150000D01*
G01*
G37*
G04 #@! TD.AperFunction*
G04 #@! TO.P,U2,4*
G04 #@! TO.N,Net-(U1-Pad21)*
G04 #@! TA.AperFunction,SMDPad,CuDef*
G36*
G01*
X148286500Y-100454600D02*
X148286500Y-100154600D01*
G75*
G02*
X148436500Y-100004600I150000J0D01*
G01*
X149736500Y-100004600D01*
G75*
G02*
X149886500Y-100154600I0J-150000D01*
G01*
X149886500Y-100454600D01*
G75*
G02*
X149736500Y-100604600I-150000J0D01*
G01*
X148436500Y-100604600D01*
G75*
G02*
X148286500Y-100454600I0J150000D01*
G01*
G37*
G04 #@! TD.AperFunction*
G04 #@! TO.P,U2,3*
G04 #@! TO.N,+5V*
G04 #@! TA.AperFunction,SMDPad,CuDef*
G36*
G01*
X148286500Y-99184600D02*
X148286500Y-98884600D01*
G75*
G02*
X148436500Y-98734600I150000J0D01*
G01*
X149736500Y-98734600D01*
G75*
G02*
X149886500Y-98884600I0J-150000D01*
G01*
X149886500Y-99184600D01*
G75*
G02*
X149736500Y-99334600I-150000J0D01*
G01*
X148436500Y-99334600D01*
G75*
G02*
X148286500Y-99184600I0J150000D01*
G01*
G37*
G04 #@! TD.AperFunction*
G04 #@! TO.P,U2,2*
G04 #@! TO.N,GND*
G04 #@! TA.AperFunction,SMDPad,CuDef*
G36*
G01*
X148286500Y-97914600D02*
X148286500Y-97614600D01*
G75*
G02*
X148436500Y-97464600I150000J0D01*
G01*
X149736500Y-97464600D01*
G75*
G02*
X149886500Y-97614600I0J-150000D01*
G01*
X149886500Y-97914600D01*
G75*
G02*
X149736500Y-98064600I-150000J0D01*
G01*
X148436500Y-98064600D01*
G75*
G02*
X148286500Y-97914600I0J150000D01*
G01*
G37*
G04 #@! TD.AperFunction*
G04 #@! TO.P,U2,1*
G04 #@! TO.N,+5V*
G04 #@! TA.AperFunction,SMDPad,CuDef*
G36*
G01*
X148286500Y-96644600D02*
X148286500Y-96344600D01*
G75*
G02*
X148436500Y-96194600I150000J0D01*
G01*
X149736500Y-96194600D01*
G75*
G02*
X149886500Y-96344600I0J-150000D01*
G01*
X149886500Y-96644600D01*
G75*
G02*
X149736500Y-96794600I-150000J0D01*
G01*
X148436500Y-96794600D01*
G75*
G02*
X148286500Y-96644600I0J150000D01*
G01*
G37*
G04 #@! TD.AperFunction*
G04 #@! TD*
D10*
G04 #@! TO.P,C5,2*
G04 #@! TO.N,GND*
X173365800Y-118884700D03*
D11*
G04 #@! TO.P,C5,1*
G04 #@! TO.N,+5V*
X170865800Y-118884700D03*
G04 #@! TD*
D12*
G04 #@! TO.P,X1,4*
G04 #@! TO.N,+5V*
X155384500Y-111715300D03*
G04 #@! TO.P,X1,3*
G04 #@! TO.N,Net-(U1-Pad24)*
X150304500Y-111715300D03*
G04 #@! TO.P,X1,2*
G04 #@! TO.N,GND*
X150304500Y-107715300D03*
G04 #@! TO.P,X1,1*
G04 #@! TO.N,+5V*
X155384500Y-107715300D03*
G04 #@! TD*
D13*
G04 #@! TO.P,U6,5*
G04 #@! TO.N,+5V*
X136814600Y-114955500D03*
G04 #@! TO.P,U6,4*
G04 #@! TO.N,RCLK*
X134914600Y-114955500D03*
G04 #@! TO.P,U6,3*
G04 #@! TO.N,GND*
X134914600Y-112755500D03*
G04 #@! TO.P,U6,2*
G04 #@! TO.N,~WR*
X135864600Y-112755500D03*
G04 #@! TO.P,U6,1*
G04 #@! TO.N,N/C*
X136814600Y-112755500D03*
G04 #@! TD*
G04 #@! TO.P,U5,16*
G04 #@! TO.N,+5V*
G04 #@! TA.AperFunction,SMDPad,CuDef*
G36*
G01*
X147436700Y-118286700D02*
X147736700Y-118286700D01*
G75*
G02*
X147886700Y-118436700I0J-150000D01*
G01*
X147886700Y-119736700D01*
G75*
G02*
X147736700Y-119886700I-150000J0D01*
G01*
X147436700Y-119886700D01*
G75*
G02*
X147286700Y-119736700I0J150000D01*
G01*
X147286700Y-118436700D01*
G75*
G02*
X147436700Y-118286700I150000J0D01*
G01*
G37*
G04 #@! TD.AperFunction*
G04 #@! TO.P,U5,15*
G04 #@! TO.N,D0*
G04 #@! TA.AperFunction,SMDPad,CuDef*
G36*
G01*
X146166700Y-118286700D02*
X146466700Y-118286700D01*
G75*
G02*
X146616700Y-118436700I0J-150000D01*
G01*
X146616700Y-119736700D01*
G75*
G02*
X146466700Y-119886700I-150000J0D01*
G01*
X146166700Y-119886700D01*
G75*
G02*
X146016700Y-119736700I0J150000D01*
G01*
X146016700Y-118436700D01*
G75*
G02*
X146166700Y-118286700I150000J0D01*
G01*
G37*
G04 #@! TD.AperFunction*
G04 #@! TO.P,U5,14*
G04 #@! TO.N,Net-(J1-Pad4)*
G04 #@! TA.AperFunction,SMDPad,CuDef*
G36*
G01*
X144896700Y-118286700D02*
X145196700Y-118286700D01*
G75*
G02*
X145346700Y-118436700I0J-150000D01*
G01*
X145346700Y-119736700D01*
G75*
G02*
X145196700Y-119886700I-150000J0D01*
G01*
X144896700Y-119886700D01*
G75*
G02*
X144746700Y-119736700I0J150000D01*
G01*
X144746700Y-118436700D01*
G75*
G02*
X144896700Y-118286700I150000J0D01*
G01*
G37*
G04 #@! TD.AperFunction*
G04 #@! TO.P,U5,13*
G04 #@! TO.N,GND*
G04 #@! TA.AperFunction,SMDPad,CuDef*
G36*
G01*
X143626700Y-118286700D02*
X143926700Y-118286700D01*
G75*
G02*
X144076700Y-118436700I0J-150000D01*
G01*
X144076700Y-119736700D01*
G75*
G02*
X143926700Y-119886700I-150000J0D01*
G01*
X143626700Y-119886700D01*
G75*
G02*
X143476700Y-119736700I0J150000D01*
G01*
X143476700Y-118436700D01*
G75*
G02*
X143626700Y-118286700I150000J0D01*
G01*
G37*
G04 #@! TD.AperFunction*
G04 #@! TO.P,U5,12*
G04 #@! TO.N,RCLK*
G04 #@! TA.AperFunction,SMDPad,CuDef*
G36*
G01*
X142356700Y-118286700D02*
X142656700Y-118286700D01*
G75*
G02*
X142806700Y-118436700I0J-150000D01*
G01*
X142806700Y-119736700D01*
G75*
G02*
X142656700Y-119886700I-150000J0D01*
G01*
X142356700Y-119886700D01*
G75*
G02*
X142206700Y-119736700I0J150000D01*
G01*
X142206700Y-118436700D01*
G75*
G02*
X142356700Y-118286700I150000J0D01*
G01*
G37*
G04 #@! TD.AperFunction*
G04 #@! TO.P,U5,11*
G04 #@! TO.N,Net-(J1-Pad6)*
G04 #@! TA.AperFunction,SMDPad,CuDef*
G36*
G01*
X141086700Y-118286700D02*
X141386700Y-118286700D01*
G75*
G02*
X141536700Y-118436700I0J-150000D01*
G01*
X141536700Y-119736700D01*
G75*
G02*
X141386700Y-119886700I-150000J0D01*
G01*
X141086700Y-119886700D01*
G75*
G02*
X140936700Y-119736700I0J150000D01*
G01*
X140936700Y-118436700D01*
G75*
G02*
X141086700Y-118286700I150000J0D01*
G01*
G37*
G04 #@! TD.AperFunction*
G04 #@! TO.P,U5,10*
G04 #@! TO.N,+5V*
G04 #@! TA.AperFunction,SMDPad,CuDef*
G36*
G01*
X139816700Y-118286700D02*
X140116700Y-118286700D01*
G75*
G02*
X140266700Y-118436700I0J-150000D01*
G01*
X140266700Y-119736700D01*
G75*
G02*
X140116700Y-119886700I-150000J0D01*
G01*
X139816700Y-119886700D01*
G75*
G02*
X139666700Y-119736700I0J150000D01*
G01*
X139666700Y-118436700D01*
G75*
G02*
X139816700Y-118286700I150000J0D01*
G01*
G37*
G04 #@! TD.AperFunction*
G04 #@! TO.P,U5,9*
G04 #@! TO.N,GND*
G04 #@! TA.AperFunction,SMDPad,CuDef*
G36*
G01*
X138546700Y-118286700D02*
X138846700Y-118286700D01*
G75*
G02*
X138996700Y-118436700I0J-150000D01*
G01*
X138996700Y-119736700D01*
G75*
G02*
X138846700Y-119886700I-150000J0D01*
G01*
X138546700Y-119886700D01*
G75*
G02*
X138396700Y-119736700I0J150000D01*
G01*
X138396700Y-118436700D01*
G75*
G02*
X138546700Y-118286700I150000J0D01*
G01*
G37*
G04 #@! TD.AperFunction*
G04 #@! TO.P,U5,8*
G04 #@! TA.AperFunction,SMDPad,CuDef*
G36*
G01*
X138546700Y-111786700D02*
X138846700Y-111786700D01*
G75*
G02*
X138996700Y-111936700I0J-150000D01*
G01*
X138996700Y-113236700D01*
G75*
G02*
X138846700Y-113386700I-150000J0D01*
G01*
X138546700Y-113386700D01*
G75*
G02*
X138396700Y-113236700I0J150000D01*
G01*
X138396700Y-111936700D01*
G75*
G02*
X138546700Y-111786700I150000J0D01*
G01*
G37*
G04 #@! TD.AperFunction*
G04 #@! TO.P,U5,7*
G04 #@! TO.N,D7*
G04 #@! TA.AperFunction,SMDPad,CuDef*
G36*
G01*
X139816700Y-111786700D02*
X140116700Y-111786700D01*
G75*
G02*
X140266700Y-111936700I0J-150000D01*
G01*
X140266700Y-113236700D01*
G75*
G02*
X140116700Y-113386700I-150000J0D01*
G01*
X139816700Y-113386700D01*
G75*
G02*
X139666700Y-113236700I0J150000D01*
G01*
X139666700Y-111936700D01*
G75*
G02*
X139816700Y-111786700I150000J0D01*
G01*
G37*
G04 #@! TD.AperFunction*
G04 #@! TO.P,U5,6*
G04 #@! TO.N,D6*
G04 #@! TA.AperFunction,SMDPad,CuDef*
G36*
G01*
X141086700Y-111786700D02*
X141386700Y-111786700D01*
G75*
G02*
X141536700Y-111936700I0J-150000D01*
G01*
X141536700Y-113236700D01*
G75*
G02*
X141386700Y-113386700I-150000J0D01*
G01*
X141086700Y-113386700D01*
G75*
G02*
X140936700Y-113236700I0J150000D01*
G01*
X140936700Y-111936700D01*
G75*
G02*
X141086700Y-111786700I150000J0D01*
G01*
G37*
G04 #@! TD.AperFunction*
G04 #@! TO.P,U5,5*
G04 #@! TO.N,D5*
G04 #@! TA.AperFunction,SMDPad,CuDef*
G36*
G01*
X142356700Y-111786700D02*
X142656700Y-111786700D01*
G75*
G02*
X142806700Y-111936700I0J-150000D01*
G01*
X142806700Y-113236700D01*
G75*
G02*
X142656700Y-113386700I-150000J0D01*
G01*
X142356700Y-113386700D01*
G75*
G02*
X142206700Y-113236700I0J150000D01*
G01*
X142206700Y-111936700D01*
G75*
G02*
X142356700Y-111786700I150000J0D01*
G01*
G37*
G04 #@! TD.AperFunction*
G04 #@! TO.P,U5,4*
G04 #@! TO.N,D4*
G04 #@! TA.AperFunction,SMDPad,CuDef*
G36*
G01*
X143626700Y-111786700D02*
X143926700Y-111786700D01*
G75*
G02*
X144076700Y-111936700I0J-150000D01*
G01*
X144076700Y-113236700D01*
G75*
G02*
X143926700Y-113386700I-150000J0D01*
G01*
X143626700Y-113386700D01*
G75*
G02*
X143476700Y-113236700I0J150000D01*
G01*
X143476700Y-111936700D01*
G75*
G02*
X143626700Y-111786700I150000J0D01*
G01*
G37*
G04 #@! TD.AperFunction*
G04 #@! TO.P,U5,3*
G04 #@! TO.N,D3*
G04 #@! TA.AperFunction,SMDPad,CuDef*
G36*
G01*
X144896700Y-111786700D02*
X145196700Y-111786700D01*
G75*
G02*
X145346700Y-111936700I0J-150000D01*
G01*
X145346700Y-113236700D01*
G75*
G02*
X145196700Y-113386700I-150000J0D01*
G01*
X144896700Y-113386700D01*
G75*
G02*
X144746700Y-113236700I0J150000D01*
G01*
X144746700Y-111936700D01*
G75*
G02*
X144896700Y-111786700I150000J0D01*
G01*
G37*
G04 #@! TD.AperFunction*
G04 #@! TO.P,U5,2*
G04 #@! TO.N,D2*
G04 #@! TA.AperFunction,SMDPad,CuDef*
G36*
G01*
X146166700Y-111786700D02*
X146466700Y-111786700D01*
G75*
G02*
X146616700Y-111936700I0J-150000D01*
G01*
X146616700Y-113236700D01*
G75*
G02*
X146466700Y-113386700I-150000J0D01*
G01*
X146166700Y-113386700D01*
G75*
G02*
X146016700Y-113236700I0J150000D01*
G01*
X146016700Y-111936700D01*
G75*
G02*
X146166700Y-111786700I150000J0D01*
G01*
G37*
G04 #@! TD.AperFunction*
G04 #@! TO.P,U5,1*
G04 #@! TO.N,D1*
G04 #@! TA.AperFunction,SMDPad,CuDef*
G36*
G01*
X147436700Y-111786700D02*
X147736700Y-111786700D01*
G75*
G02*
X147886700Y-111936700I0J-150000D01*
G01*
X147886700Y-113236700D01*
G75*
G02*
X147736700Y-113386700I-150000J0D01*
G01*
X147436700Y-113386700D01*
G75*
G02*
X147286700Y-113236700I0J150000D01*
G01*
X147286700Y-111936700D01*
G75*
G02*
X147436700Y-111786700I150000J0D01*
G01*
G37*
G04 #@! TD.AperFunction*
G04 #@! TD*
G04 #@! TO.P,U3,14*
G04 #@! TO.N,Net-(R11-Pad2)*
G04 #@! TA.AperFunction,SMDPad,CuDef*
G36*
G01*
X158195400Y-110727200D02*
X157995400Y-110727200D01*
G75*
G02*
X157895400Y-110627200I0J100000D01*
G01*
X157895400Y-109352200D01*
G75*
G02*
X157995400Y-109252200I100000J0D01*
G01*
X158195400Y-109252200D01*
G75*
G02*
X158295400Y-109352200I0J-100000D01*
G01*
X158295400Y-110627200D01*
G75*
G02*
X158195400Y-110727200I-100000J0D01*
G01*
G37*
G04 #@! TD.AperFunction*
G04 #@! TO.P,U3,13*
G04 #@! TA.AperFunction,SMDPad,CuDef*
G36*
G01*
X158845400Y-110727200D02*
X158645400Y-110727200D01*
G75*
G02*
X158545400Y-110627200I0J100000D01*
G01*
X158545400Y-109352200D01*
G75*
G02*
X158645400Y-109252200I100000J0D01*
G01*
X158845400Y-109252200D01*
G75*
G02*
X158945400Y-109352200I0J-100000D01*
G01*
X158945400Y-110627200D01*
G75*
G02*
X158845400Y-110727200I-100000J0D01*
G01*
G37*
G04 #@! TD.AperFunction*
G04 #@! TO.P,U3,12*
G04 #@! TO.N,Net-(C15-Pad1)*
G04 #@! TA.AperFunction,SMDPad,CuDef*
G36*
G01*
X159495400Y-110727200D02*
X159295400Y-110727200D01*
G75*
G02*
X159195400Y-110627200I0J100000D01*
G01*
X159195400Y-109352200D01*
G75*
G02*
X159295400Y-109252200I100000J0D01*
G01*
X159495400Y-109252200D01*
G75*
G02*
X159595400Y-109352200I0J-100000D01*
G01*
X159595400Y-110627200D01*
G75*
G02*
X159495400Y-110727200I-100000J0D01*
G01*
G37*
G04 #@! TD.AperFunction*
G04 #@! TO.P,U3,11*
G04 #@! TO.N,GND*
G04 #@! TA.AperFunction,SMDPad,CuDef*
G36*
G01*
X160145400Y-110727200D02*
X159945400Y-110727200D01*
G75*
G02*
X159845400Y-110627200I0J100000D01*
G01*
X159845400Y-109352200D01*
G75*
G02*
X159945400Y-109252200I100000J0D01*
G01*
X160145400Y-109252200D01*
G75*
G02*
X160245400Y-109352200I0J-100000D01*
G01*
X160245400Y-110627200D01*
G75*
G02*
X160145400Y-110727200I-100000J0D01*
G01*
G37*
G04 #@! TD.AperFunction*
G04 #@! TO.P,U3,10*
G04 #@! TO.N,Net-(C16-Pad2)*
G04 #@! TA.AperFunction,SMDPad,CuDef*
G36*
G01*
X160795400Y-110727200D02*
X160595400Y-110727200D01*
G75*
G02*
X160495400Y-110627200I0J100000D01*
G01*
X160495400Y-109352200D01*
G75*
G02*
X160595400Y-109252200I100000J0D01*
G01*
X160795400Y-109252200D01*
G75*
G02*
X160895400Y-109352200I0J-100000D01*
G01*
X160895400Y-110627200D01*
G75*
G02*
X160795400Y-110727200I-100000J0D01*
G01*
G37*
G04 #@! TD.AperFunction*
G04 #@! TO.P,U3,9*
G04 #@! TO.N,Net-(R12-Pad1)*
G04 #@! TA.AperFunction,SMDPad,CuDef*
G36*
G01*
X161445400Y-110727200D02*
X161245400Y-110727200D01*
G75*
G02*
X161145400Y-110627200I0J100000D01*
G01*
X161145400Y-109352200D01*
G75*
G02*
X161245400Y-109252200I100000J0D01*
G01*
X161445400Y-109252200D01*
G75*
G02*
X161545400Y-109352200I0J-100000D01*
G01*
X161545400Y-110627200D01*
G75*
G02*
X161445400Y-110727200I-100000J0D01*
G01*
G37*
G04 #@! TD.AperFunction*
G04 #@! TO.P,U3,8*
G04 #@! TA.AperFunction,SMDPad,CuDef*
G36*
G01*
X162095400Y-110727200D02*
X161895400Y-110727200D01*
G75*
G02*
X161795400Y-110627200I0J100000D01*
G01*
X161795400Y-109352200D01*
G75*
G02*
X161895400Y-109252200I100000J0D01*
G01*
X162095400Y-109252200D01*
G75*
G02*
X162195400Y-109352200I0J-100000D01*
G01*
X162195400Y-110627200D01*
G75*
G02*
X162095400Y-110727200I-100000J0D01*
G01*
G37*
G04 #@! TD.AperFunction*
G04 #@! TO.P,U3,7*
G04 #@! TO.N,Net-(R1-Pad1)*
G04 #@! TA.AperFunction,SMDPad,CuDef*
G36*
G01*
X162095400Y-116452200D02*
X161895400Y-116452200D01*
G75*
G02*
X161795400Y-116352200I0J100000D01*
G01*
X161795400Y-115077200D01*
G75*
G02*
X161895400Y-114977200I100000J0D01*
G01*
X162095400Y-114977200D01*
G75*
G02*
X162195400Y-115077200I0J-100000D01*
G01*
X162195400Y-116352200D01*
G75*
G02*
X162095400Y-116452200I-100000J0D01*
G01*
G37*
G04 #@! TD.AperFunction*
G04 #@! TO.P,U3,6*
G04 #@! TA.AperFunction,SMDPad,CuDef*
G36*
G01*
X161445400Y-116452200D02*
X161245400Y-116452200D01*
G75*
G02*
X161145400Y-116352200I0J100000D01*
G01*
X161145400Y-115077200D01*
G75*
G02*
X161245400Y-114977200I100000J0D01*
G01*
X161445400Y-114977200D01*
G75*
G02*
X161545400Y-115077200I0J-100000D01*
G01*
X161545400Y-116352200D01*
G75*
G02*
X161445400Y-116452200I-100000J0D01*
G01*
G37*
G04 #@! TD.AperFunction*
G04 #@! TO.P,U3,5*
G04 #@! TO.N,Net-(C18-Pad2)*
G04 #@! TA.AperFunction,SMDPad,CuDef*
G36*
G01*
X160795400Y-116452200D02*
X160595400Y-116452200D01*
G75*
G02*
X160495400Y-116352200I0J100000D01*
G01*
X160495400Y-115077200D01*
G75*
G02*
X160595400Y-114977200I100000J0D01*
G01*
X160795400Y-114977200D01*
G75*
G02*
X160895400Y-115077200I0J-100000D01*
G01*
X160895400Y-116352200D01*
G75*
G02*
X160795400Y-116452200I-100000J0D01*
G01*
G37*
G04 #@! TD.AperFunction*
G04 #@! TO.P,U3,4*
G04 #@! TO.N,+5V*
G04 #@! TA.AperFunction,SMDPad,CuDef*
G36*
G01*
X160145400Y-116452200D02*
X159945400Y-116452200D01*
G75*
G02*
X159845400Y-116352200I0J100000D01*
G01*
X159845400Y-115077200D01*
G75*
G02*
X159945400Y-114977200I100000J0D01*
G01*
X160145400Y-114977200D01*
G75*
G02*
X160245400Y-115077200I0J-100000D01*
G01*
X160245400Y-116352200D01*
G75*
G02*
X160145400Y-116452200I-100000J0D01*
G01*
G37*
G04 #@! TD.AperFunction*
G04 #@! TO.P,U3,3*
G04 #@! TO.N,Net-(C17-Pad1)*
G04 #@! TA.AperFunction,SMDPad,CuDef*
G36*
G01*
X159495400Y-116452200D02*
X159295400Y-116452200D01*
G75*
G02*
X159195400Y-116352200I0J100000D01*
G01*
X159195400Y-115077200D01*
G75*
G02*
X159295400Y-114977200I100000J0D01*
G01*
X159495400Y-114977200D01*
G75*
G02*
X159595400Y-115077200I0J-100000D01*
G01*
X159595400Y-116352200D01*
G75*
G02*
X159495400Y-116452200I-100000J0D01*
G01*
G37*
G04 #@! TD.AperFunction*
G04 #@! TO.P,U3,2*
G04 #@! TO.N,Net-(U2-Pad14)*
G04 #@! TA.AperFunction,SMDPad,CuDef*
G36*
G01*
X158845400Y-116452200D02*
X158645400Y-116452200D01*
G75*
G02*
X158545400Y-116352200I0J100000D01*
G01*
X158545400Y-115077200D01*
G75*
G02*
X158645400Y-114977200I100000J0D01*
G01*
X158845400Y-114977200D01*
G75*
G02*
X158945400Y-115077200I0J-100000D01*
G01*
X158945400Y-116352200D01*
G75*
G02*
X158845400Y-116452200I-100000J0D01*
G01*
G37*
G04 #@! TD.AperFunction*
G04 #@! TO.P,U3,1*
G04 #@! TA.AperFunction,SMDPad,CuDef*
G36*
G01*
X158195400Y-116452200D02*
X157995400Y-116452200D01*
G75*
G02*
X157895400Y-116352200I0J100000D01*
G01*
X157895400Y-115077200D01*
G75*
G02*
X157995400Y-114977200I100000J0D01*
G01*
X158195400Y-114977200D01*
G75*
G02*
X158295400Y-115077200I0J-100000D01*
G01*
X158295400Y-116352200D01*
G75*
G02*
X158195400Y-116452200I-100000J0D01*
G01*
G37*
G04 #@! TD.AperFunction*
G04 #@! TD*
G04 #@! TO.P,U1,24*
G04 #@! TO.N,Net-(U1-Pad24)*
G04 #@! TA.AperFunction,SMDPad,CuDef*
G36*
G01*
X145737600Y-96657500D02*
X145737600Y-96382500D01*
G75*
G02*
X145875100Y-96245000I137500J0D01*
G01*
X147600100Y-96245000D01*
G75*
G02*
X147737600Y-96382500I0J-137500D01*
G01*
X147737600Y-96657500D01*
G75*
G02*
X147600100Y-96795000I-137500J0D01*
G01*
X145875100Y-96795000D01*
G75*
G02*
X145737600Y-96657500I0J137500D01*
G01*
G37*
G04 #@! TD.AperFunction*
G04 #@! TO.P,U1,23*
G04 #@! TO.N,Net-(U1-Pad23)*
G04 #@! TA.AperFunction,SMDPad,CuDef*
G36*
G01*
X145737600Y-97927500D02*
X145737600Y-97652500D01*
G75*
G02*
X145875100Y-97515000I137500J0D01*
G01*
X147600100Y-97515000D01*
G75*
G02*
X147737600Y-97652500I0J-137500D01*
G01*
X147737600Y-97927500D01*
G75*
G02*
X147600100Y-98065000I-137500J0D01*
G01*
X145875100Y-98065000D01*
G75*
G02*
X145737600Y-97927500I0J137500D01*
G01*
G37*
G04 #@! TD.AperFunction*
G04 #@! TO.P,U1,22*
G04 #@! TO.N,N/C*
G04 #@! TA.AperFunction,SMDPad,CuDef*
G36*
G01*
X145737600Y-99197500D02*
X145737600Y-98922500D01*
G75*
G02*
X145875100Y-98785000I137500J0D01*
G01*
X147600100Y-98785000D01*
G75*
G02*
X147737600Y-98922500I0J-137500D01*
G01*
X147737600Y-99197500D01*
G75*
G02*
X147600100Y-99335000I-137500J0D01*
G01*
X145875100Y-99335000D01*
G75*
G02*
X145737600Y-99197500I0J137500D01*
G01*
G37*
G04 #@! TD.AperFunction*
G04 #@! TO.P,U1,21*
G04 #@! TO.N,Net-(U1-Pad21)*
G04 #@! TA.AperFunction,SMDPad,CuDef*
G36*
G01*
X145737600Y-100467500D02*
X145737600Y-100192500D01*
G75*
G02*
X145875100Y-100055000I137500J0D01*
G01*
X147600100Y-100055000D01*
G75*
G02*
X147737600Y-100192500I0J-137500D01*
G01*
X147737600Y-100467500D01*
G75*
G02*
X147600100Y-100605000I-137500J0D01*
G01*
X145875100Y-100605000D01*
G75*
G02*
X145737600Y-100467500I0J137500D01*
G01*
G37*
G04 #@! TD.AperFunction*
G04 #@! TO.P,U1,20*
G04 #@! TO.N,Net-(U1-Pad20)*
G04 #@! TA.AperFunction,SMDPad,CuDef*
G36*
G01*
X145737600Y-101737500D02*
X145737600Y-101462500D01*
G75*
G02*
X145875100Y-101325000I137500J0D01*
G01*
X147600100Y-101325000D01*
G75*
G02*
X147737600Y-101462500I0J-137500D01*
G01*
X147737600Y-101737500D01*
G75*
G02*
X147600100Y-101875000I-137500J0D01*
G01*
X145875100Y-101875000D01*
G75*
G02*
X145737600Y-101737500I0J137500D01*
G01*
G37*
G04 #@! TD.AperFunction*
G04 #@! TO.P,U1,19*
G04 #@! TO.N,Net-(U1-Pad19)*
G04 #@! TA.AperFunction,SMDPad,CuDef*
G36*
G01*
X145737600Y-103007500D02*
X145737600Y-102732500D01*
G75*
G02*
X145875100Y-102595000I137500J0D01*
G01*
X147600100Y-102595000D01*
G75*
G02*
X147737600Y-102732500I0J-137500D01*
G01*
X147737600Y-103007500D01*
G75*
G02*
X147600100Y-103145000I-137500J0D01*
G01*
X145875100Y-103145000D01*
G75*
G02*
X145737600Y-103007500I0J137500D01*
G01*
G37*
G04 #@! TD.AperFunction*
G04 #@! TO.P,U1,18*
G04 #@! TO.N,D7*
G04 #@! TA.AperFunction,SMDPad,CuDef*
G36*
G01*
X145737600Y-104277500D02*
X145737600Y-104002500D01*
G75*
G02*
X145875100Y-103865000I137500J0D01*
G01*
X147600100Y-103865000D01*
G75*
G02*
X147737600Y-104002500I0J-137500D01*
G01*
X147737600Y-104277500D01*
G75*
G02*
X147600100Y-104415000I-137500J0D01*
G01*
X145875100Y-104415000D01*
G75*
G02*
X145737600Y-104277500I0J137500D01*
G01*
G37*
G04 #@! TD.AperFunction*
G04 #@! TO.P,U1,17*
G04 #@! TO.N,D6*
G04 #@! TA.AperFunction,SMDPad,CuDef*
G36*
G01*
X145737600Y-105547500D02*
X145737600Y-105272500D01*
G75*
G02*
X145875100Y-105135000I137500J0D01*
G01*
X147600100Y-105135000D01*
G75*
G02*
X147737600Y-105272500I0J-137500D01*
G01*
X147737600Y-105547500D01*
G75*
G02*
X147600100Y-105685000I-137500J0D01*
G01*
X145875100Y-105685000D01*
G75*
G02*
X145737600Y-105547500I0J137500D01*
G01*
G37*
G04 #@! TD.AperFunction*
G04 #@! TO.P,U1,16*
G04 #@! TO.N,D5*
G04 #@! TA.AperFunction,SMDPad,CuDef*
G36*
G01*
X145737600Y-106817500D02*
X145737600Y-106542500D01*
G75*
G02*
X145875100Y-106405000I137500J0D01*
G01*
X147600100Y-106405000D01*
G75*
G02*
X147737600Y-106542500I0J-137500D01*
G01*
X147737600Y-106817500D01*
G75*
G02*
X147600100Y-106955000I-137500J0D01*
G01*
X145875100Y-106955000D01*
G75*
G02*
X145737600Y-106817500I0J137500D01*
G01*
G37*
G04 #@! TD.AperFunction*
G04 #@! TO.P,U1,15*
G04 #@! TO.N,D4*
G04 #@! TA.AperFunction,SMDPad,CuDef*
G36*
G01*
X145737600Y-108087500D02*
X145737600Y-107812500D01*
G75*
G02*
X145875100Y-107675000I137500J0D01*
G01*
X147600100Y-107675000D01*
G75*
G02*
X147737600Y-107812500I0J-137500D01*
G01*
X147737600Y-108087500D01*
G75*
G02*
X147600100Y-108225000I-137500J0D01*
G01*
X145875100Y-108225000D01*
G75*
G02*
X145737600Y-108087500I0J137500D01*
G01*
G37*
G04 #@! TD.AperFunction*
G04 #@! TO.P,U1,14*
G04 #@! TO.N,D3*
G04 #@! TA.AperFunction,SMDPad,CuDef*
G36*
G01*
X145737600Y-109357500D02*
X145737600Y-109082500D01*
G75*
G02*
X145875100Y-108945000I137500J0D01*
G01*
X147600100Y-108945000D01*
G75*
G02*
X147737600Y-109082500I0J-137500D01*
G01*
X147737600Y-109357500D01*
G75*
G02*
X147600100Y-109495000I-137500J0D01*
G01*
X145875100Y-109495000D01*
G75*
G02*
X145737600Y-109357500I0J137500D01*
G01*
G37*
G04 #@! TD.AperFunction*
G04 #@! TO.P,U1,13*
G04 #@! TO.N,D2*
G04 #@! TA.AperFunction,SMDPad,CuDef*
G36*
G01*
X145737600Y-110627500D02*
X145737600Y-110352500D01*
G75*
G02*
X145875100Y-110215000I137500J0D01*
G01*
X147600100Y-110215000D01*
G75*
G02*
X147737600Y-110352500I0J-137500D01*
G01*
X147737600Y-110627500D01*
G75*
G02*
X147600100Y-110765000I-137500J0D01*
G01*
X145875100Y-110765000D01*
G75*
G02*
X145737600Y-110627500I0J137500D01*
G01*
G37*
G04 #@! TD.AperFunction*
G04 #@! TO.P,U1,12*
G04 #@! TO.N,GND*
G04 #@! TA.AperFunction,SMDPad,CuDef*
G36*
G01*
X136437600Y-110627500D02*
X136437600Y-110352500D01*
G75*
G02*
X136575100Y-110215000I137500J0D01*
G01*
X138300100Y-110215000D01*
G75*
G02*
X138437600Y-110352500I0J-137500D01*
G01*
X138437600Y-110627500D01*
G75*
G02*
X138300100Y-110765000I-137500J0D01*
G01*
X136575100Y-110765000D01*
G75*
G02*
X136437600Y-110627500I0J137500D01*
G01*
G37*
G04 #@! TD.AperFunction*
G04 #@! TO.P,U1,11*
G04 #@! TO.N,D1*
G04 #@! TA.AperFunction,SMDPad,CuDef*
G36*
G01*
X136437600Y-109357500D02*
X136437600Y-109082500D01*
G75*
G02*
X136575100Y-108945000I137500J0D01*
G01*
X138300100Y-108945000D01*
G75*
G02*
X138437600Y-109082500I0J-137500D01*
G01*
X138437600Y-109357500D01*
G75*
G02*
X138300100Y-109495000I-137500J0D01*
G01*
X136575100Y-109495000D01*
G75*
G02*
X136437600Y-109357500I0J137500D01*
G01*
G37*
G04 #@! TD.AperFunction*
G04 #@! TO.P,U1,10*
G04 #@! TO.N,D0*
G04 #@! TA.AperFunction,SMDPad,CuDef*
G36*
G01*
X136437600Y-108087500D02*
X136437600Y-107812500D01*
G75*
G02*
X136575100Y-107675000I137500J0D01*
G01*
X138300100Y-107675000D01*
G75*
G02*
X138437600Y-107812500I0J-137500D01*
G01*
X138437600Y-108087500D01*
G75*
G02*
X138300100Y-108225000I-137500J0D01*
G01*
X136575100Y-108225000D01*
G75*
G02*
X136437600Y-108087500I0J137500D01*
G01*
G37*
G04 #@! TD.AperFunction*
G04 #@! TO.P,U1,9*
G04 #@! TO.N,N/C*
G04 #@! TA.AperFunction,SMDPad,CuDef*
G36*
G01*
X136437600Y-106817500D02*
X136437600Y-106542500D01*
G75*
G02*
X136575100Y-106405000I137500J0D01*
G01*
X138300100Y-106405000D01*
G75*
G02*
X138437600Y-106542500I0J-137500D01*
G01*
X138437600Y-106817500D01*
G75*
G02*
X138300100Y-106955000I-137500J0D01*
G01*
X136575100Y-106955000D01*
G75*
G02*
X136437600Y-106817500I0J137500D01*
G01*
G37*
G04 #@! TD.AperFunction*
G04 #@! TO.P,U1,8*
G04 #@! TO.N,~WR*
G04 #@! TA.AperFunction,SMDPad,CuDef*
G36*
G01*
X136437600Y-105547500D02*
X136437600Y-105272500D01*
G75*
G02*
X136575100Y-105135000I137500J0D01*
G01*
X138300100Y-105135000D01*
G75*
G02*
X138437600Y-105272500I0J-137500D01*
G01*
X138437600Y-105547500D01*
G75*
G02*
X138300100Y-105685000I-137500J0D01*
G01*
X136575100Y-105685000D01*
G75*
G02*
X136437600Y-105547500I0J137500D01*
G01*
G37*
G04 #@! TD.AperFunction*
G04 #@! TO.P,U1,7*
G04 #@! TO.N,+5V*
G04 #@! TA.AperFunction,SMDPad,CuDef*
G36*
G01*
X136437600Y-104277500D02*
X136437600Y-104002500D01*
G75*
G02*
X136575100Y-103865000I137500J0D01*
G01*
X138300100Y-103865000D01*
G75*
G02*
X138437600Y-104002500I0J-137500D01*
G01*
X138437600Y-104277500D01*
G75*
G02*
X138300100Y-104415000I-137500J0D01*
G01*
X136575100Y-104415000D01*
G75*
G02*
X136437600Y-104277500I0J137500D01*
G01*
G37*
G04 #@! TD.AperFunction*
G04 #@! TO.P,U1,6*
G04 #@! TO.N,~WR*
G04 #@! TA.AperFunction,SMDPad,CuDef*
G36*
G01*
X136437600Y-103007500D02*
X136437600Y-102732500D01*
G75*
G02*
X136575100Y-102595000I137500J0D01*
G01*
X138300100Y-102595000D01*
G75*
G02*
X138437600Y-102732500I0J-137500D01*
G01*
X138437600Y-103007500D01*
G75*
G02*
X138300100Y-103145000I-137500J0D01*
G01*
X136575100Y-103145000D01*
G75*
G02*
X136437600Y-103007500I0J137500D01*
G01*
G37*
G04 #@! TD.AperFunction*
G04 #@! TO.P,U1,5*
G04 #@! TO.N,A1*
G04 #@! TA.AperFunction,SMDPad,CuDef*
G36*
G01*
X136437600Y-101737500D02*
X136437600Y-101462500D01*
G75*
G02*
X136575100Y-101325000I137500J0D01*
G01*
X138300100Y-101325000D01*
G75*
G02*
X138437600Y-101462500I0J-137500D01*
G01*
X138437600Y-101737500D01*
G75*
G02*
X138300100Y-101875000I-137500J0D01*
G01*
X136575100Y-101875000D01*
G75*
G02*
X136437600Y-101737500I0J137500D01*
G01*
G37*
G04 #@! TD.AperFunction*
G04 #@! TO.P,U1,4*
G04 #@! TO.N,A0*
G04 #@! TA.AperFunction,SMDPad,CuDef*
G36*
G01*
X136437600Y-100467500D02*
X136437600Y-100192500D01*
G75*
G02*
X136575100Y-100055000I137500J0D01*
G01*
X138300100Y-100055000D01*
G75*
G02*
X138437600Y-100192500I0J-137500D01*
G01*
X138437600Y-100467500D01*
G75*
G02*
X138300100Y-100605000I-137500J0D01*
G01*
X136575100Y-100605000D01*
G75*
G02*
X136437600Y-100467500I0J137500D01*
G01*
G37*
G04 #@! TD.AperFunction*
G04 #@! TO.P,U1,3*
G04 #@! TO.N,~RST*
G04 #@! TA.AperFunction,SMDPad,CuDef*
G36*
G01*
X136437600Y-99197500D02*
X136437600Y-98922500D01*
G75*
G02*
X136575100Y-98785000I137500J0D01*
G01*
X138300100Y-98785000D01*
G75*
G02*
X138437600Y-98922500I0J-137500D01*
G01*
X138437600Y-99197500D01*
G75*
G02*
X138300100Y-99335000I-137500J0D01*
G01*
X136575100Y-99335000D01*
G75*
G02*
X136437600Y-99197500I0J137500D01*
G01*
G37*
G04 #@! TD.AperFunction*
G04 #@! TO.P,U1,2*
G04 #@! TO.N,N/C*
G04 #@! TA.AperFunction,SMDPad,CuDef*
G36*
G01*
X136437600Y-97927500D02*
X136437600Y-97652500D01*
G75*
G02*
X136575100Y-97515000I137500J0D01*
G01*
X138300100Y-97515000D01*
G75*
G02*
X138437600Y-97652500I0J-137500D01*
G01*
X138437600Y-97927500D01*
G75*
G02*
X138300100Y-98065000I-137500J0D01*
G01*
X136575100Y-98065000D01*
G75*
G02*
X136437600Y-97927500I0J137500D01*
G01*
G37*
G04 #@! TD.AperFunction*
G04 #@! TO.P,U1,1*
G04 #@! TO.N,+5V*
G04 #@! TA.AperFunction,SMDPad,CuDef*
G36*
G01*
X136437600Y-96657500D02*
X136437600Y-96382500D01*
G75*
G02*
X136575100Y-96245000I137500J0D01*
G01*
X138300100Y-96245000D01*
G75*
G02*
X138437600Y-96382500I0J-137500D01*
G01*
X138437600Y-96657500D01*
G75*
G02*
X138300100Y-96795000I-137500J0D01*
G01*
X136575100Y-96795000D01*
G75*
G02*
X136437600Y-96657500I0J137500D01*
G01*
G37*
G04 #@! TD.AperFunction*
G04 #@! TD*
G04 #@! TO.P,R8,2*
G04 #@! TO.N,Net-(R5-Pad1)*
G04 #@! TA.AperFunction,SMDPad,CuDef*
G36*
G01*
X166142500Y-108608800D02*
X166142500Y-108408800D01*
G75*
G02*
X166242500Y-108308800I100000J0D01*
G01*
X166502500Y-108308800D01*
G75*
G02*
X166602500Y-108408800I0J-100000D01*
G01*
X166602500Y-108608800D01*
G75*
G02*
X166502500Y-108708800I-100000J0D01*
G01*
X166242500Y-108708800D01*
G75*
G02*
X166142500Y-108608800I0J100000D01*
G01*
G37*
G04 #@! TD.AperFunction*
G04 #@! TO.P,R8,1*
G04 #@! TO.N,Net-(C22-Pad2)*
G04 #@! TA.AperFunction,SMDPad,CuDef*
G36*
G01*
X165502500Y-108608800D02*
X165502500Y-108408800D01*
G75*
G02*
X165602500Y-108308800I100000J0D01*
G01*
X165862500Y-108308800D01*
G75*
G02*
X165962500Y-108408800I0J-100000D01*
G01*
X165962500Y-108608800D01*
G75*
G02*
X165862500Y-108708800I-100000J0D01*
G01*
X165602500Y-108708800D01*
G75*
G02*
X165502500Y-108608800I0J100000D01*
G01*
G37*
G04 #@! TD.AperFunction*
G04 #@! TD*
G04 #@! TO.P,R7,2*
G04 #@! TO.N,Net-(R3-Pad1)*
G04 #@! TA.AperFunction,SMDPad,CuDef*
G36*
G01*
X165469400Y-117219400D02*
X165469400Y-117019400D01*
G75*
G02*
X165569400Y-116919400I100000J0D01*
G01*
X165829400Y-116919400D01*
G75*
G02*
X165929400Y-117019400I0J-100000D01*
G01*
X165929400Y-117219400D01*
G75*
G02*
X165829400Y-117319400I-100000J0D01*
G01*
X165569400Y-117319400D01*
G75*
G02*
X165469400Y-117219400I0J100000D01*
G01*
G37*
G04 #@! TD.AperFunction*
G04 #@! TO.P,R7,1*
G04 #@! TO.N,Net-(C21-Pad2)*
G04 #@! TA.AperFunction,SMDPad,CuDef*
G36*
G01*
X164829400Y-117219400D02*
X164829400Y-117019400D01*
G75*
G02*
X164929400Y-116919400I100000J0D01*
G01*
X165189400Y-116919400D01*
G75*
G02*
X165289400Y-117019400I0J-100000D01*
G01*
X165289400Y-117219400D01*
G75*
G02*
X165189400Y-117319400I-100000J0D01*
G01*
X164929400Y-117319400D01*
G75*
G02*
X164829400Y-117219400I0J100000D01*
G01*
G37*
G04 #@! TD.AperFunction*
G04 #@! TD*
G04 #@! TO.P,R5,2*
G04 #@! TO.N,GND*
G04 #@! TA.AperFunction,SMDPad,CuDef*
G36*
G01*
X167653800Y-108608800D02*
X167653800Y-108408800D01*
G75*
G02*
X167753800Y-108308800I100000J0D01*
G01*
X168013800Y-108308800D01*
G75*
G02*
X168113800Y-108408800I0J-100000D01*
G01*
X168113800Y-108608800D01*
G75*
G02*
X168013800Y-108708800I-100000J0D01*
G01*
X167753800Y-108708800D01*
G75*
G02*
X167653800Y-108608800I0J100000D01*
G01*
G37*
G04 #@! TD.AperFunction*
G04 #@! TO.P,R5,1*
G04 #@! TO.N,Net-(R5-Pad1)*
G04 #@! TA.AperFunction,SMDPad,CuDef*
G36*
G01*
X167013800Y-108608800D02*
X167013800Y-108408800D01*
G75*
G02*
X167113800Y-108308800I100000J0D01*
G01*
X167373800Y-108308800D01*
G75*
G02*
X167473800Y-108408800I0J-100000D01*
G01*
X167473800Y-108608800D01*
G75*
G02*
X167373800Y-108708800I-100000J0D01*
G01*
X167113800Y-108708800D01*
G75*
G02*
X167013800Y-108608800I0J100000D01*
G01*
G37*
G04 #@! TD.AperFunction*
G04 #@! TD*
G04 #@! TO.P,R3,2*
G04 #@! TO.N,GND*
G04 #@! TA.AperFunction,SMDPad,CuDef*
G36*
G01*
X166980700Y-117219400D02*
X166980700Y-117019400D01*
G75*
G02*
X167080700Y-116919400I100000J0D01*
G01*
X167340700Y-116919400D01*
G75*
G02*
X167440700Y-117019400I0J-100000D01*
G01*
X167440700Y-117219400D01*
G75*
G02*
X167340700Y-117319400I-100000J0D01*
G01*
X167080700Y-117319400D01*
G75*
G02*
X166980700Y-117219400I0J100000D01*
G01*
G37*
G04 #@! TD.AperFunction*
G04 #@! TO.P,R3,1*
G04 #@! TO.N,Net-(R3-Pad1)*
G04 #@! TA.AperFunction,SMDPad,CuDef*
G36*
G01*
X166340700Y-117219400D02*
X166340700Y-117019400D01*
G75*
G02*
X166440700Y-116919400I100000J0D01*
G01*
X166700700Y-116919400D01*
G75*
G02*
X166800700Y-117019400I0J-100000D01*
G01*
X166800700Y-117219400D01*
G75*
G02*
X166700700Y-117319400I-100000J0D01*
G01*
X166440700Y-117319400D01*
G75*
G02*
X166340700Y-117219400I0J100000D01*
G01*
G37*
G04 #@! TD.AperFunction*
G04 #@! TD*
D14*
G04 #@! TO.P,J2,S*
G04 #@! TO.N,GND*
X169696000Y-100866000D03*
D15*
G04 #@! TO.P,J2,R*
G04 #@! TO.N,Net-(J2-PadR)*
X161696000Y-106066000D03*
G04 #@! TO.P,J2,RN*
G04 #@! TO.N,N/C*
X162896000Y-103366000D03*
D14*
G04 #@! TO.P,J2,TN*
X158496000Y-96766000D03*
D16*
G04 #@! TO.P,J2,T*
G04 #@! TO.N,Net-(J2-PadT)*
X165796000Y-96266000D03*
G04 #@! TD*
D17*
G04 #@! TO.P,J1,8*
G04 #@! TO.N,A1*
X132168900Y-114376200D03*
G04 #@! TO.P,J1,7*
G04 #@! TO.N,~RST*
X132168900Y-111836200D03*
G04 #@! TO.P,J1,6*
G04 #@! TO.N,Net-(J1-Pad6)*
X132168900Y-109296200D03*
G04 #@! TO.P,J1,5*
G04 #@! TO.N,~WR*
X132168900Y-106756200D03*
G04 #@! TO.P,J1,4*
G04 #@! TO.N,Net-(J1-Pad4)*
X132168900Y-104216200D03*
G04 #@! TO.P,J1,3*
G04 #@! TO.N,A0*
X132168900Y-101676200D03*
G04 #@! TO.P,J1,2*
G04 #@! TO.N,GND*
X132168900Y-99136200D03*
D18*
G04 #@! TO.P,J1,1*
G04 #@! TO.N,+5V*
X132168900Y-96596200D03*
G04 #@! TD*
D10*
G04 #@! TO.P,C17,2*
G04 #@! TO.N,GND*
X135917300Y-94322900D03*
D11*
G04 #@! TO.P,C17,1*
G04 #@! TO.N,Net-(C17-Pad1)*
X138417300Y-94322900D03*
G04 #@! TD*
G04 #@! TO.P,C13,2*
G04 #@! TO.N,GND*
G04 #@! TA.AperFunction,SMDPad,CuDef*
G36*
G01*
X159660800Y-117476600D02*
X159660800Y-117676600D01*
G75*
G02*
X159560800Y-117776600I-100000J0D01*
G01*
X159300800Y-117776600D01*
G75*
G02*
X159200800Y-117676600I0J100000D01*
G01*
X159200800Y-117476600D01*
G75*
G02*
X159300800Y-117376600I100000J0D01*
G01*
X159560800Y-117376600D01*
G75*
G02*
X159660800Y-117476600I0J-100000D01*
G01*
G37*
G04 #@! TD.AperFunction*
G04 #@! TO.P,C13,1*
G04 #@! TO.N,+5V*
G04 #@! TA.AperFunction,SMDPad,CuDef*
G36*
G01*
X160300800Y-117476600D02*
X160300800Y-117676600D01*
G75*
G02*
X160200800Y-117776600I-100000J0D01*
G01*
X159940800Y-117776600D01*
G75*
G02*
X159840800Y-117676600I0J100000D01*
G01*
X159840800Y-117476600D01*
G75*
G02*
X159940800Y-117376600I100000J0D01*
G01*
X160200800Y-117376600D01*
G75*
G02*
X160300800Y-117476600I0J-100000D01*
G01*
G37*
G04 #@! TD.AperFunction*
G04 #@! TD*
D10*
G04 #@! TO.P,C12,2*
G04 #@! TO.N,GND*
X154811100Y-93141800D03*
D11*
G04 #@! TO.P,C12,1*
G04 #@! TO.N,+5V*
X152311100Y-93141800D03*
G04 #@! TD*
D10*
G04 #@! TO.P,C11,2*
G04 #@! TO.N,GND*
X127052700Y-96583500D03*
D11*
G04 #@! TO.P,C11,1*
G04 #@! TO.N,+5V*
X129552700Y-96583500D03*
G04 #@! TD*
D10*
G04 #@! TO.P,C10,2*
G04 #@! TO.N,GND*
X173619800Y-93103700D03*
D11*
G04 #@! TO.P,C10,1*
G04 #@! TO.N,+5V*
X171119800Y-93103700D03*
G04 #@! TD*
D10*
G04 #@! TO.P,C9,2*
G04 #@! TO.N,GND*
X126989200Y-118059200D03*
D11*
G04 #@! TO.P,C9,1*
G04 #@! TO.N,+5V*
X129489200Y-118059200D03*
G04 #@! TD*
D10*
G04 #@! TO.P,C8,2*
G04 #@! TO.N,GND*
X136601200Y-118021100D03*
D11*
G04 #@! TO.P,C8,1*
G04 #@! TO.N,+5V*
X134101200Y-118021100D03*
G04 #@! TD*
D10*
G04 #@! TO.P,C7,2*
G04 #@! TO.N,GND*
X155255600Y-119024400D03*
D11*
G04 #@! TO.P,C7,1*
G04 #@! TO.N,+5V*
X152755600Y-119024400D03*
G04 #@! TD*
G04 #@! TO.P,C6,2*
G04 #@! TO.N,GND*
G04 #@! TA.AperFunction,SMDPad,CuDef*
G36*
G01*
X134535100Y-100705800D02*
X135035100Y-100705800D01*
G75*
G02*
X135260100Y-100930800I0J-225000D01*
G01*
X135260100Y-101380800D01*
G75*
G02*
X135035100Y-101605800I-225000J0D01*
G01*
X134535100Y-101605800D01*
G75*
G02*
X134310100Y-101380800I0J225000D01*
G01*
X134310100Y-100930800D01*
G75*
G02*
X134535100Y-100705800I225000J0D01*
G01*
G37*
G04 #@! TD.AperFunction*
G04 #@! TO.P,C6,1*
G04 #@! TO.N,+5V*
G04 #@! TA.AperFunction,SMDPad,CuDef*
G36*
G01*
X134535100Y-99155800D02*
X135035100Y-99155800D01*
G75*
G02*
X135260100Y-99380800I0J-225000D01*
G01*
X135260100Y-99830800D01*
G75*
G02*
X135035100Y-100055800I-225000J0D01*
G01*
X134535100Y-100055800D01*
G75*
G02*
X134310100Y-99830800I0J225000D01*
G01*
X134310100Y-99380800D01*
G75*
G02*
X134535100Y-99155800I225000J0D01*
G01*
G37*
G04 #@! TD.AperFunction*
G04 #@! TD*
G04 #@! TO.P,C4,2*
G04 #@! TO.N,GND*
G04 #@! TA.AperFunction,SMDPad,CuDef*
G36*
G01*
X135863000Y-96125200D02*
X135663000Y-96125200D01*
G75*
G02*
X135563000Y-96025200I0J100000D01*
G01*
X135563000Y-95765200D01*
G75*
G02*
X135663000Y-95665200I100000J0D01*
G01*
X135863000Y-95665200D01*
G75*
G02*
X135963000Y-95765200I0J-100000D01*
G01*
X135963000Y-96025200D01*
G75*
G02*
X135863000Y-96125200I-100000J0D01*
G01*
G37*
G04 #@! TD.AperFunction*
G04 #@! TO.P,C4,1*
G04 #@! TO.N,+5V*
G04 #@! TA.AperFunction,SMDPad,CuDef*
G36*
G01*
X135863000Y-96765200D02*
X135663000Y-96765200D01*
G75*
G02*
X135563000Y-96665200I0J100000D01*
G01*
X135563000Y-96405200D01*
G75*
G02*
X135663000Y-96305200I100000J0D01*
G01*
X135863000Y-96305200D01*
G75*
G02*
X135963000Y-96405200I0J-100000D01*
G01*
X135963000Y-96665200D01*
G75*
G02*
X135863000Y-96765200I-100000J0D01*
G01*
G37*
G04 #@! TD.AperFunction*
G04 #@! TD*
G04 #@! TO.P,C3,2*
G04 #@! TO.N,GND*
G04 #@! TA.AperFunction,SMDPad,CuDef*
G36*
G01*
X135663000Y-97778400D02*
X135863000Y-97778400D01*
G75*
G02*
X135963000Y-97878400I0J-100000D01*
G01*
X135963000Y-98138400D01*
G75*
G02*
X135863000Y-98238400I-100000J0D01*
G01*
X135663000Y-98238400D01*
G75*
G02*
X135563000Y-98138400I0J100000D01*
G01*
X135563000Y-97878400D01*
G75*
G02*
X135663000Y-97778400I100000J0D01*
G01*
G37*
G04 #@! TD.AperFunction*
G04 #@! TO.P,C3,1*
G04 #@! TO.N,+5V*
G04 #@! TA.AperFunction,SMDPad,CuDef*
G36*
G01*
X135663000Y-97138400D02*
X135863000Y-97138400D01*
G75*
G02*
X135963000Y-97238400I0J-100000D01*
G01*
X135963000Y-97498400D01*
G75*
G02*
X135863000Y-97598400I-100000J0D01*
G01*
X135663000Y-97598400D01*
G75*
G02*
X135563000Y-97498400I0J100000D01*
G01*
X135563000Y-97238400D01*
G75*
G02*
X135663000Y-97138400I100000J0D01*
G01*
G37*
G04 #@! TD.AperFunction*
G04 #@! TD*
G04 #@! TO.P,C2,2*
G04 #@! TO.N,GND*
G04 #@! TA.AperFunction,SMDPad,CuDef*
G36*
G01*
X135624400Y-119518100D02*
X135624400Y-119318100D01*
G75*
G02*
X135724400Y-119218100I100000J0D01*
G01*
X135984400Y-119218100D01*
G75*
G02*
X136084400Y-119318100I0J-100000D01*
G01*
X136084400Y-119518100D01*
G75*
G02*
X135984400Y-119618100I-100000J0D01*
G01*
X135724400Y-119618100D01*
G75*
G02*
X135624400Y-119518100I0J100000D01*
G01*
G37*
G04 #@! TD.AperFunction*
G04 #@! TO.P,C2,1*
G04 #@! TO.N,+5V*
G04 #@! TA.AperFunction,SMDPad,CuDef*
G36*
G01*
X134984400Y-119518100D02*
X134984400Y-119318100D01*
G75*
G02*
X135084400Y-119218100I100000J0D01*
G01*
X135344400Y-119218100D01*
G75*
G02*
X135444400Y-119318100I0J-100000D01*
G01*
X135444400Y-119518100D01*
G75*
G02*
X135344400Y-119618100I-100000J0D01*
G01*
X135084400Y-119618100D01*
G75*
G02*
X134984400Y-119518100I0J100000D01*
G01*
G37*
G04 #@! TD.AperFunction*
G04 #@! TD*
D19*
G04 #@! TO.N,GND*
X149123400Y-97764600D03*
X150291800Y-107721400D03*
X167513000Y-107696000D03*
X160070800Y-108686600D03*
X134785100Y-101155800D03*
X139623800Y-107975400D03*
X142443200Y-98196400D03*
G04 #@! TO.N,+5V*
X155384500Y-111715300D03*
X150342600Y-96494600D03*
X147574000Y-119100600D03*
X139966700Y-119086700D03*
G04 #@! TO.N,Net-(C15-Pad1)*
X155562300Y-102870000D03*
X159334200Y-106968713D03*
G04 #@! TO.N,Net-(C16-Pad2)*
X155586500Y-104114600D03*
X160669872Y-107761315D03*
G04 #@! TO.N,Net-(C18-Pad2)*
X155586500Y-100304600D03*
X157886537Y-102616000D03*
G04 #@! TO.N,Net-(C19-Pad1)*
X166367619Y-114575538D03*
G04 #@! TO.N,Net-(C20-Pad1)*
X159510186Y-111358468D03*
X167005000Y-111340900D03*
X164211000Y-111353600D03*
G04 #@! TO.N,Net-(C21-Pad2)*
X165836600Y-100457000D03*
G04 #@! TO.N,Net-(C22-Pad2)*
X165757221Y-107846781D03*
G04 #@! TO.N,Net-(J1-Pad6)*
X141236700Y-119086700D03*
G04 #@! TO.N,~WR*
X135864600Y-112755500D03*
G04 #@! TO.N,Net-(J1-Pad4)*
X145046700Y-119086700D03*
G04 #@! TO.N,A0*
X137437600Y-100330000D03*
G04 #@! TO.N,Net-(R1-Pad2)*
X155586500Y-101574600D03*
G04 #@! TO.N,Net-(R1-Pad1)*
X161671000Y-115714700D03*
G04 #@! TO.N,Net-(R12-Pad1)*
X161995400Y-109989700D03*
G04 #@! TO.N,Net-(R11-Pad2)*
X158295400Y-109989700D03*
G04 #@! TO.N,Net-(U1-Pad24)*
X150291800Y-111709200D03*
X146737600Y-96395000D03*
G04 #@! TO.N,Net-(U1-Pad23)*
X149086500Y-101494580D03*
X147462610Y-97845020D03*
G04 #@! TO.N,Net-(U1-Pad20)*
X149086500Y-105384600D03*
X147462610Y-101544980D03*
G04 #@! TO.N,D1*
X147586700Y-112586700D03*
X138176000Y-109220000D03*
G04 #@! TO.N,D0*
X146316700Y-119086700D03*
X137437600Y-107894980D03*
G04 #@! TD*
D20*
G04 #@! TO.N,GND*
X159430800Y-117576600D02*
X159430800Y-118511400D01*
X167210700Y-117119400D02*
X168071800Y-117119400D01*
X134914600Y-113535500D02*
X134914600Y-112755500D01*
X134989601Y-113610501D02*
X134914600Y-113535500D01*
X134264599Y-115684499D02*
X136601200Y-118021100D01*
X134264599Y-114165499D02*
X134264599Y-115684499D01*
X134819597Y-113610501D02*
X134264599Y-114165499D01*
X134989601Y-113610501D02*
X134819597Y-113610501D01*
X135763000Y-94477200D02*
X135917300Y-94322900D01*
X135763000Y-95895200D02*
X135763000Y-94477200D01*
X135585110Y-100355790D02*
X134785100Y-101155800D01*
X135585110Y-99891991D02*
X135585110Y-100355790D01*
X135763000Y-99714101D02*
X135585110Y-99891991D01*
X135763000Y-98008400D02*
X135763000Y-99714101D01*
X167883800Y-108066800D02*
X167513000Y-107696000D01*
X167883800Y-108508800D02*
X167883800Y-108066800D01*
X134914600Y-112755500D02*
X134914600Y-113167200D01*
X136286202Y-118021100D02*
X136601200Y-118021100D01*
X134035800Y-115770698D02*
X136286202Y-118021100D01*
X134035800Y-114046000D02*
X134035800Y-115770698D01*
X138682601Y-112572601D02*
X138696700Y-112586700D01*
X160045400Y-108712000D02*
X160070800Y-108686600D01*
X160045400Y-109989700D02*
X160045400Y-108712000D01*
X134795300Y-113535500D02*
X134670800Y-113411000D01*
X134914600Y-113535500D02*
X134795300Y-113535500D01*
X134670800Y-113411000D02*
X134035800Y-114046000D01*
X134914600Y-113167200D02*
X134670800Y-113411000D01*
X134989601Y-113610501D02*
X137399601Y-113610501D01*
X137437600Y-110490000D02*
X137464800Y-110517200D01*
X134785100Y-101155800D02*
X134785100Y-101155800D01*
X136601200Y-118671300D02*
X135854400Y-119418100D01*
X136601200Y-118021100D02*
X136601200Y-118671300D01*
X167210700Y-115679100D02*
X167213200Y-115676600D01*
X167210700Y-117119400D02*
X167210700Y-115679100D01*
X167213200Y-115676600D02*
X168381600Y-115676600D01*
X167014800Y-115676600D02*
X167213200Y-115676600D01*
X134914600Y-112755500D02*
X134914600Y-112837000D01*
X134914600Y-112755500D02*
X134792900Y-112755500D01*
X134914600Y-112755500D02*
X134589700Y-112755500D01*
X134589700Y-112755500D02*
X133553200Y-113792000D01*
D21*
X134914600Y-112755500D02*
X134894500Y-112755500D01*
X134894500Y-112755500D02*
X133756400Y-113893600D01*
X137712600Y-110765000D02*
X137712600Y-113297502D01*
X138696700Y-112586700D02*
X138619300Y-112586700D01*
D20*
X137464800Y-113545302D02*
X137399601Y-113610501D01*
D21*
X138595100Y-113703100D02*
X139446000Y-114554000D01*
X138595289Y-113525489D02*
X138696700Y-113626900D01*
X137589601Y-113525489D02*
X138595289Y-113525489D01*
X138696700Y-113626900D02*
X138696700Y-113703100D01*
X138696700Y-112586700D02*
X138696700Y-113626900D01*
X138696700Y-112586700D02*
X138696700Y-110477300D01*
X139166600Y-113715800D02*
X139192000Y-113741200D01*
X139166600Y-110007400D02*
X139166600Y-113715800D01*
X139192000Y-113741200D02*
X139801600Y-114350800D01*
X138950700Y-113499900D02*
X139192000Y-113741200D01*
X138569700Y-110439200D02*
X139039600Y-109969300D01*
X139166600Y-110007400D02*
X139598400Y-109575600D01*
D20*
G04 #@! TO.N,+5V*
X139966700Y-118107600D02*
X139966700Y-119086700D01*
X136814600Y-114955500D02*
X139966700Y-118107600D01*
X135763000Y-96535200D02*
X135763000Y-97368400D01*
X157819352Y-116777210D02*
X159720390Y-116777210D01*
X137821688Y-104140000D02*
X137437600Y-104140000D01*
X138762610Y-103199078D02*
X137821688Y-104140000D01*
X138437600Y-96520000D02*
X138762610Y-96845010D01*
X137437600Y-96520000D02*
X138437600Y-96520000D01*
X160370410Y-116777210D02*
X162271448Y-116777210D01*
X134088500Y-118033800D02*
X134101200Y-118021100D01*
X132168900Y-96596200D02*
X131914900Y-96596200D01*
X132120000Y-96547300D02*
X132168900Y-96596200D01*
X152693300Y-119086700D02*
X152755600Y-119024400D01*
X160071510Y-116777210D02*
X162271448Y-116777210D01*
X159720390Y-116777210D02*
X160071510Y-116777210D01*
X157810200Y-116786362D02*
X157819352Y-116777210D01*
X134867400Y-119071100D02*
X135214400Y-119418100D01*
X134101200Y-118304900D02*
X134867400Y-119071100D01*
X134101200Y-118021100D02*
X134101200Y-118304900D01*
X149086500Y-96494600D02*
X148461090Y-97120010D01*
D21*
X134063100Y-118059200D02*
X134101200Y-118021100D01*
X132168900Y-96596200D02*
X129565400Y-96596200D01*
X149886500Y-99034600D02*
X150368000Y-98553100D01*
X149086500Y-99034600D02*
X149886500Y-99034600D01*
X150368000Y-98553100D02*
X150368000Y-97307400D01*
X150368000Y-96520000D02*
X150342600Y-96494600D01*
X150368000Y-97307400D02*
X150368000Y-96520000D01*
X149086500Y-96494600D02*
X150342600Y-96494600D01*
X149465044Y-102844600D02*
X149086500Y-102844600D01*
X150368000Y-101941644D02*
X149465044Y-102844600D01*
X150368000Y-98553100D02*
X150368000Y-101941644D01*
X138437600Y-96520000D02*
X138912600Y-96995000D01*
X137998466Y-104140000D02*
X137437600Y-104140000D01*
X138912600Y-103225866D02*
X137998466Y-104140000D01*
X138912600Y-96995000D02*
X138912600Y-103225866D01*
X139037610Y-97120010D02*
X138912600Y-96995000D01*
X145399190Y-97120010D02*
X139037610Y-97120010D01*
X148566510Y-97014590D02*
X148228630Y-97014590D01*
X149086500Y-96494600D02*
X148566510Y-97014590D01*
X148228630Y-97014590D02*
X148073876Y-97014590D01*
D20*
X138762610Y-96845010D02*
X138762610Y-97127190D01*
X138769790Y-97120010D02*
X138762610Y-97127190D01*
X138762610Y-97127190D02*
X138762610Y-103199078D01*
D21*
X135702000Y-96596200D02*
X135722990Y-96575210D01*
X132168900Y-96596200D02*
X135702000Y-96596200D01*
X137361400Y-96596200D02*
X132168900Y-96596200D01*
X137437600Y-96520000D02*
X137361400Y-96596200D01*
X136243566Y-96520000D02*
X137437600Y-96520000D01*
X134785100Y-97978466D02*
X136243566Y-96520000D01*
X134785100Y-99605800D02*
X134785100Y-97978466D01*
X147586700Y-119087900D02*
X147574000Y-119100600D01*
X147586700Y-119086700D02*
X147586700Y-119087900D01*
X152755600Y-119024400D02*
X153130924Y-119024400D01*
X153362620Y-119024400D02*
X155484810Y-116902210D01*
X152755600Y-119024400D02*
X153362620Y-119024400D01*
X155484810Y-111815610D02*
X155384500Y-111715300D01*
X155484810Y-116902210D02*
X155484810Y-111815610D01*
X155384500Y-111715300D02*
X155384500Y-107715300D01*
X160045400Y-116862820D02*
X160006010Y-116902210D01*
X160045400Y-115714700D02*
X160045400Y-116862820D01*
X155484810Y-116902210D02*
X160006010Y-116902210D01*
D20*
X160070800Y-116777920D02*
X160071510Y-116777210D01*
X160070800Y-117576600D02*
X160070800Y-116777920D01*
D21*
X162323224Y-116902210D02*
X164489789Y-114735645D01*
X160006010Y-116902210D02*
X162323224Y-116902210D01*
X164489789Y-114735645D02*
X164490421Y-114735645D01*
X165064800Y-114161266D02*
X165064800Y-109951600D01*
X164490421Y-114735645D02*
X165064800Y-114161266D01*
X155586500Y-107513300D02*
X155384500Y-107715300D01*
X155586500Y-105384600D02*
X155586500Y-107513300D01*
D20*
X148123210Y-97120010D02*
X148228630Y-97014590D01*
X145399190Y-97120010D02*
X148123210Y-97120010D01*
D21*
X171119800Y-93103700D02*
X169907510Y-94315990D01*
X169907510Y-94315990D02*
X155380812Y-94315990D01*
X155380812Y-94315990D02*
X155305001Y-94391801D01*
X155305001Y-94391801D02*
X154473666Y-94391801D01*
X154473666Y-94391801D02*
X154454054Y-94372189D01*
X154454054Y-94372189D02*
X153541489Y-94372189D01*
X153541489Y-94372189D02*
X152311100Y-93141800D01*
D20*
G04 #@! TO.N,Net-(C15-Pad1)*
X159294998Y-109889298D02*
X159395400Y-109989700D01*
X159396075Y-106968713D02*
X159294998Y-107069790D01*
X159294998Y-107069790D02*
X159294998Y-109889298D01*
G04 #@! TO.N,Net-(C16-Pad2)*
X160795802Y-107887245D02*
X160669872Y-107761315D01*
X160795802Y-109889298D02*
X160795802Y-107887245D01*
G04 #@! TO.N,Net-(C17-Pad1)*
X156386500Y-96494600D02*
X155586500Y-96494600D01*
X157161521Y-108948610D02*
X157161521Y-98177447D01*
X157120379Y-108989752D02*
X157161521Y-108948610D01*
X157012737Y-97120837D02*
X156386500Y-96494600D01*
X157161521Y-98177447D02*
X157012737Y-98028663D01*
X157120379Y-112702179D02*
X157120379Y-108989752D01*
X159395400Y-115714700D02*
X159395400Y-114977200D01*
X157012737Y-98028663D02*
X157012737Y-97120837D01*
X159395400Y-114977200D02*
X157120379Y-112702179D01*
D21*
X139166600Y-95072200D02*
X154164100Y-95072200D01*
X154164100Y-95072200D02*
X155586500Y-96494600D01*
X138417300Y-94322900D02*
X139166600Y-95072200D01*
D20*
G04 #@! TO.N,Net-(C18-Pad2)*
X157570390Y-109176152D02*
X157886400Y-108860142D01*
X157570390Y-111852190D02*
X157570390Y-109176152D01*
X160695400Y-114977200D02*
X157570390Y-111852190D01*
X160695400Y-115714700D02*
X160695400Y-114977200D01*
X157886400Y-102616137D02*
X157886537Y-102616000D01*
X157886400Y-108860142D02*
X157886400Y-102616137D01*
G04 #@! TO.N,Net-(C19-Pad1)*
X166364800Y-114578357D02*
X166367619Y-114575538D01*
X166364800Y-115676600D02*
X166364800Y-114578357D01*
G04 #@! TO.N,Net-(C20-Pad1)*
X167005000Y-109961400D02*
X167014800Y-109951600D01*
D21*
X167014800Y-111331100D02*
X167005000Y-111340900D01*
X167014800Y-109951600D02*
X167014800Y-111331100D01*
X164206132Y-111358468D02*
X164211000Y-111353600D01*
X159510186Y-111358468D02*
X164206132Y-111358468D01*
D20*
G04 #@! TO.N,Net-(C21-Pad2)*
X168438810Y-103059210D02*
X165836600Y-100457000D01*
X168438810Y-110935790D02*
X168438810Y-103059210D01*
X165639811Y-113734789D02*
X168438810Y-110935790D01*
X165639811Y-114399443D02*
X165639811Y-113734789D01*
X165064800Y-114974454D02*
X165639811Y-114399443D01*
X165064800Y-115676600D02*
X165064800Y-114974454D01*
X165064800Y-117114000D02*
X165059400Y-117119400D01*
X165064800Y-115676600D02*
X165064800Y-117114000D01*
G04 #@! TO.N,Net-(C22-Pad2)*
X165714800Y-108526500D02*
X165732500Y-108508800D01*
X165714800Y-109951600D02*
X165714800Y-108526500D01*
X165732500Y-107871502D02*
X165757221Y-107846781D01*
X165732500Y-108508800D02*
X165732500Y-107871502D01*
G04 #@! TO.N,A1*
X132168900Y-114160300D02*
X132168900Y-114376200D01*
X135641512Y-103645590D02*
X135641512Y-110687688D01*
X136112590Y-103174512D02*
X135641512Y-103645590D01*
X135641512Y-110687688D02*
X132168900Y-114160300D01*
X136112590Y-101925010D02*
X136112590Y-103174512D01*
X136437600Y-101600000D02*
X136112590Y-101925010D01*
X137437600Y-101600000D02*
X136437600Y-101600000D01*
G04 #@! TO.N,~RST*
X134950201Y-109054899D02*
X132168900Y-111836200D01*
X135191501Y-108813599D02*
X134950201Y-109054899D01*
X135191501Y-103459190D02*
X135191501Y-108813599D01*
X135661401Y-102989290D02*
X135191501Y-103459190D01*
X135661401Y-101739789D02*
X135661401Y-102989290D01*
X136035121Y-101366069D02*
X135661401Y-101739789D01*
X136035121Y-100078390D02*
X136035121Y-101366069D01*
X137053511Y-99060000D02*
X136035121Y-100078390D01*
X137437600Y-99060000D02*
X137053511Y-99060000D01*
G04 #@! TO.N,~WR*
X135662579Y-112553479D02*
X135864600Y-112755500D01*
X136091522Y-112528578D02*
X135864600Y-112755500D01*
X136118600Y-105410000D02*
X136091522Y-105437078D01*
X137437600Y-105410000D02*
X136118600Y-105410000D01*
X136091522Y-105437078D02*
X136091522Y-112528578D01*
X136112590Y-105416010D02*
X136091522Y-105437078D01*
X137053512Y-102870000D02*
X136112590Y-103810922D01*
X136112590Y-103810922D02*
X136112590Y-105416010D01*
X137437600Y-102870000D02*
X137053512Y-102870000D01*
G04 #@! TO.N,Net-(J1-Pad4)*
X132168900Y-104216200D02*
X132168900Y-104051100D01*
G04 #@! TO.N,Net-(R1-Pad1)*
X161995400Y-115714700D02*
X161345400Y-115714700D01*
G04 #@! TO.N,Net-(R12-Pad1)*
X161345400Y-109989700D02*
X161995400Y-109989700D01*
G04 #@! TO.N,Net-(R3-Pad1)*
X166578400Y-117111700D02*
X166570700Y-117119400D01*
X165699400Y-115692000D02*
X165714800Y-115676600D01*
X165699400Y-117119400D02*
X165699400Y-115692000D01*
X166570700Y-117119400D02*
X165699400Y-117119400D01*
G04 #@! TO.N,Net-(R11-Pad2)*
X158745400Y-109989700D02*
X158295400Y-109989700D01*
G04 #@! TO.N,Net-(R5-Pad1)*
X166364800Y-108516500D02*
X166372500Y-108508800D01*
X166364800Y-109951600D02*
X166364800Y-108516500D01*
X166372500Y-108508800D02*
X167243800Y-108508800D01*
G04 #@! TO.N,Net-(U1-Pad24)*
X150297900Y-111715300D02*
X150291800Y-111709200D01*
X150304500Y-111715300D02*
X150297900Y-111715300D01*
G04 #@! TO.N,Net-(U1-Pad23)*
X149086500Y-101574600D02*
X149086500Y-101574600D01*
X146737600Y-97790000D02*
X146737600Y-97790000D01*
G04 #@! TO.N,Net-(U1-Pad21)*
X149061100Y-100330000D02*
X149086500Y-100304600D01*
X146737600Y-100330000D02*
X149061100Y-100330000D01*
G04 #@! TO.N,Net-(U1-Pad20)*
X146737600Y-101600000D02*
X147407590Y-101600000D01*
X147407590Y-101600000D02*
X147462610Y-101544980D01*
G04 #@! TO.N,Net-(U1-Pad19)*
X148441510Y-103469610D02*
X149086500Y-104114600D01*
X147337210Y-103469610D02*
X148441510Y-103469610D01*
X146737600Y-102870000D02*
X147337210Y-103469610D01*
G04 #@! TO.N,D7*
X146353512Y-104140000D02*
X146737600Y-104140000D01*
X139966700Y-110526812D02*
X146353512Y-104140000D01*
X139966700Y-112586700D02*
X139966700Y-110526812D01*
G04 #@! TO.N,D6*
X146353512Y-105410000D02*
X146737600Y-105410000D01*
X141236700Y-110526812D02*
X146353512Y-105410000D01*
X141236700Y-112586700D02*
X141236700Y-110526812D01*
G04 #@! TO.N,D5*
X142506700Y-110526812D02*
X146353512Y-106680000D01*
X146353512Y-106680000D02*
X146737600Y-106680000D01*
X142506700Y-112586700D02*
X142506700Y-110526812D01*
G04 #@! TO.N,D4*
X146353512Y-107950000D02*
X146737600Y-107950000D01*
X143776700Y-110526812D02*
X146353512Y-107950000D01*
X143776700Y-112586700D02*
X143776700Y-110526812D01*
G04 #@! TO.N,D3*
X146353512Y-109220000D02*
X146737600Y-109220000D01*
X145046700Y-110526812D02*
X146353512Y-109220000D01*
X145046700Y-112586700D02*
X145046700Y-110526812D01*
G04 #@! TO.N,D2*
X146316700Y-110910900D02*
X146737600Y-110490000D01*
X146316700Y-112586700D02*
X146316700Y-110910900D01*
G04 #@! TO.N,D1*
X147586700Y-112586700D02*
X147586700Y-112586700D01*
X147586700Y-112586700D02*
X147586700Y-112788468D01*
X137437600Y-109220000D02*
X138176000Y-109220000D01*
G04 #@! TO.N,D0*
X137437600Y-107950000D02*
X137437600Y-107950000D01*
X137382580Y-107950000D02*
X137437600Y-107894980D01*
X137053512Y-107950000D02*
X137382580Y-107950000D01*
G04 #@! TO.N,Net-(U2-Pad14)*
X158545400Y-115514700D02*
X158745400Y-115714700D01*
X158095400Y-115107000D02*
X158116550Y-115085850D01*
X158095400Y-115714700D02*
X158095400Y-115107000D01*
X158116550Y-115085850D02*
X158545400Y-115514700D01*
X156670368Y-113639668D02*
X156770350Y-113739650D01*
X156670368Y-108803352D02*
X156670368Y-113639668D01*
X156711510Y-108762210D02*
X156670368Y-108803352D01*
X156711510Y-99359610D02*
X156711510Y-108762210D01*
X156386500Y-99034600D02*
X156711510Y-99359610D01*
X156770350Y-113739650D02*
X158116550Y-115085850D01*
X155586500Y-99034600D02*
X156386500Y-99034600D01*
G04 #@! TO.N,RCLK*
X142506700Y-118884932D02*
X142506700Y-119086700D01*
X137722267Y-114100499D02*
X142506700Y-118884932D01*
X135769601Y-114100499D02*
X137722267Y-114100499D01*
X134914600Y-114955500D02*
X135769601Y-114100499D01*
G04 #@! TD*
D22*
G04 #@! TO.N,GND*
X175743401Y-122962200D02*
X125043400Y-122962200D01*
X125043400Y-119051902D01*
X126176103Y-119051902D01*
X126247686Y-119295871D01*
X126503196Y-119416771D01*
X126777384Y-119485500D01*
X127059712Y-119499417D01*
X127339330Y-119457987D01*
X127605492Y-119362803D01*
X127730714Y-119295871D01*
X127802297Y-119051902D01*
X126989200Y-118238805D01*
X126176103Y-119051902D01*
X125043400Y-119051902D01*
X125043400Y-118129712D01*
X125548983Y-118129712D01*
X125590413Y-118409330D01*
X125685597Y-118675492D01*
X125752529Y-118800714D01*
X125996498Y-118872297D01*
X126809595Y-118059200D01*
X127168805Y-118059200D01*
X127981902Y-118872297D01*
X128051128Y-118851985D01*
X128051128Y-118859200D01*
X128063388Y-118983682D01*
X128099698Y-119103380D01*
X128158663Y-119213694D01*
X128238015Y-119310385D01*
X128334706Y-119389737D01*
X128445020Y-119448702D01*
X128564718Y-119485012D01*
X128689200Y-119497272D01*
X130289200Y-119497272D01*
X130413682Y-119485012D01*
X130533380Y-119448702D01*
X130643694Y-119389737D01*
X130740385Y-119310385D01*
X130819737Y-119213694D01*
X130878702Y-119103380D01*
X130915012Y-118983682D01*
X130927272Y-118859200D01*
X130927272Y-117259200D01*
X130923520Y-117221100D01*
X132663128Y-117221100D01*
X132663128Y-118821100D01*
X132675388Y-118945582D01*
X132711698Y-119065280D01*
X132770663Y-119175594D01*
X132850015Y-119272285D01*
X132946706Y-119351637D01*
X133057020Y-119410602D01*
X133176718Y-119446912D01*
X133301200Y-119459172D01*
X134180669Y-119459172D01*
X134356396Y-119634899D01*
X134356407Y-119634908D01*
X134357988Y-119636489D01*
X134360510Y-119662091D01*
X134402510Y-119800548D01*
X134470716Y-119928151D01*
X134562504Y-120039996D01*
X134674349Y-120131784D01*
X134801952Y-120199990D01*
X134940409Y-120241990D01*
X135084400Y-120256172D01*
X135344400Y-120256172D01*
X135488391Y-120241990D01*
X135493284Y-120240506D01*
X135518109Y-120247257D01*
X135592650Y-120253100D01*
X135667477Y-120178273D01*
X135754451Y-120131784D01*
X135866296Y-120039996D01*
X135957400Y-119928984D01*
X135957400Y-120094350D01*
X136116150Y-120253100D01*
X136190691Y-120247257D01*
X136311391Y-120214431D01*
X136423368Y-120158689D01*
X136522319Y-120082172D01*
X136604440Y-119987822D01*
X136662320Y-119886700D01*
X137758628Y-119886700D01*
X137770888Y-120011182D01*
X137807198Y-120130880D01*
X137866163Y-120241194D01*
X137945515Y-120337885D01*
X138042206Y-120417237D01*
X138152520Y-120476202D01*
X138272218Y-120512512D01*
X138396700Y-120524772D01*
X138410950Y-120521700D01*
X138569700Y-120362950D01*
X138569700Y-119213700D01*
X137920450Y-119213700D01*
X137761700Y-119372450D01*
X137758628Y-119886700D01*
X136662320Y-119886700D01*
X136666577Y-119879263D01*
X136706341Y-119760667D01*
X136719400Y-119649850D01*
X136614652Y-119545102D01*
X136719400Y-119545102D01*
X136719400Y-119454251D01*
X136951330Y-119419887D01*
X137217492Y-119324703D01*
X137342714Y-119257771D01*
X137414297Y-119013802D01*
X136601200Y-118200705D01*
X136587058Y-118214848D01*
X136407453Y-118035243D01*
X136421595Y-118021100D01*
X135608498Y-117208003D01*
X135539272Y-117228315D01*
X135539272Y-117221100D01*
X135527012Y-117096618D01*
X135506318Y-117028398D01*
X135788103Y-117028398D01*
X136601200Y-117841495D01*
X137414297Y-117028398D01*
X137342714Y-116784429D01*
X137087204Y-116663529D01*
X136813016Y-116594800D01*
X136530688Y-116580883D01*
X136251070Y-116622313D01*
X135984908Y-116717497D01*
X135859686Y-116784429D01*
X135788103Y-117028398D01*
X135506318Y-117028398D01*
X135490702Y-116976920D01*
X135431737Y-116866606D01*
X135352385Y-116769915D01*
X135255694Y-116690563D01*
X135145380Y-116631598D01*
X135025682Y-116595288D01*
X134901200Y-116583028D01*
X133301200Y-116583028D01*
X133176718Y-116595288D01*
X133057020Y-116631598D01*
X132946706Y-116690563D01*
X132850015Y-116769915D01*
X132770663Y-116866606D01*
X132711698Y-116976920D01*
X132675388Y-117096618D01*
X132663128Y-117221100D01*
X130923520Y-117221100D01*
X130915012Y-117134718D01*
X130878702Y-117015020D01*
X130819737Y-116904706D01*
X130740385Y-116808015D01*
X130643694Y-116728663D01*
X130533380Y-116669698D01*
X130413682Y-116633388D01*
X130289200Y-116621128D01*
X128689200Y-116621128D01*
X128564718Y-116633388D01*
X128445020Y-116669698D01*
X128334706Y-116728663D01*
X128238015Y-116808015D01*
X128158663Y-116904706D01*
X128099698Y-117015020D01*
X128063388Y-117134718D01*
X128051128Y-117259200D01*
X128051128Y-117266415D01*
X127981902Y-117246103D01*
X127168805Y-118059200D01*
X126809595Y-118059200D01*
X125996498Y-117246103D01*
X125752529Y-117317686D01*
X125631629Y-117573196D01*
X125562900Y-117847384D01*
X125548983Y-118129712D01*
X125043400Y-118129712D01*
X125043400Y-117066498D01*
X126176103Y-117066498D01*
X126989200Y-117879595D01*
X127802297Y-117066498D01*
X127730714Y-116822529D01*
X127475204Y-116701629D01*
X127201016Y-116632900D01*
X126918688Y-116618983D01*
X126639070Y-116660413D01*
X126372908Y-116755597D01*
X126247686Y-116822529D01*
X126176103Y-117066498D01*
X125043400Y-117066498D01*
X125043400Y-97576202D01*
X126239603Y-97576202D01*
X126311186Y-97820171D01*
X126566696Y-97941071D01*
X126840884Y-98009800D01*
X127123212Y-98023717D01*
X127402830Y-97982287D01*
X127668992Y-97887103D01*
X127794214Y-97820171D01*
X127865797Y-97576202D01*
X127052700Y-96763105D01*
X126239603Y-97576202D01*
X125043400Y-97576202D01*
X125043400Y-96654012D01*
X125612483Y-96654012D01*
X125653913Y-96933630D01*
X125749097Y-97199792D01*
X125816029Y-97325014D01*
X126059998Y-97396597D01*
X126873095Y-96583500D01*
X127232305Y-96583500D01*
X128045402Y-97396597D01*
X128114628Y-97376285D01*
X128114628Y-97383500D01*
X128126888Y-97507982D01*
X128163198Y-97627680D01*
X128222163Y-97737994D01*
X128301515Y-97834685D01*
X128398206Y-97914037D01*
X128508520Y-97973002D01*
X128628218Y-98009312D01*
X128752700Y-98021572D01*
X130352700Y-98021572D01*
X130477182Y-98009312D01*
X130596880Y-97973002D01*
X130707194Y-97914037D01*
X130803885Y-97834685D01*
X130810072Y-97827146D01*
X130867715Y-97897385D01*
X130964406Y-97976737D01*
X131074720Y-98035702D01*
X131155366Y-98060166D01*
X131071312Y-98135931D01*
X130897259Y-98369280D01*
X130772075Y-98632101D01*
X130727424Y-98779310D01*
X130848745Y-99009200D01*
X132041900Y-99009200D01*
X132041900Y-98989200D01*
X132295900Y-98989200D01*
X132295900Y-99009200D01*
X133489055Y-99009200D01*
X133610376Y-98779310D01*
X133565725Y-98632101D01*
X133440541Y-98369280D01*
X133266488Y-98135931D01*
X133182434Y-98060166D01*
X133263080Y-98035702D01*
X133373394Y-97976737D01*
X133470085Y-97897385D01*
X133549437Y-97800694D01*
X133608402Y-97690380D01*
X133644712Y-97570682D01*
X133653525Y-97481200D01*
X134048322Y-97481200D01*
X134045690Y-97484407D01*
X133963512Y-97638153D01*
X133912905Y-97804976D01*
X133895819Y-97978466D01*
X133900101Y-98021945D01*
X133900100Y-98800632D01*
X133817482Y-98901303D01*
X133737725Y-99050517D01*
X133688612Y-99212423D01*
X133672028Y-99380800D01*
X133672028Y-99830800D01*
X133688612Y-99999177D01*
X133737725Y-100161083D01*
X133815800Y-100307151D01*
X133779563Y-100351306D01*
X133720598Y-100461620D01*
X133684288Y-100581318D01*
X133672028Y-100705800D01*
X133675100Y-100870050D01*
X133833850Y-101028800D01*
X134658100Y-101028800D01*
X134658100Y-101008800D01*
X134912100Y-101008800D01*
X134912100Y-101028800D01*
X134932100Y-101028800D01*
X134932100Y-101282800D01*
X134912100Y-101282800D01*
X134912100Y-101593830D01*
X134901401Y-101702457D01*
X134901401Y-101702467D01*
X134897725Y-101739789D01*
X134901401Y-101777112D01*
X134901402Y-102674488D01*
X134680504Y-102895386D01*
X134651500Y-102919189D01*
X134619151Y-102958607D01*
X134556527Y-103034914D01*
X134491731Y-103156138D01*
X134485955Y-103166944D01*
X134442498Y-103310205D01*
X134431501Y-103421858D01*
X134431501Y-103421868D01*
X134427825Y-103459190D01*
X134431501Y-103496513D01*
X134431502Y-108498796D01*
X133653900Y-109276398D01*
X133653900Y-109149940D01*
X133596832Y-108863042D01*
X133484890Y-108592789D01*
X133322375Y-108349568D01*
X133115532Y-108142725D01*
X132941140Y-108026200D01*
X133115532Y-107909675D01*
X133322375Y-107702832D01*
X133484890Y-107459611D01*
X133596832Y-107189358D01*
X133653900Y-106902460D01*
X133653900Y-106609940D01*
X133596832Y-106323042D01*
X133484890Y-106052789D01*
X133322375Y-105809568D01*
X133115532Y-105602725D01*
X132941140Y-105486200D01*
X133115532Y-105369675D01*
X133322375Y-105162832D01*
X133484890Y-104919611D01*
X133596832Y-104649358D01*
X133653900Y-104362460D01*
X133653900Y-104069940D01*
X133596832Y-103783042D01*
X133484890Y-103512789D01*
X133322375Y-103269568D01*
X133115532Y-103062725D01*
X132941140Y-102946200D01*
X133115532Y-102829675D01*
X133322375Y-102622832D01*
X133484890Y-102379611D01*
X133596832Y-102109358D01*
X133653900Y-101822460D01*
X133653900Y-101605800D01*
X133672028Y-101605800D01*
X133684288Y-101730282D01*
X133720598Y-101849980D01*
X133779563Y-101960294D01*
X133858915Y-102056985D01*
X133955606Y-102136337D01*
X134065920Y-102195302D01*
X134185618Y-102231612D01*
X134310100Y-102243872D01*
X134499350Y-102240800D01*
X134658100Y-102082050D01*
X134658100Y-101282800D01*
X133833850Y-101282800D01*
X133675100Y-101441550D01*
X133672028Y-101605800D01*
X133653900Y-101605800D01*
X133653900Y-101529940D01*
X133596832Y-101243042D01*
X133484890Y-100972789D01*
X133322375Y-100729568D01*
X133115532Y-100522725D01*
X132933366Y-100401005D01*
X133050255Y-100331378D01*
X133266488Y-100136469D01*
X133440541Y-99903120D01*
X133565725Y-99640299D01*
X133610376Y-99493090D01*
X133489055Y-99263200D01*
X132295900Y-99263200D01*
X132295900Y-99283200D01*
X132041900Y-99283200D01*
X132041900Y-99263200D01*
X130848745Y-99263200D01*
X130727424Y-99493090D01*
X130772075Y-99640299D01*
X130897259Y-99903120D01*
X131071312Y-100136469D01*
X131287545Y-100331378D01*
X131404434Y-100401005D01*
X131222268Y-100522725D01*
X131015425Y-100729568D01*
X130852910Y-100972789D01*
X130740968Y-101243042D01*
X130683900Y-101529940D01*
X130683900Y-101822460D01*
X130740968Y-102109358D01*
X130852910Y-102379611D01*
X131015425Y-102622832D01*
X131222268Y-102829675D01*
X131396660Y-102946200D01*
X131222268Y-103062725D01*
X131015425Y-103269568D01*
X130852910Y-103512789D01*
X130740968Y-103783042D01*
X130683900Y-104069940D01*
X130683900Y-104362460D01*
X130740968Y-104649358D01*
X130852910Y-104919611D01*
X131015425Y-105162832D01*
X131222268Y-105369675D01*
X131396660Y-105486200D01*
X131222268Y-105602725D01*
X131015425Y-105809568D01*
X130852910Y-106052789D01*
X130740968Y-106323042D01*
X130683900Y-106609940D01*
X130683900Y-106902460D01*
X130740968Y-107189358D01*
X130852910Y-107459611D01*
X131015425Y-107702832D01*
X131222268Y-107909675D01*
X131396660Y-108026200D01*
X131222268Y-108142725D01*
X131015425Y-108349568D01*
X130852910Y-108592789D01*
X130740968Y-108863042D01*
X130683900Y-109149940D01*
X130683900Y-109442460D01*
X130740968Y-109729358D01*
X130852910Y-109999611D01*
X131015425Y-110242832D01*
X131222268Y-110449675D01*
X131396660Y-110566200D01*
X131222268Y-110682725D01*
X131015425Y-110889568D01*
X130852910Y-111132789D01*
X130740968Y-111403042D01*
X130683900Y-111689940D01*
X130683900Y-111982460D01*
X130740968Y-112269358D01*
X130852910Y-112539611D01*
X131015425Y-112782832D01*
X131222268Y-112989675D01*
X131396660Y-113106200D01*
X131222268Y-113222725D01*
X131015425Y-113429568D01*
X130852910Y-113672789D01*
X130740968Y-113943042D01*
X130683900Y-114229940D01*
X130683900Y-114522460D01*
X130740968Y-114809358D01*
X130852910Y-115079611D01*
X131015425Y-115322832D01*
X131222268Y-115529675D01*
X131465489Y-115692190D01*
X131735742Y-115804132D01*
X132022640Y-115861200D01*
X132315160Y-115861200D01*
X132602058Y-115804132D01*
X132872311Y-115692190D01*
X133115532Y-115529675D01*
X133322375Y-115322832D01*
X133484890Y-115079611D01*
X133596832Y-114809358D01*
X133653900Y-114522460D01*
X133653900Y-114229940D01*
X133596832Y-113943042D01*
X133557036Y-113846965D01*
X133970824Y-113433177D01*
X134000098Y-113529680D01*
X134059063Y-113639994D01*
X134138415Y-113736685D01*
X134235106Y-113816037D01*
X134308935Y-113855500D01*
X134235106Y-113894963D01*
X134138415Y-113974315D01*
X134059063Y-114071006D01*
X134000098Y-114181320D01*
X133963788Y-114301018D01*
X133951528Y-114425500D01*
X133951528Y-115485500D01*
X133963788Y-115609982D01*
X134000098Y-115729680D01*
X134059063Y-115839994D01*
X134138415Y-115936685D01*
X134235106Y-116016037D01*
X134345420Y-116075002D01*
X134465118Y-116111312D01*
X134589600Y-116123572D01*
X135239600Y-116123572D01*
X135364082Y-116111312D01*
X135483780Y-116075002D01*
X135594094Y-116016037D01*
X135690785Y-115936685D01*
X135770137Y-115839994D01*
X135829102Y-115729680D01*
X135864600Y-115612659D01*
X135900098Y-115729680D01*
X135959063Y-115839994D01*
X136038415Y-115936685D01*
X136135106Y-116016037D01*
X136245420Y-116075002D01*
X136365118Y-116111312D01*
X136489600Y-116123572D01*
X136907871Y-116123572D01*
X138569698Y-117785400D01*
X138569698Y-117810448D01*
X138410950Y-117651700D01*
X138396700Y-117648628D01*
X138272218Y-117660888D01*
X138152520Y-117697198D01*
X138042206Y-117756163D01*
X138015818Y-117777819D01*
X137999987Y-117670970D01*
X137904803Y-117404808D01*
X137837871Y-117279586D01*
X137593902Y-117208003D01*
X136780805Y-118021100D01*
X137593902Y-118834197D01*
X137761605Y-118784991D01*
X137761700Y-118800950D01*
X137920450Y-118959700D01*
X138569700Y-118959700D01*
X138569700Y-118939700D01*
X138823700Y-118939700D01*
X138823700Y-118959700D01*
X138843700Y-118959700D01*
X138843700Y-119213700D01*
X138823700Y-119213700D01*
X138823700Y-120362950D01*
X138982450Y-120521700D01*
X138996700Y-120524772D01*
X139121182Y-120512512D01*
X139240880Y-120476202D01*
X139351194Y-120417237D01*
X139380764Y-120392970D01*
X139515118Y-120464784D01*
X139662955Y-120509629D01*
X139816700Y-120524772D01*
X140116700Y-120524772D01*
X140270445Y-120509629D01*
X140418282Y-120464784D01*
X140554529Y-120391958D01*
X140601700Y-120353246D01*
X140648871Y-120391958D01*
X140785118Y-120464784D01*
X140932955Y-120509629D01*
X141086700Y-120524772D01*
X141386700Y-120524772D01*
X141540445Y-120509629D01*
X141688282Y-120464784D01*
X141824529Y-120391958D01*
X141871700Y-120353246D01*
X141918871Y-120391958D01*
X142055118Y-120464784D01*
X142202955Y-120509629D01*
X142356700Y-120524772D01*
X142656700Y-120524772D01*
X142810445Y-120509629D01*
X142958282Y-120464784D01*
X143092636Y-120392970D01*
X143122206Y-120417237D01*
X143232520Y-120476202D01*
X143352218Y-120512512D01*
X143476700Y-120524772D01*
X143490950Y-120521700D01*
X143649700Y-120362950D01*
X143649700Y-119213700D01*
X143629700Y-119213700D01*
X143629700Y-118959700D01*
X143649700Y-118959700D01*
X143649700Y-117810450D01*
X143903700Y-117810450D01*
X143903700Y-118959700D01*
X143923700Y-118959700D01*
X143923700Y-119213700D01*
X143903700Y-119213700D01*
X143903700Y-120362950D01*
X144062450Y-120521700D01*
X144076700Y-120524772D01*
X144201182Y-120512512D01*
X144320880Y-120476202D01*
X144431194Y-120417237D01*
X144460764Y-120392970D01*
X144595118Y-120464784D01*
X144742955Y-120509629D01*
X144896700Y-120524772D01*
X145196700Y-120524772D01*
X145350445Y-120509629D01*
X145498282Y-120464784D01*
X145634529Y-120391958D01*
X145681700Y-120353246D01*
X145728871Y-120391958D01*
X145865118Y-120464784D01*
X146012955Y-120509629D01*
X146166700Y-120524772D01*
X146466700Y-120524772D01*
X146620445Y-120509629D01*
X146768282Y-120464784D01*
X146904529Y-120391958D01*
X146951700Y-120353246D01*
X146998871Y-120391958D01*
X147135118Y-120464784D01*
X147282955Y-120509629D01*
X147436700Y-120524772D01*
X147736700Y-120524772D01*
X147890445Y-120509629D01*
X148038282Y-120464784D01*
X148174529Y-120391958D01*
X148293951Y-120293951D01*
X148391958Y-120174529D01*
X148464784Y-120038282D01*
X148509629Y-119890445D01*
X148524772Y-119736700D01*
X148524772Y-119509819D01*
X148569226Y-119402498D01*
X148609000Y-119202539D01*
X148609000Y-118998661D01*
X148569226Y-118798702D01*
X148524772Y-118691381D01*
X148524772Y-118436700D01*
X148509629Y-118282955D01*
X148464784Y-118135118D01*
X148391958Y-117998871D01*
X148293951Y-117879449D01*
X148174529Y-117781442D01*
X148038282Y-117708616D01*
X147890445Y-117663771D01*
X147736700Y-117648628D01*
X147436700Y-117648628D01*
X147282955Y-117663771D01*
X147135118Y-117708616D01*
X146998871Y-117781442D01*
X146951700Y-117820154D01*
X146904529Y-117781442D01*
X146768282Y-117708616D01*
X146620445Y-117663771D01*
X146466700Y-117648628D01*
X146166700Y-117648628D01*
X146012955Y-117663771D01*
X145865118Y-117708616D01*
X145728871Y-117781442D01*
X145681700Y-117820154D01*
X145634529Y-117781442D01*
X145498282Y-117708616D01*
X145350445Y-117663771D01*
X145196700Y-117648628D01*
X144896700Y-117648628D01*
X144742955Y-117663771D01*
X144595118Y-117708616D01*
X144460764Y-117780430D01*
X144431194Y-117756163D01*
X144320880Y-117697198D01*
X144201182Y-117660888D01*
X144076700Y-117648628D01*
X144062450Y-117651700D01*
X143903700Y-117810450D01*
X143649700Y-117810450D01*
X143490950Y-117651700D01*
X143476700Y-117648628D01*
X143352218Y-117660888D01*
X143232520Y-117697198D01*
X143122206Y-117756163D01*
X143092636Y-117780430D01*
X142958282Y-117708616D01*
X142810445Y-117663771D01*
X142656700Y-117648628D01*
X142356700Y-117648628D01*
X142346229Y-117649659D01*
X138718270Y-114021700D01*
X138823702Y-114021700D01*
X138823702Y-113862952D01*
X138982450Y-114021700D01*
X138996700Y-114024772D01*
X139121182Y-114012512D01*
X139240880Y-113976202D01*
X139351194Y-113917237D01*
X139380764Y-113892970D01*
X139515118Y-113964784D01*
X139662955Y-114009629D01*
X139816700Y-114024772D01*
X140116700Y-114024772D01*
X140270445Y-114009629D01*
X140418282Y-113964784D01*
X140554529Y-113891958D01*
X140601700Y-113853246D01*
X140648871Y-113891958D01*
X140785118Y-113964784D01*
X140932955Y-114009629D01*
X141086700Y-114024772D01*
X141386700Y-114024772D01*
X141540445Y-114009629D01*
X141688282Y-113964784D01*
X141824529Y-113891958D01*
X141871700Y-113853246D01*
X141918871Y-113891958D01*
X142055118Y-113964784D01*
X142202955Y-114009629D01*
X142356700Y-114024772D01*
X142656700Y-114024772D01*
X142810445Y-114009629D01*
X142958282Y-113964784D01*
X143094529Y-113891958D01*
X143141700Y-113853246D01*
X143188871Y-113891958D01*
X143325118Y-113964784D01*
X143472955Y-114009629D01*
X143626700Y-114024772D01*
X143926700Y-114024772D01*
X144080445Y-114009629D01*
X144228282Y-113964784D01*
X144364529Y-113891958D01*
X144411700Y-113853246D01*
X144458871Y-113891958D01*
X144595118Y-113964784D01*
X144742955Y-114009629D01*
X144896700Y-114024772D01*
X145196700Y-114024772D01*
X145350445Y-114009629D01*
X145498282Y-113964784D01*
X145634529Y-113891958D01*
X145681700Y-113853246D01*
X145728871Y-113891958D01*
X145865118Y-113964784D01*
X146012955Y-114009629D01*
X146166700Y-114024772D01*
X146466700Y-114024772D01*
X146620445Y-114009629D01*
X146768282Y-113964784D01*
X146904529Y-113891958D01*
X146951700Y-113853246D01*
X146998871Y-113891958D01*
X147135118Y-113964784D01*
X147282955Y-114009629D01*
X147436700Y-114024772D01*
X147736700Y-114024772D01*
X147890445Y-114009629D01*
X148038282Y-113964784D01*
X148174529Y-113891958D01*
X148293951Y-113793951D01*
X148391958Y-113674529D01*
X148464784Y-113538282D01*
X148509629Y-113390445D01*
X148524772Y-113236700D01*
X148524772Y-113026579D01*
X148581926Y-112888598D01*
X148621700Y-112688639D01*
X148621700Y-112484761D01*
X148581926Y-112284802D01*
X148524772Y-112146821D01*
X148524772Y-111936700D01*
X148509629Y-111782955D01*
X148464784Y-111635118D01*
X148391958Y-111498871D01*
X148293951Y-111379449D01*
X148174529Y-111281442D01*
X148080903Y-111231398D01*
X148148512Y-111175912D01*
X148244965Y-111058385D01*
X148316635Y-110924299D01*
X148360770Y-110778807D01*
X148367024Y-110715300D01*
X148766428Y-110715300D01*
X148766428Y-112715300D01*
X148778688Y-112839782D01*
X148814998Y-112959480D01*
X148873963Y-113069794D01*
X148953315Y-113166485D01*
X149050006Y-113245837D01*
X149160320Y-113304802D01*
X149280018Y-113341112D01*
X149404500Y-113353372D01*
X151204500Y-113353372D01*
X151328982Y-113341112D01*
X151448680Y-113304802D01*
X151558994Y-113245837D01*
X151655685Y-113166485D01*
X151735037Y-113069794D01*
X151794002Y-112959480D01*
X151830312Y-112839782D01*
X151842572Y-112715300D01*
X151842572Y-110715300D01*
X151830312Y-110590818D01*
X151794002Y-110471120D01*
X151735037Y-110360806D01*
X151655685Y-110264115D01*
X151558994Y-110184763D01*
X151448680Y-110125798D01*
X151328982Y-110089488D01*
X151204500Y-110077228D01*
X149404500Y-110077228D01*
X149280018Y-110089488D01*
X149160320Y-110125798D01*
X149050006Y-110184763D01*
X148953315Y-110264115D01*
X148873963Y-110360806D01*
X148814998Y-110471120D01*
X148778688Y-110590818D01*
X148766428Y-110715300D01*
X148367024Y-110715300D01*
X148375672Y-110627500D01*
X148375672Y-110352500D01*
X148360770Y-110201193D01*
X148316635Y-110055701D01*
X148244965Y-109921615D01*
X148190295Y-109855000D01*
X148244965Y-109788385D01*
X148316635Y-109654299D01*
X148360770Y-109508807D01*
X148375672Y-109357500D01*
X148375672Y-109082500D01*
X148360770Y-108931193D01*
X148316635Y-108785701D01*
X148279006Y-108715300D01*
X148766428Y-108715300D01*
X148778688Y-108839782D01*
X148814998Y-108959480D01*
X148873963Y-109069794D01*
X148953315Y-109166485D01*
X149050006Y-109245837D01*
X149160320Y-109304802D01*
X149280018Y-109341112D01*
X149404500Y-109353372D01*
X150018750Y-109350300D01*
X150177500Y-109191550D01*
X150177500Y-107842300D01*
X150431500Y-107842300D01*
X150431500Y-109191550D01*
X150590250Y-109350300D01*
X151204500Y-109353372D01*
X151328982Y-109341112D01*
X151448680Y-109304802D01*
X151558994Y-109245837D01*
X151655685Y-109166485D01*
X151735037Y-109069794D01*
X151794002Y-108959480D01*
X151830312Y-108839782D01*
X151842572Y-108715300D01*
X151839500Y-108001050D01*
X151680750Y-107842300D01*
X150431500Y-107842300D01*
X150177500Y-107842300D01*
X148928250Y-107842300D01*
X148769500Y-108001050D01*
X148766428Y-108715300D01*
X148279006Y-108715300D01*
X148244965Y-108651615D01*
X148190295Y-108585000D01*
X148244965Y-108518385D01*
X148316635Y-108384299D01*
X148360770Y-108238807D01*
X148375672Y-108087500D01*
X148375672Y-107812500D01*
X148360770Y-107661193D01*
X148316635Y-107515701D01*
X148244965Y-107381615D01*
X148190295Y-107315000D01*
X148244965Y-107248385D01*
X148316635Y-107114299D01*
X148360770Y-106968807D01*
X148375672Y-106817500D01*
X148375672Y-106542500D01*
X148360770Y-106391193D01*
X148337012Y-106312873D01*
X148436500Y-106322672D01*
X148646621Y-106322672D01*
X148784602Y-106379826D01*
X148856186Y-106394065D01*
X148814998Y-106471120D01*
X148778688Y-106590818D01*
X148766428Y-106715300D01*
X148769500Y-107429550D01*
X148928250Y-107588300D01*
X150177500Y-107588300D01*
X150177500Y-106239050D01*
X150431500Y-106239050D01*
X150431500Y-107588300D01*
X151680750Y-107588300D01*
X151839500Y-107429550D01*
X151842572Y-106715300D01*
X151830312Y-106590818D01*
X151794002Y-106471120D01*
X151735037Y-106360806D01*
X151655685Y-106264115D01*
X151558994Y-106184763D01*
X151448680Y-106125798D01*
X151328982Y-106089488D01*
X151204500Y-106077228D01*
X150590250Y-106080300D01*
X150431500Y-106239050D01*
X150177500Y-106239050D01*
X150144338Y-106205888D01*
X150174329Y-106189858D01*
X150293751Y-106091851D01*
X150391758Y-105972429D01*
X150464584Y-105836182D01*
X150509429Y-105688345D01*
X150524572Y-105534600D01*
X150524572Y-105234600D01*
X150509429Y-105080855D01*
X150464584Y-104933018D01*
X150391758Y-104796771D01*
X150353046Y-104749600D01*
X150391758Y-104702429D01*
X150464584Y-104566182D01*
X150509429Y-104418345D01*
X150524572Y-104264600D01*
X150524572Y-103964600D01*
X150509429Y-103810855D01*
X150464584Y-103663018D01*
X150391758Y-103526771D01*
X150353046Y-103479600D01*
X150391758Y-103432429D01*
X150464584Y-103296182D01*
X150509429Y-103148345D01*
X150519978Y-103041245D01*
X150963049Y-102598174D01*
X150996817Y-102570461D01*
X151030368Y-102529580D01*
X151107411Y-102435703D01*
X151189589Y-102281958D01*
X151240195Y-102115134D01*
X151246393Y-102052201D01*
X151253000Y-101985121D01*
X151253000Y-101985113D01*
X151257281Y-101941644D01*
X151253000Y-101898175D01*
X151253000Y-98596569D01*
X151257281Y-98553100D01*
X151253000Y-98509631D01*
X151253000Y-96995040D01*
X151259805Y-96984856D01*
X151337826Y-96796498D01*
X151377600Y-96596539D01*
X151377600Y-96392661D01*
X151337826Y-96192702D01*
X151259805Y-96004344D01*
X151228304Y-95957200D01*
X153797522Y-95957200D01*
X154151700Y-96311379D01*
X154148428Y-96344600D01*
X154148428Y-96644600D01*
X154163571Y-96798345D01*
X154208416Y-96946182D01*
X154281242Y-97082429D01*
X154319954Y-97129600D01*
X154281242Y-97176771D01*
X154208416Y-97313018D01*
X154163571Y-97460855D01*
X154148428Y-97614600D01*
X154148428Y-97914600D01*
X154163571Y-98068345D01*
X154208416Y-98216182D01*
X154281242Y-98352429D01*
X154319954Y-98399600D01*
X154281242Y-98446771D01*
X154208416Y-98583018D01*
X154163571Y-98730855D01*
X154148428Y-98884600D01*
X154148428Y-99184600D01*
X154163571Y-99338345D01*
X154208416Y-99486182D01*
X154281242Y-99622429D01*
X154319954Y-99669600D01*
X154281242Y-99716771D01*
X154208416Y-99853018D01*
X154163571Y-100000855D01*
X154148428Y-100154600D01*
X154148428Y-100454600D01*
X154163571Y-100608345D01*
X154208416Y-100756182D01*
X154281242Y-100892429D01*
X154319954Y-100939600D01*
X154281242Y-100986771D01*
X154208416Y-101123018D01*
X154163571Y-101270855D01*
X154148428Y-101424600D01*
X154148428Y-101724600D01*
X154163571Y-101878345D01*
X154208416Y-102026182D01*
X154281242Y-102162429D01*
X154319954Y-102209600D01*
X154281242Y-102256771D01*
X154208416Y-102393018D01*
X154163571Y-102540855D01*
X154148428Y-102694600D01*
X154148428Y-102994600D01*
X154163571Y-103148345D01*
X154208416Y-103296182D01*
X154281242Y-103432429D01*
X154319954Y-103479600D01*
X154281242Y-103526771D01*
X154208416Y-103663018D01*
X154163571Y-103810855D01*
X154148428Y-103964600D01*
X154148428Y-104264600D01*
X154163571Y-104418345D01*
X154208416Y-104566182D01*
X154281242Y-104702429D01*
X154319954Y-104749600D01*
X154281242Y-104796771D01*
X154208416Y-104933018D01*
X154163571Y-105080855D01*
X154148428Y-105234600D01*
X154148428Y-105534600D01*
X154163571Y-105688345D01*
X154208416Y-105836182D01*
X154281242Y-105972429D01*
X154376017Y-106087912D01*
X154360018Y-106089488D01*
X154240320Y-106125798D01*
X154130006Y-106184763D01*
X154033315Y-106264115D01*
X153953963Y-106360806D01*
X153894998Y-106471120D01*
X153858688Y-106590818D01*
X153846428Y-106715300D01*
X153846428Y-108715300D01*
X153858688Y-108839782D01*
X153894998Y-108959480D01*
X153953963Y-109069794D01*
X154033315Y-109166485D01*
X154130006Y-109245837D01*
X154240320Y-109304802D01*
X154360018Y-109341112D01*
X154484500Y-109353372D01*
X154499501Y-109353372D01*
X154499500Y-110077228D01*
X154484500Y-110077228D01*
X154360018Y-110089488D01*
X154240320Y-110125798D01*
X154130006Y-110184763D01*
X154033315Y-110264115D01*
X153953963Y-110360806D01*
X153894998Y-110471120D01*
X153858688Y-110590818D01*
X153846428Y-110715300D01*
X153846428Y-112715300D01*
X153858688Y-112839782D01*
X153894998Y-112959480D01*
X153953963Y-113069794D01*
X154033315Y-113166485D01*
X154130006Y-113245837D01*
X154240320Y-113304802D01*
X154360018Y-113341112D01*
X154484500Y-113353372D01*
X154599811Y-113353372D01*
X154599810Y-116535631D01*
X153549114Y-117586328D01*
X151955600Y-117586328D01*
X151831118Y-117598588D01*
X151711420Y-117634898D01*
X151601106Y-117693863D01*
X151504415Y-117773215D01*
X151425063Y-117869906D01*
X151366098Y-117980220D01*
X151329788Y-118099918D01*
X151317528Y-118224400D01*
X151317528Y-119824400D01*
X151329788Y-119948882D01*
X151366098Y-120068580D01*
X151425063Y-120178894D01*
X151504415Y-120275585D01*
X151601106Y-120354937D01*
X151711420Y-120413902D01*
X151831118Y-120450212D01*
X151955600Y-120462472D01*
X153555600Y-120462472D01*
X153680082Y-120450212D01*
X153799780Y-120413902D01*
X153910094Y-120354937D01*
X154006785Y-120275585D01*
X154086137Y-120178894D01*
X154145102Y-120068580D01*
X154160717Y-120017102D01*
X154442503Y-120017102D01*
X154514086Y-120261071D01*
X154769596Y-120381971D01*
X155043784Y-120450700D01*
X155326112Y-120464617D01*
X155605730Y-120423187D01*
X155871892Y-120328003D01*
X155997114Y-120261071D01*
X156068697Y-120017102D01*
X155255600Y-119204005D01*
X154442503Y-120017102D01*
X154160717Y-120017102D01*
X154181412Y-119948882D01*
X154193672Y-119824400D01*
X154193672Y-119817185D01*
X154262898Y-119837497D01*
X155075995Y-119024400D01*
X155435205Y-119024400D01*
X156248302Y-119837497D01*
X156492271Y-119765914D01*
X156613171Y-119510404D01*
X156681900Y-119236216D01*
X156695817Y-118953888D01*
X156654387Y-118674270D01*
X156559203Y-118408108D01*
X156492271Y-118282886D01*
X156248302Y-118211303D01*
X155435205Y-119024400D01*
X155075995Y-119024400D01*
X155061853Y-119010258D01*
X155241458Y-118830653D01*
X155255600Y-118844795D01*
X156068697Y-118031698D01*
X155997114Y-117787729D01*
X155996017Y-117787210D01*
X158586940Y-117787210D01*
X158565800Y-117808350D01*
X158578859Y-117919167D01*
X158618623Y-118037763D01*
X158680760Y-118146322D01*
X158762881Y-118240672D01*
X158861832Y-118317189D01*
X158973809Y-118372931D01*
X159094509Y-118405757D01*
X159169050Y-118411600D01*
X159327800Y-118252850D01*
X159327800Y-118087484D01*
X159418904Y-118198496D01*
X159530749Y-118290284D01*
X159617723Y-118336773D01*
X159692550Y-118411600D01*
X159767091Y-118405757D01*
X159791916Y-118399006D01*
X159796809Y-118400490D01*
X159940800Y-118414672D01*
X160200800Y-118414672D01*
X160344791Y-118400490D01*
X160483248Y-118358490D01*
X160610851Y-118290284D01*
X160722696Y-118198496D01*
X160814484Y-118086651D01*
X160815526Y-118084700D01*
X169427728Y-118084700D01*
X169427728Y-119684700D01*
X169439988Y-119809182D01*
X169476298Y-119928880D01*
X169535263Y-120039194D01*
X169614615Y-120135885D01*
X169711306Y-120215237D01*
X169821620Y-120274202D01*
X169941318Y-120310512D01*
X170065800Y-120322772D01*
X171665800Y-120322772D01*
X171790282Y-120310512D01*
X171909980Y-120274202D01*
X172020294Y-120215237D01*
X172116985Y-120135885D01*
X172196337Y-120039194D01*
X172255302Y-119928880D01*
X172270917Y-119877402D01*
X172552703Y-119877402D01*
X172624286Y-120121371D01*
X172879796Y-120242271D01*
X173153984Y-120311000D01*
X173436312Y-120324917D01*
X173715930Y-120283487D01*
X173982092Y-120188303D01*
X174107314Y-120121371D01*
X174178897Y-119877402D01*
X173365800Y-119064305D01*
X172552703Y-119877402D01*
X172270917Y-119877402D01*
X172291612Y-119809182D01*
X172303872Y-119684700D01*
X172303872Y-119677485D01*
X172373098Y-119697797D01*
X173186195Y-118884700D01*
X173545405Y-118884700D01*
X174358502Y-119697797D01*
X174602471Y-119626214D01*
X174723371Y-119370704D01*
X174792100Y-119096516D01*
X174806017Y-118814188D01*
X174764587Y-118534570D01*
X174669403Y-118268408D01*
X174602471Y-118143186D01*
X174358502Y-118071603D01*
X173545405Y-118884700D01*
X173186195Y-118884700D01*
X172373098Y-118071603D01*
X172303872Y-118091915D01*
X172303872Y-118084700D01*
X172291612Y-117960218D01*
X172270918Y-117891998D01*
X172552703Y-117891998D01*
X173365800Y-118705095D01*
X174178897Y-117891998D01*
X174107314Y-117648029D01*
X173851804Y-117527129D01*
X173577616Y-117458400D01*
X173295288Y-117444483D01*
X173015670Y-117485913D01*
X172749508Y-117581097D01*
X172624286Y-117648029D01*
X172552703Y-117891998D01*
X172270918Y-117891998D01*
X172255302Y-117840520D01*
X172196337Y-117730206D01*
X172116985Y-117633515D01*
X172020294Y-117554163D01*
X171909980Y-117495198D01*
X171790282Y-117458888D01*
X171665800Y-117446628D01*
X170065800Y-117446628D01*
X169941318Y-117458888D01*
X169821620Y-117495198D01*
X169711306Y-117554163D01*
X169614615Y-117633515D01*
X169535263Y-117730206D01*
X169476298Y-117840520D01*
X169439988Y-117960218D01*
X169427728Y-118084700D01*
X160815526Y-118084700D01*
X160882690Y-117959048D01*
X160924690Y-117820591D01*
X160927978Y-117787210D01*
X162279755Y-117787210D01*
X162323224Y-117791491D01*
X162366693Y-117787210D01*
X162366701Y-117787210D01*
X162496714Y-117774405D01*
X162663537Y-117723799D01*
X162817283Y-117641621D01*
X162952041Y-117531027D01*
X162979758Y-117497254D01*
X164226728Y-116250285D01*
X164226728Y-116314100D01*
X164240910Y-116458091D01*
X164282910Y-116596548D01*
X164302734Y-116633636D01*
X164247510Y-116736952D01*
X164205510Y-116875409D01*
X164191328Y-117019400D01*
X164191328Y-117219400D01*
X164205510Y-117363391D01*
X164247510Y-117501848D01*
X164315716Y-117629451D01*
X164407504Y-117741296D01*
X164519349Y-117833084D01*
X164646952Y-117901290D01*
X164785409Y-117943290D01*
X164929400Y-117957472D01*
X165189400Y-117957472D01*
X165333391Y-117943290D01*
X165379400Y-117929333D01*
X165425409Y-117943290D01*
X165569400Y-117957472D01*
X165829400Y-117957472D01*
X165973391Y-117943290D01*
X166111848Y-117901290D01*
X166135050Y-117888888D01*
X166158252Y-117901290D01*
X166296709Y-117943290D01*
X166440700Y-117957472D01*
X166700700Y-117957472D01*
X166844691Y-117943290D01*
X166849584Y-117941806D01*
X166874409Y-117948557D01*
X166948950Y-117954400D01*
X167023777Y-117879573D01*
X167110751Y-117833084D01*
X167222596Y-117741296D01*
X167313700Y-117630284D01*
X167313700Y-117795650D01*
X167472450Y-117954400D01*
X167546991Y-117948557D01*
X167667691Y-117915731D01*
X167779668Y-117859989D01*
X167878619Y-117783472D01*
X167960740Y-117689122D01*
X168022877Y-117580563D01*
X168062641Y-117461967D01*
X168075700Y-117351150D01*
X167916950Y-117192400D01*
X167438772Y-117192400D01*
X167438772Y-117046400D01*
X167916950Y-117046400D01*
X168075700Y-116887650D01*
X168062641Y-116776833D01*
X168022877Y-116658237D01*
X167960740Y-116549678D01*
X167878619Y-116455328D01*
X167850384Y-116433495D01*
X167852800Y-116404500D01*
X167849800Y-115962350D01*
X167691050Y-115803600D01*
X167202872Y-115803600D01*
X167202872Y-115549600D01*
X167691050Y-115549600D01*
X167849800Y-115390850D01*
X167852800Y-114948700D01*
X167842414Y-114824048D01*
X167807909Y-114703818D01*
X167750611Y-114592629D01*
X167672722Y-114494754D01*
X167577236Y-114413956D01*
X167467821Y-114353339D01*
X167372642Y-114322896D01*
X167362845Y-114273640D01*
X167284824Y-114085282D01*
X167171556Y-113915764D01*
X167027393Y-113771601D01*
X166857875Y-113658333D01*
X166810636Y-113638766D01*
X168949814Y-111499588D01*
X168978811Y-111475791D01*
X169073784Y-111360066D01*
X169144356Y-111228037D01*
X169187813Y-111084776D01*
X169198810Y-110973123D01*
X169198810Y-110973114D01*
X169202486Y-110935791D01*
X169198810Y-110898468D01*
X169198810Y-103429895D01*
X169299878Y-103455175D01*
X169569000Y-103337125D01*
X169569000Y-100993000D01*
X169823000Y-100993000D01*
X169823000Y-103337125D01*
X170092122Y-103455175D01*
X170242622Y-103417531D01*
X170554317Y-103279157D01*
X170833027Y-103082633D01*
X171068042Y-102835511D01*
X171250330Y-102547288D01*
X171372886Y-102229041D01*
X171431000Y-101893000D01*
X171431000Y-100993000D01*
X169823000Y-100993000D01*
X169569000Y-100993000D01*
X167961000Y-100993000D01*
X167961000Y-101506598D01*
X166871600Y-100417199D01*
X166871600Y-100355061D01*
X166831826Y-100155102D01*
X166753805Y-99966744D01*
X166668450Y-99839000D01*
X167961000Y-99839000D01*
X167961000Y-100739000D01*
X169569000Y-100739000D01*
X169569000Y-98394875D01*
X169823000Y-98394875D01*
X169823000Y-100739000D01*
X171431000Y-100739000D01*
X171431000Y-99839000D01*
X171372886Y-99502959D01*
X171250330Y-99184712D01*
X171068042Y-98896489D01*
X170833027Y-98649367D01*
X170554317Y-98452843D01*
X170242622Y-98314469D01*
X170092122Y-98276825D01*
X169823000Y-98394875D01*
X169569000Y-98394875D01*
X169299878Y-98276825D01*
X169149378Y-98314469D01*
X168837683Y-98452843D01*
X168558973Y-98649367D01*
X168323958Y-98896489D01*
X168141670Y-99184712D01*
X168019114Y-99502959D01*
X167961000Y-99839000D01*
X166668450Y-99839000D01*
X166640537Y-99797226D01*
X166496374Y-99653063D01*
X166326856Y-99539795D01*
X166138498Y-99461774D01*
X165938539Y-99422000D01*
X165734661Y-99422000D01*
X165534702Y-99461774D01*
X165346344Y-99539795D01*
X165176826Y-99653063D01*
X165032663Y-99797226D01*
X164919395Y-99966744D01*
X164841374Y-100155102D01*
X164801600Y-100355061D01*
X164801600Y-100558939D01*
X164841374Y-100758898D01*
X164919395Y-100947256D01*
X165032663Y-101116774D01*
X165176826Y-101260937D01*
X165346344Y-101374205D01*
X165534702Y-101452226D01*
X165734661Y-101492000D01*
X165796799Y-101492000D01*
X167678811Y-103374013D01*
X167678810Y-107730560D01*
X167622050Y-107673800D01*
X167547509Y-107679643D01*
X167522684Y-107686394D01*
X167517791Y-107684910D01*
X167373800Y-107670728D01*
X167113800Y-107670728D01*
X166969809Y-107684910D01*
X166831352Y-107726910D01*
X166808150Y-107739312D01*
X166789095Y-107729127D01*
X166752447Y-107544883D01*
X166674426Y-107356525D01*
X166561158Y-107187007D01*
X166416995Y-107042844D01*
X166247477Y-106929576D01*
X166059119Y-106851555D01*
X165859160Y-106811781D01*
X165655282Y-106811781D01*
X165455323Y-106851555D01*
X165266965Y-106929576D01*
X165097447Y-107042844D01*
X164953284Y-107187007D01*
X164840016Y-107356525D01*
X164761995Y-107544883D01*
X164722221Y-107744842D01*
X164722221Y-107948720D01*
X164761995Y-108148679D01*
X164840016Y-108337037D01*
X164867452Y-108378098D01*
X164864428Y-108408800D01*
X164864428Y-108585914D01*
X164820809Y-108590210D01*
X164682352Y-108632210D01*
X164554749Y-108700416D01*
X164442904Y-108792204D01*
X164351116Y-108904049D01*
X164282910Y-109031652D01*
X164240910Y-109170109D01*
X164226728Y-109314100D01*
X164226728Y-109665627D01*
X164192606Y-109778110D01*
X164179801Y-109908123D01*
X164179801Y-110318600D01*
X164109061Y-110318600D01*
X163909102Y-110358374D01*
X163720744Y-110436395D01*
X163665260Y-110473468D01*
X162915292Y-110473468D01*
X162990626Y-110291598D01*
X163030400Y-110091639D01*
X163030400Y-109887761D01*
X162990626Y-109687802D01*
X162912605Y-109499444D01*
X162833472Y-109381013D01*
X162833472Y-109352200D01*
X162819290Y-109208209D01*
X162777290Y-109069752D01*
X162709084Y-108942149D01*
X162617296Y-108830304D01*
X162505451Y-108738516D01*
X162377848Y-108670310D01*
X162239391Y-108628310D01*
X162095400Y-108614128D01*
X161895400Y-108614128D01*
X161751409Y-108628310D01*
X161670400Y-108652884D01*
X161589391Y-108628310D01*
X161555802Y-108625002D01*
X161555802Y-108298377D01*
X161587077Y-108251571D01*
X161665098Y-108063213D01*
X161704872Y-107863254D01*
X161704872Y-107801000D01*
X162681225Y-107801000D01*
X162936119Y-107775895D01*
X163263168Y-107676686D01*
X163564578Y-107515579D01*
X163828766Y-107298766D01*
X164045579Y-107034578D01*
X164206686Y-106733168D01*
X164305895Y-106406119D01*
X164339394Y-106066000D01*
X164305895Y-105725881D01*
X164206686Y-105398832D01*
X164045579Y-105097422D01*
X164036005Y-105085755D01*
X164136119Y-105075895D01*
X164463168Y-104976686D01*
X164764578Y-104815579D01*
X165028766Y-104598766D01*
X165245579Y-104334578D01*
X165406686Y-104033168D01*
X165505895Y-103706119D01*
X165539394Y-103366000D01*
X165505895Y-103025881D01*
X165406686Y-102698832D01*
X165245579Y-102397422D01*
X165028766Y-102133234D01*
X164764578Y-101916421D01*
X164463168Y-101755314D01*
X164136119Y-101656105D01*
X163881225Y-101631000D01*
X161910775Y-101631000D01*
X161655881Y-101656105D01*
X161328832Y-101755314D01*
X161027422Y-101916421D01*
X160763234Y-102133234D01*
X160546421Y-102397422D01*
X160385314Y-102698832D01*
X160286105Y-103025881D01*
X160252606Y-103366000D01*
X160286105Y-103706119D01*
X160385314Y-104033168D01*
X160546421Y-104334578D01*
X160555995Y-104346245D01*
X160455881Y-104356105D01*
X160128832Y-104455314D01*
X159827422Y-104616421D01*
X159563234Y-104833234D01*
X159346421Y-105097422D01*
X159185314Y-105398832D01*
X159086105Y-105725881D01*
X159062306Y-105967519D01*
X159032302Y-105973487D01*
X158843944Y-106051508D01*
X158674426Y-106164776D01*
X158646400Y-106192802D01*
X158646400Y-103319848D01*
X158690474Y-103275774D01*
X158803742Y-103106256D01*
X158881763Y-102917898D01*
X158921537Y-102717939D01*
X158921537Y-102514061D01*
X158881763Y-102314102D01*
X158803742Y-102125744D01*
X158690474Y-101956226D01*
X158546311Y-101812063D01*
X158376793Y-101698795D01*
X158188435Y-101620774D01*
X157988476Y-101581000D01*
X157921521Y-101581000D01*
X157921521Y-99304803D01*
X158155881Y-99375895D01*
X158496000Y-99409394D01*
X158836118Y-99375895D01*
X159163167Y-99276686D01*
X159464577Y-99115579D01*
X159728766Y-98898766D01*
X159945579Y-98634578D01*
X160106686Y-98333168D01*
X160205895Y-98006119D01*
X160231000Y-97751225D01*
X160231000Y-95780775D01*
X160205895Y-95525881D01*
X160107341Y-95200990D01*
X163157928Y-95200990D01*
X163157928Y-97366000D01*
X163170188Y-97490482D01*
X163206498Y-97610180D01*
X163265463Y-97720494D01*
X163344815Y-97817185D01*
X163441506Y-97896537D01*
X163551820Y-97955502D01*
X163671518Y-97991812D01*
X163796000Y-98004072D01*
X167796000Y-98004072D01*
X167920482Y-97991812D01*
X168040180Y-97955502D01*
X168150494Y-97896537D01*
X168247185Y-97817185D01*
X168326537Y-97720494D01*
X168385502Y-97610180D01*
X168421812Y-97490482D01*
X168434072Y-97366000D01*
X168434072Y-95200990D01*
X169864041Y-95200990D01*
X169907510Y-95205271D01*
X169950979Y-95200990D01*
X169950987Y-95200990D01*
X170081000Y-95188185D01*
X170247823Y-95137579D01*
X170401569Y-95055401D01*
X170536327Y-94944807D01*
X170564044Y-94911034D01*
X170933306Y-94541772D01*
X171919800Y-94541772D01*
X172044282Y-94529512D01*
X172163980Y-94493202D01*
X172274294Y-94434237D01*
X172370985Y-94354885D01*
X172450337Y-94258194D01*
X172509302Y-94147880D01*
X172524917Y-94096402D01*
X172806703Y-94096402D01*
X172878286Y-94340371D01*
X173133796Y-94461271D01*
X173407984Y-94530000D01*
X173690312Y-94543917D01*
X173969930Y-94502487D01*
X174236092Y-94407303D01*
X174361314Y-94340371D01*
X174432897Y-94096402D01*
X173619800Y-93283305D01*
X172806703Y-94096402D01*
X172524917Y-94096402D01*
X172545612Y-94028182D01*
X172557872Y-93903700D01*
X172557872Y-93896485D01*
X172627098Y-93916797D01*
X173440195Y-93103700D01*
X173799405Y-93103700D01*
X174612502Y-93916797D01*
X174856471Y-93845214D01*
X174977371Y-93589704D01*
X175046100Y-93315516D01*
X175060017Y-93033188D01*
X175018587Y-92753570D01*
X174923403Y-92487408D01*
X174856471Y-92362186D01*
X174612502Y-92290603D01*
X173799405Y-93103700D01*
X173440195Y-93103700D01*
X172627098Y-92290603D01*
X172557872Y-92310915D01*
X172557872Y-92303700D01*
X172545612Y-92179218D01*
X172524918Y-92110998D01*
X172806703Y-92110998D01*
X173619800Y-92924095D01*
X174432897Y-92110998D01*
X174361314Y-91867029D01*
X174105804Y-91746129D01*
X173831616Y-91677400D01*
X173549288Y-91663483D01*
X173269670Y-91704913D01*
X173003508Y-91800097D01*
X172878286Y-91867029D01*
X172806703Y-92110998D01*
X172524918Y-92110998D01*
X172509302Y-92059520D01*
X172450337Y-91949206D01*
X172370985Y-91852515D01*
X172274294Y-91773163D01*
X172163980Y-91714198D01*
X172044282Y-91677888D01*
X171919800Y-91665628D01*
X170319800Y-91665628D01*
X170195318Y-91677888D01*
X170075620Y-91714198D01*
X169965306Y-91773163D01*
X169868615Y-91852515D01*
X169789263Y-91949206D01*
X169730298Y-92059520D01*
X169693988Y-92179218D01*
X169681728Y-92303700D01*
X169681728Y-93290194D01*
X169540932Y-93430990D01*
X156218005Y-93430990D01*
X156237400Y-93353616D01*
X156251317Y-93071288D01*
X156209887Y-92791670D01*
X156114703Y-92525508D01*
X156047771Y-92400286D01*
X155803802Y-92328703D01*
X154990705Y-93141800D01*
X155004848Y-93155943D01*
X154825243Y-93335548D01*
X154811100Y-93321405D01*
X154796958Y-93335548D01*
X154617353Y-93155943D01*
X154631495Y-93141800D01*
X153818398Y-92328703D01*
X153749172Y-92349015D01*
X153749172Y-92341800D01*
X153736912Y-92217318D01*
X153716218Y-92149098D01*
X153998003Y-92149098D01*
X154811100Y-92962195D01*
X155624197Y-92149098D01*
X155552614Y-91905129D01*
X155297104Y-91784229D01*
X155022916Y-91715500D01*
X154740588Y-91701583D01*
X154460970Y-91743013D01*
X154194808Y-91838197D01*
X154069586Y-91905129D01*
X153998003Y-92149098D01*
X153716218Y-92149098D01*
X153700602Y-92097620D01*
X153641637Y-91987306D01*
X153562285Y-91890615D01*
X153465594Y-91811263D01*
X153355280Y-91752298D01*
X153235582Y-91715988D01*
X153111100Y-91703728D01*
X151511100Y-91703728D01*
X151386618Y-91715988D01*
X151266920Y-91752298D01*
X151156606Y-91811263D01*
X151059915Y-91890615D01*
X150980563Y-91987306D01*
X150921598Y-92097620D01*
X150885288Y-92217318D01*
X150873028Y-92341800D01*
X150873028Y-93941800D01*
X150885288Y-94066282D01*
X150921598Y-94185980D01*
X150922250Y-94187200D01*
X139855372Y-94187200D01*
X139855372Y-93522900D01*
X139843112Y-93398418D01*
X139806802Y-93278720D01*
X139747837Y-93168406D01*
X139668485Y-93071715D01*
X139571794Y-92992363D01*
X139461480Y-92933398D01*
X139341782Y-92897088D01*
X139217300Y-92884828D01*
X137617300Y-92884828D01*
X137492818Y-92897088D01*
X137373120Y-92933398D01*
X137262806Y-92992363D01*
X137166115Y-93071715D01*
X137086763Y-93168406D01*
X137027798Y-93278720D01*
X136991488Y-93398418D01*
X136979228Y-93522900D01*
X136979228Y-93530115D01*
X136910002Y-93509803D01*
X136096905Y-94322900D01*
X136111048Y-94337043D01*
X135931443Y-94516648D01*
X135917300Y-94502505D01*
X135354409Y-95065396D01*
X135301837Y-95083023D01*
X135193278Y-95145160D01*
X135098928Y-95227281D01*
X135022411Y-95326232D01*
X134966669Y-95438209D01*
X134933843Y-95558909D01*
X134928000Y-95633450D01*
X135005750Y-95711200D01*
X133653525Y-95711200D01*
X133644712Y-95621718D01*
X133608402Y-95502020D01*
X133549437Y-95391706D01*
X133470085Y-95295015D01*
X133373394Y-95215663D01*
X133263080Y-95156698D01*
X133143382Y-95120388D01*
X133018900Y-95108128D01*
X131318900Y-95108128D01*
X131194418Y-95120388D01*
X131074720Y-95156698D01*
X130964406Y-95215663D01*
X130867715Y-95295015D01*
X130820494Y-95352554D01*
X130803885Y-95332315D01*
X130707194Y-95252963D01*
X130596880Y-95193998D01*
X130477182Y-95157688D01*
X130352700Y-95145428D01*
X128752700Y-95145428D01*
X128628218Y-95157688D01*
X128508520Y-95193998D01*
X128398206Y-95252963D01*
X128301515Y-95332315D01*
X128222163Y-95429006D01*
X128163198Y-95539320D01*
X128126888Y-95659018D01*
X128114628Y-95783500D01*
X128114628Y-95790715D01*
X128045402Y-95770403D01*
X127232305Y-96583500D01*
X126873095Y-96583500D01*
X126059998Y-95770403D01*
X125816029Y-95841986D01*
X125695129Y-96097496D01*
X125626400Y-96371684D01*
X125612483Y-96654012D01*
X125043400Y-96654012D01*
X125043400Y-95590798D01*
X126239603Y-95590798D01*
X127052700Y-96403895D01*
X127865797Y-95590798D01*
X127794214Y-95346829D01*
X127538704Y-95225929D01*
X127264516Y-95157200D01*
X126982188Y-95143283D01*
X126702570Y-95184713D01*
X126436408Y-95279897D01*
X126311186Y-95346829D01*
X126239603Y-95590798D01*
X125043400Y-95590798D01*
X125043400Y-94393412D01*
X134477083Y-94393412D01*
X134518513Y-94673030D01*
X134613697Y-94939192D01*
X134680629Y-95064414D01*
X134924598Y-95135997D01*
X135737695Y-94322900D01*
X134924598Y-93509803D01*
X134680629Y-93581386D01*
X134559729Y-93836896D01*
X134491000Y-94111084D01*
X134477083Y-94393412D01*
X125043400Y-94393412D01*
X125043400Y-93330198D01*
X135104203Y-93330198D01*
X135917300Y-94143295D01*
X136730397Y-93330198D01*
X136658814Y-93086229D01*
X136403304Y-92965329D01*
X136129116Y-92896600D01*
X135846788Y-92882683D01*
X135567170Y-92924113D01*
X135301008Y-93019297D01*
X135175786Y-93086229D01*
X135104203Y-93330198D01*
X125043400Y-93330198D01*
X125043400Y-88772200D01*
X175743400Y-88772200D01*
X175743401Y-122962200D01*
G04 #@! TA.AperFunction,Conductor*
D23*
G36*
X175743401Y-122962200D02*
G01*
X125043400Y-122962200D01*
X125043400Y-119051902D01*
X126176103Y-119051902D01*
X126247686Y-119295871D01*
X126503196Y-119416771D01*
X126777384Y-119485500D01*
X127059712Y-119499417D01*
X127339330Y-119457987D01*
X127605492Y-119362803D01*
X127730714Y-119295871D01*
X127802297Y-119051902D01*
X126989200Y-118238805D01*
X126176103Y-119051902D01*
X125043400Y-119051902D01*
X125043400Y-118129712D01*
X125548983Y-118129712D01*
X125590413Y-118409330D01*
X125685597Y-118675492D01*
X125752529Y-118800714D01*
X125996498Y-118872297D01*
X126809595Y-118059200D01*
X127168805Y-118059200D01*
X127981902Y-118872297D01*
X128051128Y-118851985D01*
X128051128Y-118859200D01*
X128063388Y-118983682D01*
X128099698Y-119103380D01*
X128158663Y-119213694D01*
X128238015Y-119310385D01*
X128334706Y-119389737D01*
X128445020Y-119448702D01*
X128564718Y-119485012D01*
X128689200Y-119497272D01*
X130289200Y-119497272D01*
X130413682Y-119485012D01*
X130533380Y-119448702D01*
X130643694Y-119389737D01*
X130740385Y-119310385D01*
X130819737Y-119213694D01*
X130878702Y-119103380D01*
X130915012Y-118983682D01*
X130927272Y-118859200D01*
X130927272Y-117259200D01*
X130923520Y-117221100D01*
X132663128Y-117221100D01*
X132663128Y-118821100D01*
X132675388Y-118945582D01*
X132711698Y-119065280D01*
X132770663Y-119175594D01*
X132850015Y-119272285D01*
X132946706Y-119351637D01*
X133057020Y-119410602D01*
X133176718Y-119446912D01*
X133301200Y-119459172D01*
X134180669Y-119459172D01*
X134356396Y-119634899D01*
X134356407Y-119634908D01*
X134357988Y-119636489D01*
X134360510Y-119662091D01*
X134402510Y-119800548D01*
X134470716Y-119928151D01*
X134562504Y-120039996D01*
X134674349Y-120131784D01*
X134801952Y-120199990D01*
X134940409Y-120241990D01*
X135084400Y-120256172D01*
X135344400Y-120256172D01*
X135488391Y-120241990D01*
X135493284Y-120240506D01*
X135518109Y-120247257D01*
X135592650Y-120253100D01*
X135667477Y-120178273D01*
X135754451Y-120131784D01*
X135866296Y-120039996D01*
X135957400Y-119928984D01*
X135957400Y-120094350D01*
X136116150Y-120253100D01*
X136190691Y-120247257D01*
X136311391Y-120214431D01*
X136423368Y-120158689D01*
X136522319Y-120082172D01*
X136604440Y-119987822D01*
X136662320Y-119886700D01*
X137758628Y-119886700D01*
X137770888Y-120011182D01*
X137807198Y-120130880D01*
X137866163Y-120241194D01*
X137945515Y-120337885D01*
X138042206Y-120417237D01*
X138152520Y-120476202D01*
X138272218Y-120512512D01*
X138396700Y-120524772D01*
X138410950Y-120521700D01*
X138569700Y-120362950D01*
X138569700Y-119213700D01*
X137920450Y-119213700D01*
X137761700Y-119372450D01*
X137758628Y-119886700D01*
X136662320Y-119886700D01*
X136666577Y-119879263D01*
X136706341Y-119760667D01*
X136719400Y-119649850D01*
X136614652Y-119545102D01*
X136719400Y-119545102D01*
X136719400Y-119454251D01*
X136951330Y-119419887D01*
X137217492Y-119324703D01*
X137342714Y-119257771D01*
X137414297Y-119013802D01*
X136601200Y-118200705D01*
X136587058Y-118214848D01*
X136407453Y-118035243D01*
X136421595Y-118021100D01*
X135608498Y-117208003D01*
X135539272Y-117228315D01*
X135539272Y-117221100D01*
X135527012Y-117096618D01*
X135506318Y-117028398D01*
X135788103Y-117028398D01*
X136601200Y-117841495D01*
X137414297Y-117028398D01*
X137342714Y-116784429D01*
X137087204Y-116663529D01*
X136813016Y-116594800D01*
X136530688Y-116580883D01*
X136251070Y-116622313D01*
X135984908Y-116717497D01*
X135859686Y-116784429D01*
X135788103Y-117028398D01*
X135506318Y-117028398D01*
X135490702Y-116976920D01*
X135431737Y-116866606D01*
X135352385Y-116769915D01*
X135255694Y-116690563D01*
X135145380Y-116631598D01*
X135025682Y-116595288D01*
X134901200Y-116583028D01*
X133301200Y-116583028D01*
X133176718Y-116595288D01*
X133057020Y-116631598D01*
X132946706Y-116690563D01*
X132850015Y-116769915D01*
X132770663Y-116866606D01*
X132711698Y-116976920D01*
X132675388Y-117096618D01*
X132663128Y-117221100D01*
X130923520Y-117221100D01*
X130915012Y-117134718D01*
X130878702Y-117015020D01*
X130819737Y-116904706D01*
X130740385Y-116808015D01*
X130643694Y-116728663D01*
X130533380Y-116669698D01*
X130413682Y-116633388D01*
X130289200Y-116621128D01*
X128689200Y-116621128D01*
X128564718Y-116633388D01*
X128445020Y-116669698D01*
X128334706Y-116728663D01*
X128238015Y-116808015D01*
X128158663Y-116904706D01*
X128099698Y-117015020D01*
X128063388Y-117134718D01*
X128051128Y-117259200D01*
X128051128Y-117266415D01*
X127981902Y-117246103D01*
X127168805Y-118059200D01*
X126809595Y-118059200D01*
X125996498Y-117246103D01*
X125752529Y-117317686D01*
X125631629Y-117573196D01*
X125562900Y-117847384D01*
X125548983Y-118129712D01*
X125043400Y-118129712D01*
X125043400Y-117066498D01*
X126176103Y-117066498D01*
X126989200Y-117879595D01*
X127802297Y-117066498D01*
X127730714Y-116822529D01*
X127475204Y-116701629D01*
X127201016Y-116632900D01*
X126918688Y-116618983D01*
X126639070Y-116660413D01*
X126372908Y-116755597D01*
X126247686Y-116822529D01*
X126176103Y-117066498D01*
X125043400Y-117066498D01*
X125043400Y-97576202D01*
X126239603Y-97576202D01*
X126311186Y-97820171D01*
X126566696Y-97941071D01*
X126840884Y-98009800D01*
X127123212Y-98023717D01*
X127402830Y-97982287D01*
X127668992Y-97887103D01*
X127794214Y-97820171D01*
X127865797Y-97576202D01*
X127052700Y-96763105D01*
X126239603Y-97576202D01*
X125043400Y-97576202D01*
X125043400Y-96654012D01*
X125612483Y-96654012D01*
X125653913Y-96933630D01*
X125749097Y-97199792D01*
X125816029Y-97325014D01*
X126059998Y-97396597D01*
X126873095Y-96583500D01*
X127232305Y-96583500D01*
X128045402Y-97396597D01*
X128114628Y-97376285D01*
X128114628Y-97383500D01*
X128126888Y-97507982D01*
X128163198Y-97627680D01*
X128222163Y-97737994D01*
X128301515Y-97834685D01*
X128398206Y-97914037D01*
X128508520Y-97973002D01*
X128628218Y-98009312D01*
X128752700Y-98021572D01*
X130352700Y-98021572D01*
X130477182Y-98009312D01*
X130596880Y-97973002D01*
X130707194Y-97914037D01*
X130803885Y-97834685D01*
X130810072Y-97827146D01*
X130867715Y-97897385D01*
X130964406Y-97976737D01*
X131074720Y-98035702D01*
X131155366Y-98060166D01*
X131071312Y-98135931D01*
X130897259Y-98369280D01*
X130772075Y-98632101D01*
X130727424Y-98779310D01*
X130848745Y-99009200D01*
X132041900Y-99009200D01*
X132041900Y-98989200D01*
X132295900Y-98989200D01*
X132295900Y-99009200D01*
X133489055Y-99009200D01*
X133610376Y-98779310D01*
X133565725Y-98632101D01*
X133440541Y-98369280D01*
X133266488Y-98135931D01*
X133182434Y-98060166D01*
X133263080Y-98035702D01*
X133373394Y-97976737D01*
X133470085Y-97897385D01*
X133549437Y-97800694D01*
X133608402Y-97690380D01*
X133644712Y-97570682D01*
X133653525Y-97481200D01*
X134048322Y-97481200D01*
X134045690Y-97484407D01*
X133963512Y-97638153D01*
X133912905Y-97804976D01*
X133895819Y-97978466D01*
X133900101Y-98021945D01*
X133900100Y-98800632D01*
X133817482Y-98901303D01*
X133737725Y-99050517D01*
X133688612Y-99212423D01*
X133672028Y-99380800D01*
X133672028Y-99830800D01*
X133688612Y-99999177D01*
X133737725Y-100161083D01*
X133815800Y-100307151D01*
X133779563Y-100351306D01*
X133720598Y-100461620D01*
X133684288Y-100581318D01*
X133672028Y-100705800D01*
X133675100Y-100870050D01*
X133833850Y-101028800D01*
X134658100Y-101028800D01*
X134658100Y-101008800D01*
X134912100Y-101008800D01*
X134912100Y-101028800D01*
X134932100Y-101028800D01*
X134932100Y-101282800D01*
X134912100Y-101282800D01*
X134912100Y-101593830D01*
X134901401Y-101702457D01*
X134901401Y-101702467D01*
X134897725Y-101739789D01*
X134901401Y-101777112D01*
X134901402Y-102674488D01*
X134680504Y-102895386D01*
X134651500Y-102919189D01*
X134619151Y-102958607D01*
X134556527Y-103034914D01*
X134491731Y-103156138D01*
X134485955Y-103166944D01*
X134442498Y-103310205D01*
X134431501Y-103421858D01*
X134431501Y-103421868D01*
X134427825Y-103459190D01*
X134431501Y-103496513D01*
X134431502Y-108498796D01*
X133653900Y-109276398D01*
X133653900Y-109149940D01*
X133596832Y-108863042D01*
X133484890Y-108592789D01*
X133322375Y-108349568D01*
X133115532Y-108142725D01*
X132941140Y-108026200D01*
X133115532Y-107909675D01*
X133322375Y-107702832D01*
X133484890Y-107459611D01*
X133596832Y-107189358D01*
X133653900Y-106902460D01*
X133653900Y-106609940D01*
X133596832Y-106323042D01*
X133484890Y-106052789D01*
X133322375Y-105809568D01*
X133115532Y-105602725D01*
X132941140Y-105486200D01*
X133115532Y-105369675D01*
X133322375Y-105162832D01*
X133484890Y-104919611D01*
X133596832Y-104649358D01*
X133653900Y-104362460D01*
X133653900Y-104069940D01*
X133596832Y-103783042D01*
X133484890Y-103512789D01*
X133322375Y-103269568D01*
X133115532Y-103062725D01*
X132941140Y-102946200D01*
X133115532Y-102829675D01*
X133322375Y-102622832D01*
X133484890Y-102379611D01*
X133596832Y-102109358D01*
X133653900Y-101822460D01*
X133653900Y-101605800D01*
X133672028Y-101605800D01*
X133684288Y-101730282D01*
X133720598Y-101849980D01*
X133779563Y-101960294D01*
X133858915Y-102056985D01*
X133955606Y-102136337D01*
X134065920Y-102195302D01*
X134185618Y-102231612D01*
X134310100Y-102243872D01*
X134499350Y-102240800D01*
X134658100Y-102082050D01*
X134658100Y-101282800D01*
X133833850Y-101282800D01*
X133675100Y-101441550D01*
X133672028Y-101605800D01*
X133653900Y-101605800D01*
X133653900Y-101529940D01*
X133596832Y-101243042D01*
X133484890Y-100972789D01*
X133322375Y-100729568D01*
X133115532Y-100522725D01*
X132933366Y-100401005D01*
X133050255Y-100331378D01*
X133266488Y-100136469D01*
X133440541Y-99903120D01*
X133565725Y-99640299D01*
X133610376Y-99493090D01*
X133489055Y-99263200D01*
X132295900Y-99263200D01*
X132295900Y-99283200D01*
X132041900Y-99283200D01*
X132041900Y-99263200D01*
X130848745Y-99263200D01*
X130727424Y-99493090D01*
X130772075Y-99640299D01*
X130897259Y-99903120D01*
X131071312Y-100136469D01*
X131287545Y-100331378D01*
X131404434Y-100401005D01*
X131222268Y-100522725D01*
X131015425Y-100729568D01*
X130852910Y-100972789D01*
X130740968Y-101243042D01*
X130683900Y-101529940D01*
X130683900Y-101822460D01*
X130740968Y-102109358D01*
X130852910Y-102379611D01*
X131015425Y-102622832D01*
X131222268Y-102829675D01*
X131396660Y-102946200D01*
X131222268Y-103062725D01*
X131015425Y-103269568D01*
X130852910Y-103512789D01*
X130740968Y-103783042D01*
X130683900Y-104069940D01*
X130683900Y-104362460D01*
X130740968Y-104649358D01*
X130852910Y-104919611D01*
X131015425Y-105162832D01*
X131222268Y-105369675D01*
X131396660Y-105486200D01*
X131222268Y-105602725D01*
X131015425Y-105809568D01*
X130852910Y-106052789D01*
X130740968Y-106323042D01*
X130683900Y-106609940D01*
X130683900Y-106902460D01*
X130740968Y-107189358D01*
X130852910Y-107459611D01*
X131015425Y-107702832D01*
X131222268Y-107909675D01*
X131396660Y-108026200D01*
X131222268Y-108142725D01*
X131015425Y-108349568D01*
X130852910Y-108592789D01*
X130740968Y-108863042D01*
X130683900Y-109149940D01*
X130683900Y-109442460D01*
X130740968Y-109729358D01*
X130852910Y-109999611D01*
X131015425Y-110242832D01*
X131222268Y-110449675D01*
X131396660Y-110566200D01*
X131222268Y-110682725D01*
X131015425Y-110889568D01*
X130852910Y-111132789D01*
X130740968Y-111403042D01*
X130683900Y-111689940D01*
X130683900Y-111982460D01*
X130740968Y-112269358D01*
X130852910Y-112539611D01*
X131015425Y-112782832D01*
X131222268Y-112989675D01*
X131396660Y-113106200D01*
X131222268Y-113222725D01*
X131015425Y-113429568D01*
X130852910Y-113672789D01*
X130740968Y-113943042D01*
X130683900Y-114229940D01*
X130683900Y-114522460D01*
X130740968Y-114809358D01*
X130852910Y-115079611D01*
X131015425Y-115322832D01*
X131222268Y-115529675D01*
X131465489Y-115692190D01*
X131735742Y-115804132D01*
X132022640Y-115861200D01*
X132315160Y-115861200D01*
X132602058Y-115804132D01*
X132872311Y-115692190D01*
X133115532Y-115529675D01*
X133322375Y-115322832D01*
X133484890Y-115079611D01*
X133596832Y-114809358D01*
X133653900Y-114522460D01*
X133653900Y-114229940D01*
X133596832Y-113943042D01*
X133557036Y-113846965D01*
X133970824Y-113433177D01*
X134000098Y-113529680D01*
X134059063Y-113639994D01*
X134138415Y-113736685D01*
X134235106Y-113816037D01*
X134308935Y-113855500D01*
X134235106Y-113894963D01*
X134138415Y-113974315D01*
X134059063Y-114071006D01*
X134000098Y-114181320D01*
X133963788Y-114301018D01*
X133951528Y-114425500D01*
X133951528Y-115485500D01*
X133963788Y-115609982D01*
X134000098Y-115729680D01*
X134059063Y-115839994D01*
X134138415Y-115936685D01*
X134235106Y-116016037D01*
X134345420Y-116075002D01*
X134465118Y-116111312D01*
X134589600Y-116123572D01*
X135239600Y-116123572D01*
X135364082Y-116111312D01*
X135483780Y-116075002D01*
X135594094Y-116016037D01*
X135690785Y-115936685D01*
X135770137Y-115839994D01*
X135829102Y-115729680D01*
X135864600Y-115612659D01*
X135900098Y-115729680D01*
X135959063Y-115839994D01*
X136038415Y-115936685D01*
X136135106Y-116016037D01*
X136245420Y-116075002D01*
X136365118Y-116111312D01*
X136489600Y-116123572D01*
X136907871Y-116123572D01*
X138569698Y-117785400D01*
X138569698Y-117810448D01*
X138410950Y-117651700D01*
X138396700Y-117648628D01*
X138272218Y-117660888D01*
X138152520Y-117697198D01*
X138042206Y-117756163D01*
X138015818Y-117777819D01*
X137999987Y-117670970D01*
X137904803Y-117404808D01*
X137837871Y-117279586D01*
X137593902Y-117208003D01*
X136780805Y-118021100D01*
X137593902Y-118834197D01*
X137761605Y-118784991D01*
X137761700Y-118800950D01*
X137920450Y-118959700D01*
X138569700Y-118959700D01*
X138569700Y-118939700D01*
X138823700Y-118939700D01*
X138823700Y-118959700D01*
X138843700Y-118959700D01*
X138843700Y-119213700D01*
X138823700Y-119213700D01*
X138823700Y-120362950D01*
X138982450Y-120521700D01*
X138996700Y-120524772D01*
X139121182Y-120512512D01*
X139240880Y-120476202D01*
X139351194Y-120417237D01*
X139380764Y-120392970D01*
X139515118Y-120464784D01*
X139662955Y-120509629D01*
X139816700Y-120524772D01*
X140116700Y-120524772D01*
X140270445Y-120509629D01*
X140418282Y-120464784D01*
X140554529Y-120391958D01*
X140601700Y-120353246D01*
X140648871Y-120391958D01*
X140785118Y-120464784D01*
X140932955Y-120509629D01*
X141086700Y-120524772D01*
X141386700Y-120524772D01*
X141540445Y-120509629D01*
X141688282Y-120464784D01*
X141824529Y-120391958D01*
X141871700Y-120353246D01*
X141918871Y-120391958D01*
X142055118Y-120464784D01*
X142202955Y-120509629D01*
X142356700Y-120524772D01*
X142656700Y-120524772D01*
X142810445Y-120509629D01*
X142958282Y-120464784D01*
X143092636Y-120392970D01*
X143122206Y-120417237D01*
X143232520Y-120476202D01*
X143352218Y-120512512D01*
X143476700Y-120524772D01*
X143490950Y-120521700D01*
X143649700Y-120362950D01*
X143649700Y-119213700D01*
X143629700Y-119213700D01*
X143629700Y-118959700D01*
X143649700Y-118959700D01*
X143649700Y-117810450D01*
X143903700Y-117810450D01*
X143903700Y-118959700D01*
X143923700Y-118959700D01*
X143923700Y-119213700D01*
X143903700Y-119213700D01*
X143903700Y-120362950D01*
X144062450Y-120521700D01*
X144076700Y-120524772D01*
X144201182Y-120512512D01*
X144320880Y-120476202D01*
X144431194Y-120417237D01*
X144460764Y-120392970D01*
X144595118Y-120464784D01*
X144742955Y-120509629D01*
X144896700Y-120524772D01*
X145196700Y-120524772D01*
X145350445Y-120509629D01*
X145498282Y-120464784D01*
X145634529Y-120391958D01*
X145681700Y-120353246D01*
X145728871Y-120391958D01*
X145865118Y-120464784D01*
X146012955Y-120509629D01*
X146166700Y-120524772D01*
X146466700Y-120524772D01*
X146620445Y-120509629D01*
X146768282Y-120464784D01*
X146904529Y-120391958D01*
X146951700Y-120353246D01*
X146998871Y-120391958D01*
X147135118Y-120464784D01*
X147282955Y-120509629D01*
X147436700Y-120524772D01*
X147736700Y-120524772D01*
X147890445Y-120509629D01*
X148038282Y-120464784D01*
X148174529Y-120391958D01*
X148293951Y-120293951D01*
X148391958Y-120174529D01*
X148464784Y-120038282D01*
X148509629Y-119890445D01*
X148524772Y-119736700D01*
X148524772Y-119509819D01*
X148569226Y-119402498D01*
X148609000Y-119202539D01*
X148609000Y-118998661D01*
X148569226Y-118798702D01*
X148524772Y-118691381D01*
X148524772Y-118436700D01*
X148509629Y-118282955D01*
X148464784Y-118135118D01*
X148391958Y-117998871D01*
X148293951Y-117879449D01*
X148174529Y-117781442D01*
X148038282Y-117708616D01*
X147890445Y-117663771D01*
X147736700Y-117648628D01*
X147436700Y-117648628D01*
X147282955Y-117663771D01*
X147135118Y-117708616D01*
X146998871Y-117781442D01*
X146951700Y-117820154D01*
X146904529Y-117781442D01*
X146768282Y-117708616D01*
X146620445Y-117663771D01*
X146466700Y-117648628D01*
X146166700Y-117648628D01*
X146012955Y-117663771D01*
X145865118Y-117708616D01*
X145728871Y-117781442D01*
X145681700Y-117820154D01*
X145634529Y-117781442D01*
X145498282Y-117708616D01*
X145350445Y-117663771D01*
X145196700Y-117648628D01*
X144896700Y-117648628D01*
X144742955Y-117663771D01*
X144595118Y-117708616D01*
X144460764Y-117780430D01*
X144431194Y-117756163D01*
X144320880Y-117697198D01*
X144201182Y-117660888D01*
X144076700Y-117648628D01*
X144062450Y-117651700D01*
X143903700Y-117810450D01*
X143649700Y-117810450D01*
X143490950Y-117651700D01*
X143476700Y-117648628D01*
X143352218Y-117660888D01*
X143232520Y-117697198D01*
X143122206Y-117756163D01*
X143092636Y-117780430D01*
X142958282Y-117708616D01*
X142810445Y-117663771D01*
X142656700Y-117648628D01*
X142356700Y-117648628D01*
X142346229Y-117649659D01*
X138718270Y-114021700D01*
X138823702Y-114021700D01*
X138823702Y-113862952D01*
X138982450Y-114021700D01*
X138996700Y-114024772D01*
X139121182Y-114012512D01*
X139240880Y-113976202D01*
X139351194Y-113917237D01*
X139380764Y-113892970D01*
X139515118Y-113964784D01*
X139662955Y-114009629D01*
X139816700Y-114024772D01*
X140116700Y-114024772D01*
X140270445Y-114009629D01*
X140418282Y-113964784D01*
X140554529Y-113891958D01*
X140601700Y-113853246D01*
X140648871Y-113891958D01*
X140785118Y-113964784D01*
X140932955Y-114009629D01*
X141086700Y-114024772D01*
X141386700Y-114024772D01*
X141540445Y-114009629D01*
X141688282Y-113964784D01*
X141824529Y-113891958D01*
X141871700Y-113853246D01*
X141918871Y-113891958D01*
X142055118Y-113964784D01*
X142202955Y-114009629D01*
X142356700Y-114024772D01*
X142656700Y-114024772D01*
X142810445Y-114009629D01*
X142958282Y-113964784D01*
X143094529Y-113891958D01*
X143141700Y-113853246D01*
X143188871Y-113891958D01*
X143325118Y-113964784D01*
X143472955Y-114009629D01*
X143626700Y-114024772D01*
X143926700Y-114024772D01*
X144080445Y-114009629D01*
X144228282Y-113964784D01*
X144364529Y-113891958D01*
X144411700Y-113853246D01*
X144458871Y-113891958D01*
X144595118Y-113964784D01*
X144742955Y-114009629D01*
X144896700Y-114024772D01*
X145196700Y-114024772D01*
X145350445Y-114009629D01*
X145498282Y-113964784D01*
X145634529Y-113891958D01*
X145681700Y-113853246D01*
X145728871Y-113891958D01*
X145865118Y-113964784D01*
X146012955Y-114009629D01*
X146166700Y-114024772D01*
X146466700Y-114024772D01*
X146620445Y-114009629D01*
X146768282Y-113964784D01*
X146904529Y-113891958D01*
X146951700Y-113853246D01*
X146998871Y-113891958D01*
X147135118Y-113964784D01*
X147282955Y-114009629D01*
X147436700Y-114024772D01*
X147736700Y-114024772D01*
X147890445Y-114009629D01*
X148038282Y-113964784D01*
X148174529Y-113891958D01*
X148293951Y-113793951D01*
X148391958Y-113674529D01*
X148464784Y-113538282D01*
X148509629Y-113390445D01*
X148524772Y-113236700D01*
X148524772Y-113026579D01*
X148581926Y-112888598D01*
X148621700Y-112688639D01*
X148621700Y-112484761D01*
X148581926Y-112284802D01*
X148524772Y-112146821D01*
X148524772Y-111936700D01*
X148509629Y-111782955D01*
X148464784Y-111635118D01*
X148391958Y-111498871D01*
X148293951Y-111379449D01*
X148174529Y-111281442D01*
X148080903Y-111231398D01*
X148148512Y-111175912D01*
X148244965Y-111058385D01*
X148316635Y-110924299D01*
X148360770Y-110778807D01*
X148367024Y-110715300D01*
X148766428Y-110715300D01*
X148766428Y-112715300D01*
X148778688Y-112839782D01*
X148814998Y-112959480D01*
X148873963Y-113069794D01*
X148953315Y-113166485D01*
X149050006Y-113245837D01*
X149160320Y-113304802D01*
X149280018Y-113341112D01*
X149404500Y-113353372D01*
X151204500Y-113353372D01*
X151328982Y-113341112D01*
X151448680Y-113304802D01*
X151558994Y-113245837D01*
X151655685Y-113166485D01*
X151735037Y-113069794D01*
X151794002Y-112959480D01*
X151830312Y-112839782D01*
X151842572Y-112715300D01*
X151842572Y-110715300D01*
X151830312Y-110590818D01*
X151794002Y-110471120D01*
X151735037Y-110360806D01*
X151655685Y-110264115D01*
X151558994Y-110184763D01*
X151448680Y-110125798D01*
X151328982Y-110089488D01*
X151204500Y-110077228D01*
X149404500Y-110077228D01*
X149280018Y-110089488D01*
X149160320Y-110125798D01*
X149050006Y-110184763D01*
X148953315Y-110264115D01*
X148873963Y-110360806D01*
X148814998Y-110471120D01*
X148778688Y-110590818D01*
X148766428Y-110715300D01*
X148367024Y-110715300D01*
X148375672Y-110627500D01*
X148375672Y-110352500D01*
X148360770Y-110201193D01*
X148316635Y-110055701D01*
X148244965Y-109921615D01*
X148190295Y-109855000D01*
X148244965Y-109788385D01*
X148316635Y-109654299D01*
X148360770Y-109508807D01*
X148375672Y-109357500D01*
X148375672Y-109082500D01*
X148360770Y-108931193D01*
X148316635Y-108785701D01*
X148279006Y-108715300D01*
X148766428Y-108715300D01*
X148778688Y-108839782D01*
X148814998Y-108959480D01*
X148873963Y-109069794D01*
X148953315Y-109166485D01*
X149050006Y-109245837D01*
X149160320Y-109304802D01*
X149280018Y-109341112D01*
X149404500Y-109353372D01*
X150018750Y-109350300D01*
X150177500Y-109191550D01*
X150177500Y-107842300D01*
X150431500Y-107842300D01*
X150431500Y-109191550D01*
X150590250Y-109350300D01*
X151204500Y-109353372D01*
X151328982Y-109341112D01*
X151448680Y-109304802D01*
X151558994Y-109245837D01*
X151655685Y-109166485D01*
X151735037Y-109069794D01*
X151794002Y-108959480D01*
X151830312Y-108839782D01*
X151842572Y-108715300D01*
X151839500Y-108001050D01*
X151680750Y-107842300D01*
X150431500Y-107842300D01*
X150177500Y-107842300D01*
X148928250Y-107842300D01*
X148769500Y-108001050D01*
X148766428Y-108715300D01*
X148279006Y-108715300D01*
X148244965Y-108651615D01*
X148190295Y-108585000D01*
X148244965Y-108518385D01*
X148316635Y-108384299D01*
X148360770Y-108238807D01*
X148375672Y-108087500D01*
X148375672Y-107812500D01*
X148360770Y-107661193D01*
X148316635Y-107515701D01*
X148244965Y-107381615D01*
X148190295Y-107315000D01*
X148244965Y-107248385D01*
X148316635Y-107114299D01*
X148360770Y-106968807D01*
X148375672Y-106817500D01*
X148375672Y-106542500D01*
X148360770Y-106391193D01*
X148337012Y-106312873D01*
X148436500Y-106322672D01*
X148646621Y-106322672D01*
X148784602Y-106379826D01*
X148856186Y-106394065D01*
X148814998Y-106471120D01*
X148778688Y-106590818D01*
X148766428Y-106715300D01*
X148769500Y-107429550D01*
X148928250Y-107588300D01*
X150177500Y-107588300D01*
X150177500Y-106239050D01*
X150431500Y-106239050D01*
X150431500Y-107588300D01*
X151680750Y-107588300D01*
X151839500Y-107429550D01*
X151842572Y-106715300D01*
X151830312Y-106590818D01*
X151794002Y-106471120D01*
X151735037Y-106360806D01*
X151655685Y-106264115D01*
X151558994Y-106184763D01*
X151448680Y-106125798D01*
X151328982Y-106089488D01*
X151204500Y-106077228D01*
X150590250Y-106080300D01*
X150431500Y-106239050D01*
X150177500Y-106239050D01*
X150144338Y-106205888D01*
X150174329Y-106189858D01*
X150293751Y-106091851D01*
X150391758Y-105972429D01*
X150464584Y-105836182D01*
X150509429Y-105688345D01*
X150524572Y-105534600D01*
X150524572Y-105234600D01*
X150509429Y-105080855D01*
X150464584Y-104933018D01*
X150391758Y-104796771D01*
X150353046Y-104749600D01*
X150391758Y-104702429D01*
X150464584Y-104566182D01*
X150509429Y-104418345D01*
X150524572Y-104264600D01*
X150524572Y-103964600D01*
X150509429Y-103810855D01*
X150464584Y-103663018D01*
X150391758Y-103526771D01*
X150353046Y-103479600D01*
X150391758Y-103432429D01*
X150464584Y-103296182D01*
X150509429Y-103148345D01*
X150519978Y-103041245D01*
X150963049Y-102598174D01*
X150996817Y-102570461D01*
X151030368Y-102529580D01*
X151107411Y-102435703D01*
X151189589Y-102281958D01*
X151240195Y-102115134D01*
X151246393Y-102052201D01*
X151253000Y-101985121D01*
X151253000Y-101985113D01*
X151257281Y-101941644D01*
X151253000Y-101898175D01*
X151253000Y-98596569D01*
X151257281Y-98553100D01*
X151253000Y-98509631D01*
X151253000Y-96995040D01*
X151259805Y-96984856D01*
X151337826Y-96796498D01*
X151377600Y-96596539D01*
X151377600Y-96392661D01*
X151337826Y-96192702D01*
X151259805Y-96004344D01*
X151228304Y-95957200D01*
X153797522Y-95957200D01*
X154151700Y-96311379D01*
X154148428Y-96344600D01*
X154148428Y-96644600D01*
X154163571Y-96798345D01*
X154208416Y-96946182D01*
X154281242Y-97082429D01*
X154319954Y-97129600D01*
X154281242Y-97176771D01*
X154208416Y-97313018D01*
X154163571Y-97460855D01*
X154148428Y-97614600D01*
X154148428Y-97914600D01*
X154163571Y-98068345D01*
X154208416Y-98216182D01*
X154281242Y-98352429D01*
X154319954Y-98399600D01*
X154281242Y-98446771D01*
X154208416Y-98583018D01*
X154163571Y-98730855D01*
X154148428Y-98884600D01*
X154148428Y-99184600D01*
X154163571Y-99338345D01*
X154208416Y-99486182D01*
X154281242Y-99622429D01*
X154319954Y-99669600D01*
X154281242Y-99716771D01*
X154208416Y-99853018D01*
X154163571Y-100000855D01*
X154148428Y-100154600D01*
X154148428Y-100454600D01*
X154163571Y-100608345D01*
X154208416Y-100756182D01*
X154281242Y-100892429D01*
X154319954Y-100939600D01*
X154281242Y-100986771D01*
X154208416Y-101123018D01*
X154163571Y-101270855D01*
X154148428Y-101424600D01*
X154148428Y-101724600D01*
X154163571Y-101878345D01*
X154208416Y-102026182D01*
X154281242Y-102162429D01*
X154319954Y-102209600D01*
X154281242Y-102256771D01*
X154208416Y-102393018D01*
X154163571Y-102540855D01*
X154148428Y-102694600D01*
X154148428Y-102994600D01*
X154163571Y-103148345D01*
X154208416Y-103296182D01*
X154281242Y-103432429D01*
X154319954Y-103479600D01*
X154281242Y-103526771D01*
X154208416Y-103663018D01*
X154163571Y-103810855D01*
X154148428Y-103964600D01*
X154148428Y-104264600D01*
X154163571Y-104418345D01*
X154208416Y-104566182D01*
X154281242Y-104702429D01*
X154319954Y-104749600D01*
X154281242Y-104796771D01*
X154208416Y-104933018D01*
X154163571Y-105080855D01*
X154148428Y-105234600D01*
X154148428Y-105534600D01*
X154163571Y-105688345D01*
X154208416Y-105836182D01*
X154281242Y-105972429D01*
X154376017Y-106087912D01*
X154360018Y-106089488D01*
X154240320Y-106125798D01*
X154130006Y-106184763D01*
X154033315Y-106264115D01*
X153953963Y-106360806D01*
X153894998Y-106471120D01*
X153858688Y-106590818D01*
X153846428Y-106715300D01*
X153846428Y-108715300D01*
X153858688Y-108839782D01*
X153894998Y-108959480D01*
X153953963Y-109069794D01*
X154033315Y-109166485D01*
X154130006Y-109245837D01*
X154240320Y-109304802D01*
X154360018Y-109341112D01*
X154484500Y-109353372D01*
X154499501Y-109353372D01*
X154499500Y-110077228D01*
X154484500Y-110077228D01*
X154360018Y-110089488D01*
X154240320Y-110125798D01*
X154130006Y-110184763D01*
X154033315Y-110264115D01*
X153953963Y-110360806D01*
X153894998Y-110471120D01*
X153858688Y-110590818D01*
X153846428Y-110715300D01*
X153846428Y-112715300D01*
X153858688Y-112839782D01*
X153894998Y-112959480D01*
X153953963Y-113069794D01*
X154033315Y-113166485D01*
X154130006Y-113245837D01*
X154240320Y-113304802D01*
X154360018Y-113341112D01*
X154484500Y-113353372D01*
X154599811Y-113353372D01*
X154599810Y-116535631D01*
X153549114Y-117586328D01*
X151955600Y-117586328D01*
X151831118Y-117598588D01*
X151711420Y-117634898D01*
X151601106Y-117693863D01*
X151504415Y-117773215D01*
X151425063Y-117869906D01*
X151366098Y-117980220D01*
X151329788Y-118099918D01*
X151317528Y-118224400D01*
X151317528Y-119824400D01*
X151329788Y-119948882D01*
X151366098Y-120068580D01*
X151425063Y-120178894D01*
X151504415Y-120275585D01*
X151601106Y-120354937D01*
X151711420Y-120413902D01*
X151831118Y-120450212D01*
X151955600Y-120462472D01*
X153555600Y-120462472D01*
X153680082Y-120450212D01*
X153799780Y-120413902D01*
X153910094Y-120354937D01*
X154006785Y-120275585D01*
X154086137Y-120178894D01*
X154145102Y-120068580D01*
X154160717Y-120017102D01*
X154442503Y-120017102D01*
X154514086Y-120261071D01*
X154769596Y-120381971D01*
X155043784Y-120450700D01*
X155326112Y-120464617D01*
X155605730Y-120423187D01*
X155871892Y-120328003D01*
X155997114Y-120261071D01*
X156068697Y-120017102D01*
X155255600Y-119204005D01*
X154442503Y-120017102D01*
X154160717Y-120017102D01*
X154181412Y-119948882D01*
X154193672Y-119824400D01*
X154193672Y-119817185D01*
X154262898Y-119837497D01*
X155075995Y-119024400D01*
X155435205Y-119024400D01*
X156248302Y-119837497D01*
X156492271Y-119765914D01*
X156613171Y-119510404D01*
X156681900Y-119236216D01*
X156695817Y-118953888D01*
X156654387Y-118674270D01*
X156559203Y-118408108D01*
X156492271Y-118282886D01*
X156248302Y-118211303D01*
X155435205Y-119024400D01*
X155075995Y-119024400D01*
X155061853Y-119010258D01*
X155241458Y-118830653D01*
X155255600Y-118844795D01*
X156068697Y-118031698D01*
X155997114Y-117787729D01*
X155996017Y-117787210D01*
X158586940Y-117787210D01*
X158565800Y-117808350D01*
X158578859Y-117919167D01*
X158618623Y-118037763D01*
X158680760Y-118146322D01*
X158762881Y-118240672D01*
X158861832Y-118317189D01*
X158973809Y-118372931D01*
X159094509Y-118405757D01*
X159169050Y-118411600D01*
X159327800Y-118252850D01*
X159327800Y-118087484D01*
X159418904Y-118198496D01*
X159530749Y-118290284D01*
X159617723Y-118336773D01*
X159692550Y-118411600D01*
X159767091Y-118405757D01*
X159791916Y-118399006D01*
X159796809Y-118400490D01*
X159940800Y-118414672D01*
X160200800Y-118414672D01*
X160344791Y-118400490D01*
X160483248Y-118358490D01*
X160610851Y-118290284D01*
X160722696Y-118198496D01*
X160814484Y-118086651D01*
X160815526Y-118084700D01*
X169427728Y-118084700D01*
X169427728Y-119684700D01*
X169439988Y-119809182D01*
X169476298Y-119928880D01*
X169535263Y-120039194D01*
X169614615Y-120135885D01*
X169711306Y-120215237D01*
X169821620Y-120274202D01*
X169941318Y-120310512D01*
X170065800Y-120322772D01*
X171665800Y-120322772D01*
X171790282Y-120310512D01*
X171909980Y-120274202D01*
X172020294Y-120215237D01*
X172116985Y-120135885D01*
X172196337Y-120039194D01*
X172255302Y-119928880D01*
X172270917Y-119877402D01*
X172552703Y-119877402D01*
X172624286Y-120121371D01*
X172879796Y-120242271D01*
X173153984Y-120311000D01*
X173436312Y-120324917D01*
X173715930Y-120283487D01*
X173982092Y-120188303D01*
X174107314Y-120121371D01*
X174178897Y-119877402D01*
X173365800Y-119064305D01*
X172552703Y-119877402D01*
X172270917Y-119877402D01*
X172291612Y-119809182D01*
X172303872Y-119684700D01*
X172303872Y-119677485D01*
X172373098Y-119697797D01*
X173186195Y-118884700D01*
X173545405Y-118884700D01*
X174358502Y-119697797D01*
X174602471Y-119626214D01*
X174723371Y-119370704D01*
X174792100Y-119096516D01*
X174806017Y-118814188D01*
X174764587Y-118534570D01*
X174669403Y-118268408D01*
X174602471Y-118143186D01*
X174358502Y-118071603D01*
X173545405Y-118884700D01*
X173186195Y-118884700D01*
X172373098Y-118071603D01*
X172303872Y-118091915D01*
X172303872Y-118084700D01*
X172291612Y-117960218D01*
X172270918Y-117891998D01*
X172552703Y-117891998D01*
X173365800Y-118705095D01*
X174178897Y-117891998D01*
X174107314Y-117648029D01*
X173851804Y-117527129D01*
X173577616Y-117458400D01*
X173295288Y-117444483D01*
X173015670Y-117485913D01*
X172749508Y-117581097D01*
X172624286Y-117648029D01*
X172552703Y-117891998D01*
X172270918Y-117891998D01*
X172255302Y-117840520D01*
X172196337Y-117730206D01*
X172116985Y-117633515D01*
X172020294Y-117554163D01*
X171909980Y-117495198D01*
X171790282Y-117458888D01*
X171665800Y-117446628D01*
X170065800Y-117446628D01*
X169941318Y-117458888D01*
X169821620Y-117495198D01*
X169711306Y-117554163D01*
X169614615Y-117633515D01*
X169535263Y-117730206D01*
X169476298Y-117840520D01*
X169439988Y-117960218D01*
X169427728Y-118084700D01*
X160815526Y-118084700D01*
X160882690Y-117959048D01*
X160924690Y-117820591D01*
X160927978Y-117787210D01*
X162279755Y-117787210D01*
X162323224Y-117791491D01*
X162366693Y-117787210D01*
X162366701Y-117787210D01*
X162496714Y-117774405D01*
X162663537Y-117723799D01*
X162817283Y-117641621D01*
X162952041Y-117531027D01*
X162979758Y-117497254D01*
X164226728Y-116250285D01*
X164226728Y-116314100D01*
X164240910Y-116458091D01*
X164282910Y-116596548D01*
X164302734Y-116633636D01*
X164247510Y-116736952D01*
X164205510Y-116875409D01*
X164191328Y-117019400D01*
X164191328Y-117219400D01*
X164205510Y-117363391D01*
X164247510Y-117501848D01*
X164315716Y-117629451D01*
X164407504Y-117741296D01*
X164519349Y-117833084D01*
X164646952Y-117901290D01*
X164785409Y-117943290D01*
X164929400Y-117957472D01*
X165189400Y-117957472D01*
X165333391Y-117943290D01*
X165379400Y-117929333D01*
X165425409Y-117943290D01*
X165569400Y-117957472D01*
X165829400Y-117957472D01*
X165973391Y-117943290D01*
X166111848Y-117901290D01*
X166135050Y-117888888D01*
X166158252Y-117901290D01*
X166296709Y-117943290D01*
X166440700Y-117957472D01*
X166700700Y-117957472D01*
X166844691Y-117943290D01*
X166849584Y-117941806D01*
X166874409Y-117948557D01*
X166948950Y-117954400D01*
X167023777Y-117879573D01*
X167110751Y-117833084D01*
X167222596Y-117741296D01*
X167313700Y-117630284D01*
X167313700Y-117795650D01*
X167472450Y-117954400D01*
X167546991Y-117948557D01*
X167667691Y-117915731D01*
X167779668Y-117859989D01*
X167878619Y-117783472D01*
X167960740Y-117689122D01*
X168022877Y-117580563D01*
X168062641Y-117461967D01*
X168075700Y-117351150D01*
X167916950Y-117192400D01*
X167438772Y-117192400D01*
X167438772Y-117046400D01*
X167916950Y-117046400D01*
X168075700Y-116887650D01*
X168062641Y-116776833D01*
X168022877Y-116658237D01*
X167960740Y-116549678D01*
X167878619Y-116455328D01*
X167850384Y-116433495D01*
X167852800Y-116404500D01*
X167849800Y-115962350D01*
X167691050Y-115803600D01*
X167202872Y-115803600D01*
X167202872Y-115549600D01*
X167691050Y-115549600D01*
X167849800Y-115390850D01*
X167852800Y-114948700D01*
X167842414Y-114824048D01*
X167807909Y-114703818D01*
X167750611Y-114592629D01*
X167672722Y-114494754D01*
X167577236Y-114413956D01*
X167467821Y-114353339D01*
X167372642Y-114322896D01*
X167362845Y-114273640D01*
X167284824Y-114085282D01*
X167171556Y-113915764D01*
X167027393Y-113771601D01*
X166857875Y-113658333D01*
X166810636Y-113638766D01*
X168949814Y-111499588D01*
X168978811Y-111475791D01*
X169073784Y-111360066D01*
X169144356Y-111228037D01*
X169187813Y-111084776D01*
X169198810Y-110973123D01*
X169198810Y-110973114D01*
X169202486Y-110935791D01*
X169198810Y-110898468D01*
X169198810Y-103429895D01*
X169299878Y-103455175D01*
X169569000Y-103337125D01*
X169569000Y-100993000D01*
X169823000Y-100993000D01*
X169823000Y-103337125D01*
X170092122Y-103455175D01*
X170242622Y-103417531D01*
X170554317Y-103279157D01*
X170833027Y-103082633D01*
X171068042Y-102835511D01*
X171250330Y-102547288D01*
X171372886Y-102229041D01*
X171431000Y-101893000D01*
X171431000Y-100993000D01*
X169823000Y-100993000D01*
X169569000Y-100993000D01*
X167961000Y-100993000D01*
X167961000Y-101506598D01*
X166871600Y-100417199D01*
X166871600Y-100355061D01*
X166831826Y-100155102D01*
X166753805Y-99966744D01*
X166668450Y-99839000D01*
X167961000Y-99839000D01*
X167961000Y-100739000D01*
X169569000Y-100739000D01*
X169569000Y-98394875D01*
X169823000Y-98394875D01*
X169823000Y-100739000D01*
X171431000Y-100739000D01*
X171431000Y-99839000D01*
X171372886Y-99502959D01*
X171250330Y-99184712D01*
X171068042Y-98896489D01*
X170833027Y-98649367D01*
X170554317Y-98452843D01*
X170242622Y-98314469D01*
X170092122Y-98276825D01*
X169823000Y-98394875D01*
X169569000Y-98394875D01*
X169299878Y-98276825D01*
X169149378Y-98314469D01*
X168837683Y-98452843D01*
X168558973Y-98649367D01*
X168323958Y-98896489D01*
X168141670Y-99184712D01*
X168019114Y-99502959D01*
X167961000Y-99839000D01*
X166668450Y-99839000D01*
X166640537Y-99797226D01*
X166496374Y-99653063D01*
X166326856Y-99539795D01*
X166138498Y-99461774D01*
X165938539Y-99422000D01*
X165734661Y-99422000D01*
X165534702Y-99461774D01*
X165346344Y-99539795D01*
X165176826Y-99653063D01*
X165032663Y-99797226D01*
X164919395Y-99966744D01*
X164841374Y-100155102D01*
X164801600Y-100355061D01*
X164801600Y-100558939D01*
X164841374Y-100758898D01*
X164919395Y-100947256D01*
X165032663Y-101116774D01*
X165176826Y-101260937D01*
X165346344Y-101374205D01*
X165534702Y-101452226D01*
X165734661Y-101492000D01*
X165796799Y-101492000D01*
X167678811Y-103374013D01*
X167678810Y-107730560D01*
X167622050Y-107673800D01*
X167547509Y-107679643D01*
X167522684Y-107686394D01*
X167517791Y-107684910D01*
X167373800Y-107670728D01*
X167113800Y-107670728D01*
X166969809Y-107684910D01*
X166831352Y-107726910D01*
X166808150Y-107739312D01*
X166789095Y-107729127D01*
X166752447Y-107544883D01*
X166674426Y-107356525D01*
X166561158Y-107187007D01*
X166416995Y-107042844D01*
X166247477Y-106929576D01*
X166059119Y-106851555D01*
X165859160Y-106811781D01*
X165655282Y-106811781D01*
X165455323Y-106851555D01*
X165266965Y-106929576D01*
X165097447Y-107042844D01*
X164953284Y-107187007D01*
X164840016Y-107356525D01*
X164761995Y-107544883D01*
X164722221Y-107744842D01*
X164722221Y-107948720D01*
X164761995Y-108148679D01*
X164840016Y-108337037D01*
X164867452Y-108378098D01*
X164864428Y-108408800D01*
X164864428Y-108585914D01*
X164820809Y-108590210D01*
X164682352Y-108632210D01*
X164554749Y-108700416D01*
X164442904Y-108792204D01*
X164351116Y-108904049D01*
X164282910Y-109031652D01*
X164240910Y-109170109D01*
X164226728Y-109314100D01*
X164226728Y-109665627D01*
X164192606Y-109778110D01*
X164179801Y-109908123D01*
X164179801Y-110318600D01*
X164109061Y-110318600D01*
X163909102Y-110358374D01*
X163720744Y-110436395D01*
X163665260Y-110473468D01*
X162915292Y-110473468D01*
X162990626Y-110291598D01*
X163030400Y-110091639D01*
X163030400Y-109887761D01*
X162990626Y-109687802D01*
X162912605Y-109499444D01*
X162833472Y-109381013D01*
X162833472Y-109352200D01*
X162819290Y-109208209D01*
X162777290Y-109069752D01*
X162709084Y-108942149D01*
X162617296Y-108830304D01*
X162505451Y-108738516D01*
X162377848Y-108670310D01*
X162239391Y-108628310D01*
X162095400Y-108614128D01*
X161895400Y-108614128D01*
X161751409Y-108628310D01*
X161670400Y-108652884D01*
X161589391Y-108628310D01*
X161555802Y-108625002D01*
X161555802Y-108298377D01*
X161587077Y-108251571D01*
X161665098Y-108063213D01*
X161704872Y-107863254D01*
X161704872Y-107801000D01*
X162681225Y-107801000D01*
X162936119Y-107775895D01*
X163263168Y-107676686D01*
X163564578Y-107515579D01*
X163828766Y-107298766D01*
X164045579Y-107034578D01*
X164206686Y-106733168D01*
X164305895Y-106406119D01*
X164339394Y-106066000D01*
X164305895Y-105725881D01*
X164206686Y-105398832D01*
X164045579Y-105097422D01*
X164036005Y-105085755D01*
X164136119Y-105075895D01*
X164463168Y-104976686D01*
X164764578Y-104815579D01*
X165028766Y-104598766D01*
X165245579Y-104334578D01*
X165406686Y-104033168D01*
X165505895Y-103706119D01*
X165539394Y-103366000D01*
X165505895Y-103025881D01*
X165406686Y-102698832D01*
X165245579Y-102397422D01*
X165028766Y-102133234D01*
X164764578Y-101916421D01*
X164463168Y-101755314D01*
X164136119Y-101656105D01*
X163881225Y-101631000D01*
X161910775Y-101631000D01*
X161655881Y-101656105D01*
X161328832Y-101755314D01*
X161027422Y-101916421D01*
X160763234Y-102133234D01*
X160546421Y-102397422D01*
X160385314Y-102698832D01*
X160286105Y-103025881D01*
X160252606Y-103366000D01*
X160286105Y-103706119D01*
X160385314Y-104033168D01*
X160546421Y-104334578D01*
X160555995Y-104346245D01*
X160455881Y-104356105D01*
X160128832Y-104455314D01*
X159827422Y-104616421D01*
X159563234Y-104833234D01*
X159346421Y-105097422D01*
X159185314Y-105398832D01*
X159086105Y-105725881D01*
X159062306Y-105967519D01*
X159032302Y-105973487D01*
X158843944Y-106051508D01*
X158674426Y-106164776D01*
X158646400Y-106192802D01*
X158646400Y-103319848D01*
X158690474Y-103275774D01*
X158803742Y-103106256D01*
X158881763Y-102917898D01*
X158921537Y-102717939D01*
X158921537Y-102514061D01*
X158881763Y-102314102D01*
X158803742Y-102125744D01*
X158690474Y-101956226D01*
X158546311Y-101812063D01*
X158376793Y-101698795D01*
X158188435Y-101620774D01*
X157988476Y-101581000D01*
X157921521Y-101581000D01*
X157921521Y-99304803D01*
X158155881Y-99375895D01*
X158496000Y-99409394D01*
X158836118Y-99375895D01*
X159163167Y-99276686D01*
X159464577Y-99115579D01*
X159728766Y-98898766D01*
X159945579Y-98634578D01*
X160106686Y-98333168D01*
X160205895Y-98006119D01*
X160231000Y-97751225D01*
X160231000Y-95780775D01*
X160205895Y-95525881D01*
X160107341Y-95200990D01*
X163157928Y-95200990D01*
X163157928Y-97366000D01*
X163170188Y-97490482D01*
X163206498Y-97610180D01*
X163265463Y-97720494D01*
X163344815Y-97817185D01*
X163441506Y-97896537D01*
X163551820Y-97955502D01*
X163671518Y-97991812D01*
X163796000Y-98004072D01*
X167796000Y-98004072D01*
X167920482Y-97991812D01*
X168040180Y-97955502D01*
X168150494Y-97896537D01*
X168247185Y-97817185D01*
X168326537Y-97720494D01*
X168385502Y-97610180D01*
X168421812Y-97490482D01*
X168434072Y-97366000D01*
X168434072Y-95200990D01*
X169864041Y-95200990D01*
X169907510Y-95205271D01*
X169950979Y-95200990D01*
X169950987Y-95200990D01*
X170081000Y-95188185D01*
X170247823Y-95137579D01*
X170401569Y-95055401D01*
X170536327Y-94944807D01*
X170564044Y-94911034D01*
X170933306Y-94541772D01*
X171919800Y-94541772D01*
X172044282Y-94529512D01*
X172163980Y-94493202D01*
X172274294Y-94434237D01*
X172370985Y-94354885D01*
X172450337Y-94258194D01*
X172509302Y-94147880D01*
X172524917Y-94096402D01*
X172806703Y-94096402D01*
X172878286Y-94340371D01*
X173133796Y-94461271D01*
X173407984Y-94530000D01*
X173690312Y-94543917D01*
X173969930Y-94502487D01*
X174236092Y-94407303D01*
X174361314Y-94340371D01*
X174432897Y-94096402D01*
X173619800Y-93283305D01*
X172806703Y-94096402D01*
X172524917Y-94096402D01*
X172545612Y-94028182D01*
X172557872Y-93903700D01*
X172557872Y-93896485D01*
X172627098Y-93916797D01*
X173440195Y-93103700D01*
X173799405Y-93103700D01*
X174612502Y-93916797D01*
X174856471Y-93845214D01*
X174977371Y-93589704D01*
X175046100Y-93315516D01*
X175060017Y-93033188D01*
X175018587Y-92753570D01*
X174923403Y-92487408D01*
X174856471Y-92362186D01*
X174612502Y-92290603D01*
X173799405Y-93103700D01*
X173440195Y-93103700D01*
X172627098Y-92290603D01*
X172557872Y-92310915D01*
X172557872Y-92303700D01*
X172545612Y-92179218D01*
X172524918Y-92110998D01*
X172806703Y-92110998D01*
X173619800Y-92924095D01*
X174432897Y-92110998D01*
X174361314Y-91867029D01*
X174105804Y-91746129D01*
X173831616Y-91677400D01*
X173549288Y-91663483D01*
X173269670Y-91704913D01*
X173003508Y-91800097D01*
X172878286Y-91867029D01*
X172806703Y-92110998D01*
X172524918Y-92110998D01*
X172509302Y-92059520D01*
X172450337Y-91949206D01*
X172370985Y-91852515D01*
X172274294Y-91773163D01*
X172163980Y-91714198D01*
X172044282Y-91677888D01*
X171919800Y-91665628D01*
X170319800Y-91665628D01*
X170195318Y-91677888D01*
X170075620Y-91714198D01*
X169965306Y-91773163D01*
X169868615Y-91852515D01*
X169789263Y-91949206D01*
X169730298Y-92059520D01*
X169693988Y-92179218D01*
X169681728Y-92303700D01*
X169681728Y-93290194D01*
X169540932Y-93430990D01*
X156218005Y-93430990D01*
X156237400Y-93353616D01*
X156251317Y-93071288D01*
X156209887Y-92791670D01*
X156114703Y-92525508D01*
X156047771Y-92400286D01*
X155803802Y-92328703D01*
X154990705Y-93141800D01*
X155004848Y-93155943D01*
X154825243Y-93335548D01*
X154811100Y-93321405D01*
X154796958Y-93335548D01*
X154617353Y-93155943D01*
X154631495Y-93141800D01*
X153818398Y-92328703D01*
X153749172Y-92349015D01*
X153749172Y-92341800D01*
X153736912Y-92217318D01*
X153716218Y-92149098D01*
X153998003Y-92149098D01*
X154811100Y-92962195D01*
X155624197Y-92149098D01*
X155552614Y-91905129D01*
X155297104Y-91784229D01*
X155022916Y-91715500D01*
X154740588Y-91701583D01*
X154460970Y-91743013D01*
X154194808Y-91838197D01*
X154069586Y-91905129D01*
X153998003Y-92149098D01*
X153716218Y-92149098D01*
X153700602Y-92097620D01*
X153641637Y-91987306D01*
X153562285Y-91890615D01*
X153465594Y-91811263D01*
X153355280Y-91752298D01*
X153235582Y-91715988D01*
X153111100Y-91703728D01*
X151511100Y-91703728D01*
X151386618Y-91715988D01*
X151266920Y-91752298D01*
X151156606Y-91811263D01*
X151059915Y-91890615D01*
X150980563Y-91987306D01*
X150921598Y-92097620D01*
X150885288Y-92217318D01*
X150873028Y-92341800D01*
X150873028Y-93941800D01*
X150885288Y-94066282D01*
X150921598Y-94185980D01*
X150922250Y-94187200D01*
X139855372Y-94187200D01*
X139855372Y-93522900D01*
X139843112Y-93398418D01*
X139806802Y-93278720D01*
X139747837Y-93168406D01*
X139668485Y-93071715D01*
X139571794Y-92992363D01*
X139461480Y-92933398D01*
X139341782Y-92897088D01*
X139217300Y-92884828D01*
X137617300Y-92884828D01*
X137492818Y-92897088D01*
X137373120Y-92933398D01*
X137262806Y-92992363D01*
X137166115Y-93071715D01*
X137086763Y-93168406D01*
X137027798Y-93278720D01*
X136991488Y-93398418D01*
X136979228Y-93522900D01*
X136979228Y-93530115D01*
X136910002Y-93509803D01*
X136096905Y-94322900D01*
X136111048Y-94337043D01*
X135931443Y-94516648D01*
X135917300Y-94502505D01*
X135354409Y-95065396D01*
X135301837Y-95083023D01*
X135193278Y-95145160D01*
X135098928Y-95227281D01*
X135022411Y-95326232D01*
X134966669Y-95438209D01*
X134933843Y-95558909D01*
X134928000Y-95633450D01*
X135005750Y-95711200D01*
X133653525Y-95711200D01*
X133644712Y-95621718D01*
X133608402Y-95502020D01*
X133549437Y-95391706D01*
X133470085Y-95295015D01*
X133373394Y-95215663D01*
X133263080Y-95156698D01*
X133143382Y-95120388D01*
X133018900Y-95108128D01*
X131318900Y-95108128D01*
X131194418Y-95120388D01*
X131074720Y-95156698D01*
X130964406Y-95215663D01*
X130867715Y-95295015D01*
X130820494Y-95352554D01*
X130803885Y-95332315D01*
X130707194Y-95252963D01*
X130596880Y-95193998D01*
X130477182Y-95157688D01*
X130352700Y-95145428D01*
X128752700Y-95145428D01*
X128628218Y-95157688D01*
X128508520Y-95193998D01*
X128398206Y-95252963D01*
X128301515Y-95332315D01*
X128222163Y-95429006D01*
X128163198Y-95539320D01*
X128126888Y-95659018D01*
X128114628Y-95783500D01*
X128114628Y-95790715D01*
X128045402Y-95770403D01*
X127232305Y-96583500D01*
X126873095Y-96583500D01*
X126059998Y-95770403D01*
X125816029Y-95841986D01*
X125695129Y-96097496D01*
X125626400Y-96371684D01*
X125612483Y-96654012D01*
X125043400Y-96654012D01*
X125043400Y-95590798D01*
X126239603Y-95590798D01*
X127052700Y-96403895D01*
X127865797Y-95590798D01*
X127794214Y-95346829D01*
X127538704Y-95225929D01*
X127264516Y-95157200D01*
X126982188Y-95143283D01*
X126702570Y-95184713D01*
X126436408Y-95279897D01*
X126311186Y-95346829D01*
X126239603Y-95590798D01*
X125043400Y-95590798D01*
X125043400Y-94393412D01*
X134477083Y-94393412D01*
X134518513Y-94673030D01*
X134613697Y-94939192D01*
X134680629Y-95064414D01*
X134924598Y-95135997D01*
X135737695Y-94322900D01*
X134924598Y-93509803D01*
X134680629Y-93581386D01*
X134559729Y-93836896D01*
X134491000Y-94111084D01*
X134477083Y-94393412D01*
X125043400Y-94393412D01*
X125043400Y-93330198D01*
X135104203Y-93330198D01*
X135917300Y-94143295D01*
X136730397Y-93330198D01*
X136658814Y-93086229D01*
X136403304Y-92965329D01*
X136129116Y-92896600D01*
X135846788Y-92882683D01*
X135567170Y-92924113D01*
X135301008Y-93019297D01*
X135175786Y-93086229D01*
X135104203Y-93330198D01*
X125043400Y-93330198D01*
X125043400Y-88772200D01*
X175743400Y-88772200D01*
X175743401Y-122962200D01*
G37*
G04 #@! TD.AperFunction*
D22*
X134829600Y-112653561D02*
X134829600Y-112857439D01*
X134838563Y-112902500D01*
X134787600Y-112902500D01*
X134787600Y-112882500D01*
X134767600Y-112882500D01*
X134767600Y-112636402D01*
X134775502Y-112628500D01*
X134787600Y-112628500D01*
X134787600Y-112616402D01*
X134795502Y-112608500D01*
X134838563Y-112608500D01*
X134829600Y-112653561D01*
G04 #@! TA.AperFunction,Conductor*
D23*
G36*
X134829600Y-112653561D02*
G01*
X134829600Y-112857439D01*
X134838563Y-112902500D01*
X134787600Y-112902500D01*
X134787600Y-112882500D01*
X134767600Y-112882500D01*
X134767600Y-112636402D01*
X134775502Y-112628500D01*
X134787600Y-112628500D01*
X134787600Y-112616402D01*
X134795502Y-112608500D01*
X134838563Y-112608500D01*
X134829600Y-112653561D01*
G37*
G04 #@! TD.AperFunction*
D22*
X138823700Y-112459700D02*
X138843700Y-112459700D01*
X138843700Y-112713700D01*
X138823700Y-112713700D01*
X138823700Y-112733700D01*
X138569700Y-112733700D01*
X138569700Y-112713700D01*
X138549700Y-112713700D01*
X138549700Y-112459700D01*
X138569700Y-112459700D01*
X138569700Y-112439700D01*
X138823700Y-112439700D01*
X138823700Y-112459700D01*
G04 #@! TA.AperFunction,Conductor*
D23*
G36*
X138823700Y-112459700D02*
G01*
X138843700Y-112459700D01*
X138843700Y-112713700D01*
X138823700Y-112713700D01*
X138823700Y-112733700D01*
X138569700Y-112733700D01*
X138569700Y-112713700D01*
X138549700Y-112713700D01*
X138549700Y-112459700D01*
X138569700Y-112459700D01*
X138569700Y-112439700D01*
X138823700Y-112439700D01*
X138823700Y-112459700D01*
G37*
G04 #@! TD.AperFunction*
D22*
X145114430Y-98078807D02*
X145158565Y-98224299D01*
X145230235Y-98358385D01*
X145284905Y-98425000D01*
X145230235Y-98491615D01*
X145158565Y-98625701D01*
X145114430Y-98771193D01*
X145099528Y-98922500D01*
X145099528Y-99197500D01*
X145114430Y-99348807D01*
X145158565Y-99494299D01*
X145230235Y-99628385D01*
X145284905Y-99695000D01*
X145230235Y-99761615D01*
X145158565Y-99895701D01*
X145114430Y-100041193D01*
X145099528Y-100192500D01*
X145099528Y-100467500D01*
X145114430Y-100618807D01*
X145158565Y-100764299D01*
X145230235Y-100898385D01*
X145284905Y-100965000D01*
X145230235Y-101031615D01*
X145158565Y-101165701D01*
X145114430Y-101311193D01*
X145099528Y-101462500D01*
X145099528Y-101737500D01*
X145114430Y-101888807D01*
X145158565Y-102034299D01*
X145230235Y-102168385D01*
X145284905Y-102235000D01*
X145230235Y-102301615D01*
X145158565Y-102435701D01*
X145114430Y-102581193D01*
X145099528Y-102732500D01*
X145099528Y-103007500D01*
X145114430Y-103158807D01*
X145158565Y-103304299D01*
X145230235Y-103438385D01*
X145284905Y-103505000D01*
X145230235Y-103571615D01*
X145158565Y-103705701D01*
X145114430Y-103851193D01*
X145099528Y-104002500D01*
X145099528Y-104277500D01*
X145103265Y-104315445D01*
X139455698Y-109963013D01*
X139426700Y-109986811D01*
X139402902Y-110015809D01*
X139402901Y-110015810D01*
X139331726Y-110102536D01*
X139261154Y-110234566D01*
X139237188Y-110313574D01*
X139217698Y-110377826D01*
X139213180Y-110423695D01*
X139203024Y-110526812D01*
X139206701Y-110564144D01*
X139206701Y-111186830D01*
X139121182Y-111160888D01*
X138996700Y-111148628D01*
X138982450Y-111151700D01*
X138823702Y-111310448D01*
X138823702Y-111269490D01*
X138886941Y-111218022D01*
X138966687Y-111121655D01*
X139026101Y-111011583D01*
X139062899Y-110892034D01*
X139072600Y-110775750D01*
X138913850Y-110617000D01*
X137564600Y-110617000D01*
X137564600Y-111241250D01*
X137723350Y-111400000D01*
X137891997Y-111400727D01*
X137866163Y-111432206D01*
X137807198Y-111542520D01*
X137770888Y-111662218D01*
X137758628Y-111786700D01*
X137760407Y-112084519D01*
X137729102Y-111981320D01*
X137670137Y-111871006D01*
X137590785Y-111774315D01*
X137494094Y-111694963D01*
X137383780Y-111635998D01*
X137264082Y-111599688D01*
X137139600Y-111587428D01*
X136851522Y-111587428D01*
X136851522Y-111401294D01*
X137151850Y-111400000D01*
X137310600Y-111241250D01*
X137310600Y-110617000D01*
X137290600Y-110617000D01*
X137290600Y-110363000D01*
X137310600Y-110363000D01*
X137310600Y-110343000D01*
X137564600Y-110343000D01*
X137564600Y-110363000D01*
X138913850Y-110363000D01*
X139072600Y-110204250D01*
X139062899Y-110087966D01*
X139026101Y-109968417D01*
X138978844Y-109880867D01*
X138979937Y-109879774D01*
X139093205Y-109710256D01*
X139171226Y-109521898D01*
X139211000Y-109321939D01*
X139211000Y-109118061D01*
X139171226Y-108918102D01*
X139093205Y-108729744D01*
X138979937Y-108560226D01*
X138941869Y-108522158D01*
X138944965Y-108518385D01*
X139016635Y-108384299D01*
X139060770Y-108238807D01*
X139075672Y-108087500D01*
X139075672Y-107812500D01*
X139060770Y-107661193D01*
X139016635Y-107515701D01*
X138944965Y-107381615D01*
X138890295Y-107315000D01*
X138944965Y-107248385D01*
X139016635Y-107114299D01*
X139060770Y-106968807D01*
X139075672Y-106817500D01*
X139075672Y-106542500D01*
X139060770Y-106391193D01*
X139016635Y-106245701D01*
X138944965Y-106111615D01*
X138890295Y-106045000D01*
X138944965Y-105978385D01*
X139016635Y-105844299D01*
X139060770Y-105698807D01*
X139075672Y-105547500D01*
X139075672Y-105272500D01*
X139060770Y-105121193D01*
X139016635Y-104975701D01*
X138944965Y-104841615D01*
X138890295Y-104775000D01*
X138944965Y-104708385D01*
X139016635Y-104574299D01*
X139060770Y-104428807D01*
X139071644Y-104318401D01*
X139507649Y-103882396D01*
X139541417Y-103854683D01*
X139575871Y-103812702D01*
X139652011Y-103719925D01*
X139701774Y-103626824D01*
X139734189Y-103566179D01*
X139784795Y-103399356D01*
X139797600Y-103269343D01*
X139797600Y-103269335D01*
X139801881Y-103225866D01*
X139797600Y-103182397D01*
X139797600Y-98005010D01*
X145107162Y-98005010D01*
X145114430Y-98078807D01*
G04 #@! TA.AperFunction,Conductor*
D23*
G36*
X145114430Y-98078807D02*
G01*
X145158565Y-98224299D01*
X145230235Y-98358385D01*
X145284905Y-98425000D01*
X145230235Y-98491615D01*
X145158565Y-98625701D01*
X145114430Y-98771193D01*
X145099528Y-98922500D01*
X145099528Y-99197500D01*
X145114430Y-99348807D01*
X145158565Y-99494299D01*
X145230235Y-99628385D01*
X145284905Y-99695000D01*
X145230235Y-99761615D01*
X145158565Y-99895701D01*
X145114430Y-100041193D01*
X145099528Y-100192500D01*
X145099528Y-100467500D01*
X145114430Y-100618807D01*
X145158565Y-100764299D01*
X145230235Y-100898385D01*
X145284905Y-100965000D01*
X145230235Y-101031615D01*
X145158565Y-101165701D01*
X145114430Y-101311193D01*
X145099528Y-101462500D01*
X145099528Y-101737500D01*
X145114430Y-101888807D01*
X145158565Y-102034299D01*
X145230235Y-102168385D01*
X145284905Y-102235000D01*
X145230235Y-102301615D01*
X145158565Y-102435701D01*
X145114430Y-102581193D01*
X145099528Y-102732500D01*
X145099528Y-103007500D01*
X145114430Y-103158807D01*
X145158565Y-103304299D01*
X145230235Y-103438385D01*
X145284905Y-103505000D01*
X145230235Y-103571615D01*
X145158565Y-103705701D01*
X145114430Y-103851193D01*
X145099528Y-104002500D01*
X145099528Y-104277500D01*
X145103265Y-104315445D01*
X139455698Y-109963013D01*
X139426700Y-109986811D01*
X139402902Y-110015809D01*
X139402901Y-110015810D01*
X139331726Y-110102536D01*
X139261154Y-110234566D01*
X139237188Y-110313574D01*
X139217698Y-110377826D01*
X139213180Y-110423695D01*
X139203024Y-110526812D01*
X139206701Y-110564144D01*
X139206701Y-111186830D01*
X139121182Y-111160888D01*
X138996700Y-111148628D01*
X138982450Y-111151700D01*
X138823702Y-111310448D01*
X138823702Y-111269490D01*
X138886941Y-111218022D01*
X138966687Y-111121655D01*
X139026101Y-111011583D01*
X139062899Y-110892034D01*
X139072600Y-110775750D01*
X138913850Y-110617000D01*
X137564600Y-110617000D01*
X137564600Y-111241250D01*
X137723350Y-111400000D01*
X137891997Y-111400727D01*
X137866163Y-111432206D01*
X137807198Y-111542520D01*
X137770888Y-111662218D01*
X137758628Y-111786700D01*
X137760407Y-112084519D01*
X137729102Y-111981320D01*
X137670137Y-111871006D01*
X137590785Y-111774315D01*
X137494094Y-111694963D01*
X137383780Y-111635998D01*
X137264082Y-111599688D01*
X137139600Y-111587428D01*
X136851522Y-111587428D01*
X136851522Y-111401294D01*
X137151850Y-111400000D01*
X137310600Y-111241250D01*
X137310600Y-110617000D01*
X137290600Y-110617000D01*
X137290600Y-110363000D01*
X137310600Y-110363000D01*
X137310600Y-110343000D01*
X137564600Y-110343000D01*
X137564600Y-110363000D01*
X138913850Y-110363000D01*
X139072600Y-110204250D01*
X139062899Y-110087966D01*
X139026101Y-109968417D01*
X138978844Y-109880867D01*
X138979937Y-109879774D01*
X139093205Y-109710256D01*
X139171226Y-109521898D01*
X139211000Y-109321939D01*
X139211000Y-109118061D01*
X139171226Y-108918102D01*
X139093205Y-108729744D01*
X138979937Y-108560226D01*
X138941869Y-108522158D01*
X138944965Y-108518385D01*
X139016635Y-108384299D01*
X139060770Y-108238807D01*
X139075672Y-108087500D01*
X139075672Y-107812500D01*
X139060770Y-107661193D01*
X139016635Y-107515701D01*
X138944965Y-107381615D01*
X138890295Y-107315000D01*
X138944965Y-107248385D01*
X139016635Y-107114299D01*
X139060770Y-106968807D01*
X139075672Y-106817500D01*
X139075672Y-106542500D01*
X139060770Y-106391193D01*
X139016635Y-106245701D01*
X138944965Y-106111615D01*
X138890295Y-106045000D01*
X138944965Y-105978385D01*
X139016635Y-105844299D01*
X139060770Y-105698807D01*
X139075672Y-105547500D01*
X139075672Y-105272500D01*
X139060770Y-105121193D01*
X139016635Y-104975701D01*
X138944965Y-104841615D01*
X138890295Y-104775000D01*
X138944965Y-104708385D01*
X139016635Y-104574299D01*
X139060770Y-104428807D01*
X139071644Y-104318401D01*
X139507649Y-103882396D01*
X139541417Y-103854683D01*
X139575871Y-103812702D01*
X139652011Y-103719925D01*
X139701774Y-103626824D01*
X139734189Y-103566179D01*
X139784795Y-103399356D01*
X139797600Y-103269343D01*
X139797600Y-103269335D01*
X139801881Y-103225866D01*
X139797600Y-103182397D01*
X139797600Y-98005010D01*
X145107162Y-98005010D01*
X145114430Y-98078807D01*
G37*
G04 #@! TD.AperFunction*
D22*
X149213500Y-97637600D02*
X149233500Y-97637600D01*
X149233500Y-97891600D01*
X149213500Y-97891600D01*
X149213500Y-97911600D01*
X148959500Y-97911600D01*
X148959500Y-97891600D01*
X148939500Y-97891600D01*
X148939500Y-97818713D01*
X149060569Y-97754001D01*
X149195327Y-97643407D01*
X149213500Y-97621263D01*
X149213500Y-97637600D01*
G04 #@! TA.AperFunction,Conductor*
D23*
G36*
X149213500Y-97637600D02*
G01*
X149233500Y-97637600D01*
X149233500Y-97891600D01*
X149213500Y-97891600D01*
X149213500Y-97911600D01*
X148959500Y-97911600D01*
X148959500Y-97891600D01*
X148939500Y-97891600D01*
X148939500Y-97818713D01*
X149060569Y-97754001D01*
X149195327Y-97643407D01*
X149213500Y-97621263D01*
X149213500Y-97637600D01*
G37*
G04 #@! TD.AperFunction*
G04 #@! TD*
M02*
