G04 #@! TF.GenerationSoftware,KiCad,Pcbnew,(5.1.9)-1*
G04 #@! TF.CreationDate,2021-01-15T03:22:01+08:00*
G04 #@! TF.ProjectId,opl3,6f706c33-2e6b-4696-9361-645f70636258,rev?*
G04 #@! TF.SameCoordinates,Original*
G04 #@! TF.FileFunction,Copper,L2,Bot*
G04 #@! TF.FilePolarity,Positive*
%FSLAX46Y46*%
G04 Gerber Fmt 4.6, Leading zero omitted, Abs format (unit mm)*
G04 Created by KiCad (PCBNEW (5.1.9)-1) date 2021-01-15 03:22:01*
%MOMM*%
%LPD*%
G01*
G04 APERTURE LIST*
G04 #@! TA.AperFunction,ComponentPad*
%ADD10C,1.600000*%
G04 #@! TD*
G04 #@! TA.AperFunction,ComponentPad*
%ADD11R,1.600000X1.600000*%
G04 #@! TD*
G04 #@! TA.AperFunction,ComponentPad*
%ADD12O,2.200000X4.000000*%
G04 #@! TD*
G04 #@! TA.AperFunction,ComponentPad*
%ADD13O,4.000000X2.200000*%
G04 #@! TD*
G04 #@! TA.AperFunction,ComponentPad*
%ADD14R,4.000000X2.200000*%
G04 #@! TD*
G04 #@! TA.AperFunction,ComponentPad*
%ADD15O,1.700000X1.700000*%
G04 #@! TD*
G04 #@! TA.AperFunction,ComponentPad*
%ADD16R,1.700000X1.700000*%
G04 #@! TD*
G04 #@! TA.AperFunction,ViaPad*
%ADD17C,0.800000*%
G04 #@! TD*
G04 #@! TA.AperFunction,Conductor*
%ADD18C,0.250000*%
G04 #@! TD*
G04 #@! TA.AperFunction,Conductor*
%ADD19C,0.500000*%
G04 #@! TD*
G04 #@! TA.AperFunction,Conductor*
%ADD20C,0.254000*%
G04 #@! TD*
G04 #@! TA.AperFunction,Conductor*
%ADD21C,0.100000*%
G04 #@! TD*
G04 APERTURE END LIST*
D10*
G04 #@! TO.P,C5,2*
G04 #@! TO.N,GND*
X173365800Y-118884700D03*
D11*
G04 #@! TO.P,C5,1*
G04 #@! TO.N,+5V*
X170865800Y-118884700D03*
G04 #@! TD*
G04 #@! TO.P,R22,2*
G04 #@! TO.N,Net-(C22-Pad1)*
G04 #@! TA.AperFunction,SMDPad,CuDef*
G36*
G01*
X166673200Y-106590000D02*
X166473200Y-106590000D01*
G75*
G02*
X166373200Y-106490000I0J100000D01*
G01*
X166373200Y-106230000D01*
G75*
G02*
X166473200Y-106130000I100000J0D01*
G01*
X166673200Y-106130000D01*
G75*
G02*
X166773200Y-106230000I0J-100000D01*
G01*
X166773200Y-106490000D01*
G75*
G02*
X166673200Y-106590000I-100000J0D01*
G01*
G37*
G04 #@! TD.AperFunction*
G04 #@! TO.P,R22,1*
G04 #@! TO.N,GND*
G04 #@! TA.AperFunction,SMDPad,CuDef*
G36*
G01*
X166673200Y-107230000D02*
X166473200Y-107230000D01*
G75*
G02*
X166373200Y-107130000I0J100000D01*
G01*
X166373200Y-106870000D01*
G75*
G02*
X166473200Y-106770000I100000J0D01*
G01*
X166673200Y-106770000D01*
G75*
G02*
X166773200Y-106870000I0J-100000D01*
G01*
X166773200Y-107130000D01*
G75*
G02*
X166673200Y-107230000I-100000J0D01*
G01*
G37*
G04 #@! TD.AperFunction*
G04 #@! TD*
G04 #@! TO.P,R12,2*
G04 #@! TO.N,GND*
G04 #@! TA.AperFunction,SMDPad,CuDef*
G36*
G01*
X161695300Y-109094600D02*
X161695300Y-109294600D01*
G75*
G02*
X161595300Y-109394600I-100000J0D01*
G01*
X161335300Y-109394600D01*
G75*
G02*
X161235300Y-109294600I0J100000D01*
G01*
X161235300Y-109094600D01*
G75*
G02*
X161335300Y-108994600I100000J0D01*
G01*
X161595300Y-108994600D01*
G75*
G02*
X161695300Y-109094600I0J-100000D01*
G01*
G37*
G04 #@! TD.AperFunction*
G04 #@! TO.P,R12,1*
G04 #@! TO.N,Net-(R12-Pad1)*
G04 #@! TA.AperFunction,SMDPad,CuDef*
G36*
G01*
X162335300Y-109094600D02*
X162335300Y-109294600D01*
G75*
G02*
X162235300Y-109394600I-100000J0D01*
G01*
X161975300Y-109394600D01*
G75*
G02*
X161875300Y-109294600I0J100000D01*
G01*
X161875300Y-109094600D01*
G75*
G02*
X161975300Y-108994600I100000J0D01*
G01*
X162235300Y-108994600D01*
G75*
G02*
X162335300Y-109094600I0J-100000D01*
G01*
G37*
G04 #@! TD.AperFunction*
G04 #@! TD*
G04 #@! TO.P,R11,2*
G04 #@! TO.N,Net-(R11-Pad2)*
G04 #@! TA.AperFunction,SMDPad,CuDef*
G36*
G01*
X158520300Y-109094600D02*
X158520300Y-109294600D01*
G75*
G02*
X158420300Y-109394600I-100000J0D01*
G01*
X158160300Y-109394600D01*
G75*
G02*
X158060300Y-109294600I0J100000D01*
G01*
X158060300Y-109094600D01*
G75*
G02*
X158160300Y-108994600I100000J0D01*
G01*
X158420300Y-108994600D01*
G75*
G02*
X158520300Y-109094600I0J-100000D01*
G01*
G37*
G04 #@! TD.AperFunction*
G04 #@! TO.P,R11,1*
G04 #@! TO.N,GND*
G04 #@! TA.AperFunction,SMDPad,CuDef*
G36*
G01*
X159160300Y-109094600D02*
X159160300Y-109294600D01*
G75*
G02*
X159060300Y-109394600I-100000J0D01*
G01*
X158800300Y-109394600D01*
G75*
G02*
X158700300Y-109294600I0J100000D01*
G01*
X158700300Y-109094600D01*
G75*
G02*
X158800300Y-108994600I100000J0D01*
G01*
X159060300Y-108994600D01*
G75*
G02*
X159160300Y-109094600I0J-100000D01*
G01*
G37*
G04 #@! TD.AperFunction*
G04 #@! TD*
G04 #@! TO.P,R10,2*
G04 #@! TO.N,Net-(C22-Pad1)*
G04 #@! TA.AperFunction,SMDPad,CuDef*
G36*
G01*
X165520200Y-105014700D02*
X165520200Y-104814700D01*
G75*
G02*
X165620200Y-104714700I100000J0D01*
G01*
X165880200Y-104714700D01*
G75*
G02*
X165980200Y-104814700I0J-100000D01*
G01*
X165980200Y-105014700D01*
G75*
G02*
X165880200Y-105114700I-100000J0D01*
G01*
X165620200Y-105114700D01*
G75*
G02*
X165520200Y-105014700I0J100000D01*
G01*
G37*
G04 #@! TD.AperFunction*
G04 #@! TO.P,R10,1*
G04 #@! TO.N,Net-(J2-PadR)*
G04 #@! TA.AperFunction,SMDPad,CuDef*
G36*
G01*
X164880200Y-105014700D02*
X164880200Y-104814700D01*
G75*
G02*
X164980200Y-104714700I100000J0D01*
G01*
X165240200Y-104714700D01*
G75*
G02*
X165340200Y-104814700I0J-100000D01*
G01*
X165340200Y-105014700D01*
G75*
G02*
X165240200Y-105114700I-100000J0D01*
G01*
X164980200Y-105114700D01*
G75*
G02*
X164880200Y-105014700I0J100000D01*
G01*
G37*
G04 #@! TD.AperFunction*
G04 #@! TD*
G04 #@! TO.P,R9,2*
G04 #@! TO.N,Net-(C21-Pad1)*
G04 #@! TA.AperFunction,SMDPad,CuDef*
G36*
G01*
X165698500Y-98489600D02*
X165898500Y-98489600D01*
G75*
G02*
X165998500Y-98589600I0J-100000D01*
G01*
X165998500Y-98849600D01*
G75*
G02*
X165898500Y-98949600I-100000J0D01*
G01*
X165698500Y-98949600D01*
G75*
G02*
X165598500Y-98849600I0J100000D01*
G01*
X165598500Y-98589600D01*
G75*
G02*
X165698500Y-98489600I100000J0D01*
G01*
G37*
G04 #@! TD.AperFunction*
G04 #@! TO.P,R9,1*
G04 #@! TO.N,Net-(J2-PadT)*
G04 #@! TA.AperFunction,SMDPad,CuDef*
G36*
G01*
X165698500Y-97849600D02*
X165898500Y-97849600D01*
G75*
G02*
X165998500Y-97949600I0J-100000D01*
G01*
X165998500Y-98209600D01*
G75*
G02*
X165898500Y-98309600I-100000J0D01*
G01*
X165698500Y-98309600D01*
G75*
G02*
X165598500Y-98209600I0J100000D01*
G01*
X165598500Y-97949600D01*
G75*
G02*
X165698500Y-97849600I100000J0D01*
G01*
G37*
G04 #@! TD.AperFunction*
G04 #@! TD*
G04 #@! TO.P,R6,2*
G04 #@! TO.N,Net-(C21-Pad1)*
G04 #@! TA.AperFunction,SMDPad,CuDef*
G36*
G01*
X166511300Y-98489600D02*
X166711300Y-98489600D01*
G75*
G02*
X166811300Y-98589600I0J-100000D01*
G01*
X166811300Y-98849600D01*
G75*
G02*
X166711300Y-98949600I-100000J0D01*
G01*
X166511300Y-98949600D01*
G75*
G02*
X166411300Y-98849600I0J100000D01*
G01*
X166411300Y-98589600D01*
G75*
G02*
X166511300Y-98489600I100000J0D01*
G01*
G37*
G04 #@! TD.AperFunction*
G04 #@! TO.P,R6,1*
G04 #@! TO.N,GND*
G04 #@! TA.AperFunction,SMDPad,CuDef*
G36*
G01*
X166511300Y-97849600D02*
X166711300Y-97849600D01*
G75*
G02*
X166811300Y-97949600I0J-100000D01*
G01*
X166811300Y-98209600D01*
G75*
G02*
X166711300Y-98309600I-100000J0D01*
G01*
X166511300Y-98309600D01*
G75*
G02*
X166411300Y-98209600I0J100000D01*
G01*
X166411300Y-97949600D01*
G75*
G02*
X166511300Y-97849600I100000J0D01*
G01*
G37*
G04 #@! TD.AperFunction*
G04 #@! TD*
G04 #@! TO.P,R4,2*
G04 #@! TO.N,Net-(R11-Pad2)*
G04 #@! TA.AperFunction,SMDPad,CuDef*
G36*
G01*
X158202300Y-111593800D02*
X158002300Y-111593800D01*
G75*
G02*
X157902300Y-111493800I0J100000D01*
G01*
X157902300Y-111233800D01*
G75*
G02*
X158002300Y-111133800I100000J0D01*
G01*
X158202300Y-111133800D01*
G75*
G02*
X158302300Y-111233800I0J-100000D01*
G01*
X158302300Y-111493800D01*
G75*
G02*
X158202300Y-111593800I-100000J0D01*
G01*
G37*
G04 #@! TD.AperFunction*
G04 #@! TO.P,R4,1*
G04 #@! TO.N,Net-(C20-Pad2)*
G04 #@! TA.AperFunction,SMDPad,CuDef*
G36*
G01*
X158202300Y-112233800D02*
X158002300Y-112233800D01*
G75*
G02*
X157902300Y-112133800I0J100000D01*
G01*
X157902300Y-111873800D01*
G75*
G02*
X158002300Y-111773800I100000J0D01*
G01*
X158202300Y-111773800D01*
G75*
G02*
X158302300Y-111873800I0J-100000D01*
G01*
X158302300Y-112133800D01*
G75*
G02*
X158202300Y-112233800I-100000J0D01*
G01*
G37*
G04 #@! TD.AperFunction*
G04 #@! TD*
G04 #@! TO.P,R2,2*
G04 #@! TO.N,Net-(R12-Pad1)*
G04 #@! TA.AperFunction,SMDPad,CuDef*
G36*
G01*
X162126600Y-111606500D02*
X161926600Y-111606500D01*
G75*
G02*
X161826600Y-111506500I0J100000D01*
G01*
X161826600Y-111246500D01*
G75*
G02*
X161926600Y-111146500I100000J0D01*
G01*
X162126600Y-111146500D01*
G75*
G02*
X162226600Y-111246500I0J-100000D01*
G01*
X162226600Y-111506500D01*
G75*
G02*
X162126600Y-111606500I-100000J0D01*
G01*
G37*
G04 #@! TD.AperFunction*
G04 #@! TO.P,R2,1*
G04 #@! TO.N,Net-(C19-Pad2)*
G04 #@! TA.AperFunction,SMDPad,CuDef*
G36*
G01*
X162126600Y-112246500D02*
X161926600Y-112246500D01*
G75*
G02*
X161826600Y-112146500I0J100000D01*
G01*
X161826600Y-111886500D01*
G75*
G02*
X161926600Y-111786500I100000J0D01*
G01*
X162126600Y-111786500D01*
G75*
G02*
X162226600Y-111886500I0J-100000D01*
G01*
X162226600Y-112146500D01*
G75*
G02*
X162126600Y-112246500I-100000J0D01*
G01*
G37*
G04 #@! TD.AperFunction*
G04 #@! TD*
G04 #@! TO.P,R1,2*
G04 #@! TO.N,Net-(R1-Pad2)*
G04 #@! TA.AperFunction,SMDPad,CuDef*
G36*
G01*
X153008000Y-103465800D02*
X152808000Y-103465800D01*
G75*
G02*
X152708000Y-103365800I0J100000D01*
G01*
X152708000Y-103105800D01*
G75*
G02*
X152808000Y-103005800I100000J0D01*
G01*
X153008000Y-103005800D01*
G75*
G02*
X153108000Y-103105800I0J-100000D01*
G01*
X153108000Y-103365800D01*
G75*
G02*
X153008000Y-103465800I-100000J0D01*
G01*
G37*
G04 #@! TD.AperFunction*
G04 #@! TO.P,R1,1*
G04 #@! TO.N,Net-(R1-Pad1)*
G04 #@! TA.AperFunction,SMDPad,CuDef*
G36*
G01*
X153008000Y-104105800D02*
X152808000Y-104105800D01*
G75*
G02*
X152708000Y-104005800I0J100000D01*
G01*
X152708000Y-103745800D01*
G75*
G02*
X152808000Y-103645800I100000J0D01*
G01*
X153008000Y-103645800D01*
G75*
G02*
X153108000Y-103745800I0J-100000D01*
G01*
X153108000Y-104005800D01*
G75*
G02*
X153008000Y-104105800I-100000J0D01*
G01*
G37*
G04 #@! TD.AperFunction*
G04 #@! TD*
D12*
G04 #@! TO.P,J2,S*
G04 #@! TO.N,GND*
X169696000Y-100866000D03*
D13*
G04 #@! TO.P,J2,R*
G04 #@! TO.N,Net-(J2-PadR)*
X161696000Y-106066000D03*
G04 #@! TO.P,J2,RN*
G04 #@! TO.N,N/C*
X162896000Y-103366000D03*
D12*
G04 #@! TO.P,J2,TN*
X158496000Y-96766000D03*
D14*
G04 #@! TO.P,J2,T*
G04 #@! TO.N,Net-(J2-PadT)*
X165796000Y-96266000D03*
G04 #@! TD*
D15*
G04 #@! TO.P,J1,8*
G04 #@! TO.N,A1*
X132168900Y-114376200D03*
G04 #@! TO.P,J1,7*
G04 #@! TO.N,~RST*
X132168900Y-111836200D03*
G04 #@! TO.P,J1,6*
G04 #@! TO.N,Net-(J1-Pad6)*
X132168900Y-109296200D03*
G04 #@! TO.P,J1,5*
G04 #@! TO.N,~WR*
X132168900Y-106756200D03*
G04 #@! TO.P,J1,4*
G04 #@! TO.N,Net-(J1-Pad4)*
X132168900Y-104216200D03*
G04 #@! TO.P,J1,3*
G04 #@! TO.N,A0*
X132168900Y-101676200D03*
G04 #@! TO.P,J1,2*
G04 #@! TO.N,GND*
X132168900Y-99136200D03*
D16*
G04 #@! TO.P,J1,1*
G04 #@! TO.N,+5V*
X132168900Y-96596200D03*
G04 #@! TD*
G04 #@! TO.P,C22,2*
G04 #@! TO.N,Net-(C22-Pad2)*
G04 #@! TA.AperFunction,SMDPad,CuDef*
G36*
G01*
X165647700Y-106770000D02*
X165847700Y-106770000D01*
G75*
G02*
X165947700Y-106870000I0J-100000D01*
G01*
X165947700Y-107130000D01*
G75*
G02*
X165847700Y-107230000I-100000J0D01*
G01*
X165647700Y-107230000D01*
G75*
G02*
X165547700Y-107130000I0J100000D01*
G01*
X165547700Y-106870000D01*
G75*
G02*
X165647700Y-106770000I100000J0D01*
G01*
G37*
G04 #@! TD.AperFunction*
G04 #@! TO.P,C22,1*
G04 #@! TO.N,Net-(C22-Pad1)*
G04 #@! TA.AperFunction,SMDPad,CuDef*
G36*
G01*
X165647700Y-106130000D02*
X165847700Y-106130000D01*
G75*
G02*
X165947700Y-106230000I0J-100000D01*
G01*
X165947700Y-106490000D01*
G75*
G02*
X165847700Y-106590000I-100000J0D01*
G01*
X165647700Y-106590000D01*
G75*
G02*
X165547700Y-106490000I0J100000D01*
G01*
X165547700Y-106230000D01*
G75*
G02*
X165647700Y-106130000I100000J0D01*
G01*
G37*
G04 #@! TD.AperFunction*
G04 #@! TD*
G04 #@! TO.P,C21,2*
G04 #@! TO.N,Net-(C21-Pad2)*
G04 #@! TA.AperFunction,SMDPad,CuDef*
G36*
G01*
X165698500Y-100000900D02*
X165898500Y-100000900D01*
G75*
G02*
X165998500Y-100100900I0J-100000D01*
G01*
X165998500Y-100360900D01*
G75*
G02*
X165898500Y-100460900I-100000J0D01*
G01*
X165698500Y-100460900D01*
G75*
G02*
X165598500Y-100360900I0J100000D01*
G01*
X165598500Y-100100900D01*
G75*
G02*
X165698500Y-100000900I100000J0D01*
G01*
G37*
G04 #@! TD.AperFunction*
G04 #@! TO.P,C21,1*
G04 #@! TO.N,Net-(C21-Pad1)*
G04 #@! TA.AperFunction,SMDPad,CuDef*
G36*
G01*
X165698500Y-99360900D02*
X165898500Y-99360900D01*
G75*
G02*
X165998500Y-99460900I0J-100000D01*
G01*
X165998500Y-99720900D01*
G75*
G02*
X165898500Y-99820900I-100000J0D01*
G01*
X165698500Y-99820900D01*
G75*
G02*
X165598500Y-99720900I0J100000D01*
G01*
X165598500Y-99460900D01*
G75*
G02*
X165698500Y-99360900I100000J0D01*
G01*
G37*
G04 #@! TD.AperFunction*
G04 #@! TD*
G04 #@! TO.P,C20,2*
G04 #@! TO.N,Net-(C20-Pad2)*
G04 #@! TA.AperFunction,SMDPad,CuDef*
G36*
G01*
X158815100Y-111773800D02*
X159015100Y-111773800D01*
G75*
G02*
X159115100Y-111873800I0J-100000D01*
G01*
X159115100Y-112133800D01*
G75*
G02*
X159015100Y-112233800I-100000J0D01*
G01*
X158815100Y-112233800D01*
G75*
G02*
X158715100Y-112133800I0J100000D01*
G01*
X158715100Y-111873800D01*
G75*
G02*
X158815100Y-111773800I100000J0D01*
G01*
G37*
G04 #@! TD.AperFunction*
G04 #@! TO.P,C20,1*
G04 #@! TO.N,Net-(C20-Pad1)*
G04 #@! TA.AperFunction,SMDPad,CuDef*
G36*
G01*
X158815100Y-111133800D02*
X159015100Y-111133800D01*
G75*
G02*
X159115100Y-111233800I0J-100000D01*
G01*
X159115100Y-111493800D01*
G75*
G02*
X159015100Y-111593800I-100000J0D01*
G01*
X158815100Y-111593800D01*
G75*
G02*
X158715100Y-111493800I0J100000D01*
G01*
X158715100Y-111233800D01*
G75*
G02*
X158815100Y-111133800I100000J0D01*
G01*
G37*
G04 #@! TD.AperFunction*
G04 #@! TD*
G04 #@! TO.P,C19,2*
G04 #@! TO.N,Net-(C19-Pad2)*
G04 #@! TA.AperFunction,SMDPad,CuDef*
G36*
G01*
X162739400Y-111786500D02*
X162939400Y-111786500D01*
G75*
G02*
X163039400Y-111886500I0J-100000D01*
G01*
X163039400Y-112146500D01*
G75*
G02*
X162939400Y-112246500I-100000J0D01*
G01*
X162739400Y-112246500D01*
G75*
G02*
X162639400Y-112146500I0J100000D01*
G01*
X162639400Y-111886500D01*
G75*
G02*
X162739400Y-111786500I100000J0D01*
G01*
G37*
G04 #@! TD.AperFunction*
G04 #@! TO.P,C19,1*
G04 #@! TO.N,Net-(C19-Pad1)*
G04 #@! TA.AperFunction,SMDPad,CuDef*
G36*
G01*
X162739400Y-111146500D02*
X162939400Y-111146500D01*
G75*
G02*
X163039400Y-111246500I0J-100000D01*
G01*
X163039400Y-111506500D01*
G75*
G02*
X162939400Y-111606500I-100000J0D01*
G01*
X162739400Y-111606500D01*
G75*
G02*
X162639400Y-111506500I0J100000D01*
G01*
X162639400Y-111246500D01*
G75*
G02*
X162739400Y-111146500I100000J0D01*
G01*
G37*
G04 #@! TD.AperFunction*
G04 #@! TD*
G04 #@! TO.P,C18,2*
G04 #@! TO.N,Net-(C18-Pad2)*
G04 #@! TA.AperFunction,SMDPad,CuDef*
G36*
G01*
X155080800Y-100404600D02*
X155080800Y-100204600D01*
G75*
G02*
X155180800Y-100104600I100000J0D01*
G01*
X155440800Y-100104600D01*
G75*
G02*
X155540800Y-100204600I0J-100000D01*
G01*
X155540800Y-100404600D01*
G75*
G02*
X155440800Y-100504600I-100000J0D01*
G01*
X155180800Y-100504600D01*
G75*
G02*
X155080800Y-100404600I0J100000D01*
G01*
G37*
G04 #@! TD.AperFunction*
G04 #@! TO.P,C18,1*
G04 #@! TO.N,GND*
G04 #@! TA.AperFunction,SMDPad,CuDef*
G36*
G01*
X154440800Y-100404600D02*
X154440800Y-100204600D01*
G75*
G02*
X154540800Y-100104600I100000J0D01*
G01*
X154800800Y-100104600D01*
G75*
G02*
X154900800Y-100204600I0J-100000D01*
G01*
X154900800Y-100404600D01*
G75*
G02*
X154800800Y-100504600I-100000J0D01*
G01*
X154540800Y-100504600D01*
G75*
G02*
X154440800Y-100404600I0J100000D01*
G01*
G37*
G04 #@! TD.AperFunction*
G04 #@! TD*
D10*
G04 #@! TO.P,C17,2*
G04 #@! TO.N,GND*
X135917300Y-94322900D03*
D11*
G04 #@! TO.P,C17,1*
G04 #@! TO.N,Net-(C17-Pad1)*
X138417300Y-94322900D03*
G04 #@! TD*
G04 #@! TO.P,C16,2*
G04 #@! TO.N,Net-(C16-Pad2)*
G04 #@! TA.AperFunction,SMDPad,CuDef*
G36*
G01*
X155163400Y-104504300D02*
X155163400Y-104004300D01*
G75*
G02*
X155388400Y-103779300I225000J0D01*
G01*
X155838400Y-103779300D01*
G75*
G02*
X156063400Y-104004300I0J-225000D01*
G01*
X156063400Y-104504300D01*
G75*
G02*
X155838400Y-104729300I-225000J0D01*
G01*
X155388400Y-104729300D01*
G75*
G02*
X155163400Y-104504300I0J225000D01*
G01*
G37*
G04 #@! TD.AperFunction*
G04 #@! TO.P,C16,1*
G04 #@! TO.N,GND*
G04 #@! TA.AperFunction,SMDPad,CuDef*
G36*
G01*
X153613400Y-104504300D02*
X153613400Y-104004300D01*
G75*
G02*
X153838400Y-103779300I225000J0D01*
G01*
X154288400Y-103779300D01*
G75*
G02*
X154513400Y-104004300I0J-225000D01*
G01*
X154513400Y-104504300D01*
G75*
G02*
X154288400Y-104729300I-225000J0D01*
G01*
X153838400Y-104729300D01*
G75*
G02*
X153613400Y-104504300I0J225000D01*
G01*
G37*
G04 #@! TD.AperFunction*
G04 #@! TD*
G04 #@! TO.P,C15,2*
G04 #@! TO.N,GND*
G04 #@! TA.AperFunction,SMDPad,CuDef*
G36*
G01*
X154513400Y-102493000D02*
X154513400Y-102993000D01*
G75*
G02*
X154288400Y-103218000I-225000J0D01*
G01*
X153838400Y-103218000D01*
G75*
G02*
X153613400Y-102993000I0J225000D01*
G01*
X153613400Y-102493000D01*
G75*
G02*
X153838400Y-102268000I225000J0D01*
G01*
X154288400Y-102268000D01*
G75*
G02*
X154513400Y-102493000I0J-225000D01*
G01*
G37*
G04 #@! TD.AperFunction*
G04 #@! TO.P,C15,1*
G04 #@! TO.N,Net-(C15-Pad1)*
G04 #@! TA.AperFunction,SMDPad,CuDef*
G36*
G01*
X156063400Y-102493000D02*
X156063400Y-102993000D01*
G75*
G02*
X155838400Y-103218000I-225000J0D01*
G01*
X155388400Y-103218000D01*
G75*
G02*
X155163400Y-102993000I0J225000D01*
G01*
X155163400Y-102493000D01*
G75*
G02*
X155388400Y-102268000I225000J0D01*
G01*
X155838400Y-102268000D01*
G75*
G02*
X156063400Y-102493000I0J-225000D01*
G01*
G37*
G04 #@! TD.AperFunction*
G04 #@! TD*
G04 #@! TO.P,C14,2*
G04 #@! TO.N,GND*
G04 #@! TA.AperFunction,SMDPad,CuDef*
G36*
G01*
X151347000Y-96607300D02*
X151347000Y-96407300D01*
G75*
G02*
X151447000Y-96307300I100000J0D01*
G01*
X151707000Y-96307300D01*
G75*
G02*
X151807000Y-96407300I0J-100000D01*
G01*
X151807000Y-96607300D01*
G75*
G02*
X151707000Y-96707300I-100000J0D01*
G01*
X151447000Y-96707300D01*
G75*
G02*
X151347000Y-96607300I0J100000D01*
G01*
G37*
G04 #@! TD.AperFunction*
G04 #@! TO.P,C14,1*
G04 #@! TO.N,+5V*
G04 #@! TA.AperFunction,SMDPad,CuDef*
G36*
G01*
X150707000Y-96607300D02*
X150707000Y-96407300D01*
G75*
G02*
X150807000Y-96307300I100000J0D01*
G01*
X151067000Y-96307300D01*
G75*
G02*
X151167000Y-96407300I0J-100000D01*
G01*
X151167000Y-96607300D01*
G75*
G02*
X151067000Y-96707300I-100000J0D01*
G01*
X150807000Y-96707300D01*
G75*
G02*
X150707000Y-96607300I0J100000D01*
G01*
G37*
G04 #@! TD.AperFunction*
G04 #@! TD*
D10*
G04 #@! TO.P,C12,2*
G04 #@! TO.N,GND*
X154811100Y-93141800D03*
D11*
G04 #@! TO.P,C12,1*
G04 #@! TO.N,+5V*
X152311100Y-93141800D03*
G04 #@! TD*
D10*
G04 #@! TO.P,C11,2*
G04 #@! TO.N,GND*
X127052700Y-96583500D03*
D11*
G04 #@! TO.P,C11,1*
G04 #@! TO.N,+5V*
X129552700Y-96583500D03*
G04 #@! TD*
D10*
G04 #@! TO.P,C10,2*
G04 #@! TO.N,GND*
X173619800Y-93103700D03*
D11*
G04 #@! TO.P,C10,1*
G04 #@! TO.N,+5V*
X171119800Y-93103700D03*
G04 #@! TD*
D10*
G04 #@! TO.P,C9,2*
G04 #@! TO.N,GND*
X126989200Y-118059200D03*
D11*
G04 #@! TO.P,C9,1*
G04 #@! TO.N,+5V*
X129489200Y-118059200D03*
G04 #@! TD*
D10*
G04 #@! TO.P,C8,2*
G04 #@! TO.N,GND*
X136601200Y-118021100D03*
D11*
G04 #@! TO.P,C8,1*
G04 #@! TO.N,+5V*
X134101200Y-118021100D03*
G04 #@! TD*
D10*
G04 #@! TO.P,C7,2*
G04 #@! TO.N,GND*
X155255600Y-119024400D03*
D11*
G04 #@! TO.P,C7,1*
G04 #@! TO.N,+5V*
X152755600Y-119024400D03*
G04 #@! TD*
G04 #@! TO.P,C1,2*
G04 #@! TO.N,GND*
G04 #@! TA.AperFunction,SMDPad,CuDef*
G36*
G01*
X153326000Y-109983600D02*
X153326000Y-110183600D01*
G75*
G02*
X153226000Y-110283600I-100000J0D01*
G01*
X152966000Y-110283600D01*
G75*
G02*
X152866000Y-110183600I0J100000D01*
G01*
X152866000Y-109983600D01*
G75*
G02*
X152966000Y-109883600I100000J0D01*
G01*
X153226000Y-109883600D01*
G75*
G02*
X153326000Y-109983600I0J-100000D01*
G01*
G37*
G04 #@! TD.AperFunction*
G04 #@! TO.P,C1,1*
G04 #@! TO.N,+5V*
G04 #@! TA.AperFunction,SMDPad,CuDef*
G36*
G01*
X153966000Y-109983600D02*
X153966000Y-110183600D01*
G75*
G02*
X153866000Y-110283600I-100000J0D01*
G01*
X153606000Y-110283600D01*
G75*
G02*
X153506000Y-110183600I0J100000D01*
G01*
X153506000Y-109983600D01*
G75*
G02*
X153606000Y-109883600I100000J0D01*
G01*
X153866000Y-109883600D01*
G75*
G02*
X153966000Y-109983600I0J-100000D01*
G01*
G37*
G04 #@! TD.AperFunction*
G04 #@! TD*
D17*
G04 #@! TO.N,GND*
X149123400Y-97764600D03*
X150291800Y-107721400D03*
X167513000Y-107696000D03*
X160070800Y-108686600D03*
X134785100Y-101155800D03*
X139623800Y-107975400D03*
X142443200Y-98196400D03*
G04 #@! TO.N,+5V*
X155384500Y-111715300D03*
X150342600Y-96494600D03*
X147574000Y-119100600D03*
X139966700Y-119086700D03*
G04 #@! TO.N,Net-(C15-Pad1)*
X155562300Y-102870000D03*
X159334200Y-106968713D03*
G04 #@! TO.N,Net-(C16-Pad2)*
X155586500Y-104114600D03*
X160669872Y-107761315D03*
G04 #@! TO.N,Net-(C18-Pad2)*
X155586500Y-100304600D03*
X157886537Y-102616000D03*
G04 #@! TO.N,Net-(C19-Pad1)*
X166367619Y-114575538D03*
G04 #@! TO.N,Net-(C20-Pad1)*
X159510186Y-111358468D03*
X167005000Y-111340900D03*
X164211000Y-111353600D03*
G04 #@! TO.N,Net-(C21-Pad2)*
X165836600Y-100457000D03*
G04 #@! TO.N,Net-(C22-Pad2)*
X165757221Y-107846781D03*
G04 #@! TO.N,Net-(J1-Pad6)*
X141236700Y-119086700D03*
G04 #@! TO.N,~WR*
X135864600Y-112755500D03*
G04 #@! TO.N,Net-(J1-Pad4)*
X145046700Y-119086700D03*
G04 #@! TO.N,A0*
X137437600Y-100330000D03*
G04 #@! TO.N,Net-(R1-Pad2)*
X155586500Y-101574600D03*
G04 #@! TO.N,Net-(R1-Pad1)*
X161671000Y-115714700D03*
G04 #@! TO.N,Net-(R12-Pad1)*
X161995400Y-109989700D03*
G04 #@! TO.N,Net-(R11-Pad2)*
X158295400Y-109989700D03*
G04 #@! TO.N,Net-(U1-Pad24)*
X150291800Y-111709200D03*
X146737600Y-96395000D03*
G04 #@! TO.N,Net-(U1-Pad23)*
X149086500Y-101494580D03*
X147462610Y-97845020D03*
G04 #@! TO.N,Net-(U1-Pad20)*
X149086500Y-105384600D03*
X147462610Y-101544980D03*
G04 #@! TO.N,D1*
X147586700Y-112586700D03*
X138176000Y-109220000D03*
G04 #@! TO.N,D0*
X146316700Y-119086700D03*
X137437600Y-107894980D03*
G04 #@! TD*
D18*
G04 #@! TO.N,GND*
X134823200Y-102997000D02*
X130556000Y-102997000D01*
X154670800Y-100304600D02*
X153974800Y-100304600D01*
X166573200Y-107000000D02*
X168061600Y-107000000D01*
X166611300Y-98079600D02*
X167706000Y-98079600D01*
X158930300Y-109194600D02*
X159308800Y-109194600D01*
X154670800Y-100304600D02*
X153771600Y-100304600D01*
X154190000Y-104254300D02*
X154063400Y-104254300D01*
X158930300Y-108994600D02*
X154190000Y-104254300D01*
X158930300Y-109194600D02*
X158930300Y-108994600D01*
X160070800Y-108686600D02*
X160070800Y-109194600D01*
X160070800Y-109194600D02*
X158930300Y-109194600D01*
X161465300Y-109194600D02*
X160070800Y-109194600D01*
X151577000Y-96507300D02*
X151879300Y-96507300D01*
X152654000Y-110083600D02*
X150291800Y-107721400D01*
X153096000Y-110083600D02*
X152654000Y-110083600D01*
G04 #@! TO.N,+5V*
X153752800Y-110083600D02*
X155384500Y-111715300D01*
D19*
X129552700Y-117995700D02*
X129489200Y-118059200D01*
X128302699Y-95333499D02*
X129552700Y-96583500D01*
X125739199Y-96046999D02*
X126452699Y-95333499D01*
X126452699Y-95333499D02*
X128302699Y-95333499D01*
X125739199Y-118659201D02*
X125739199Y-96046999D01*
X126389199Y-119309201D02*
X125739199Y-118659201D01*
X128239199Y-119309201D02*
X126389199Y-119309201D01*
X129489200Y-118059200D02*
X128239199Y-119309201D01*
X134063100Y-118059200D02*
X134101200Y-118021100D01*
X129489200Y-118059200D02*
X134063100Y-118059200D01*
X129565400Y-96596200D02*
X129552700Y-96583500D01*
X132168900Y-96596200D02*
X129565400Y-96596200D01*
X152311100Y-94424500D02*
X152311100Y-93141800D01*
X152311100Y-94526100D02*
X152311100Y-94424500D01*
X150342600Y-96494600D02*
X152311100Y-94526100D01*
D18*
X150924300Y-96494600D02*
X150937000Y-96507300D01*
X150342600Y-96494600D02*
X150924300Y-96494600D01*
D19*
X135916350Y-119836250D02*
X134101200Y-118021100D01*
X136157701Y-120077601D02*
X135916350Y-119836250D01*
X136354501Y-120274401D02*
X135916350Y-119836250D01*
X139966700Y-119086700D02*
X139966700Y-120256300D01*
X139948599Y-120274401D02*
X136354501Y-120274401D01*
X139966700Y-120256300D02*
X139948599Y-120274401D01*
X147604801Y-120274401D02*
X139948599Y-120274401D01*
X147574000Y-119100600D02*
X147574000Y-120243600D01*
X147574000Y-120243600D02*
X147604801Y-120274401D01*
X152699399Y-120274401D02*
X147604801Y-120274401D01*
X152755600Y-119024400D02*
X152755600Y-120218200D01*
X154005601Y-120274401D02*
X152699399Y-120274401D01*
X152755600Y-120218200D02*
X152699399Y-120274401D01*
X169476099Y-120274401D02*
X170865800Y-118884700D01*
X154005601Y-120274401D02*
X169476099Y-120274401D01*
D18*
G04 #@! TO.N,Net-(C15-Pad1)*
X159396075Y-106703775D02*
X159396075Y-106968713D01*
X155562300Y-102870000D02*
X159396075Y-106703775D01*
G04 #@! TO.N,Net-(C16-Pad2)*
X155625200Y-104311385D02*
X155625200Y-104254300D01*
X155586500Y-104294015D02*
X155586500Y-104114600D01*
X159053800Y-107761315D02*
X155586500Y-104294015D01*
X160669872Y-107761315D02*
X159053800Y-107761315D01*
G04 #@! TO.N,Net-(C18-Pad2)*
X155588352Y-100306452D02*
X155586500Y-100304600D01*
X157886537Y-102604637D02*
X157886537Y-102616000D01*
X155586500Y-100304600D02*
X157886537Y-102604637D01*
G04 #@! TO.N,Net-(C19-Pad2)*
X162026600Y-112016500D02*
X162839400Y-112016500D01*
G04 #@! TO.N,Net-(C19-Pad1)*
X163168581Y-111376500D02*
X162839400Y-111376500D01*
X166367619Y-114575538D02*
X163168581Y-111376500D01*
G04 #@! TO.N,Net-(C20-Pad2)*
X158102300Y-112003800D02*
X158915100Y-112003800D01*
G04 #@! TO.N,Net-(C20-Pad1)*
X158920432Y-111358468D02*
X158915100Y-111363800D01*
X159510186Y-111358468D02*
X158920432Y-111358468D01*
D19*
X166992300Y-111353600D02*
X167005000Y-111340900D01*
X164211000Y-111353600D02*
X166992300Y-111353600D01*
D18*
G04 #@! TO.N,Net-(C21-Pad2)*
X165836600Y-100269000D02*
X165798500Y-100230900D01*
X165836600Y-100457000D02*
X165836600Y-100269000D01*
G04 #@! TO.N,Net-(C21-Pad1)*
X165798500Y-98719600D02*
X166611300Y-98719600D01*
X165798500Y-99590900D02*
X165798500Y-98719600D01*
G04 #@! TO.N,Net-(C22-Pad2)*
X165757221Y-107009521D02*
X165747700Y-107000000D01*
X165757221Y-107846781D02*
X165757221Y-107009521D01*
G04 #@! TO.N,Net-(C22-Pad1)*
X165747700Y-104917200D02*
X165750200Y-104914700D01*
X165747700Y-106360000D02*
X165747700Y-104917200D01*
X165747700Y-106360000D02*
X166573200Y-106360000D01*
G04 #@! TO.N,Net-(J1-Pad6)*
X132168900Y-110097198D02*
X132168900Y-109296200D01*
X141158402Y-119086700D02*
X132168900Y-110097198D01*
X141236700Y-119086700D02*
X141158402Y-119086700D01*
G04 #@! TO.N,~WR*
X133343901Y-110234801D02*
X135864600Y-112755500D01*
X133343901Y-107931201D02*
X133343901Y-110234801D01*
X132168900Y-106756200D02*
X133343901Y-107931201D01*
G04 #@! TO.N,Net-(J1-Pad4)*
X145046700Y-119086700D02*
X135078302Y-109118302D01*
X135078302Y-109118302D02*
X135077102Y-109118302D01*
X135077102Y-109118302D02*
X133788150Y-107829350D01*
X133788150Y-107829350D02*
X133788150Y-105835450D01*
X132168900Y-104216200D02*
X133788150Y-105835450D01*
G04 #@! TO.N,A0*
X133515100Y-100330000D02*
X132168900Y-101676200D01*
X137437600Y-100330000D02*
X133515100Y-100330000D01*
G04 #@! TO.N,Net-(R1-Pad2)*
X153978966Y-101574600D02*
X155586500Y-101574600D01*
X152908000Y-102645566D02*
X153978966Y-101574600D01*
X152908000Y-103235800D02*
X152908000Y-102645566D01*
G04 #@! TO.N,Net-(R1-Pad1)*
X152908000Y-107640558D02*
X160982142Y-115714700D01*
X152908000Y-103875800D02*
X152908000Y-107640558D01*
X160982142Y-115714700D02*
X161671000Y-115714700D01*
G04 #@! TO.N,Net-(R12-Pad1)*
X161995400Y-111345300D02*
X162026600Y-111376500D01*
X161995400Y-109989700D02*
X161995400Y-111345300D01*
X162105300Y-109879800D02*
X162105300Y-109194600D01*
X161995400Y-109989700D02*
X162105300Y-109879800D01*
G04 #@! TO.N,Net-(R11-Pad2)*
X158102300Y-110182800D02*
X158295400Y-109989700D01*
X158102300Y-111363800D02*
X158102300Y-110182800D01*
X158295400Y-109199700D02*
X158290300Y-109194600D01*
X158295400Y-109989700D02*
X158295400Y-109199700D01*
G04 #@! TO.N,Net-(U1-Pad24)*
X146737600Y-96520000D02*
X146737600Y-96520000D01*
X150291800Y-111709200D02*
X146737600Y-108155000D01*
X146737600Y-108155000D02*
X146737600Y-96395000D01*
G04 #@! TO.N,Net-(U1-Pad23)*
X147462610Y-99870690D02*
X147462610Y-97845020D01*
X149086500Y-101494580D02*
X147462610Y-99870690D01*
G04 #@! TO.N,Net-(U1-Pad20)*
X149086500Y-105384600D02*
X149086500Y-105384600D01*
X147462610Y-103760710D02*
X147462610Y-101544980D01*
X149086500Y-105384600D02*
X147462610Y-103760710D01*
G04 #@! TO.N,D1*
X141542700Y-112586700D02*
X138176000Y-109220000D01*
X147586700Y-112586700D02*
X141542700Y-112586700D01*
G04 #@! TO.N,D0*
X146316700Y-119086700D02*
X137437600Y-110207600D01*
X137437600Y-110207600D02*
X137437600Y-107894980D01*
G04 #@! TO.N,Net-(J2-PadT)*
X165796000Y-98077100D02*
X165798500Y-98079600D01*
X165796000Y-96266000D02*
X165796000Y-98077100D01*
G04 #@! TO.N,Net-(J2-PadR)*
X162847300Y-104914700D02*
X161696000Y-106066000D01*
X165110200Y-104914700D02*
X162847300Y-104914700D01*
G04 #@! TD*
D20*
G04 #@! TO.N,GND*
X175743401Y-119888000D02*
X174400847Y-119888000D01*
X174474777Y-119814070D01*
X174358504Y-119697797D01*
X174602471Y-119626214D01*
X174723371Y-119370704D01*
X174792100Y-119096516D01*
X174806017Y-118814188D01*
X174764587Y-118534570D01*
X174669403Y-118268408D01*
X174602471Y-118143186D01*
X174358502Y-118071603D01*
X173545405Y-118884700D01*
X173559548Y-118898843D01*
X173379943Y-119078448D01*
X173365800Y-119064305D01*
X173351658Y-119078448D01*
X173172053Y-118898843D01*
X173186195Y-118884700D01*
X172373098Y-118071603D01*
X172303872Y-118091915D01*
X172303872Y-118084700D01*
X172291612Y-117960218D01*
X172270918Y-117891998D01*
X172552703Y-117891998D01*
X173365800Y-118705095D01*
X174178897Y-117891998D01*
X174107314Y-117648029D01*
X173851804Y-117527129D01*
X173577616Y-117458400D01*
X173295288Y-117444483D01*
X173015670Y-117485913D01*
X172749508Y-117581097D01*
X172624286Y-117648029D01*
X172552703Y-117891998D01*
X172270918Y-117891998D01*
X172255302Y-117840520D01*
X172196337Y-117730206D01*
X172116985Y-117633515D01*
X172020294Y-117554163D01*
X171909980Y-117495198D01*
X171790282Y-117458888D01*
X171665800Y-117446628D01*
X170065800Y-117446628D01*
X169941318Y-117458888D01*
X169821620Y-117495198D01*
X169711306Y-117554163D01*
X169614615Y-117633515D01*
X169535263Y-117730206D01*
X169476298Y-117840520D01*
X169439988Y-117960218D01*
X169427728Y-118084700D01*
X169427728Y-119071194D01*
X169109521Y-119389401D01*
X156643502Y-119389401D01*
X156681900Y-119236216D01*
X156695817Y-118953888D01*
X156654387Y-118674270D01*
X156559203Y-118408108D01*
X156492271Y-118282886D01*
X156248302Y-118211303D01*
X155435205Y-119024400D01*
X155449348Y-119038543D01*
X155269743Y-119218148D01*
X155255600Y-119204005D01*
X155241458Y-119218148D01*
X155061853Y-119038543D01*
X155075995Y-119024400D01*
X154262898Y-118211303D01*
X154193672Y-118231615D01*
X154193672Y-118224400D01*
X154181412Y-118099918D01*
X154160718Y-118031698D01*
X154442503Y-118031698D01*
X155255600Y-118844795D01*
X156068697Y-118031698D01*
X155997114Y-117787729D01*
X155741604Y-117666829D01*
X155467416Y-117598100D01*
X155185088Y-117584183D01*
X154905470Y-117625613D01*
X154639308Y-117720797D01*
X154514086Y-117787729D01*
X154442503Y-118031698D01*
X154160718Y-118031698D01*
X154145102Y-117980220D01*
X154086137Y-117869906D01*
X154006785Y-117773215D01*
X153910094Y-117693863D01*
X153799780Y-117634898D01*
X153680082Y-117598588D01*
X153555600Y-117586328D01*
X151955600Y-117586328D01*
X151831118Y-117598588D01*
X151711420Y-117634898D01*
X151601106Y-117693863D01*
X151504415Y-117773215D01*
X151425063Y-117869906D01*
X151366098Y-117980220D01*
X151329788Y-118099918D01*
X151317528Y-118224400D01*
X151317528Y-119389401D01*
X148571831Y-119389401D01*
X148609000Y-119202539D01*
X148609000Y-118998661D01*
X148569226Y-118798702D01*
X148491205Y-118610344D01*
X148377937Y-118440826D01*
X148233774Y-118296663D01*
X148064256Y-118183395D01*
X147875898Y-118105374D01*
X147675939Y-118065600D01*
X147472061Y-118065600D01*
X147272102Y-118105374D01*
X147083744Y-118183395D01*
X146955751Y-118268917D01*
X146806956Y-118169495D01*
X146618598Y-118091474D01*
X146418639Y-118051700D01*
X146356502Y-118051700D01*
X141651501Y-113346700D01*
X146882989Y-113346700D01*
X146926926Y-113390637D01*
X147096444Y-113503905D01*
X147284802Y-113581926D01*
X147484761Y-113621700D01*
X147688639Y-113621700D01*
X147888598Y-113581926D01*
X148076956Y-113503905D01*
X148246474Y-113390637D01*
X148390637Y-113246474D01*
X148503905Y-113076956D01*
X148581926Y-112888598D01*
X148621700Y-112688639D01*
X148621700Y-112484761D01*
X148581926Y-112284802D01*
X148503905Y-112096444D01*
X148390637Y-111926926D01*
X148246474Y-111782763D01*
X148076956Y-111669495D01*
X147888598Y-111591474D01*
X147688639Y-111551700D01*
X147484761Y-111551700D01*
X147284802Y-111591474D01*
X147096444Y-111669495D01*
X146926926Y-111782763D01*
X146882989Y-111826700D01*
X141857502Y-111826700D01*
X139211000Y-109180199D01*
X139211000Y-109118061D01*
X139171226Y-108918102D01*
X139093205Y-108729744D01*
X138979937Y-108560226D01*
X138835774Y-108416063D01*
X138666256Y-108302795D01*
X138477898Y-108224774D01*
X138425581Y-108214368D01*
X138432826Y-108196878D01*
X138472600Y-107996919D01*
X138472600Y-107793041D01*
X138432826Y-107593082D01*
X138354805Y-107404724D01*
X138241537Y-107235206D01*
X138097374Y-107091043D01*
X137927856Y-106977775D01*
X137739498Y-106899754D01*
X137539539Y-106859980D01*
X137335661Y-106859980D01*
X137135702Y-106899754D01*
X136947344Y-106977775D01*
X136777826Y-107091043D01*
X136633663Y-107235206D01*
X136520395Y-107404724D01*
X136442374Y-107593082D01*
X136402600Y-107793041D01*
X136402600Y-107996919D01*
X136442374Y-108196878D01*
X136520395Y-108385236D01*
X136633663Y-108554754D01*
X136677601Y-108598692D01*
X136677600Y-109642799D01*
X135642106Y-108607305D01*
X135618303Y-108578301D01*
X135582618Y-108549015D01*
X134548150Y-107514549D01*
X134548150Y-105872772D01*
X134551826Y-105835449D01*
X134548150Y-105798126D01*
X134548150Y-105798117D01*
X134537153Y-105686464D01*
X134493696Y-105543203D01*
X134423124Y-105411174D01*
X134328151Y-105295449D01*
X134299153Y-105271651D01*
X133610110Y-104582608D01*
X133653900Y-104362460D01*
X133653900Y-104069940D01*
X133596832Y-103783042D01*
X133484890Y-103512789D01*
X133322375Y-103269568D01*
X133115532Y-103062725D01*
X132941140Y-102946200D01*
X133115532Y-102829675D01*
X133322375Y-102622832D01*
X133484890Y-102379611D01*
X133596832Y-102109358D01*
X133653900Y-101822460D01*
X133653900Y-101529940D01*
X133610110Y-101309792D01*
X133829902Y-101090000D01*
X136733889Y-101090000D01*
X136777826Y-101133937D01*
X136947344Y-101247205D01*
X137135702Y-101325226D01*
X137335661Y-101365000D01*
X137539539Y-101365000D01*
X137739498Y-101325226D01*
X137927856Y-101247205D01*
X138097374Y-101133937D01*
X138241537Y-100989774D01*
X138354805Y-100820256D01*
X138432826Y-100631898D01*
X138472600Y-100431939D01*
X138472600Y-100228061D01*
X138432826Y-100028102D01*
X138354805Y-99839744D01*
X138241537Y-99670226D01*
X138097374Y-99526063D01*
X137927856Y-99412795D01*
X137739498Y-99334774D01*
X137539539Y-99295000D01*
X137335661Y-99295000D01*
X137135702Y-99334774D01*
X136947344Y-99412795D01*
X136777826Y-99526063D01*
X136733889Y-99570000D01*
X133587048Y-99570000D01*
X133610376Y-99493090D01*
X133489055Y-99263200D01*
X132295900Y-99263200D01*
X132295900Y-99283200D01*
X132041900Y-99283200D01*
X132041900Y-99263200D01*
X130848745Y-99263200D01*
X130727424Y-99493090D01*
X130772075Y-99640299D01*
X130897259Y-99903120D01*
X131071312Y-100136469D01*
X131287545Y-100331378D01*
X131404434Y-100401005D01*
X131222268Y-100522725D01*
X131015425Y-100729568D01*
X130852910Y-100972789D01*
X130740968Y-101243042D01*
X130683900Y-101529940D01*
X130683900Y-101822460D01*
X130740968Y-102109358D01*
X130852910Y-102379611D01*
X131015425Y-102622832D01*
X131222268Y-102829675D01*
X131396660Y-102946200D01*
X131222268Y-103062725D01*
X131015425Y-103269568D01*
X130852910Y-103512789D01*
X130740968Y-103783042D01*
X130683900Y-104069940D01*
X130683900Y-104362460D01*
X130740968Y-104649358D01*
X130852910Y-104919611D01*
X131015425Y-105162832D01*
X131222268Y-105369675D01*
X131396660Y-105486200D01*
X131222268Y-105602725D01*
X131015425Y-105809568D01*
X130852910Y-106052789D01*
X130740968Y-106323042D01*
X130683900Y-106609940D01*
X130683900Y-106902460D01*
X130740968Y-107189358D01*
X130852910Y-107459611D01*
X131015425Y-107702832D01*
X131222268Y-107909675D01*
X131396660Y-108026200D01*
X131222268Y-108142725D01*
X131015425Y-108349568D01*
X130852910Y-108592789D01*
X130740968Y-108863042D01*
X130683900Y-109149940D01*
X130683900Y-109442460D01*
X130740968Y-109729358D01*
X130852910Y-109999611D01*
X131015425Y-110242832D01*
X131222268Y-110449675D01*
X131396660Y-110566200D01*
X131222268Y-110682725D01*
X131015425Y-110889568D01*
X130852910Y-111132789D01*
X130740968Y-111403042D01*
X130683900Y-111689940D01*
X130683900Y-111982460D01*
X130740968Y-112269358D01*
X130852910Y-112539611D01*
X131015425Y-112782832D01*
X131222268Y-112989675D01*
X131396660Y-113106200D01*
X131222268Y-113222725D01*
X131015425Y-113429568D01*
X130852910Y-113672789D01*
X130740968Y-113943042D01*
X130683900Y-114229940D01*
X130683900Y-114522460D01*
X130740968Y-114809358D01*
X130852910Y-115079611D01*
X131015425Y-115322832D01*
X131222268Y-115529675D01*
X131465489Y-115692190D01*
X131735742Y-115804132D01*
X132022640Y-115861200D01*
X132315160Y-115861200D01*
X132602058Y-115804132D01*
X132872311Y-115692190D01*
X133115532Y-115529675D01*
X133322375Y-115322832D01*
X133484890Y-115079611D01*
X133596832Y-114809358D01*
X133653900Y-114522460D01*
X133653900Y-114229940D01*
X133596832Y-113943042D01*
X133484890Y-113672789D01*
X133322375Y-113429568D01*
X133115532Y-113222725D01*
X132941140Y-113106200D01*
X133115532Y-112989675D01*
X133322375Y-112782832D01*
X133484890Y-112539611D01*
X133500010Y-112503109D01*
X139293295Y-118296394D01*
X139162763Y-118426926D01*
X139049495Y-118596444D01*
X138971474Y-118784802D01*
X138931700Y-118984761D01*
X138931700Y-119188639D01*
X138971474Y-119388598D01*
X138971807Y-119389401D01*
X137036578Y-119389401D01*
X137217492Y-119324703D01*
X137342714Y-119257771D01*
X137414297Y-119013802D01*
X136601200Y-118200705D01*
X136587058Y-118214848D01*
X136407453Y-118035243D01*
X136421595Y-118021100D01*
X136780805Y-118021100D01*
X137593902Y-118834197D01*
X137837871Y-118762614D01*
X137958771Y-118507104D01*
X138027500Y-118232916D01*
X138041417Y-117950588D01*
X137999987Y-117670970D01*
X137904803Y-117404808D01*
X137837871Y-117279586D01*
X137593902Y-117208003D01*
X136780805Y-118021100D01*
X136421595Y-118021100D01*
X135608498Y-117208003D01*
X135539272Y-117228315D01*
X135539272Y-117221100D01*
X135527012Y-117096618D01*
X135506318Y-117028398D01*
X135788103Y-117028398D01*
X136601200Y-117841495D01*
X137414297Y-117028398D01*
X137342714Y-116784429D01*
X137087204Y-116663529D01*
X136813016Y-116594800D01*
X136530688Y-116580883D01*
X136251070Y-116622313D01*
X135984908Y-116717497D01*
X135859686Y-116784429D01*
X135788103Y-117028398D01*
X135506318Y-117028398D01*
X135490702Y-116976920D01*
X135431737Y-116866606D01*
X135352385Y-116769915D01*
X135255694Y-116690563D01*
X135145380Y-116631598D01*
X135025682Y-116595288D01*
X134901200Y-116583028D01*
X133301200Y-116583028D01*
X133176718Y-116595288D01*
X133057020Y-116631598D01*
X132946706Y-116690563D01*
X132850015Y-116769915D01*
X132770663Y-116866606D01*
X132711698Y-116976920D01*
X132675388Y-117096618D01*
X132667747Y-117174200D01*
X130918901Y-117174200D01*
X130915012Y-117134718D01*
X130878702Y-117015020D01*
X130819737Y-116904706D01*
X130740385Y-116808015D01*
X130643694Y-116728663D01*
X130533380Y-116669698D01*
X130413682Y-116633388D01*
X130289200Y-116621128D01*
X128689200Y-116621128D01*
X128564718Y-116633388D01*
X128445020Y-116669698D01*
X128334706Y-116728663D01*
X128238015Y-116808015D01*
X128158663Y-116904706D01*
X128099698Y-117015020D01*
X128063388Y-117134718D01*
X128051128Y-117259200D01*
X128051128Y-117266415D01*
X127981902Y-117246103D01*
X127168805Y-118059200D01*
X127182948Y-118073343D01*
X127003343Y-118252948D01*
X126989200Y-118238805D01*
X126975058Y-118252948D01*
X126795453Y-118073343D01*
X126809595Y-118059200D01*
X126795453Y-118045058D01*
X126975058Y-117865453D01*
X126989200Y-117879595D01*
X127802297Y-117066498D01*
X127730714Y-116822529D01*
X127475204Y-116701629D01*
X127201016Y-116632900D01*
X126918688Y-116618983D01*
X126639070Y-116660413D01*
X126624199Y-116665731D01*
X126624199Y-97955485D01*
X126840884Y-98009800D01*
X127123212Y-98023717D01*
X127402830Y-97982287D01*
X127668992Y-97887103D01*
X127794214Y-97820171D01*
X127865797Y-97576202D01*
X127052700Y-96763105D01*
X127038558Y-96777248D01*
X126858953Y-96597643D01*
X126873095Y-96583500D01*
X126858953Y-96569358D01*
X127038558Y-96389753D01*
X127052700Y-96403895D01*
X127066843Y-96389753D01*
X127246448Y-96569358D01*
X127232305Y-96583500D01*
X128045402Y-97396597D01*
X128114628Y-97376285D01*
X128114628Y-97383500D01*
X128126888Y-97507982D01*
X128163198Y-97627680D01*
X128222163Y-97737994D01*
X128301515Y-97834685D01*
X128398206Y-97914037D01*
X128508520Y-97973002D01*
X128628218Y-98009312D01*
X128752700Y-98021572D01*
X130352700Y-98021572D01*
X130477182Y-98009312D01*
X130596880Y-97973002D01*
X130707194Y-97914037D01*
X130803885Y-97834685D01*
X130810072Y-97827146D01*
X130867715Y-97897385D01*
X130964406Y-97976737D01*
X131074720Y-98035702D01*
X131155366Y-98060166D01*
X131071312Y-98135931D01*
X130897259Y-98369280D01*
X130772075Y-98632101D01*
X130727424Y-98779310D01*
X130848745Y-99009200D01*
X132041900Y-99009200D01*
X132041900Y-98989200D01*
X132295900Y-98989200D01*
X132295900Y-99009200D01*
X133489055Y-99009200D01*
X133610376Y-98779310D01*
X133565725Y-98632101D01*
X133440541Y-98369280D01*
X133266488Y-98135931D01*
X133182434Y-98060166D01*
X133263080Y-98035702D01*
X133373394Y-97976737D01*
X133470085Y-97897385D01*
X133549437Y-97800694D01*
X133608402Y-97690380D01*
X133644712Y-97570682D01*
X133656972Y-97446200D01*
X133656972Y-96293061D01*
X145702600Y-96293061D01*
X145702600Y-96496939D01*
X145742374Y-96696898D01*
X145820395Y-96885256D01*
X145933663Y-97054774D01*
X145977601Y-97098712D01*
X145977600Y-108117678D01*
X145973924Y-108155000D01*
X145977600Y-108192322D01*
X145977600Y-108192332D01*
X145988597Y-108303985D01*
X146027103Y-108430923D01*
X146032054Y-108447246D01*
X146102626Y-108579276D01*
X146128217Y-108610458D01*
X146197599Y-108695001D01*
X146226603Y-108718804D01*
X149256800Y-111749002D01*
X149256800Y-111811139D01*
X149296574Y-112011098D01*
X149374595Y-112199456D01*
X149487863Y-112368974D01*
X149632026Y-112513137D01*
X149801544Y-112626405D01*
X149989902Y-112704426D01*
X150189861Y-112744200D01*
X150393739Y-112744200D01*
X150593698Y-112704426D01*
X150782056Y-112626405D01*
X150951574Y-112513137D01*
X151095737Y-112368974D01*
X151209005Y-112199456D01*
X151287026Y-112011098D01*
X151326800Y-111811139D01*
X151326800Y-111607261D01*
X151287026Y-111407302D01*
X151209005Y-111218944D01*
X151095737Y-111049426D01*
X150951574Y-110905263D01*
X150782056Y-110791995D01*
X150593698Y-110713974D01*
X150393739Y-110674200D01*
X150331602Y-110674200D01*
X147497600Y-107840199D01*
X147497600Y-104870501D01*
X148051500Y-105424402D01*
X148051500Y-105486539D01*
X148091274Y-105686498D01*
X148169295Y-105874856D01*
X148282563Y-106044374D01*
X148426726Y-106188537D01*
X148596244Y-106301805D01*
X148784602Y-106379826D01*
X148984561Y-106419600D01*
X149188439Y-106419600D01*
X149388398Y-106379826D01*
X149576756Y-106301805D01*
X149746274Y-106188537D01*
X149890437Y-106044374D01*
X150003705Y-105874856D01*
X150081726Y-105686498D01*
X150121500Y-105486539D01*
X150121500Y-105282661D01*
X150081726Y-105082702D01*
X150003705Y-104894344D01*
X149890437Y-104724826D01*
X149746274Y-104580663D01*
X149576756Y-104467395D01*
X149388398Y-104389374D01*
X149188439Y-104349600D01*
X149126302Y-104349600D01*
X148222610Y-103445909D01*
X148222610Y-103105800D01*
X152069928Y-103105800D01*
X152069928Y-103365800D01*
X152084110Y-103509791D01*
X152098067Y-103555800D01*
X152084110Y-103601809D01*
X152069928Y-103745800D01*
X152069928Y-104005800D01*
X152084110Y-104149791D01*
X152126110Y-104288248D01*
X152148000Y-104329201D01*
X152148001Y-107603226D01*
X152144324Y-107640558D01*
X152148001Y-107677891D01*
X152158998Y-107789544D01*
X152165864Y-107812177D01*
X152202454Y-107932804D01*
X152273026Y-108064834D01*
X152333916Y-108139028D01*
X152368000Y-108180559D01*
X152396998Y-108204357D01*
X153452610Y-109259969D01*
X153432291Y-109254443D01*
X153357750Y-109248600D01*
X153282923Y-109323427D01*
X153195949Y-109369916D01*
X153084104Y-109461704D01*
X152993000Y-109572716D01*
X152993000Y-109407350D01*
X152834250Y-109248600D01*
X152759709Y-109254443D01*
X152639009Y-109287269D01*
X152527032Y-109343011D01*
X152428081Y-109419528D01*
X152345960Y-109513878D01*
X152283823Y-109622437D01*
X152244059Y-109741033D01*
X152231000Y-109851850D01*
X152389750Y-110010600D01*
X152867928Y-110010600D01*
X152867928Y-110156600D01*
X152389750Y-110156600D01*
X152231000Y-110315350D01*
X152244059Y-110426167D01*
X152283823Y-110544763D01*
X152345960Y-110653322D01*
X152428081Y-110747672D01*
X152527032Y-110824189D01*
X152639009Y-110879931D01*
X152759709Y-110912757D01*
X152834250Y-110918600D01*
X152993000Y-110759850D01*
X152993000Y-110594484D01*
X153084104Y-110705496D01*
X153195949Y-110797284D01*
X153282923Y-110843773D01*
X153357750Y-110918600D01*
X153432291Y-110912757D01*
X153457116Y-110906006D01*
X153462009Y-110907490D01*
X153506246Y-110911847D01*
X154349500Y-111755102D01*
X154349500Y-111817239D01*
X154389274Y-112017198D01*
X154467295Y-112205556D01*
X154580563Y-112375074D01*
X154724726Y-112519237D01*
X154894244Y-112632505D01*
X155082602Y-112710526D01*
X155282561Y-112750300D01*
X155486439Y-112750300D01*
X155686398Y-112710526D01*
X155874756Y-112632505D01*
X156044274Y-112519237D01*
X156188437Y-112375074D01*
X156301705Y-112205556D01*
X156329967Y-112137326D01*
X160418343Y-116225703D01*
X160442141Y-116254701D01*
X160471139Y-116278499D01*
X160557865Y-116349674D01*
X160689895Y-116420246D01*
X160833156Y-116463703D01*
X160944809Y-116474700D01*
X160944818Y-116474700D01*
X160969744Y-116477155D01*
X161011226Y-116518637D01*
X161180744Y-116631905D01*
X161369102Y-116709926D01*
X161569061Y-116749700D01*
X161772939Y-116749700D01*
X161972898Y-116709926D01*
X162161256Y-116631905D01*
X162330774Y-116518637D01*
X162474937Y-116374474D01*
X162588205Y-116204956D01*
X162666226Y-116016598D01*
X162706000Y-115816639D01*
X162706000Y-115612761D01*
X162666226Y-115412802D01*
X162588205Y-115224444D01*
X162474937Y-115054926D01*
X162330774Y-114910763D01*
X162161256Y-114797495D01*
X161972898Y-114719474D01*
X161772939Y-114679700D01*
X161569061Y-114679700D01*
X161369102Y-114719474D01*
X161180744Y-114797495D01*
X161156163Y-114813919D01*
X159190428Y-112848184D01*
X159297548Y-112815690D01*
X159425151Y-112747484D01*
X159536996Y-112655696D01*
X159628784Y-112543851D01*
X159696990Y-112416248D01*
X159709793Y-112374041D01*
X159812084Y-112353694D01*
X160000442Y-112275673D01*
X160169960Y-112162405D01*
X160314123Y-112018242D01*
X160427391Y-111848724D01*
X160505412Y-111660366D01*
X160545186Y-111460407D01*
X160545186Y-111256529D01*
X160505412Y-111056570D01*
X160427391Y-110868212D01*
X160314123Y-110698694D01*
X160169960Y-110554531D01*
X160000442Y-110441263D01*
X159812084Y-110363242D01*
X159612125Y-110323468D01*
X159408247Y-110323468D01*
X159265678Y-110351826D01*
X159290626Y-110291598D01*
X159330400Y-110091639D01*
X159330400Y-110006403D01*
X159387291Y-109990931D01*
X159499268Y-109935189D01*
X159598219Y-109858672D01*
X159680340Y-109764322D01*
X159742477Y-109655763D01*
X159782241Y-109537167D01*
X159795300Y-109426350D01*
X159636550Y-109267600D01*
X159158372Y-109267600D01*
X159158372Y-109121600D01*
X159636550Y-109121600D01*
X159795300Y-108962850D01*
X159782241Y-108852033D01*
X159742477Y-108733437D01*
X159680340Y-108624878D01*
X159598219Y-108530528D01*
X159586305Y-108521315D01*
X159966161Y-108521315D01*
X160010098Y-108565252D01*
X160179616Y-108678520D01*
X160367974Y-108756541D01*
X160567933Y-108796315D01*
X160632041Y-108796315D01*
X160613359Y-108852033D01*
X160600300Y-108962850D01*
X160759050Y-109121600D01*
X161237228Y-109121600D01*
X161237228Y-109267600D01*
X160759050Y-109267600D01*
X160600300Y-109426350D01*
X160613359Y-109537167D01*
X160653123Y-109655763D01*
X160715260Y-109764322D01*
X160797381Y-109858672D01*
X160896332Y-109935189D01*
X160960400Y-109967082D01*
X160960400Y-110091639D01*
X161000174Y-110291598D01*
X161078195Y-110479956D01*
X161191463Y-110649474D01*
X161235401Y-110693412D01*
X161235401Y-110994741D01*
X161202710Y-111102509D01*
X161188528Y-111246500D01*
X161188528Y-111506500D01*
X161202710Y-111650491D01*
X161216667Y-111696500D01*
X161202710Y-111742509D01*
X161188528Y-111886500D01*
X161188528Y-112146500D01*
X161202710Y-112290491D01*
X161244710Y-112428948D01*
X161312916Y-112556551D01*
X161404704Y-112668396D01*
X161516549Y-112760184D01*
X161644152Y-112828390D01*
X161782609Y-112870390D01*
X161926600Y-112884572D01*
X162126600Y-112884572D01*
X162270591Y-112870390D01*
X162409048Y-112828390D01*
X162433000Y-112815587D01*
X162456952Y-112828390D01*
X162595409Y-112870390D01*
X162739400Y-112884572D01*
X162939400Y-112884572D01*
X163083391Y-112870390D01*
X163221848Y-112828390D01*
X163349451Y-112760184D01*
X163419762Y-112702482D01*
X165332619Y-114615340D01*
X165332619Y-114677477D01*
X165372393Y-114877436D01*
X165450414Y-115065794D01*
X165563682Y-115235312D01*
X165707845Y-115379475D01*
X165877363Y-115492743D01*
X166065721Y-115570764D01*
X166265680Y-115610538D01*
X166469558Y-115610538D01*
X166669517Y-115570764D01*
X166857875Y-115492743D01*
X167027393Y-115379475D01*
X167171556Y-115235312D01*
X167284824Y-115065794D01*
X167362845Y-114877436D01*
X167402619Y-114677477D01*
X167402619Y-114473599D01*
X167362845Y-114273640D01*
X167284824Y-114085282D01*
X167171556Y-113915764D01*
X167027393Y-113771601D01*
X166857875Y-113658333D01*
X166669517Y-113580312D01*
X166469558Y-113540538D01*
X166407421Y-113540538D01*
X165105482Y-112238600D01*
X166485553Y-112238600D01*
X166514744Y-112258105D01*
X166703102Y-112336126D01*
X166903061Y-112375900D01*
X167106939Y-112375900D01*
X167306898Y-112336126D01*
X167495256Y-112258105D01*
X167664774Y-112144837D01*
X167808937Y-112000674D01*
X167922205Y-111831156D01*
X168000226Y-111642798D01*
X168040000Y-111442839D01*
X168040000Y-111238961D01*
X168000226Y-111039002D01*
X167922205Y-110850644D01*
X167808937Y-110681126D01*
X167664774Y-110536963D01*
X167495256Y-110423695D01*
X167306898Y-110345674D01*
X167106939Y-110305900D01*
X166903061Y-110305900D01*
X166703102Y-110345674D01*
X166514744Y-110423695D01*
X166447539Y-110468600D01*
X164749454Y-110468600D01*
X164701256Y-110436395D01*
X164512898Y-110358374D01*
X164312939Y-110318600D01*
X164109061Y-110318600D01*
X163909102Y-110358374D01*
X163720744Y-110436395D01*
X163551226Y-110549663D01*
X163437125Y-110663764D01*
X163357865Y-110639721D01*
X163349451Y-110632816D01*
X163221848Y-110564610D01*
X163083391Y-110522610D01*
X162939400Y-110508428D01*
X162893581Y-110508428D01*
X162912605Y-110479956D01*
X162990626Y-110291598D01*
X163030400Y-110091639D01*
X163030400Y-109887761D01*
X162990626Y-109687802D01*
X162928841Y-109538640D01*
X162959190Y-109438591D01*
X162973372Y-109294600D01*
X162973372Y-109094600D01*
X162959190Y-108950609D01*
X162917190Y-108812152D01*
X162848984Y-108684549D01*
X162757196Y-108572704D01*
X162645351Y-108480916D01*
X162517748Y-108412710D01*
X162379291Y-108370710D01*
X162235300Y-108356528D01*
X161975300Y-108356528D01*
X161831309Y-108370710D01*
X161826416Y-108372194D01*
X161801591Y-108365443D01*
X161727050Y-108359600D01*
X161652223Y-108434427D01*
X161592302Y-108466456D01*
X161592302Y-108359600D01*
X161514895Y-108359600D01*
X161587077Y-108251571D01*
X161665098Y-108063213D01*
X161704872Y-107863254D01*
X161704872Y-107801000D01*
X162681225Y-107801000D01*
X162936119Y-107775895D01*
X163263168Y-107676686D01*
X163564578Y-107515579D01*
X163828766Y-107298766D01*
X164045579Y-107034578D01*
X164206686Y-106733168D01*
X164305895Y-106406119D01*
X164339394Y-106066000D01*
X164305895Y-105725881D01*
X164290369Y-105674700D01*
X164656799Y-105674700D01*
X164697752Y-105696590D01*
X164836209Y-105738590D01*
X164980200Y-105752772D01*
X164987700Y-105752772D01*
X164987700Y-105906599D01*
X164965810Y-105947552D01*
X164923810Y-106086009D01*
X164909628Y-106230000D01*
X164909628Y-106490000D01*
X164923810Y-106633991D01*
X164937767Y-106680000D01*
X164923810Y-106726009D01*
X164909628Y-106870000D01*
X164909628Y-107130000D01*
X164920130Y-107236626D01*
X164840016Y-107356525D01*
X164761995Y-107544883D01*
X164722221Y-107744842D01*
X164722221Y-107948720D01*
X164761995Y-108148679D01*
X164840016Y-108337037D01*
X164953284Y-108506555D01*
X165097447Y-108650718D01*
X165266965Y-108763986D01*
X165455323Y-108842007D01*
X165655282Y-108881781D01*
X165859160Y-108881781D01*
X166059119Y-108842007D01*
X166247477Y-108763986D01*
X166416995Y-108650718D01*
X166561158Y-108506555D01*
X166674426Y-108337037D01*
X166752447Y-108148679D01*
X166792221Y-107948720D01*
X166792221Y-107852271D01*
X166804950Y-107865000D01*
X166915767Y-107851941D01*
X167034363Y-107812177D01*
X167142922Y-107750040D01*
X167237272Y-107667919D01*
X167313789Y-107568968D01*
X167369531Y-107456991D01*
X167402357Y-107336291D01*
X167408200Y-107261750D01*
X167249450Y-107103000D01*
X167084084Y-107103000D01*
X167195096Y-107011896D01*
X167286884Y-106900051D01*
X167333373Y-106813077D01*
X167408200Y-106738250D01*
X167402357Y-106663709D01*
X167395606Y-106638884D01*
X167397090Y-106633991D01*
X167411272Y-106490000D01*
X167411272Y-106230000D01*
X167397090Y-106086009D01*
X167355090Y-105947552D01*
X167286884Y-105819949D01*
X167195096Y-105708104D01*
X167083251Y-105616316D01*
X166955648Y-105548110D01*
X166817191Y-105506110D01*
X166673200Y-105491928D01*
X166507700Y-105491928D01*
X166507700Y-105398903D01*
X166562090Y-105297148D01*
X166604090Y-105158691D01*
X166618272Y-105014700D01*
X166618272Y-104814700D01*
X166604090Y-104670709D01*
X166562090Y-104532252D01*
X166493884Y-104404649D01*
X166402096Y-104292804D01*
X166290251Y-104201016D01*
X166162648Y-104132810D01*
X166024191Y-104090810D01*
X165880200Y-104076628D01*
X165620200Y-104076628D01*
X165476209Y-104090810D01*
X165430200Y-104104767D01*
X165384191Y-104090810D01*
X165376292Y-104090032D01*
X165406686Y-104033168D01*
X165505895Y-103706119D01*
X165539394Y-103366000D01*
X165505895Y-103025881D01*
X165406686Y-102698832D01*
X165245579Y-102397422D01*
X165028766Y-102133234D01*
X164764578Y-101916421D01*
X164463168Y-101755314D01*
X164136119Y-101656105D01*
X163881225Y-101631000D01*
X161910775Y-101631000D01*
X161655881Y-101656105D01*
X161328832Y-101755314D01*
X161027422Y-101916421D01*
X160763234Y-102133234D01*
X160546421Y-102397422D01*
X160385314Y-102698832D01*
X160286105Y-103025881D01*
X160252606Y-103366000D01*
X160286105Y-103706119D01*
X160385314Y-104033168D01*
X160546421Y-104334578D01*
X160555995Y-104346245D01*
X160455881Y-104356105D01*
X160128832Y-104455314D01*
X159827422Y-104616421D01*
X159563234Y-104833234D01*
X159346421Y-105097422D01*
X159185314Y-105398832D01*
X159180803Y-105413702D01*
X156701472Y-102934371D01*
X156701472Y-102494374D01*
X156851537Y-102644439D01*
X156851537Y-102717939D01*
X156891311Y-102917898D01*
X156969332Y-103106256D01*
X157082600Y-103275774D01*
X157226763Y-103419937D01*
X157396281Y-103533205D01*
X157584639Y-103611226D01*
X157784598Y-103651000D01*
X157988476Y-103651000D01*
X158188435Y-103611226D01*
X158376793Y-103533205D01*
X158546311Y-103419937D01*
X158690474Y-103275774D01*
X158803742Y-103106256D01*
X158881763Y-102917898D01*
X158921537Y-102717939D01*
X158921537Y-102514061D01*
X158881763Y-102314102D01*
X158803742Y-102125744D01*
X158690474Y-101956226D01*
X158546311Y-101812063D01*
X158376793Y-101698795D01*
X158188435Y-101620774D01*
X157988476Y-101581000D01*
X157937702Y-101581000D01*
X156621500Y-100264799D01*
X156621500Y-100202661D01*
X156581726Y-100002702D01*
X156503705Y-99814344D01*
X156390437Y-99644826D01*
X156246274Y-99500663D01*
X156076756Y-99387395D01*
X155888398Y-99309374D01*
X155688439Y-99269600D01*
X155484561Y-99269600D01*
X155284602Y-99309374D01*
X155096244Y-99387395D01*
X154968945Y-99472453D01*
X154932550Y-99469600D01*
X154857723Y-99544427D01*
X154770749Y-99590916D01*
X154658904Y-99682704D01*
X154567800Y-99793716D01*
X154567800Y-99628350D01*
X154409050Y-99469600D01*
X154334509Y-99475443D01*
X154213809Y-99508269D01*
X154101832Y-99564011D01*
X154002881Y-99640528D01*
X153920760Y-99734878D01*
X153858623Y-99843437D01*
X153818859Y-99962033D01*
X153805800Y-100072850D01*
X153964550Y-100231600D01*
X154442728Y-100231600D01*
X154442728Y-100377600D01*
X153964550Y-100377600D01*
X153805800Y-100536350D01*
X153818859Y-100647167D01*
X153858623Y-100765763D01*
X153889515Y-100819733D01*
X153829980Y-100825597D01*
X153686719Y-100869054D01*
X153554690Y-100939626D01*
X153438965Y-101034599D01*
X153415167Y-101063597D01*
X152396998Y-102081767D01*
X152368000Y-102105565D01*
X152344202Y-102134563D01*
X152344201Y-102134564D01*
X152273026Y-102221290D01*
X152248059Y-102268000D01*
X152202454Y-102353319D01*
X152158997Y-102496580D01*
X152148000Y-102608233D01*
X152148000Y-102608244D01*
X152144324Y-102645566D01*
X152148000Y-102682888D01*
X152148000Y-102782399D01*
X152126110Y-102823352D01*
X152084110Y-102961809D01*
X152069928Y-103105800D01*
X148222610Y-103105800D01*
X148222610Y-102248691D01*
X148266547Y-102204754D01*
X148293149Y-102164940D01*
X148426726Y-102298517D01*
X148596244Y-102411785D01*
X148784602Y-102489806D01*
X148984561Y-102529580D01*
X149188439Y-102529580D01*
X149388398Y-102489806D01*
X149576756Y-102411785D01*
X149746274Y-102298517D01*
X149890437Y-102154354D01*
X150003705Y-101984836D01*
X150081726Y-101796478D01*
X150121500Y-101596519D01*
X150121500Y-101392641D01*
X150081726Y-101192682D01*
X150003705Y-101004324D01*
X149890437Y-100834806D01*
X149746274Y-100690643D01*
X149576756Y-100577375D01*
X149388398Y-100499354D01*
X149188439Y-100459580D01*
X149126302Y-100459580D01*
X148222610Y-99555889D01*
X148222610Y-98548731D01*
X148266547Y-98504794D01*
X148379815Y-98335276D01*
X148457836Y-98146918D01*
X148497610Y-97946959D01*
X148497610Y-97743081D01*
X148457836Y-97543122D01*
X148379815Y-97354764D01*
X148266547Y-97185246D01*
X148122384Y-97041083D01*
X147952866Y-96927815D01*
X147764508Y-96849794D01*
X147676726Y-96832333D01*
X147732826Y-96696898D01*
X147772600Y-96496939D01*
X147772600Y-96392661D01*
X149307600Y-96392661D01*
X149307600Y-96596539D01*
X149347374Y-96796498D01*
X149425395Y-96984856D01*
X149538663Y-97154374D01*
X149682826Y-97298537D01*
X149852344Y-97411805D01*
X150040702Y-97489826D01*
X150240661Y-97529600D01*
X150444539Y-97529600D01*
X150644498Y-97489826D01*
X150832856Y-97411805D01*
X150932280Y-97345372D01*
X151067000Y-97345372D01*
X151210991Y-97331190D01*
X151215884Y-97329706D01*
X151240709Y-97336457D01*
X151315250Y-97342300D01*
X151390077Y-97267473D01*
X151477051Y-97220984D01*
X151588896Y-97129196D01*
X151680000Y-97018184D01*
X151680000Y-97183550D01*
X151838750Y-97342300D01*
X151913291Y-97336457D01*
X152033991Y-97303631D01*
X152145968Y-97247889D01*
X152244919Y-97171372D01*
X152327040Y-97077022D01*
X152389177Y-96968463D01*
X152428941Y-96849867D01*
X152442000Y-96739050D01*
X152283250Y-96580300D01*
X151805072Y-96580300D01*
X151805072Y-96434300D01*
X152283250Y-96434300D01*
X152442000Y-96275550D01*
X152428941Y-96164733D01*
X152389177Y-96046137D01*
X152327040Y-95937578D01*
X152245213Y-95843566D01*
X152308004Y-95780775D01*
X156761000Y-95780775D01*
X156761000Y-97751224D01*
X156786105Y-98006118D01*
X156885314Y-98333167D01*
X157046421Y-98634577D01*
X157263234Y-98898766D01*
X157527422Y-99115579D01*
X157828832Y-99276686D01*
X158155881Y-99375895D01*
X158496000Y-99409394D01*
X158836118Y-99375895D01*
X159163167Y-99276686D01*
X159464577Y-99115579D01*
X159728766Y-98898766D01*
X159945579Y-98634578D01*
X160106686Y-98333168D01*
X160205895Y-98006119D01*
X160231000Y-97751225D01*
X160231000Y-95780775D01*
X160205895Y-95525881D01*
X160106686Y-95198832D01*
X160089137Y-95166000D01*
X163157928Y-95166000D01*
X163157928Y-97366000D01*
X163170188Y-97490482D01*
X163206498Y-97610180D01*
X163265463Y-97720494D01*
X163344815Y-97817185D01*
X163441506Y-97896537D01*
X163551820Y-97955502D01*
X163671518Y-97991812D01*
X163796000Y-98004072D01*
X164960428Y-98004072D01*
X164960428Y-98209600D01*
X164974610Y-98353591D01*
X164988567Y-98399600D01*
X164974610Y-98445609D01*
X164960428Y-98589600D01*
X164960428Y-98849600D01*
X164974610Y-98993591D01*
X165016610Y-99132048D01*
X165029012Y-99155250D01*
X165016610Y-99178452D01*
X164974610Y-99316909D01*
X164960428Y-99460900D01*
X164960428Y-99720900D01*
X164974610Y-99864891D01*
X164978619Y-99878108D01*
X164919395Y-99966744D01*
X164841374Y-100155102D01*
X164801600Y-100355061D01*
X164801600Y-100558939D01*
X164841374Y-100758898D01*
X164919395Y-100947256D01*
X165032663Y-101116774D01*
X165176826Y-101260937D01*
X165346344Y-101374205D01*
X165534702Y-101452226D01*
X165734661Y-101492000D01*
X165938539Y-101492000D01*
X166138498Y-101452226D01*
X166326856Y-101374205D01*
X166496374Y-101260937D01*
X166640537Y-101116774D01*
X166723239Y-100993000D01*
X167961000Y-100993000D01*
X167961000Y-101893000D01*
X168019114Y-102229041D01*
X168141670Y-102547288D01*
X168323958Y-102835511D01*
X168558973Y-103082633D01*
X168837683Y-103279157D01*
X169149378Y-103417531D01*
X169299878Y-103455175D01*
X169569000Y-103337125D01*
X169569000Y-100993000D01*
X169823000Y-100993000D01*
X169823000Y-103337125D01*
X170092122Y-103455175D01*
X170242622Y-103417531D01*
X170554317Y-103279157D01*
X170833027Y-103082633D01*
X171068042Y-102835511D01*
X171250330Y-102547288D01*
X171372886Y-102229041D01*
X171431000Y-101893000D01*
X171431000Y-100993000D01*
X169823000Y-100993000D01*
X169569000Y-100993000D01*
X167961000Y-100993000D01*
X166723239Y-100993000D01*
X166753805Y-100947256D01*
X166831826Y-100758898D01*
X166871600Y-100558939D01*
X166871600Y-100355061D01*
X166831826Y-100155102D01*
X166753805Y-99966744D01*
X166668450Y-99839000D01*
X167961000Y-99839000D01*
X167961000Y-100739000D01*
X169569000Y-100739000D01*
X169569000Y-98394875D01*
X169823000Y-98394875D01*
X169823000Y-100739000D01*
X171431000Y-100739000D01*
X171431000Y-99839000D01*
X171372886Y-99502959D01*
X171250330Y-99184712D01*
X171068042Y-98896489D01*
X170833027Y-98649367D01*
X170554317Y-98452843D01*
X170242622Y-98314469D01*
X170092122Y-98276825D01*
X169823000Y-98394875D01*
X169569000Y-98394875D01*
X169299878Y-98276825D01*
X169149378Y-98314469D01*
X168837683Y-98452843D01*
X168558973Y-98649367D01*
X168323958Y-98896489D01*
X168141670Y-99184712D01*
X168019114Y-99502959D01*
X167961000Y-99839000D01*
X166668450Y-99839000D01*
X166640537Y-99797226D01*
X166630084Y-99786773D01*
X166636572Y-99720900D01*
X166636572Y-99587672D01*
X166711300Y-99587672D01*
X166855291Y-99573490D01*
X166993748Y-99531490D01*
X167121351Y-99463284D01*
X167233196Y-99371496D01*
X167324984Y-99259651D01*
X167393190Y-99132048D01*
X167435190Y-98993591D01*
X167449372Y-98849600D01*
X167449372Y-98589600D01*
X167435190Y-98445609D01*
X167433706Y-98440716D01*
X167440457Y-98415891D01*
X167446300Y-98341350D01*
X167371473Y-98266523D01*
X167324984Y-98179549D01*
X167233196Y-98067704D01*
X167155659Y-98004072D01*
X167796000Y-98004072D01*
X167920482Y-97991812D01*
X168040180Y-97955502D01*
X168150494Y-97896537D01*
X168247185Y-97817185D01*
X168326537Y-97720494D01*
X168385502Y-97610180D01*
X168421812Y-97490482D01*
X168434072Y-97366000D01*
X168434072Y-95166000D01*
X168421812Y-95041518D01*
X168385502Y-94921820D01*
X168326537Y-94811506D01*
X168247185Y-94714815D01*
X168150494Y-94635463D01*
X168040180Y-94576498D01*
X167920482Y-94540188D01*
X167796000Y-94527928D01*
X163796000Y-94527928D01*
X163671518Y-94540188D01*
X163551820Y-94576498D01*
X163441506Y-94635463D01*
X163344815Y-94714815D01*
X163265463Y-94811506D01*
X163206498Y-94921820D01*
X163170188Y-95041518D01*
X163157928Y-95166000D01*
X160089137Y-95166000D01*
X159945579Y-94897422D01*
X159728766Y-94633234D01*
X159464578Y-94416421D01*
X159163168Y-94255314D01*
X158836119Y-94156105D01*
X158496000Y-94122606D01*
X158155882Y-94156105D01*
X157828833Y-94255314D01*
X157527423Y-94416421D01*
X157263235Y-94633234D01*
X157046422Y-94897422D01*
X156885315Y-95198832D01*
X156786106Y-95525881D01*
X156761000Y-95780775D01*
X152308004Y-95780775D01*
X152906150Y-95182629D01*
X152939917Y-95154917D01*
X152968255Y-95120388D01*
X153050510Y-95020160D01*
X153050511Y-95020159D01*
X153132689Y-94866413D01*
X153183295Y-94699590D01*
X153195909Y-94571519D01*
X153235582Y-94567612D01*
X153355280Y-94531302D01*
X153465594Y-94472337D01*
X153562285Y-94392985D01*
X153641637Y-94296294D01*
X153700602Y-94185980D01*
X153716217Y-94134502D01*
X153998003Y-94134502D01*
X154069586Y-94378471D01*
X154325096Y-94499371D01*
X154599284Y-94568100D01*
X154881612Y-94582017D01*
X155161230Y-94540587D01*
X155427392Y-94445403D01*
X155552614Y-94378471D01*
X155624197Y-94134502D01*
X154811100Y-93321405D01*
X153998003Y-94134502D01*
X153716217Y-94134502D01*
X153736912Y-94066282D01*
X153749172Y-93941800D01*
X153749172Y-93934585D01*
X153818398Y-93954897D01*
X154631495Y-93141800D01*
X154990705Y-93141800D01*
X155803802Y-93954897D01*
X156047771Y-93883314D01*
X156168671Y-93627804D01*
X156237400Y-93353616D01*
X156251317Y-93071288D01*
X156209887Y-92791670D01*
X156114703Y-92525508D01*
X156047771Y-92400286D01*
X155803802Y-92328703D01*
X154990705Y-93141800D01*
X154631495Y-93141800D01*
X153818398Y-92328703D01*
X153749172Y-92349015D01*
X153749172Y-92341800D01*
X153736912Y-92217318D01*
X153716218Y-92149098D01*
X153998003Y-92149098D01*
X154811100Y-92962195D01*
X155469595Y-92303700D01*
X169681728Y-92303700D01*
X169681728Y-93903700D01*
X169693988Y-94028182D01*
X169730298Y-94147880D01*
X169789263Y-94258194D01*
X169868615Y-94354885D01*
X169965306Y-94434237D01*
X170075620Y-94493202D01*
X170195318Y-94529512D01*
X170319800Y-94541772D01*
X171919800Y-94541772D01*
X172044282Y-94529512D01*
X172163980Y-94493202D01*
X172274294Y-94434237D01*
X172370985Y-94354885D01*
X172450337Y-94258194D01*
X172509302Y-94147880D01*
X172524917Y-94096402D01*
X172806703Y-94096402D01*
X172878286Y-94340371D01*
X173133796Y-94461271D01*
X173407984Y-94530000D01*
X173690312Y-94543917D01*
X173969930Y-94502487D01*
X174236092Y-94407303D01*
X174361314Y-94340371D01*
X174432897Y-94096402D01*
X173619800Y-93283305D01*
X172806703Y-94096402D01*
X172524917Y-94096402D01*
X172545612Y-94028182D01*
X172557872Y-93903700D01*
X172557872Y-93896485D01*
X172627098Y-93916797D01*
X173440195Y-93103700D01*
X173799405Y-93103700D01*
X174612502Y-93916797D01*
X174856471Y-93845214D01*
X174977371Y-93589704D01*
X175046100Y-93315516D01*
X175060017Y-93033188D01*
X175018587Y-92753570D01*
X174923403Y-92487408D01*
X174856471Y-92362186D01*
X174612502Y-92290603D01*
X173799405Y-93103700D01*
X173440195Y-93103700D01*
X172627098Y-92290603D01*
X172557872Y-92310915D01*
X172557872Y-92303700D01*
X172545612Y-92179218D01*
X172524918Y-92110998D01*
X172806703Y-92110998D01*
X173619800Y-92924095D01*
X174432897Y-92110998D01*
X174361314Y-91867029D01*
X174105804Y-91746129D01*
X173831616Y-91677400D01*
X173549288Y-91663483D01*
X173269670Y-91704913D01*
X173003508Y-91800097D01*
X172878286Y-91867029D01*
X172806703Y-92110998D01*
X172524918Y-92110998D01*
X172509302Y-92059520D01*
X172450337Y-91949206D01*
X172370985Y-91852515D01*
X172274294Y-91773163D01*
X172163980Y-91714198D01*
X172044282Y-91677888D01*
X171919800Y-91665628D01*
X170319800Y-91665628D01*
X170195318Y-91677888D01*
X170075620Y-91714198D01*
X169965306Y-91773163D01*
X169868615Y-91852515D01*
X169789263Y-91949206D01*
X169730298Y-92059520D01*
X169693988Y-92179218D01*
X169681728Y-92303700D01*
X155469595Y-92303700D01*
X155624197Y-92149098D01*
X155552614Y-91905129D01*
X155297104Y-91784229D01*
X155022916Y-91715500D01*
X154740588Y-91701583D01*
X154460970Y-91743013D01*
X154194808Y-91838197D01*
X154069586Y-91905129D01*
X153998003Y-92149098D01*
X153716218Y-92149098D01*
X153700602Y-92097620D01*
X153641637Y-91987306D01*
X153562285Y-91890615D01*
X153465594Y-91811263D01*
X153355280Y-91752298D01*
X153235582Y-91715988D01*
X153111100Y-91703728D01*
X151511100Y-91703728D01*
X151386618Y-91715988D01*
X151266920Y-91752298D01*
X151156606Y-91811263D01*
X151059915Y-91890615D01*
X150980563Y-91987306D01*
X150921598Y-92097620D01*
X150885288Y-92217318D01*
X150873028Y-92341800D01*
X150873028Y-93941800D01*
X150885288Y-94066282D01*
X150921598Y-94185980D01*
X150980563Y-94296294D01*
X151059915Y-94392985D01*
X151132812Y-94452810D01*
X150097557Y-95488065D01*
X150040702Y-95499374D01*
X149852344Y-95577395D01*
X149682826Y-95690663D01*
X149538663Y-95834826D01*
X149425395Y-96004344D01*
X149347374Y-96192702D01*
X149307600Y-96392661D01*
X147772600Y-96392661D01*
X147772600Y-96293061D01*
X147732826Y-96093102D01*
X147654805Y-95904744D01*
X147541537Y-95735226D01*
X147397374Y-95591063D01*
X147227856Y-95477795D01*
X147039498Y-95399774D01*
X146839539Y-95360000D01*
X146635661Y-95360000D01*
X146435702Y-95399774D01*
X146247344Y-95477795D01*
X146077826Y-95591063D01*
X145933663Y-95735226D01*
X145820395Y-95904744D01*
X145742374Y-96093102D01*
X145702600Y-96293061D01*
X133656972Y-96293061D01*
X133656972Y-95746200D01*
X133644712Y-95621718D01*
X133608402Y-95502020D01*
X133549437Y-95391706D01*
X133486981Y-95315602D01*
X135104203Y-95315602D01*
X135175786Y-95559571D01*
X135431296Y-95680471D01*
X135705484Y-95749200D01*
X135987812Y-95763117D01*
X136267430Y-95721687D01*
X136533592Y-95626503D01*
X136658814Y-95559571D01*
X136730397Y-95315602D01*
X135917300Y-94502505D01*
X135104203Y-95315602D01*
X133486981Y-95315602D01*
X133470085Y-95295015D01*
X133373394Y-95215663D01*
X133263080Y-95156698D01*
X133143382Y-95120388D01*
X133018900Y-95108128D01*
X131318900Y-95108128D01*
X131194418Y-95120388D01*
X131074720Y-95156698D01*
X130964406Y-95215663D01*
X130867715Y-95295015D01*
X130820494Y-95352554D01*
X130803885Y-95332315D01*
X130707194Y-95252963D01*
X130596880Y-95193998D01*
X130477182Y-95157688D01*
X130352700Y-95145428D01*
X129366206Y-95145428D01*
X128959233Y-94738455D01*
X128931516Y-94704682D01*
X128796758Y-94594088D01*
X128643012Y-94511910D01*
X128476189Y-94461304D01*
X128346176Y-94448499D01*
X128346168Y-94448499D01*
X128302699Y-94444218D01*
X128259230Y-94448499D01*
X126496164Y-94448499D01*
X126452698Y-94444218D01*
X126409232Y-94448499D01*
X126409222Y-94448499D01*
X126279209Y-94461304D01*
X126112386Y-94511910D01*
X125958640Y-94594088D01*
X125929151Y-94618289D01*
X125857652Y-94676967D01*
X125857650Y-94676969D01*
X125823882Y-94704682D01*
X125796169Y-94738450D01*
X125144150Y-95390470D01*
X125110383Y-95418182D01*
X125082670Y-95451950D01*
X125082667Y-95451953D01*
X125043400Y-95499800D01*
X125043400Y-94393412D01*
X134477083Y-94393412D01*
X134518513Y-94673030D01*
X134613697Y-94939192D01*
X134680629Y-95064414D01*
X134924598Y-95135997D01*
X135737695Y-94322900D01*
X136096905Y-94322900D01*
X136910002Y-95135997D01*
X136979228Y-95115685D01*
X136979228Y-95122900D01*
X136991488Y-95247382D01*
X137027798Y-95367080D01*
X137086763Y-95477394D01*
X137166115Y-95574085D01*
X137262806Y-95653437D01*
X137373120Y-95712402D01*
X137492818Y-95748712D01*
X137617300Y-95760972D01*
X139217300Y-95760972D01*
X139341782Y-95748712D01*
X139461480Y-95712402D01*
X139571794Y-95653437D01*
X139668485Y-95574085D01*
X139747837Y-95477394D01*
X139806802Y-95367080D01*
X139843112Y-95247382D01*
X139855372Y-95122900D01*
X139855372Y-93522900D01*
X139843112Y-93398418D01*
X139806802Y-93278720D01*
X139747837Y-93168406D01*
X139668485Y-93071715D01*
X139571794Y-92992363D01*
X139461480Y-92933398D01*
X139341782Y-92897088D01*
X139217300Y-92884828D01*
X137617300Y-92884828D01*
X137492818Y-92897088D01*
X137373120Y-92933398D01*
X137262806Y-92992363D01*
X137166115Y-93071715D01*
X137086763Y-93168406D01*
X137027798Y-93278720D01*
X136991488Y-93398418D01*
X136979228Y-93522900D01*
X136979228Y-93530115D01*
X136910002Y-93509803D01*
X136096905Y-94322900D01*
X135737695Y-94322900D01*
X134924598Y-93509803D01*
X134680629Y-93581386D01*
X134559729Y-93836896D01*
X134491000Y-94111084D01*
X134477083Y-94393412D01*
X125043400Y-94393412D01*
X125043400Y-93330198D01*
X135104203Y-93330198D01*
X135917300Y-94143295D01*
X136730397Y-93330198D01*
X136658814Y-93086229D01*
X136403304Y-92965329D01*
X136129116Y-92896600D01*
X135846788Y-92882683D01*
X135567170Y-92924113D01*
X135301008Y-93019297D01*
X135175786Y-93086229D01*
X135104203Y-93330198D01*
X125043400Y-93330198D01*
X125043400Y-88772200D01*
X175743400Y-88772200D01*
X175743401Y-119888000D01*
G04 #@! TA.AperFunction,Conductor*
D21*
G36*
X175743401Y-119888000D02*
G01*
X174400847Y-119888000D01*
X174474777Y-119814070D01*
X174358504Y-119697797D01*
X174602471Y-119626214D01*
X174723371Y-119370704D01*
X174792100Y-119096516D01*
X174806017Y-118814188D01*
X174764587Y-118534570D01*
X174669403Y-118268408D01*
X174602471Y-118143186D01*
X174358502Y-118071603D01*
X173545405Y-118884700D01*
X173559548Y-118898843D01*
X173379943Y-119078448D01*
X173365800Y-119064305D01*
X173351658Y-119078448D01*
X173172053Y-118898843D01*
X173186195Y-118884700D01*
X172373098Y-118071603D01*
X172303872Y-118091915D01*
X172303872Y-118084700D01*
X172291612Y-117960218D01*
X172270918Y-117891998D01*
X172552703Y-117891998D01*
X173365800Y-118705095D01*
X174178897Y-117891998D01*
X174107314Y-117648029D01*
X173851804Y-117527129D01*
X173577616Y-117458400D01*
X173295288Y-117444483D01*
X173015670Y-117485913D01*
X172749508Y-117581097D01*
X172624286Y-117648029D01*
X172552703Y-117891998D01*
X172270918Y-117891998D01*
X172255302Y-117840520D01*
X172196337Y-117730206D01*
X172116985Y-117633515D01*
X172020294Y-117554163D01*
X171909980Y-117495198D01*
X171790282Y-117458888D01*
X171665800Y-117446628D01*
X170065800Y-117446628D01*
X169941318Y-117458888D01*
X169821620Y-117495198D01*
X169711306Y-117554163D01*
X169614615Y-117633515D01*
X169535263Y-117730206D01*
X169476298Y-117840520D01*
X169439988Y-117960218D01*
X169427728Y-118084700D01*
X169427728Y-119071194D01*
X169109521Y-119389401D01*
X156643502Y-119389401D01*
X156681900Y-119236216D01*
X156695817Y-118953888D01*
X156654387Y-118674270D01*
X156559203Y-118408108D01*
X156492271Y-118282886D01*
X156248302Y-118211303D01*
X155435205Y-119024400D01*
X155449348Y-119038543D01*
X155269743Y-119218148D01*
X155255600Y-119204005D01*
X155241458Y-119218148D01*
X155061853Y-119038543D01*
X155075995Y-119024400D01*
X154262898Y-118211303D01*
X154193672Y-118231615D01*
X154193672Y-118224400D01*
X154181412Y-118099918D01*
X154160718Y-118031698D01*
X154442503Y-118031698D01*
X155255600Y-118844795D01*
X156068697Y-118031698D01*
X155997114Y-117787729D01*
X155741604Y-117666829D01*
X155467416Y-117598100D01*
X155185088Y-117584183D01*
X154905470Y-117625613D01*
X154639308Y-117720797D01*
X154514086Y-117787729D01*
X154442503Y-118031698D01*
X154160718Y-118031698D01*
X154145102Y-117980220D01*
X154086137Y-117869906D01*
X154006785Y-117773215D01*
X153910094Y-117693863D01*
X153799780Y-117634898D01*
X153680082Y-117598588D01*
X153555600Y-117586328D01*
X151955600Y-117586328D01*
X151831118Y-117598588D01*
X151711420Y-117634898D01*
X151601106Y-117693863D01*
X151504415Y-117773215D01*
X151425063Y-117869906D01*
X151366098Y-117980220D01*
X151329788Y-118099918D01*
X151317528Y-118224400D01*
X151317528Y-119389401D01*
X148571831Y-119389401D01*
X148609000Y-119202539D01*
X148609000Y-118998661D01*
X148569226Y-118798702D01*
X148491205Y-118610344D01*
X148377937Y-118440826D01*
X148233774Y-118296663D01*
X148064256Y-118183395D01*
X147875898Y-118105374D01*
X147675939Y-118065600D01*
X147472061Y-118065600D01*
X147272102Y-118105374D01*
X147083744Y-118183395D01*
X146955751Y-118268917D01*
X146806956Y-118169495D01*
X146618598Y-118091474D01*
X146418639Y-118051700D01*
X146356502Y-118051700D01*
X141651501Y-113346700D01*
X146882989Y-113346700D01*
X146926926Y-113390637D01*
X147096444Y-113503905D01*
X147284802Y-113581926D01*
X147484761Y-113621700D01*
X147688639Y-113621700D01*
X147888598Y-113581926D01*
X148076956Y-113503905D01*
X148246474Y-113390637D01*
X148390637Y-113246474D01*
X148503905Y-113076956D01*
X148581926Y-112888598D01*
X148621700Y-112688639D01*
X148621700Y-112484761D01*
X148581926Y-112284802D01*
X148503905Y-112096444D01*
X148390637Y-111926926D01*
X148246474Y-111782763D01*
X148076956Y-111669495D01*
X147888598Y-111591474D01*
X147688639Y-111551700D01*
X147484761Y-111551700D01*
X147284802Y-111591474D01*
X147096444Y-111669495D01*
X146926926Y-111782763D01*
X146882989Y-111826700D01*
X141857502Y-111826700D01*
X139211000Y-109180199D01*
X139211000Y-109118061D01*
X139171226Y-108918102D01*
X139093205Y-108729744D01*
X138979937Y-108560226D01*
X138835774Y-108416063D01*
X138666256Y-108302795D01*
X138477898Y-108224774D01*
X138425581Y-108214368D01*
X138432826Y-108196878D01*
X138472600Y-107996919D01*
X138472600Y-107793041D01*
X138432826Y-107593082D01*
X138354805Y-107404724D01*
X138241537Y-107235206D01*
X138097374Y-107091043D01*
X137927856Y-106977775D01*
X137739498Y-106899754D01*
X137539539Y-106859980D01*
X137335661Y-106859980D01*
X137135702Y-106899754D01*
X136947344Y-106977775D01*
X136777826Y-107091043D01*
X136633663Y-107235206D01*
X136520395Y-107404724D01*
X136442374Y-107593082D01*
X136402600Y-107793041D01*
X136402600Y-107996919D01*
X136442374Y-108196878D01*
X136520395Y-108385236D01*
X136633663Y-108554754D01*
X136677601Y-108598692D01*
X136677600Y-109642799D01*
X135642106Y-108607305D01*
X135618303Y-108578301D01*
X135582618Y-108549015D01*
X134548150Y-107514549D01*
X134548150Y-105872772D01*
X134551826Y-105835449D01*
X134548150Y-105798126D01*
X134548150Y-105798117D01*
X134537153Y-105686464D01*
X134493696Y-105543203D01*
X134423124Y-105411174D01*
X134328151Y-105295449D01*
X134299153Y-105271651D01*
X133610110Y-104582608D01*
X133653900Y-104362460D01*
X133653900Y-104069940D01*
X133596832Y-103783042D01*
X133484890Y-103512789D01*
X133322375Y-103269568D01*
X133115532Y-103062725D01*
X132941140Y-102946200D01*
X133115532Y-102829675D01*
X133322375Y-102622832D01*
X133484890Y-102379611D01*
X133596832Y-102109358D01*
X133653900Y-101822460D01*
X133653900Y-101529940D01*
X133610110Y-101309792D01*
X133829902Y-101090000D01*
X136733889Y-101090000D01*
X136777826Y-101133937D01*
X136947344Y-101247205D01*
X137135702Y-101325226D01*
X137335661Y-101365000D01*
X137539539Y-101365000D01*
X137739498Y-101325226D01*
X137927856Y-101247205D01*
X138097374Y-101133937D01*
X138241537Y-100989774D01*
X138354805Y-100820256D01*
X138432826Y-100631898D01*
X138472600Y-100431939D01*
X138472600Y-100228061D01*
X138432826Y-100028102D01*
X138354805Y-99839744D01*
X138241537Y-99670226D01*
X138097374Y-99526063D01*
X137927856Y-99412795D01*
X137739498Y-99334774D01*
X137539539Y-99295000D01*
X137335661Y-99295000D01*
X137135702Y-99334774D01*
X136947344Y-99412795D01*
X136777826Y-99526063D01*
X136733889Y-99570000D01*
X133587048Y-99570000D01*
X133610376Y-99493090D01*
X133489055Y-99263200D01*
X132295900Y-99263200D01*
X132295900Y-99283200D01*
X132041900Y-99283200D01*
X132041900Y-99263200D01*
X130848745Y-99263200D01*
X130727424Y-99493090D01*
X130772075Y-99640299D01*
X130897259Y-99903120D01*
X131071312Y-100136469D01*
X131287545Y-100331378D01*
X131404434Y-100401005D01*
X131222268Y-100522725D01*
X131015425Y-100729568D01*
X130852910Y-100972789D01*
X130740968Y-101243042D01*
X130683900Y-101529940D01*
X130683900Y-101822460D01*
X130740968Y-102109358D01*
X130852910Y-102379611D01*
X131015425Y-102622832D01*
X131222268Y-102829675D01*
X131396660Y-102946200D01*
X131222268Y-103062725D01*
X131015425Y-103269568D01*
X130852910Y-103512789D01*
X130740968Y-103783042D01*
X130683900Y-104069940D01*
X130683900Y-104362460D01*
X130740968Y-104649358D01*
X130852910Y-104919611D01*
X131015425Y-105162832D01*
X131222268Y-105369675D01*
X131396660Y-105486200D01*
X131222268Y-105602725D01*
X131015425Y-105809568D01*
X130852910Y-106052789D01*
X130740968Y-106323042D01*
X130683900Y-106609940D01*
X130683900Y-106902460D01*
X130740968Y-107189358D01*
X130852910Y-107459611D01*
X131015425Y-107702832D01*
X131222268Y-107909675D01*
X131396660Y-108026200D01*
X131222268Y-108142725D01*
X131015425Y-108349568D01*
X130852910Y-108592789D01*
X130740968Y-108863042D01*
X130683900Y-109149940D01*
X130683900Y-109442460D01*
X130740968Y-109729358D01*
X130852910Y-109999611D01*
X131015425Y-110242832D01*
X131222268Y-110449675D01*
X131396660Y-110566200D01*
X131222268Y-110682725D01*
X131015425Y-110889568D01*
X130852910Y-111132789D01*
X130740968Y-111403042D01*
X130683900Y-111689940D01*
X130683900Y-111982460D01*
X130740968Y-112269358D01*
X130852910Y-112539611D01*
X131015425Y-112782832D01*
X131222268Y-112989675D01*
X131396660Y-113106200D01*
X131222268Y-113222725D01*
X131015425Y-113429568D01*
X130852910Y-113672789D01*
X130740968Y-113943042D01*
X130683900Y-114229940D01*
X130683900Y-114522460D01*
X130740968Y-114809358D01*
X130852910Y-115079611D01*
X131015425Y-115322832D01*
X131222268Y-115529675D01*
X131465489Y-115692190D01*
X131735742Y-115804132D01*
X132022640Y-115861200D01*
X132315160Y-115861200D01*
X132602058Y-115804132D01*
X132872311Y-115692190D01*
X133115532Y-115529675D01*
X133322375Y-115322832D01*
X133484890Y-115079611D01*
X133596832Y-114809358D01*
X133653900Y-114522460D01*
X133653900Y-114229940D01*
X133596832Y-113943042D01*
X133484890Y-113672789D01*
X133322375Y-113429568D01*
X133115532Y-113222725D01*
X132941140Y-113106200D01*
X133115532Y-112989675D01*
X133322375Y-112782832D01*
X133484890Y-112539611D01*
X133500010Y-112503109D01*
X139293295Y-118296394D01*
X139162763Y-118426926D01*
X139049495Y-118596444D01*
X138971474Y-118784802D01*
X138931700Y-118984761D01*
X138931700Y-119188639D01*
X138971474Y-119388598D01*
X138971807Y-119389401D01*
X137036578Y-119389401D01*
X137217492Y-119324703D01*
X137342714Y-119257771D01*
X137414297Y-119013802D01*
X136601200Y-118200705D01*
X136587058Y-118214848D01*
X136407453Y-118035243D01*
X136421595Y-118021100D01*
X136780805Y-118021100D01*
X137593902Y-118834197D01*
X137837871Y-118762614D01*
X137958771Y-118507104D01*
X138027500Y-118232916D01*
X138041417Y-117950588D01*
X137999987Y-117670970D01*
X137904803Y-117404808D01*
X137837871Y-117279586D01*
X137593902Y-117208003D01*
X136780805Y-118021100D01*
X136421595Y-118021100D01*
X135608498Y-117208003D01*
X135539272Y-117228315D01*
X135539272Y-117221100D01*
X135527012Y-117096618D01*
X135506318Y-117028398D01*
X135788103Y-117028398D01*
X136601200Y-117841495D01*
X137414297Y-117028398D01*
X137342714Y-116784429D01*
X137087204Y-116663529D01*
X136813016Y-116594800D01*
X136530688Y-116580883D01*
X136251070Y-116622313D01*
X135984908Y-116717497D01*
X135859686Y-116784429D01*
X135788103Y-117028398D01*
X135506318Y-117028398D01*
X135490702Y-116976920D01*
X135431737Y-116866606D01*
X135352385Y-116769915D01*
X135255694Y-116690563D01*
X135145380Y-116631598D01*
X135025682Y-116595288D01*
X134901200Y-116583028D01*
X133301200Y-116583028D01*
X133176718Y-116595288D01*
X133057020Y-116631598D01*
X132946706Y-116690563D01*
X132850015Y-116769915D01*
X132770663Y-116866606D01*
X132711698Y-116976920D01*
X132675388Y-117096618D01*
X132667747Y-117174200D01*
X130918901Y-117174200D01*
X130915012Y-117134718D01*
X130878702Y-117015020D01*
X130819737Y-116904706D01*
X130740385Y-116808015D01*
X130643694Y-116728663D01*
X130533380Y-116669698D01*
X130413682Y-116633388D01*
X130289200Y-116621128D01*
X128689200Y-116621128D01*
X128564718Y-116633388D01*
X128445020Y-116669698D01*
X128334706Y-116728663D01*
X128238015Y-116808015D01*
X128158663Y-116904706D01*
X128099698Y-117015020D01*
X128063388Y-117134718D01*
X128051128Y-117259200D01*
X128051128Y-117266415D01*
X127981902Y-117246103D01*
X127168805Y-118059200D01*
X127182948Y-118073343D01*
X127003343Y-118252948D01*
X126989200Y-118238805D01*
X126975058Y-118252948D01*
X126795453Y-118073343D01*
X126809595Y-118059200D01*
X126795453Y-118045058D01*
X126975058Y-117865453D01*
X126989200Y-117879595D01*
X127802297Y-117066498D01*
X127730714Y-116822529D01*
X127475204Y-116701629D01*
X127201016Y-116632900D01*
X126918688Y-116618983D01*
X126639070Y-116660413D01*
X126624199Y-116665731D01*
X126624199Y-97955485D01*
X126840884Y-98009800D01*
X127123212Y-98023717D01*
X127402830Y-97982287D01*
X127668992Y-97887103D01*
X127794214Y-97820171D01*
X127865797Y-97576202D01*
X127052700Y-96763105D01*
X127038558Y-96777248D01*
X126858953Y-96597643D01*
X126873095Y-96583500D01*
X126858953Y-96569358D01*
X127038558Y-96389753D01*
X127052700Y-96403895D01*
X127066843Y-96389753D01*
X127246448Y-96569358D01*
X127232305Y-96583500D01*
X128045402Y-97396597D01*
X128114628Y-97376285D01*
X128114628Y-97383500D01*
X128126888Y-97507982D01*
X128163198Y-97627680D01*
X128222163Y-97737994D01*
X128301515Y-97834685D01*
X128398206Y-97914037D01*
X128508520Y-97973002D01*
X128628218Y-98009312D01*
X128752700Y-98021572D01*
X130352700Y-98021572D01*
X130477182Y-98009312D01*
X130596880Y-97973002D01*
X130707194Y-97914037D01*
X130803885Y-97834685D01*
X130810072Y-97827146D01*
X130867715Y-97897385D01*
X130964406Y-97976737D01*
X131074720Y-98035702D01*
X131155366Y-98060166D01*
X131071312Y-98135931D01*
X130897259Y-98369280D01*
X130772075Y-98632101D01*
X130727424Y-98779310D01*
X130848745Y-99009200D01*
X132041900Y-99009200D01*
X132041900Y-98989200D01*
X132295900Y-98989200D01*
X132295900Y-99009200D01*
X133489055Y-99009200D01*
X133610376Y-98779310D01*
X133565725Y-98632101D01*
X133440541Y-98369280D01*
X133266488Y-98135931D01*
X133182434Y-98060166D01*
X133263080Y-98035702D01*
X133373394Y-97976737D01*
X133470085Y-97897385D01*
X133549437Y-97800694D01*
X133608402Y-97690380D01*
X133644712Y-97570682D01*
X133656972Y-97446200D01*
X133656972Y-96293061D01*
X145702600Y-96293061D01*
X145702600Y-96496939D01*
X145742374Y-96696898D01*
X145820395Y-96885256D01*
X145933663Y-97054774D01*
X145977601Y-97098712D01*
X145977600Y-108117678D01*
X145973924Y-108155000D01*
X145977600Y-108192322D01*
X145977600Y-108192332D01*
X145988597Y-108303985D01*
X146027103Y-108430923D01*
X146032054Y-108447246D01*
X146102626Y-108579276D01*
X146128217Y-108610458D01*
X146197599Y-108695001D01*
X146226603Y-108718804D01*
X149256800Y-111749002D01*
X149256800Y-111811139D01*
X149296574Y-112011098D01*
X149374595Y-112199456D01*
X149487863Y-112368974D01*
X149632026Y-112513137D01*
X149801544Y-112626405D01*
X149989902Y-112704426D01*
X150189861Y-112744200D01*
X150393739Y-112744200D01*
X150593698Y-112704426D01*
X150782056Y-112626405D01*
X150951574Y-112513137D01*
X151095737Y-112368974D01*
X151209005Y-112199456D01*
X151287026Y-112011098D01*
X151326800Y-111811139D01*
X151326800Y-111607261D01*
X151287026Y-111407302D01*
X151209005Y-111218944D01*
X151095737Y-111049426D01*
X150951574Y-110905263D01*
X150782056Y-110791995D01*
X150593698Y-110713974D01*
X150393739Y-110674200D01*
X150331602Y-110674200D01*
X147497600Y-107840199D01*
X147497600Y-104870501D01*
X148051500Y-105424402D01*
X148051500Y-105486539D01*
X148091274Y-105686498D01*
X148169295Y-105874856D01*
X148282563Y-106044374D01*
X148426726Y-106188537D01*
X148596244Y-106301805D01*
X148784602Y-106379826D01*
X148984561Y-106419600D01*
X149188439Y-106419600D01*
X149388398Y-106379826D01*
X149576756Y-106301805D01*
X149746274Y-106188537D01*
X149890437Y-106044374D01*
X150003705Y-105874856D01*
X150081726Y-105686498D01*
X150121500Y-105486539D01*
X150121500Y-105282661D01*
X150081726Y-105082702D01*
X150003705Y-104894344D01*
X149890437Y-104724826D01*
X149746274Y-104580663D01*
X149576756Y-104467395D01*
X149388398Y-104389374D01*
X149188439Y-104349600D01*
X149126302Y-104349600D01*
X148222610Y-103445909D01*
X148222610Y-103105800D01*
X152069928Y-103105800D01*
X152069928Y-103365800D01*
X152084110Y-103509791D01*
X152098067Y-103555800D01*
X152084110Y-103601809D01*
X152069928Y-103745800D01*
X152069928Y-104005800D01*
X152084110Y-104149791D01*
X152126110Y-104288248D01*
X152148000Y-104329201D01*
X152148001Y-107603226D01*
X152144324Y-107640558D01*
X152148001Y-107677891D01*
X152158998Y-107789544D01*
X152165864Y-107812177D01*
X152202454Y-107932804D01*
X152273026Y-108064834D01*
X152333916Y-108139028D01*
X152368000Y-108180559D01*
X152396998Y-108204357D01*
X153452610Y-109259969D01*
X153432291Y-109254443D01*
X153357750Y-109248600D01*
X153282923Y-109323427D01*
X153195949Y-109369916D01*
X153084104Y-109461704D01*
X152993000Y-109572716D01*
X152993000Y-109407350D01*
X152834250Y-109248600D01*
X152759709Y-109254443D01*
X152639009Y-109287269D01*
X152527032Y-109343011D01*
X152428081Y-109419528D01*
X152345960Y-109513878D01*
X152283823Y-109622437D01*
X152244059Y-109741033D01*
X152231000Y-109851850D01*
X152389750Y-110010600D01*
X152867928Y-110010600D01*
X152867928Y-110156600D01*
X152389750Y-110156600D01*
X152231000Y-110315350D01*
X152244059Y-110426167D01*
X152283823Y-110544763D01*
X152345960Y-110653322D01*
X152428081Y-110747672D01*
X152527032Y-110824189D01*
X152639009Y-110879931D01*
X152759709Y-110912757D01*
X152834250Y-110918600D01*
X152993000Y-110759850D01*
X152993000Y-110594484D01*
X153084104Y-110705496D01*
X153195949Y-110797284D01*
X153282923Y-110843773D01*
X153357750Y-110918600D01*
X153432291Y-110912757D01*
X153457116Y-110906006D01*
X153462009Y-110907490D01*
X153506246Y-110911847D01*
X154349500Y-111755102D01*
X154349500Y-111817239D01*
X154389274Y-112017198D01*
X154467295Y-112205556D01*
X154580563Y-112375074D01*
X154724726Y-112519237D01*
X154894244Y-112632505D01*
X155082602Y-112710526D01*
X155282561Y-112750300D01*
X155486439Y-112750300D01*
X155686398Y-112710526D01*
X155874756Y-112632505D01*
X156044274Y-112519237D01*
X156188437Y-112375074D01*
X156301705Y-112205556D01*
X156329967Y-112137326D01*
X160418343Y-116225703D01*
X160442141Y-116254701D01*
X160471139Y-116278499D01*
X160557865Y-116349674D01*
X160689895Y-116420246D01*
X160833156Y-116463703D01*
X160944809Y-116474700D01*
X160944818Y-116474700D01*
X160969744Y-116477155D01*
X161011226Y-116518637D01*
X161180744Y-116631905D01*
X161369102Y-116709926D01*
X161569061Y-116749700D01*
X161772939Y-116749700D01*
X161972898Y-116709926D01*
X162161256Y-116631905D01*
X162330774Y-116518637D01*
X162474937Y-116374474D01*
X162588205Y-116204956D01*
X162666226Y-116016598D01*
X162706000Y-115816639D01*
X162706000Y-115612761D01*
X162666226Y-115412802D01*
X162588205Y-115224444D01*
X162474937Y-115054926D01*
X162330774Y-114910763D01*
X162161256Y-114797495D01*
X161972898Y-114719474D01*
X161772939Y-114679700D01*
X161569061Y-114679700D01*
X161369102Y-114719474D01*
X161180744Y-114797495D01*
X161156163Y-114813919D01*
X159190428Y-112848184D01*
X159297548Y-112815690D01*
X159425151Y-112747484D01*
X159536996Y-112655696D01*
X159628784Y-112543851D01*
X159696990Y-112416248D01*
X159709793Y-112374041D01*
X159812084Y-112353694D01*
X160000442Y-112275673D01*
X160169960Y-112162405D01*
X160314123Y-112018242D01*
X160427391Y-111848724D01*
X160505412Y-111660366D01*
X160545186Y-111460407D01*
X160545186Y-111256529D01*
X160505412Y-111056570D01*
X160427391Y-110868212D01*
X160314123Y-110698694D01*
X160169960Y-110554531D01*
X160000442Y-110441263D01*
X159812084Y-110363242D01*
X159612125Y-110323468D01*
X159408247Y-110323468D01*
X159265678Y-110351826D01*
X159290626Y-110291598D01*
X159330400Y-110091639D01*
X159330400Y-110006403D01*
X159387291Y-109990931D01*
X159499268Y-109935189D01*
X159598219Y-109858672D01*
X159680340Y-109764322D01*
X159742477Y-109655763D01*
X159782241Y-109537167D01*
X159795300Y-109426350D01*
X159636550Y-109267600D01*
X159158372Y-109267600D01*
X159158372Y-109121600D01*
X159636550Y-109121600D01*
X159795300Y-108962850D01*
X159782241Y-108852033D01*
X159742477Y-108733437D01*
X159680340Y-108624878D01*
X159598219Y-108530528D01*
X159586305Y-108521315D01*
X159966161Y-108521315D01*
X160010098Y-108565252D01*
X160179616Y-108678520D01*
X160367974Y-108756541D01*
X160567933Y-108796315D01*
X160632041Y-108796315D01*
X160613359Y-108852033D01*
X160600300Y-108962850D01*
X160759050Y-109121600D01*
X161237228Y-109121600D01*
X161237228Y-109267600D01*
X160759050Y-109267600D01*
X160600300Y-109426350D01*
X160613359Y-109537167D01*
X160653123Y-109655763D01*
X160715260Y-109764322D01*
X160797381Y-109858672D01*
X160896332Y-109935189D01*
X160960400Y-109967082D01*
X160960400Y-110091639D01*
X161000174Y-110291598D01*
X161078195Y-110479956D01*
X161191463Y-110649474D01*
X161235401Y-110693412D01*
X161235401Y-110994741D01*
X161202710Y-111102509D01*
X161188528Y-111246500D01*
X161188528Y-111506500D01*
X161202710Y-111650491D01*
X161216667Y-111696500D01*
X161202710Y-111742509D01*
X161188528Y-111886500D01*
X161188528Y-112146500D01*
X161202710Y-112290491D01*
X161244710Y-112428948D01*
X161312916Y-112556551D01*
X161404704Y-112668396D01*
X161516549Y-112760184D01*
X161644152Y-112828390D01*
X161782609Y-112870390D01*
X161926600Y-112884572D01*
X162126600Y-112884572D01*
X162270591Y-112870390D01*
X162409048Y-112828390D01*
X162433000Y-112815587D01*
X162456952Y-112828390D01*
X162595409Y-112870390D01*
X162739400Y-112884572D01*
X162939400Y-112884572D01*
X163083391Y-112870390D01*
X163221848Y-112828390D01*
X163349451Y-112760184D01*
X163419762Y-112702482D01*
X165332619Y-114615340D01*
X165332619Y-114677477D01*
X165372393Y-114877436D01*
X165450414Y-115065794D01*
X165563682Y-115235312D01*
X165707845Y-115379475D01*
X165877363Y-115492743D01*
X166065721Y-115570764D01*
X166265680Y-115610538D01*
X166469558Y-115610538D01*
X166669517Y-115570764D01*
X166857875Y-115492743D01*
X167027393Y-115379475D01*
X167171556Y-115235312D01*
X167284824Y-115065794D01*
X167362845Y-114877436D01*
X167402619Y-114677477D01*
X167402619Y-114473599D01*
X167362845Y-114273640D01*
X167284824Y-114085282D01*
X167171556Y-113915764D01*
X167027393Y-113771601D01*
X166857875Y-113658333D01*
X166669517Y-113580312D01*
X166469558Y-113540538D01*
X166407421Y-113540538D01*
X165105482Y-112238600D01*
X166485553Y-112238600D01*
X166514744Y-112258105D01*
X166703102Y-112336126D01*
X166903061Y-112375900D01*
X167106939Y-112375900D01*
X167306898Y-112336126D01*
X167495256Y-112258105D01*
X167664774Y-112144837D01*
X167808937Y-112000674D01*
X167922205Y-111831156D01*
X168000226Y-111642798D01*
X168040000Y-111442839D01*
X168040000Y-111238961D01*
X168000226Y-111039002D01*
X167922205Y-110850644D01*
X167808937Y-110681126D01*
X167664774Y-110536963D01*
X167495256Y-110423695D01*
X167306898Y-110345674D01*
X167106939Y-110305900D01*
X166903061Y-110305900D01*
X166703102Y-110345674D01*
X166514744Y-110423695D01*
X166447539Y-110468600D01*
X164749454Y-110468600D01*
X164701256Y-110436395D01*
X164512898Y-110358374D01*
X164312939Y-110318600D01*
X164109061Y-110318600D01*
X163909102Y-110358374D01*
X163720744Y-110436395D01*
X163551226Y-110549663D01*
X163437125Y-110663764D01*
X163357865Y-110639721D01*
X163349451Y-110632816D01*
X163221848Y-110564610D01*
X163083391Y-110522610D01*
X162939400Y-110508428D01*
X162893581Y-110508428D01*
X162912605Y-110479956D01*
X162990626Y-110291598D01*
X163030400Y-110091639D01*
X163030400Y-109887761D01*
X162990626Y-109687802D01*
X162928841Y-109538640D01*
X162959190Y-109438591D01*
X162973372Y-109294600D01*
X162973372Y-109094600D01*
X162959190Y-108950609D01*
X162917190Y-108812152D01*
X162848984Y-108684549D01*
X162757196Y-108572704D01*
X162645351Y-108480916D01*
X162517748Y-108412710D01*
X162379291Y-108370710D01*
X162235300Y-108356528D01*
X161975300Y-108356528D01*
X161831309Y-108370710D01*
X161826416Y-108372194D01*
X161801591Y-108365443D01*
X161727050Y-108359600D01*
X161652223Y-108434427D01*
X161592302Y-108466456D01*
X161592302Y-108359600D01*
X161514895Y-108359600D01*
X161587077Y-108251571D01*
X161665098Y-108063213D01*
X161704872Y-107863254D01*
X161704872Y-107801000D01*
X162681225Y-107801000D01*
X162936119Y-107775895D01*
X163263168Y-107676686D01*
X163564578Y-107515579D01*
X163828766Y-107298766D01*
X164045579Y-107034578D01*
X164206686Y-106733168D01*
X164305895Y-106406119D01*
X164339394Y-106066000D01*
X164305895Y-105725881D01*
X164290369Y-105674700D01*
X164656799Y-105674700D01*
X164697752Y-105696590D01*
X164836209Y-105738590D01*
X164980200Y-105752772D01*
X164987700Y-105752772D01*
X164987700Y-105906599D01*
X164965810Y-105947552D01*
X164923810Y-106086009D01*
X164909628Y-106230000D01*
X164909628Y-106490000D01*
X164923810Y-106633991D01*
X164937767Y-106680000D01*
X164923810Y-106726009D01*
X164909628Y-106870000D01*
X164909628Y-107130000D01*
X164920130Y-107236626D01*
X164840016Y-107356525D01*
X164761995Y-107544883D01*
X164722221Y-107744842D01*
X164722221Y-107948720D01*
X164761995Y-108148679D01*
X164840016Y-108337037D01*
X164953284Y-108506555D01*
X165097447Y-108650718D01*
X165266965Y-108763986D01*
X165455323Y-108842007D01*
X165655282Y-108881781D01*
X165859160Y-108881781D01*
X166059119Y-108842007D01*
X166247477Y-108763986D01*
X166416995Y-108650718D01*
X166561158Y-108506555D01*
X166674426Y-108337037D01*
X166752447Y-108148679D01*
X166792221Y-107948720D01*
X166792221Y-107852271D01*
X166804950Y-107865000D01*
X166915767Y-107851941D01*
X167034363Y-107812177D01*
X167142922Y-107750040D01*
X167237272Y-107667919D01*
X167313789Y-107568968D01*
X167369531Y-107456991D01*
X167402357Y-107336291D01*
X167408200Y-107261750D01*
X167249450Y-107103000D01*
X167084084Y-107103000D01*
X167195096Y-107011896D01*
X167286884Y-106900051D01*
X167333373Y-106813077D01*
X167408200Y-106738250D01*
X167402357Y-106663709D01*
X167395606Y-106638884D01*
X167397090Y-106633991D01*
X167411272Y-106490000D01*
X167411272Y-106230000D01*
X167397090Y-106086009D01*
X167355090Y-105947552D01*
X167286884Y-105819949D01*
X167195096Y-105708104D01*
X167083251Y-105616316D01*
X166955648Y-105548110D01*
X166817191Y-105506110D01*
X166673200Y-105491928D01*
X166507700Y-105491928D01*
X166507700Y-105398903D01*
X166562090Y-105297148D01*
X166604090Y-105158691D01*
X166618272Y-105014700D01*
X166618272Y-104814700D01*
X166604090Y-104670709D01*
X166562090Y-104532252D01*
X166493884Y-104404649D01*
X166402096Y-104292804D01*
X166290251Y-104201016D01*
X166162648Y-104132810D01*
X166024191Y-104090810D01*
X165880200Y-104076628D01*
X165620200Y-104076628D01*
X165476209Y-104090810D01*
X165430200Y-104104767D01*
X165384191Y-104090810D01*
X165376292Y-104090032D01*
X165406686Y-104033168D01*
X165505895Y-103706119D01*
X165539394Y-103366000D01*
X165505895Y-103025881D01*
X165406686Y-102698832D01*
X165245579Y-102397422D01*
X165028766Y-102133234D01*
X164764578Y-101916421D01*
X164463168Y-101755314D01*
X164136119Y-101656105D01*
X163881225Y-101631000D01*
X161910775Y-101631000D01*
X161655881Y-101656105D01*
X161328832Y-101755314D01*
X161027422Y-101916421D01*
X160763234Y-102133234D01*
X160546421Y-102397422D01*
X160385314Y-102698832D01*
X160286105Y-103025881D01*
X160252606Y-103366000D01*
X160286105Y-103706119D01*
X160385314Y-104033168D01*
X160546421Y-104334578D01*
X160555995Y-104346245D01*
X160455881Y-104356105D01*
X160128832Y-104455314D01*
X159827422Y-104616421D01*
X159563234Y-104833234D01*
X159346421Y-105097422D01*
X159185314Y-105398832D01*
X159180803Y-105413702D01*
X156701472Y-102934371D01*
X156701472Y-102494374D01*
X156851537Y-102644439D01*
X156851537Y-102717939D01*
X156891311Y-102917898D01*
X156969332Y-103106256D01*
X157082600Y-103275774D01*
X157226763Y-103419937D01*
X157396281Y-103533205D01*
X157584639Y-103611226D01*
X157784598Y-103651000D01*
X157988476Y-103651000D01*
X158188435Y-103611226D01*
X158376793Y-103533205D01*
X158546311Y-103419937D01*
X158690474Y-103275774D01*
X158803742Y-103106256D01*
X158881763Y-102917898D01*
X158921537Y-102717939D01*
X158921537Y-102514061D01*
X158881763Y-102314102D01*
X158803742Y-102125744D01*
X158690474Y-101956226D01*
X158546311Y-101812063D01*
X158376793Y-101698795D01*
X158188435Y-101620774D01*
X157988476Y-101581000D01*
X157937702Y-101581000D01*
X156621500Y-100264799D01*
X156621500Y-100202661D01*
X156581726Y-100002702D01*
X156503705Y-99814344D01*
X156390437Y-99644826D01*
X156246274Y-99500663D01*
X156076756Y-99387395D01*
X155888398Y-99309374D01*
X155688439Y-99269600D01*
X155484561Y-99269600D01*
X155284602Y-99309374D01*
X155096244Y-99387395D01*
X154968945Y-99472453D01*
X154932550Y-99469600D01*
X154857723Y-99544427D01*
X154770749Y-99590916D01*
X154658904Y-99682704D01*
X154567800Y-99793716D01*
X154567800Y-99628350D01*
X154409050Y-99469600D01*
X154334509Y-99475443D01*
X154213809Y-99508269D01*
X154101832Y-99564011D01*
X154002881Y-99640528D01*
X153920760Y-99734878D01*
X153858623Y-99843437D01*
X153818859Y-99962033D01*
X153805800Y-100072850D01*
X153964550Y-100231600D01*
X154442728Y-100231600D01*
X154442728Y-100377600D01*
X153964550Y-100377600D01*
X153805800Y-100536350D01*
X153818859Y-100647167D01*
X153858623Y-100765763D01*
X153889515Y-100819733D01*
X153829980Y-100825597D01*
X153686719Y-100869054D01*
X153554690Y-100939626D01*
X153438965Y-101034599D01*
X153415167Y-101063597D01*
X152396998Y-102081767D01*
X152368000Y-102105565D01*
X152344202Y-102134563D01*
X152344201Y-102134564D01*
X152273026Y-102221290D01*
X152248059Y-102268000D01*
X152202454Y-102353319D01*
X152158997Y-102496580D01*
X152148000Y-102608233D01*
X152148000Y-102608244D01*
X152144324Y-102645566D01*
X152148000Y-102682888D01*
X152148000Y-102782399D01*
X152126110Y-102823352D01*
X152084110Y-102961809D01*
X152069928Y-103105800D01*
X148222610Y-103105800D01*
X148222610Y-102248691D01*
X148266547Y-102204754D01*
X148293149Y-102164940D01*
X148426726Y-102298517D01*
X148596244Y-102411785D01*
X148784602Y-102489806D01*
X148984561Y-102529580D01*
X149188439Y-102529580D01*
X149388398Y-102489806D01*
X149576756Y-102411785D01*
X149746274Y-102298517D01*
X149890437Y-102154354D01*
X150003705Y-101984836D01*
X150081726Y-101796478D01*
X150121500Y-101596519D01*
X150121500Y-101392641D01*
X150081726Y-101192682D01*
X150003705Y-101004324D01*
X149890437Y-100834806D01*
X149746274Y-100690643D01*
X149576756Y-100577375D01*
X149388398Y-100499354D01*
X149188439Y-100459580D01*
X149126302Y-100459580D01*
X148222610Y-99555889D01*
X148222610Y-98548731D01*
X148266547Y-98504794D01*
X148379815Y-98335276D01*
X148457836Y-98146918D01*
X148497610Y-97946959D01*
X148497610Y-97743081D01*
X148457836Y-97543122D01*
X148379815Y-97354764D01*
X148266547Y-97185246D01*
X148122384Y-97041083D01*
X147952866Y-96927815D01*
X147764508Y-96849794D01*
X147676726Y-96832333D01*
X147732826Y-96696898D01*
X147772600Y-96496939D01*
X147772600Y-96392661D01*
X149307600Y-96392661D01*
X149307600Y-96596539D01*
X149347374Y-96796498D01*
X149425395Y-96984856D01*
X149538663Y-97154374D01*
X149682826Y-97298537D01*
X149852344Y-97411805D01*
X150040702Y-97489826D01*
X150240661Y-97529600D01*
X150444539Y-97529600D01*
X150644498Y-97489826D01*
X150832856Y-97411805D01*
X150932280Y-97345372D01*
X151067000Y-97345372D01*
X151210991Y-97331190D01*
X151215884Y-97329706D01*
X151240709Y-97336457D01*
X151315250Y-97342300D01*
X151390077Y-97267473D01*
X151477051Y-97220984D01*
X151588896Y-97129196D01*
X151680000Y-97018184D01*
X151680000Y-97183550D01*
X151838750Y-97342300D01*
X151913291Y-97336457D01*
X152033991Y-97303631D01*
X152145968Y-97247889D01*
X152244919Y-97171372D01*
X152327040Y-97077022D01*
X152389177Y-96968463D01*
X152428941Y-96849867D01*
X152442000Y-96739050D01*
X152283250Y-96580300D01*
X151805072Y-96580300D01*
X151805072Y-96434300D01*
X152283250Y-96434300D01*
X152442000Y-96275550D01*
X152428941Y-96164733D01*
X152389177Y-96046137D01*
X152327040Y-95937578D01*
X152245213Y-95843566D01*
X152308004Y-95780775D01*
X156761000Y-95780775D01*
X156761000Y-97751224D01*
X156786105Y-98006118D01*
X156885314Y-98333167D01*
X157046421Y-98634577D01*
X157263234Y-98898766D01*
X157527422Y-99115579D01*
X157828832Y-99276686D01*
X158155881Y-99375895D01*
X158496000Y-99409394D01*
X158836118Y-99375895D01*
X159163167Y-99276686D01*
X159464577Y-99115579D01*
X159728766Y-98898766D01*
X159945579Y-98634578D01*
X160106686Y-98333168D01*
X160205895Y-98006119D01*
X160231000Y-97751225D01*
X160231000Y-95780775D01*
X160205895Y-95525881D01*
X160106686Y-95198832D01*
X160089137Y-95166000D01*
X163157928Y-95166000D01*
X163157928Y-97366000D01*
X163170188Y-97490482D01*
X163206498Y-97610180D01*
X163265463Y-97720494D01*
X163344815Y-97817185D01*
X163441506Y-97896537D01*
X163551820Y-97955502D01*
X163671518Y-97991812D01*
X163796000Y-98004072D01*
X164960428Y-98004072D01*
X164960428Y-98209600D01*
X164974610Y-98353591D01*
X164988567Y-98399600D01*
X164974610Y-98445609D01*
X164960428Y-98589600D01*
X164960428Y-98849600D01*
X164974610Y-98993591D01*
X165016610Y-99132048D01*
X165029012Y-99155250D01*
X165016610Y-99178452D01*
X164974610Y-99316909D01*
X164960428Y-99460900D01*
X164960428Y-99720900D01*
X164974610Y-99864891D01*
X164978619Y-99878108D01*
X164919395Y-99966744D01*
X164841374Y-100155102D01*
X164801600Y-100355061D01*
X164801600Y-100558939D01*
X164841374Y-100758898D01*
X164919395Y-100947256D01*
X165032663Y-101116774D01*
X165176826Y-101260937D01*
X165346344Y-101374205D01*
X165534702Y-101452226D01*
X165734661Y-101492000D01*
X165938539Y-101492000D01*
X166138498Y-101452226D01*
X166326856Y-101374205D01*
X166496374Y-101260937D01*
X166640537Y-101116774D01*
X166723239Y-100993000D01*
X167961000Y-100993000D01*
X167961000Y-101893000D01*
X168019114Y-102229041D01*
X168141670Y-102547288D01*
X168323958Y-102835511D01*
X168558973Y-103082633D01*
X168837683Y-103279157D01*
X169149378Y-103417531D01*
X169299878Y-103455175D01*
X169569000Y-103337125D01*
X169569000Y-100993000D01*
X169823000Y-100993000D01*
X169823000Y-103337125D01*
X170092122Y-103455175D01*
X170242622Y-103417531D01*
X170554317Y-103279157D01*
X170833027Y-103082633D01*
X171068042Y-102835511D01*
X171250330Y-102547288D01*
X171372886Y-102229041D01*
X171431000Y-101893000D01*
X171431000Y-100993000D01*
X169823000Y-100993000D01*
X169569000Y-100993000D01*
X167961000Y-100993000D01*
X166723239Y-100993000D01*
X166753805Y-100947256D01*
X166831826Y-100758898D01*
X166871600Y-100558939D01*
X166871600Y-100355061D01*
X166831826Y-100155102D01*
X166753805Y-99966744D01*
X166668450Y-99839000D01*
X167961000Y-99839000D01*
X167961000Y-100739000D01*
X169569000Y-100739000D01*
X169569000Y-98394875D01*
X169823000Y-98394875D01*
X169823000Y-100739000D01*
X171431000Y-100739000D01*
X171431000Y-99839000D01*
X171372886Y-99502959D01*
X171250330Y-99184712D01*
X171068042Y-98896489D01*
X170833027Y-98649367D01*
X170554317Y-98452843D01*
X170242622Y-98314469D01*
X170092122Y-98276825D01*
X169823000Y-98394875D01*
X169569000Y-98394875D01*
X169299878Y-98276825D01*
X169149378Y-98314469D01*
X168837683Y-98452843D01*
X168558973Y-98649367D01*
X168323958Y-98896489D01*
X168141670Y-99184712D01*
X168019114Y-99502959D01*
X167961000Y-99839000D01*
X166668450Y-99839000D01*
X166640537Y-99797226D01*
X166630084Y-99786773D01*
X166636572Y-99720900D01*
X166636572Y-99587672D01*
X166711300Y-99587672D01*
X166855291Y-99573490D01*
X166993748Y-99531490D01*
X167121351Y-99463284D01*
X167233196Y-99371496D01*
X167324984Y-99259651D01*
X167393190Y-99132048D01*
X167435190Y-98993591D01*
X167449372Y-98849600D01*
X167449372Y-98589600D01*
X167435190Y-98445609D01*
X167433706Y-98440716D01*
X167440457Y-98415891D01*
X167446300Y-98341350D01*
X167371473Y-98266523D01*
X167324984Y-98179549D01*
X167233196Y-98067704D01*
X167155659Y-98004072D01*
X167796000Y-98004072D01*
X167920482Y-97991812D01*
X168040180Y-97955502D01*
X168150494Y-97896537D01*
X168247185Y-97817185D01*
X168326537Y-97720494D01*
X168385502Y-97610180D01*
X168421812Y-97490482D01*
X168434072Y-97366000D01*
X168434072Y-95166000D01*
X168421812Y-95041518D01*
X168385502Y-94921820D01*
X168326537Y-94811506D01*
X168247185Y-94714815D01*
X168150494Y-94635463D01*
X168040180Y-94576498D01*
X167920482Y-94540188D01*
X167796000Y-94527928D01*
X163796000Y-94527928D01*
X163671518Y-94540188D01*
X163551820Y-94576498D01*
X163441506Y-94635463D01*
X163344815Y-94714815D01*
X163265463Y-94811506D01*
X163206498Y-94921820D01*
X163170188Y-95041518D01*
X163157928Y-95166000D01*
X160089137Y-95166000D01*
X159945579Y-94897422D01*
X159728766Y-94633234D01*
X159464578Y-94416421D01*
X159163168Y-94255314D01*
X158836119Y-94156105D01*
X158496000Y-94122606D01*
X158155882Y-94156105D01*
X157828833Y-94255314D01*
X157527423Y-94416421D01*
X157263235Y-94633234D01*
X157046422Y-94897422D01*
X156885315Y-95198832D01*
X156786106Y-95525881D01*
X156761000Y-95780775D01*
X152308004Y-95780775D01*
X152906150Y-95182629D01*
X152939917Y-95154917D01*
X152968255Y-95120388D01*
X153050510Y-95020160D01*
X153050511Y-95020159D01*
X153132689Y-94866413D01*
X153183295Y-94699590D01*
X153195909Y-94571519D01*
X153235582Y-94567612D01*
X153355280Y-94531302D01*
X153465594Y-94472337D01*
X153562285Y-94392985D01*
X153641637Y-94296294D01*
X153700602Y-94185980D01*
X153716217Y-94134502D01*
X153998003Y-94134502D01*
X154069586Y-94378471D01*
X154325096Y-94499371D01*
X154599284Y-94568100D01*
X154881612Y-94582017D01*
X155161230Y-94540587D01*
X155427392Y-94445403D01*
X155552614Y-94378471D01*
X155624197Y-94134502D01*
X154811100Y-93321405D01*
X153998003Y-94134502D01*
X153716217Y-94134502D01*
X153736912Y-94066282D01*
X153749172Y-93941800D01*
X153749172Y-93934585D01*
X153818398Y-93954897D01*
X154631495Y-93141800D01*
X154990705Y-93141800D01*
X155803802Y-93954897D01*
X156047771Y-93883314D01*
X156168671Y-93627804D01*
X156237400Y-93353616D01*
X156251317Y-93071288D01*
X156209887Y-92791670D01*
X156114703Y-92525508D01*
X156047771Y-92400286D01*
X155803802Y-92328703D01*
X154990705Y-93141800D01*
X154631495Y-93141800D01*
X153818398Y-92328703D01*
X153749172Y-92349015D01*
X153749172Y-92341800D01*
X153736912Y-92217318D01*
X153716218Y-92149098D01*
X153998003Y-92149098D01*
X154811100Y-92962195D01*
X155469595Y-92303700D01*
X169681728Y-92303700D01*
X169681728Y-93903700D01*
X169693988Y-94028182D01*
X169730298Y-94147880D01*
X169789263Y-94258194D01*
X169868615Y-94354885D01*
X169965306Y-94434237D01*
X170075620Y-94493202D01*
X170195318Y-94529512D01*
X170319800Y-94541772D01*
X171919800Y-94541772D01*
X172044282Y-94529512D01*
X172163980Y-94493202D01*
X172274294Y-94434237D01*
X172370985Y-94354885D01*
X172450337Y-94258194D01*
X172509302Y-94147880D01*
X172524917Y-94096402D01*
X172806703Y-94096402D01*
X172878286Y-94340371D01*
X173133796Y-94461271D01*
X173407984Y-94530000D01*
X173690312Y-94543917D01*
X173969930Y-94502487D01*
X174236092Y-94407303D01*
X174361314Y-94340371D01*
X174432897Y-94096402D01*
X173619800Y-93283305D01*
X172806703Y-94096402D01*
X172524917Y-94096402D01*
X172545612Y-94028182D01*
X172557872Y-93903700D01*
X172557872Y-93896485D01*
X172627098Y-93916797D01*
X173440195Y-93103700D01*
X173799405Y-93103700D01*
X174612502Y-93916797D01*
X174856471Y-93845214D01*
X174977371Y-93589704D01*
X175046100Y-93315516D01*
X175060017Y-93033188D01*
X175018587Y-92753570D01*
X174923403Y-92487408D01*
X174856471Y-92362186D01*
X174612502Y-92290603D01*
X173799405Y-93103700D01*
X173440195Y-93103700D01*
X172627098Y-92290603D01*
X172557872Y-92310915D01*
X172557872Y-92303700D01*
X172545612Y-92179218D01*
X172524918Y-92110998D01*
X172806703Y-92110998D01*
X173619800Y-92924095D01*
X174432897Y-92110998D01*
X174361314Y-91867029D01*
X174105804Y-91746129D01*
X173831616Y-91677400D01*
X173549288Y-91663483D01*
X173269670Y-91704913D01*
X173003508Y-91800097D01*
X172878286Y-91867029D01*
X172806703Y-92110998D01*
X172524918Y-92110998D01*
X172509302Y-92059520D01*
X172450337Y-91949206D01*
X172370985Y-91852515D01*
X172274294Y-91773163D01*
X172163980Y-91714198D01*
X172044282Y-91677888D01*
X171919800Y-91665628D01*
X170319800Y-91665628D01*
X170195318Y-91677888D01*
X170075620Y-91714198D01*
X169965306Y-91773163D01*
X169868615Y-91852515D01*
X169789263Y-91949206D01*
X169730298Y-92059520D01*
X169693988Y-92179218D01*
X169681728Y-92303700D01*
X155469595Y-92303700D01*
X155624197Y-92149098D01*
X155552614Y-91905129D01*
X155297104Y-91784229D01*
X155022916Y-91715500D01*
X154740588Y-91701583D01*
X154460970Y-91743013D01*
X154194808Y-91838197D01*
X154069586Y-91905129D01*
X153998003Y-92149098D01*
X153716218Y-92149098D01*
X153700602Y-92097620D01*
X153641637Y-91987306D01*
X153562285Y-91890615D01*
X153465594Y-91811263D01*
X153355280Y-91752298D01*
X153235582Y-91715988D01*
X153111100Y-91703728D01*
X151511100Y-91703728D01*
X151386618Y-91715988D01*
X151266920Y-91752298D01*
X151156606Y-91811263D01*
X151059915Y-91890615D01*
X150980563Y-91987306D01*
X150921598Y-92097620D01*
X150885288Y-92217318D01*
X150873028Y-92341800D01*
X150873028Y-93941800D01*
X150885288Y-94066282D01*
X150921598Y-94185980D01*
X150980563Y-94296294D01*
X151059915Y-94392985D01*
X151132812Y-94452810D01*
X150097557Y-95488065D01*
X150040702Y-95499374D01*
X149852344Y-95577395D01*
X149682826Y-95690663D01*
X149538663Y-95834826D01*
X149425395Y-96004344D01*
X149347374Y-96192702D01*
X149307600Y-96392661D01*
X147772600Y-96392661D01*
X147772600Y-96293061D01*
X147732826Y-96093102D01*
X147654805Y-95904744D01*
X147541537Y-95735226D01*
X147397374Y-95591063D01*
X147227856Y-95477795D01*
X147039498Y-95399774D01*
X146839539Y-95360000D01*
X146635661Y-95360000D01*
X146435702Y-95399774D01*
X146247344Y-95477795D01*
X146077826Y-95591063D01*
X145933663Y-95735226D01*
X145820395Y-95904744D01*
X145742374Y-96093102D01*
X145702600Y-96293061D01*
X133656972Y-96293061D01*
X133656972Y-95746200D01*
X133644712Y-95621718D01*
X133608402Y-95502020D01*
X133549437Y-95391706D01*
X133486981Y-95315602D01*
X135104203Y-95315602D01*
X135175786Y-95559571D01*
X135431296Y-95680471D01*
X135705484Y-95749200D01*
X135987812Y-95763117D01*
X136267430Y-95721687D01*
X136533592Y-95626503D01*
X136658814Y-95559571D01*
X136730397Y-95315602D01*
X135917300Y-94502505D01*
X135104203Y-95315602D01*
X133486981Y-95315602D01*
X133470085Y-95295015D01*
X133373394Y-95215663D01*
X133263080Y-95156698D01*
X133143382Y-95120388D01*
X133018900Y-95108128D01*
X131318900Y-95108128D01*
X131194418Y-95120388D01*
X131074720Y-95156698D01*
X130964406Y-95215663D01*
X130867715Y-95295015D01*
X130820494Y-95352554D01*
X130803885Y-95332315D01*
X130707194Y-95252963D01*
X130596880Y-95193998D01*
X130477182Y-95157688D01*
X130352700Y-95145428D01*
X129366206Y-95145428D01*
X128959233Y-94738455D01*
X128931516Y-94704682D01*
X128796758Y-94594088D01*
X128643012Y-94511910D01*
X128476189Y-94461304D01*
X128346176Y-94448499D01*
X128346168Y-94448499D01*
X128302699Y-94444218D01*
X128259230Y-94448499D01*
X126496164Y-94448499D01*
X126452698Y-94444218D01*
X126409232Y-94448499D01*
X126409222Y-94448499D01*
X126279209Y-94461304D01*
X126112386Y-94511910D01*
X125958640Y-94594088D01*
X125929151Y-94618289D01*
X125857652Y-94676967D01*
X125857650Y-94676969D01*
X125823882Y-94704682D01*
X125796169Y-94738450D01*
X125144150Y-95390470D01*
X125110383Y-95418182D01*
X125082670Y-95451950D01*
X125082667Y-95451953D01*
X125043400Y-95499800D01*
X125043400Y-94393412D01*
X134477083Y-94393412D01*
X134518513Y-94673030D01*
X134613697Y-94939192D01*
X134680629Y-95064414D01*
X134924598Y-95135997D01*
X135737695Y-94322900D01*
X136096905Y-94322900D01*
X136910002Y-95135997D01*
X136979228Y-95115685D01*
X136979228Y-95122900D01*
X136991488Y-95247382D01*
X137027798Y-95367080D01*
X137086763Y-95477394D01*
X137166115Y-95574085D01*
X137262806Y-95653437D01*
X137373120Y-95712402D01*
X137492818Y-95748712D01*
X137617300Y-95760972D01*
X139217300Y-95760972D01*
X139341782Y-95748712D01*
X139461480Y-95712402D01*
X139571794Y-95653437D01*
X139668485Y-95574085D01*
X139747837Y-95477394D01*
X139806802Y-95367080D01*
X139843112Y-95247382D01*
X139855372Y-95122900D01*
X139855372Y-93522900D01*
X139843112Y-93398418D01*
X139806802Y-93278720D01*
X139747837Y-93168406D01*
X139668485Y-93071715D01*
X139571794Y-92992363D01*
X139461480Y-92933398D01*
X139341782Y-92897088D01*
X139217300Y-92884828D01*
X137617300Y-92884828D01*
X137492818Y-92897088D01*
X137373120Y-92933398D01*
X137262806Y-92992363D01*
X137166115Y-93071715D01*
X137086763Y-93168406D01*
X137027798Y-93278720D01*
X136991488Y-93398418D01*
X136979228Y-93522900D01*
X136979228Y-93530115D01*
X136910002Y-93509803D01*
X136096905Y-94322900D01*
X135737695Y-94322900D01*
X134924598Y-93509803D01*
X134680629Y-93581386D01*
X134559729Y-93836896D01*
X134491000Y-94111084D01*
X134477083Y-94393412D01*
X125043400Y-94393412D01*
X125043400Y-93330198D01*
X135104203Y-93330198D01*
X135917300Y-94143295D01*
X136730397Y-93330198D01*
X136658814Y-93086229D01*
X136403304Y-92965329D01*
X136129116Y-92896600D01*
X135846788Y-92882683D01*
X135567170Y-92924113D01*
X135301008Y-93019297D01*
X135175786Y-93086229D01*
X135104203Y-93330198D01*
X125043400Y-93330198D01*
X125043400Y-88772200D01*
X175743400Y-88772200D01*
X175743401Y-119888000D01*
G37*
G04 #@! TD.AperFunction*
D20*
X154190400Y-102616000D02*
X154210400Y-102616000D01*
X154210400Y-102870000D01*
X154190400Y-102870000D01*
X154190400Y-104127300D01*
X154210400Y-104127300D01*
X154210400Y-104381300D01*
X154190400Y-104381300D01*
X154190400Y-105205550D01*
X154349150Y-105364300D01*
X154513400Y-105367372D01*
X154637882Y-105355112D01*
X154757580Y-105318802D01*
X154867894Y-105259837D01*
X154912049Y-105223600D01*
X155058117Y-105301675D01*
X155220023Y-105350788D01*
X155388400Y-105367372D01*
X155585056Y-105367372D01*
X158490001Y-108272318D01*
X158513799Y-108301316D01*
X158592453Y-108365866D01*
X158569184Y-108372194D01*
X158564291Y-108370710D01*
X158420300Y-108356528D01*
X158160300Y-108356528D01*
X158016309Y-108370710D01*
X157877852Y-108412710D01*
X157750249Y-108480916D01*
X157638404Y-108572704D01*
X157546616Y-108684549D01*
X157478410Y-108812152D01*
X157436410Y-108950609D01*
X157422228Y-109094600D01*
X157422228Y-109294600D01*
X157434155Y-109415694D01*
X157378195Y-109499444D01*
X157300174Y-109687802D01*
X157260400Y-109887761D01*
X157260400Y-110091639D01*
X157300174Y-110291598D01*
X157342301Y-110393300D01*
X157342300Y-110910398D01*
X157320410Y-110951352D01*
X157314169Y-110971926D01*
X153668000Y-107325757D01*
X153668000Y-105366351D01*
X153777650Y-105364300D01*
X153936400Y-105205550D01*
X153936400Y-104381300D01*
X153916400Y-104381300D01*
X153916400Y-104127300D01*
X153936400Y-104127300D01*
X153936400Y-102870000D01*
X153916400Y-102870000D01*
X153916400Y-102711967D01*
X154032368Y-102596000D01*
X154190400Y-102596000D01*
X154190400Y-102616000D01*
G04 #@! TA.AperFunction,Conductor*
D21*
G36*
X154190400Y-102616000D02*
G01*
X154210400Y-102616000D01*
X154210400Y-102870000D01*
X154190400Y-102870000D01*
X154190400Y-104127300D01*
X154210400Y-104127300D01*
X154210400Y-104381300D01*
X154190400Y-104381300D01*
X154190400Y-105205550D01*
X154349150Y-105364300D01*
X154513400Y-105367372D01*
X154637882Y-105355112D01*
X154757580Y-105318802D01*
X154867894Y-105259837D01*
X154912049Y-105223600D01*
X155058117Y-105301675D01*
X155220023Y-105350788D01*
X155388400Y-105367372D01*
X155585056Y-105367372D01*
X158490001Y-108272318D01*
X158513799Y-108301316D01*
X158592453Y-108365866D01*
X158569184Y-108372194D01*
X158564291Y-108370710D01*
X158420300Y-108356528D01*
X158160300Y-108356528D01*
X158016309Y-108370710D01*
X157877852Y-108412710D01*
X157750249Y-108480916D01*
X157638404Y-108572704D01*
X157546616Y-108684549D01*
X157478410Y-108812152D01*
X157436410Y-108950609D01*
X157422228Y-109094600D01*
X157422228Y-109294600D01*
X157434155Y-109415694D01*
X157378195Y-109499444D01*
X157300174Y-109687802D01*
X157260400Y-109887761D01*
X157260400Y-110091639D01*
X157300174Y-110291598D01*
X157342301Y-110393300D01*
X157342300Y-110910398D01*
X157320410Y-110951352D01*
X157314169Y-110971926D01*
X153668000Y-107325757D01*
X153668000Y-105366351D01*
X153777650Y-105364300D01*
X153936400Y-105205550D01*
X153936400Y-104381300D01*
X153916400Y-104381300D01*
X153916400Y-104127300D01*
X153936400Y-104127300D01*
X153936400Y-102870000D01*
X153916400Y-102870000D01*
X153916400Y-102711967D01*
X154032368Y-102596000D01*
X154190400Y-102596000D01*
X154190400Y-102616000D01*
G37*
G04 #@! TD.AperFunction*
G04 #@! TD*
M02*
