G04 #@! TF.GenerationSoftware,KiCad,Pcbnew,(5.1.9)-1*
G04 #@! TF.CreationDate,2021-01-15T03:22:01+08:00*
G04 #@! TF.ProjectId,opl3,6f706c33-2e6b-4696-9361-645f70636258,rev?*
G04 #@! TF.SameCoordinates,Original*
G04 #@! TF.FileFunction,Soldermask,Bot*
G04 #@! TF.FilePolarity,Negative*
%FSLAX46Y46*%
G04 Gerber Fmt 4.6, Leading zero omitted, Abs format (unit mm)*
G04 Created by KiCad (PCBNEW (5.1.9)-1) date 2021-01-15 03:22:01*
%MOMM*%
%LPD*%
G01*
G04 APERTURE LIST*
%ADD10C,1.600000*%
%ADD11R,1.600000X1.600000*%
%ADD12O,2.200000X4.000000*%
%ADD13O,4.000000X2.200000*%
%ADD14R,4.000000X2.200000*%
%ADD15O,1.700000X1.700000*%
%ADD16R,1.700000X1.700000*%
G04 APERTURE END LIST*
D10*
G04 #@! TO.C,C5*
X173365800Y-118884700D03*
D11*
X170865800Y-118884700D03*
G04 #@! TD*
G04 #@! TO.C,R22*
G36*
G01*
X166673200Y-106590000D02*
X166473200Y-106590000D01*
G75*
G02*
X166373200Y-106490000I0J100000D01*
G01*
X166373200Y-106230000D01*
G75*
G02*
X166473200Y-106130000I100000J0D01*
G01*
X166673200Y-106130000D01*
G75*
G02*
X166773200Y-106230000I0J-100000D01*
G01*
X166773200Y-106490000D01*
G75*
G02*
X166673200Y-106590000I-100000J0D01*
G01*
G37*
G36*
G01*
X166673200Y-107230000D02*
X166473200Y-107230000D01*
G75*
G02*
X166373200Y-107130000I0J100000D01*
G01*
X166373200Y-106870000D01*
G75*
G02*
X166473200Y-106770000I100000J0D01*
G01*
X166673200Y-106770000D01*
G75*
G02*
X166773200Y-106870000I0J-100000D01*
G01*
X166773200Y-107130000D01*
G75*
G02*
X166673200Y-107230000I-100000J0D01*
G01*
G37*
G04 #@! TD*
G04 #@! TO.C,R12*
G36*
G01*
X161695300Y-109094600D02*
X161695300Y-109294600D01*
G75*
G02*
X161595300Y-109394600I-100000J0D01*
G01*
X161335300Y-109394600D01*
G75*
G02*
X161235300Y-109294600I0J100000D01*
G01*
X161235300Y-109094600D01*
G75*
G02*
X161335300Y-108994600I100000J0D01*
G01*
X161595300Y-108994600D01*
G75*
G02*
X161695300Y-109094600I0J-100000D01*
G01*
G37*
G36*
G01*
X162335300Y-109094600D02*
X162335300Y-109294600D01*
G75*
G02*
X162235300Y-109394600I-100000J0D01*
G01*
X161975300Y-109394600D01*
G75*
G02*
X161875300Y-109294600I0J100000D01*
G01*
X161875300Y-109094600D01*
G75*
G02*
X161975300Y-108994600I100000J0D01*
G01*
X162235300Y-108994600D01*
G75*
G02*
X162335300Y-109094600I0J-100000D01*
G01*
G37*
G04 #@! TD*
G04 #@! TO.C,R11*
G36*
G01*
X158520300Y-109094600D02*
X158520300Y-109294600D01*
G75*
G02*
X158420300Y-109394600I-100000J0D01*
G01*
X158160300Y-109394600D01*
G75*
G02*
X158060300Y-109294600I0J100000D01*
G01*
X158060300Y-109094600D01*
G75*
G02*
X158160300Y-108994600I100000J0D01*
G01*
X158420300Y-108994600D01*
G75*
G02*
X158520300Y-109094600I0J-100000D01*
G01*
G37*
G36*
G01*
X159160300Y-109094600D02*
X159160300Y-109294600D01*
G75*
G02*
X159060300Y-109394600I-100000J0D01*
G01*
X158800300Y-109394600D01*
G75*
G02*
X158700300Y-109294600I0J100000D01*
G01*
X158700300Y-109094600D01*
G75*
G02*
X158800300Y-108994600I100000J0D01*
G01*
X159060300Y-108994600D01*
G75*
G02*
X159160300Y-109094600I0J-100000D01*
G01*
G37*
G04 #@! TD*
G04 #@! TO.C,R10*
G36*
G01*
X165520200Y-105014700D02*
X165520200Y-104814700D01*
G75*
G02*
X165620200Y-104714700I100000J0D01*
G01*
X165880200Y-104714700D01*
G75*
G02*
X165980200Y-104814700I0J-100000D01*
G01*
X165980200Y-105014700D01*
G75*
G02*
X165880200Y-105114700I-100000J0D01*
G01*
X165620200Y-105114700D01*
G75*
G02*
X165520200Y-105014700I0J100000D01*
G01*
G37*
G36*
G01*
X164880200Y-105014700D02*
X164880200Y-104814700D01*
G75*
G02*
X164980200Y-104714700I100000J0D01*
G01*
X165240200Y-104714700D01*
G75*
G02*
X165340200Y-104814700I0J-100000D01*
G01*
X165340200Y-105014700D01*
G75*
G02*
X165240200Y-105114700I-100000J0D01*
G01*
X164980200Y-105114700D01*
G75*
G02*
X164880200Y-105014700I0J100000D01*
G01*
G37*
G04 #@! TD*
G04 #@! TO.C,R9*
G36*
G01*
X165698500Y-98489600D02*
X165898500Y-98489600D01*
G75*
G02*
X165998500Y-98589600I0J-100000D01*
G01*
X165998500Y-98849600D01*
G75*
G02*
X165898500Y-98949600I-100000J0D01*
G01*
X165698500Y-98949600D01*
G75*
G02*
X165598500Y-98849600I0J100000D01*
G01*
X165598500Y-98589600D01*
G75*
G02*
X165698500Y-98489600I100000J0D01*
G01*
G37*
G36*
G01*
X165698500Y-97849600D02*
X165898500Y-97849600D01*
G75*
G02*
X165998500Y-97949600I0J-100000D01*
G01*
X165998500Y-98209600D01*
G75*
G02*
X165898500Y-98309600I-100000J0D01*
G01*
X165698500Y-98309600D01*
G75*
G02*
X165598500Y-98209600I0J100000D01*
G01*
X165598500Y-97949600D01*
G75*
G02*
X165698500Y-97849600I100000J0D01*
G01*
G37*
G04 #@! TD*
G04 #@! TO.C,R6*
G36*
G01*
X166511300Y-98489600D02*
X166711300Y-98489600D01*
G75*
G02*
X166811300Y-98589600I0J-100000D01*
G01*
X166811300Y-98849600D01*
G75*
G02*
X166711300Y-98949600I-100000J0D01*
G01*
X166511300Y-98949600D01*
G75*
G02*
X166411300Y-98849600I0J100000D01*
G01*
X166411300Y-98589600D01*
G75*
G02*
X166511300Y-98489600I100000J0D01*
G01*
G37*
G36*
G01*
X166511300Y-97849600D02*
X166711300Y-97849600D01*
G75*
G02*
X166811300Y-97949600I0J-100000D01*
G01*
X166811300Y-98209600D01*
G75*
G02*
X166711300Y-98309600I-100000J0D01*
G01*
X166511300Y-98309600D01*
G75*
G02*
X166411300Y-98209600I0J100000D01*
G01*
X166411300Y-97949600D01*
G75*
G02*
X166511300Y-97849600I100000J0D01*
G01*
G37*
G04 #@! TD*
G04 #@! TO.C,R4*
G36*
G01*
X158202300Y-111593800D02*
X158002300Y-111593800D01*
G75*
G02*
X157902300Y-111493800I0J100000D01*
G01*
X157902300Y-111233800D01*
G75*
G02*
X158002300Y-111133800I100000J0D01*
G01*
X158202300Y-111133800D01*
G75*
G02*
X158302300Y-111233800I0J-100000D01*
G01*
X158302300Y-111493800D01*
G75*
G02*
X158202300Y-111593800I-100000J0D01*
G01*
G37*
G36*
G01*
X158202300Y-112233800D02*
X158002300Y-112233800D01*
G75*
G02*
X157902300Y-112133800I0J100000D01*
G01*
X157902300Y-111873800D01*
G75*
G02*
X158002300Y-111773800I100000J0D01*
G01*
X158202300Y-111773800D01*
G75*
G02*
X158302300Y-111873800I0J-100000D01*
G01*
X158302300Y-112133800D01*
G75*
G02*
X158202300Y-112233800I-100000J0D01*
G01*
G37*
G04 #@! TD*
G04 #@! TO.C,R2*
G36*
G01*
X162126600Y-111606500D02*
X161926600Y-111606500D01*
G75*
G02*
X161826600Y-111506500I0J100000D01*
G01*
X161826600Y-111246500D01*
G75*
G02*
X161926600Y-111146500I100000J0D01*
G01*
X162126600Y-111146500D01*
G75*
G02*
X162226600Y-111246500I0J-100000D01*
G01*
X162226600Y-111506500D01*
G75*
G02*
X162126600Y-111606500I-100000J0D01*
G01*
G37*
G36*
G01*
X162126600Y-112246500D02*
X161926600Y-112246500D01*
G75*
G02*
X161826600Y-112146500I0J100000D01*
G01*
X161826600Y-111886500D01*
G75*
G02*
X161926600Y-111786500I100000J0D01*
G01*
X162126600Y-111786500D01*
G75*
G02*
X162226600Y-111886500I0J-100000D01*
G01*
X162226600Y-112146500D01*
G75*
G02*
X162126600Y-112246500I-100000J0D01*
G01*
G37*
G04 #@! TD*
G04 #@! TO.C,R1*
G36*
G01*
X153008000Y-103465800D02*
X152808000Y-103465800D01*
G75*
G02*
X152708000Y-103365800I0J100000D01*
G01*
X152708000Y-103105800D01*
G75*
G02*
X152808000Y-103005800I100000J0D01*
G01*
X153008000Y-103005800D01*
G75*
G02*
X153108000Y-103105800I0J-100000D01*
G01*
X153108000Y-103365800D01*
G75*
G02*
X153008000Y-103465800I-100000J0D01*
G01*
G37*
G36*
G01*
X153008000Y-104105800D02*
X152808000Y-104105800D01*
G75*
G02*
X152708000Y-104005800I0J100000D01*
G01*
X152708000Y-103745800D01*
G75*
G02*
X152808000Y-103645800I100000J0D01*
G01*
X153008000Y-103645800D01*
G75*
G02*
X153108000Y-103745800I0J-100000D01*
G01*
X153108000Y-104005800D01*
G75*
G02*
X153008000Y-104105800I-100000J0D01*
G01*
G37*
G04 #@! TD*
D12*
G04 #@! TO.C,J2*
X169696000Y-100866000D03*
D13*
X161696000Y-106066000D03*
X162896000Y-103366000D03*
D12*
X158496000Y-96766000D03*
D14*
X165796000Y-96266000D03*
G04 #@! TD*
D15*
G04 #@! TO.C,J1*
X132168900Y-114376200D03*
X132168900Y-111836200D03*
X132168900Y-109296200D03*
X132168900Y-106756200D03*
X132168900Y-104216200D03*
X132168900Y-101676200D03*
X132168900Y-99136200D03*
D16*
X132168900Y-96596200D03*
G04 #@! TD*
G04 #@! TO.C,C22*
G36*
G01*
X165647700Y-106770000D02*
X165847700Y-106770000D01*
G75*
G02*
X165947700Y-106870000I0J-100000D01*
G01*
X165947700Y-107130000D01*
G75*
G02*
X165847700Y-107230000I-100000J0D01*
G01*
X165647700Y-107230000D01*
G75*
G02*
X165547700Y-107130000I0J100000D01*
G01*
X165547700Y-106870000D01*
G75*
G02*
X165647700Y-106770000I100000J0D01*
G01*
G37*
G36*
G01*
X165647700Y-106130000D02*
X165847700Y-106130000D01*
G75*
G02*
X165947700Y-106230000I0J-100000D01*
G01*
X165947700Y-106490000D01*
G75*
G02*
X165847700Y-106590000I-100000J0D01*
G01*
X165647700Y-106590000D01*
G75*
G02*
X165547700Y-106490000I0J100000D01*
G01*
X165547700Y-106230000D01*
G75*
G02*
X165647700Y-106130000I100000J0D01*
G01*
G37*
G04 #@! TD*
G04 #@! TO.C,C21*
G36*
G01*
X165698500Y-100000900D02*
X165898500Y-100000900D01*
G75*
G02*
X165998500Y-100100900I0J-100000D01*
G01*
X165998500Y-100360900D01*
G75*
G02*
X165898500Y-100460900I-100000J0D01*
G01*
X165698500Y-100460900D01*
G75*
G02*
X165598500Y-100360900I0J100000D01*
G01*
X165598500Y-100100900D01*
G75*
G02*
X165698500Y-100000900I100000J0D01*
G01*
G37*
G36*
G01*
X165698500Y-99360900D02*
X165898500Y-99360900D01*
G75*
G02*
X165998500Y-99460900I0J-100000D01*
G01*
X165998500Y-99720900D01*
G75*
G02*
X165898500Y-99820900I-100000J0D01*
G01*
X165698500Y-99820900D01*
G75*
G02*
X165598500Y-99720900I0J100000D01*
G01*
X165598500Y-99460900D01*
G75*
G02*
X165698500Y-99360900I100000J0D01*
G01*
G37*
G04 #@! TD*
G04 #@! TO.C,C20*
G36*
G01*
X158815100Y-111773800D02*
X159015100Y-111773800D01*
G75*
G02*
X159115100Y-111873800I0J-100000D01*
G01*
X159115100Y-112133800D01*
G75*
G02*
X159015100Y-112233800I-100000J0D01*
G01*
X158815100Y-112233800D01*
G75*
G02*
X158715100Y-112133800I0J100000D01*
G01*
X158715100Y-111873800D01*
G75*
G02*
X158815100Y-111773800I100000J0D01*
G01*
G37*
G36*
G01*
X158815100Y-111133800D02*
X159015100Y-111133800D01*
G75*
G02*
X159115100Y-111233800I0J-100000D01*
G01*
X159115100Y-111493800D01*
G75*
G02*
X159015100Y-111593800I-100000J0D01*
G01*
X158815100Y-111593800D01*
G75*
G02*
X158715100Y-111493800I0J100000D01*
G01*
X158715100Y-111233800D01*
G75*
G02*
X158815100Y-111133800I100000J0D01*
G01*
G37*
G04 #@! TD*
G04 #@! TO.C,C19*
G36*
G01*
X162739400Y-111786500D02*
X162939400Y-111786500D01*
G75*
G02*
X163039400Y-111886500I0J-100000D01*
G01*
X163039400Y-112146500D01*
G75*
G02*
X162939400Y-112246500I-100000J0D01*
G01*
X162739400Y-112246500D01*
G75*
G02*
X162639400Y-112146500I0J100000D01*
G01*
X162639400Y-111886500D01*
G75*
G02*
X162739400Y-111786500I100000J0D01*
G01*
G37*
G36*
G01*
X162739400Y-111146500D02*
X162939400Y-111146500D01*
G75*
G02*
X163039400Y-111246500I0J-100000D01*
G01*
X163039400Y-111506500D01*
G75*
G02*
X162939400Y-111606500I-100000J0D01*
G01*
X162739400Y-111606500D01*
G75*
G02*
X162639400Y-111506500I0J100000D01*
G01*
X162639400Y-111246500D01*
G75*
G02*
X162739400Y-111146500I100000J0D01*
G01*
G37*
G04 #@! TD*
G04 #@! TO.C,C18*
G36*
G01*
X155080800Y-100404600D02*
X155080800Y-100204600D01*
G75*
G02*
X155180800Y-100104600I100000J0D01*
G01*
X155440800Y-100104600D01*
G75*
G02*
X155540800Y-100204600I0J-100000D01*
G01*
X155540800Y-100404600D01*
G75*
G02*
X155440800Y-100504600I-100000J0D01*
G01*
X155180800Y-100504600D01*
G75*
G02*
X155080800Y-100404600I0J100000D01*
G01*
G37*
G36*
G01*
X154440800Y-100404600D02*
X154440800Y-100204600D01*
G75*
G02*
X154540800Y-100104600I100000J0D01*
G01*
X154800800Y-100104600D01*
G75*
G02*
X154900800Y-100204600I0J-100000D01*
G01*
X154900800Y-100404600D01*
G75*
G02*
X154800800Y-100504600I-100000J0D01*
G01*
X154540800Y-100504600D01*
G75*
G02*
X154440800Y-100404600I0J100000D01*
G01*
G37*
G04 #@! TD*
D10*
G04 #@! TO.C,C17*
X135917300Y-94322900D03*
D11*
X138417300Y-94322900D03*
G04 #@! TD*
G04 #@! TO.C,C16*
G36*
G01*
X155163400Y-104504300D02*
X155163400Y-104004300D01*
G75*
G02*
X155388400Y-103779300I225000J0D01*
G01*
X155838400Y-103779300D01*
G75*
G02*
X156063400Y-104004300I0J-225000D01*
G01*
X156063400Y-104504300D01*
G75*
G02*
X155838400Y-104729300I-225000J0D01*
G01*
X155388400Y-104729300D01*
G75*
G02*
X155163400Y-104504300I0J225000D01*
G01*
G37*
G36*
G01*
X153613400Y-104504300D02*
X153613400Y-104004300D01*
G75*
G02*
X153838400Y-103779300I225000J0D01*
G01*
X154288400Y-103779300D01*
G75*
G02*
X154513400Y-104004300I0J-225000D01*
G01*
X154513400Y-104504300D01*
G75*
G02*
X154288400Y-104729300I-225000J0D01*
G01*
X153838400Y-104729300D01*
G75*
G02*
X153613400Y-104504300I0J225000D01*
G01*
G37*
G04 #@! TD*
G04 #@! TO.C,C15*
G36*
G01*
X154513400Y-102493000D02*
X154513400Y-102993000D01*
G75*
G02*
X154288400Y-103218000I-225000J0D01*
G01*
X153838400Y-103218000D01*
G75*
G02*
X153613400Y-102993000I0J225000D01*
G01*
X153613400Y-102493000D01*
G75*
G02*
X153838400Y-102268000I225000J0D01*
G01*
X154288400Y-102268000D01*
G75*
G02*
X154513400Y-102493000I0J-225000D01*
G01*
G37*
G36*
G01*
X156063400Y-102493000D02*
X156063400Y-102993000D01*
G75*
G02*
X155838400Y-103218000I-225000J0D01*
G01*
X155388400Y-103218000D01*
G75*
G02*
X155163400Y-102993000I0J225000D01*
G01*
X155163400Y-102493000D01*
G75*
G02*
X155388400Y-102268000I225000J0D01*
G01*
X155838400Y-102268000D01*
G75*
G02*
X156063400Y-102493000I0J-225000D01*
G01*
G37*
G04 #@! TD*
G04 #@! TO.C,C14*
G36*
G01*
X151347000Y-96607300D02*
X151347000Y-96407300D01*
G75*
G02*
X151447000Y-96307300I100000J0D01*
G01*
X151707000Y-96307300D01*
G75*
G02*
X151807000Y-96407300I0J-100000D01*
G01*
X151807000Y-96607300D01*
G75*
G02*
X151707000Y-96707300I-100000J0D01*
G01*
X151447000Y-96707300D01*
G75*
G02*
X151347000Y-96607300I0J100000D01*
G01*
G37*
G36*
G01*
X150707000Y-96607300D02*
X150707000Y-96407300D01*
G75*
G02*
X150807000Y-96307300I100000J0D01*
G01*
X151067000Y-96307300D01*
G75*
G02*
X151167000Y-96407300I0J-100000D01*
G01*
X151167000Y-96607300D01*
G75*
G02*
X151067000Y-96707300I-100000J0D01*
G01*
X150807000Y-96707300D01*
G75*
G02*
X150707000Y-96607300I0J100000D01*
G01*
G37*
G04 #@! TD*
D10*
G04 #@! TO.C,C12*
X154811100Y-93141800D03*
D11*
X152311100Y-93141800D03*
G04 #@! TD*
D10*
G04 #@! TO.C,C11*
X127052700Y-96583500D03*
D11*
X129552700Y-96583500D03*
G04 #@! TD*
D10*
G04 #@! TO.C,C10*
X173619800Y-93103700D03*
D11*
X171119800Y-93103700D03*
G04 #@! TD*
D10*
G04 #@! TO.C,C9*
X126989200Y-118059200D03*
D11*
X129489200Y-118059200D03*
G04 #@! TD*
D10*
G04 #@! TO.C,C8*
X136601200Y-118021100D03*
D11*
X134101200Y-118021100D03*
G04 #@! TD*
D10*
G04 #@! TO.C,C7*
X155255600Y-119024400D03*
D11*
X152755600Y-119024400D03*
G04 #@! TD*
G04 #@! TO.C,C1*
G36*
G01*
X153326000Y-109983600D02*
X153326000Y-110183600D01*
G75*
G02*
X153226000Y-110283600I-100000J0D01*
G01*
X152966000Y-110283600D01*
G75*
G02*
X152866000Y-110183600I0J100000D01*
G01*
X152866000Y-109983600D01*
G75*
G02*
X152966000Y-109883600I100000J0D01*
G01*
X153226000Y-109883600D01*
G75*
G02*
X153326000Y-109983600I0J-100000D01*
G01*
G37*
G36*
G01*
X153966000Y-109983600D02*
X153966000Y-110183600D01*
G75*
G02*
X153866000Y-110283600I-100000J0D01*
G01*
X153606000Y-110283600D01*
G75*
G02*
X153506000Y-110183600I0J100000D01*
G01*
X153506000Y-109983600D01*
G75*
G02*
X153606000Y-109883600I100000J0D01*
G01*
X153866000Y-109883600D01*
G75*
G02*
X153966000Y-109983600I0J-100000D01*
G01*
G37*
G04 #@! TD*
M02*
