G04 #@! TF.GenerationSoftware,KiCad,Pcbnew,(5.1.9)-1*
G04 #@! TF.CreationDate,2021-01-15T03:22:01+08:00*
G04 #@! TF.ProjectId,opl3,6f706c33-2e6b-4696-9361-645f70636258,rev?*
G04 #@! TF.SameCoordinates,Original*
G04 #@! TF.FileFunction,Legend,Top*
G04 #@! TF.FilePolarity,Positive*
%FSLAX46Y46*%
G04 Gerber Fmt 4.6, Leading zero omitted, Abs format (unit mm)*
G04 Created by KiCad (PCBNEW (5.1.9)-1) date 2021-01-15 03:22:01*
%MOMM*%
%LPD*%
G01*
G04 APERTURE LIST*
%ADD10C,0.150000*%
%ADD11C,0.087500*%
%ADD12C,0.200000*%
%ADD13C,0.120000*%
%ADD14C,0.250000*%
%ADD15C,0.300000*%
%ADD16C,0.100000*%
%ADD17C,0.062500*%
G04 APERTURE END LIST*
D10*
X125712419Y-122816880D02*
X125438610Y-122340690D01*
X125140991Y-122816880D02*
X125265991Y-121816880D01*
X125646943Y-121816880D01*
X125736229Y-121864500D01*
X125777895Y-121912119D01*
X125813610Y-122007357D01*
X125795752Y-122150214D01*
X125736229Y-122245452D01*
X125682657Y-122293071D01*
X125581467Y-122340690D01*
X125200514Y-122340690D01*
X126527895Y-122769261D02*
X126426705Y-122816880D01*
X126236229Y-122816880D01*
X126146943Y-122769261D01*
X126111229Y-122674023D01*
X126158848Y-122293071D01*
X126218372Y-122197833D01*
X126319562Y-122150214D01*
X126510038Y-122150214D01*
X126599324Y-122197833D01*
X126635038Y-122293071D01*
X126623133Y-122388309D01*
X126135038Y-122483547D01*
X127510038Y-122150214D02*
X127408848Y-122959738D01*
X127349324Y-123054976D01*
X127295752Y-123102595D01*
X127194562Y-123150214D01*
X127051705Y-123150214D01*
X126962419Y-123102595D01*
X127432657Y-122769261D02*
X127331467Y-122816880D01*
X127140991Y-122816880D01*
X127051705Y-122769261D01*
X127010038Y-122721642D01*
X126974324Y-122626404D01*
X127010038Y-122340690D01*
X127069562Y-122245452D01*
X127123133Y-122197833D01*
X127224324Y-122150214D01*
X127414800Y-122150214D01*
X127504086Y-122197833D01*
X127902895Y-122816880D02*
X127986229Y-122150214D01*
X128027895Y-121816880D02*
X127974324Y-121864500D01*
X128015991Y-121912119D01*
X128069562Y-121864500D01*
X128027895Y-121816880D01*
X128015991Y-121912119D01*
X128337419Y-122769261D02*
X128426705Y-122816880D01*
X128617181Y-122816880D01*
X128718372Y-122769261D01*
X128777895Y-122674023D01*
X128783848Y-122626404D01*
X128748133Y-122531166D01*
X128658848Y-122483547D01*
X128515991Y-122483547D01*
X128426705Y-122435928D01*
X128390991Y-122340690D01*
X128396943Y-122293071D01*
X128456467Y-122197833D01*
X128557657Y-122150214D01*
X128700514Y-122150214D01*
X128789800Y-122197833D01*
X129129086Y-122150214D02*
X129510038Y-122150214D01*
X129313610Y-121816880D02*
X129206467Y-122674023D01*
X129242181Y-122769261D01*
X129331467Y-122816880D01*
X129426705Y-122816880D01*
X130146943Y-122769261D02*
X130045752Y-122816880D01*
X129855276Y-122816880D01*
X129765991Y-122769261D01*
X129730276Y-122674023D01*
X129777895Y-122293071D01*
X129837419Y-122197833D01*
X129938610Y-122150214D01*
X130129086Y-122150214D01*
X130218372Y-122197833D01*
X130254086Y-122293071D01*
X130242181Y-122388309D01*
X129754086Y-122483547D01*
X130617181Y-122816880D02*
X130700514Y-122150214D01*
X130676705Y-122340690D02*
X130736229Y-122245452D01*
X130789800Y-122197833D01*
X130890991Y-122150214D01*
X130986229Y-122150214D01*
X132081467Y-121769261D02*
X131063610Y-123054976D01*
X132242181Y-122769261D02*
X132379086Y-122816880D01*
X132617181Y-122816880D01*
X132718372Y-122769261D01*
X132771943Y-122721642D01*
X132831467Y-122626404D01*
X132843372Y-122531166D01*
X132807657Y-122435928D01*
X132765991Y-122388309D01*
X132676705Y-122340690D01*
X132492181Y-122293071D01*
X132402895Y-122245452D01*
X132361229Y-122197833D01*
X132325514Y-122102595D01*
X132337419Y-122007357D01*
X132396943Y-121912119D01*
X132450514Y-121864500D01*
X132551705Y-121816880D01*
X132789800Y-121816880D01*
X132926705Y-121864500D01*
X133379086Y-122816880D02*
X133289800Y-122769261D01*
X133248133Y-122721642D01*
X133212419Y-122626404D01*
X133248133Y-122340690D01*
X133307657Y-122245452D01*
X133361229Y-122197833D01*
X133462419Y-122150214D01*
X133605276Y-122150214D01*
X133694562Y-122197833D01*
X133736229Y-122245452D01*
X133771943Y-122340690D01*
X133736229Y-122626404D01*
X133676705Y-122721642D01*
X133623133Y-122769261D01*
X133521943Y-122816880D01*
X133379086Y-122816880D01*
X134081467Y-122150214D02*
X134462419Y-122150214D01*
X134140991Y-122816880D02*
X134248133Y-121959738D01*
X134307657Y-121864500D01*
X134408848Y-121816880D01*
X134504086Y-121816880D01*
X134652895Y-122150214D02*
X135033848Y-122150214D01*
X134837419Y-121816880D02*
X134730276Y-122674023D01*
X134765991Y-122769261D01*
X134855276Y-122816880D01*
X134950514Y-122816880D01*
X135271943Y-122150214D02*
X135379086Y-122816880D01*
X135629086Y-122340690D01*
X135760038Y-122816880D01*
X136033848Y-122150214D01*
X136760038Y-122816880D02*
X136825514Y-122293071D01*
X136789800Y-122197833D01*
X136700514Y-122150214D01*
X136510038Y-122150214D01*
X136408848Y-122197833D01*
X136765991Y-122769261D02*
X136664800Y-122816880D01*
X136426705Y-122816880D01*
X136337419Y-122769261D01*
X136301705Y-122674023D01*
X136313610Y-122578785D01*
X136373133Y-122483547D01*
X136474324Y-122435928D01*
X136712419Y-122435928D01*
X136813610Y-122388309D01*
X137236229Y-122816880D02*
X137319562Y-122150214D01*
X137295752Y-122340690D02*
X137355276Y-122245452D01*
X137408848Y-122197833D01*
X137510038Y-122150214D01*
X137605276Y-122150214D01*
X138242181Y-122769261D02*
X138140991Y-122816880D01*
X137950514Y-122816880D01*
X137861229Y-122769261D01*
X137825514Y-122674023D01*
X137873133Y-122293071D01*
X137932657Y-122197833D01*
X138033848Y-122150214D01*
X138224324Y-122150214D01*
X138313610Y-122197833D01*
X138349324Y-122293071D01*
X138337419Y-122388309D01*
X137849324Y-122483547D01*
X138760038Y-122435928D02*
X139521943Y-122435928D01*
X140426705Y-122816880D02*
X139950514Y-122816880D01*
X140075514Y-121816880D01*
X140760038Y-122816880D02*
X140843372Y-122150214D01*
X140885038Y-121816880D02*
X140831467Y-121864500D01*
X140873133Y-121912119D01*
X140926705Y-121864500D01*
X140885038Y-121816880D01*
X140873133Y-121912119D01*
X141236229Y-122816880D02*
X141361229Y-121816880D01*
X141313610Y-122197833D02*
X141414800Y-122150214D01*
X141605276Y-122150214D01*
X141694562Y-122197833D01*
X141736229Y-122245452D01*
X141771943Y-122340690D01*
X141736229Y-122626404D01*
X141676705Y-122721642D01*
X141623133Y-122769261D01*
X141521943Y-122816880D01*
X141331467Y-122816880D01*
X141242181Y-122769261D01*
X142140991Y-122816880D02*
X142224324Y-122150214D01*
X142200514Y-122340690D02*
X142260038Y-122245452D01*
X142313610Y-122197833D01*
X142414800Y-122150214D01*
X142510038Y-122150214D01*
X143188610Y-122816880D02*
X143254086Y-122293071D01*
X143218372Y-122197833D01*
X143129086Y-122150214D01*
X142938610Y-122150214D01*
X142837419Y-122197833D01*
X143194562Y-122769261D02*
X143093372Y-122816880D01*
X142855276Y-122816880D01*
X142765991Y-122769261D01*
X142730276Y-122674023D01*
X142742181Y-122578785D01*
X142801705Y-122483547D01*
X142902895Y-122435928D01*
X143140991Y-122435928D01*
X143242181Y-122388309D01*
X143664800Y-122816880D02*
X143748133Y-122150214D01*
X143724324Y-122340690D02*
X143783848Y-122245452D01*
X143837419Y-122197833D01*
X143938610Y-122150214D01*
X144033848Y-122150214D01*
X144271943Y-122150214D02*
X144426705Y-122816880D01*
X144748133Y-122150214D02*
X144426705Y-122816880D01*
X144301705Y-123054976D01*
X144248133Y-123102595D01*
X144146943Y-123150214D01*
X146390991Y-122721642D02*
X146337419Y-122769261D01*
X146188610Y-122816880D01*
X146093372Y-122816880D01*
X145956467Y-122769261D01*
X145873133Y-122674023D01*
X145837419Y-122578785D01*
X145813610Y-122388309D01*
X145831467Y-122245452D01*
X145902895Y-122054976D01*
X145962419Y-121959738D01*
X146069562Y-121864500D01*
X146218372Y-121816880D01*
X146313610Y-121816880D01*
X146450514Y-121864500D01*
X146492181Y-121912119D01*
X146950514Y-122816880D02*
X146861229Y-122769261D01*
X146819562Y-122721642D01*
X146783848Y-122626404D01*
X146819562Y-122340690D01*
X146879086Y-122245452D01*
X146932657Y-122197833D01*
X147033848Y-122150214D01*
X147176705Y-122150214D01*
X147265991Y-122197833D01*
X147307657Y-122245452D01*
X147343372Y-122340690D01*
X147307657Y-122626404D01*
X147248133Y-122721642D01*
X147194562Y-122769261D01*
X147093372Y-122816880D01*
X146950514Y-122816880D01*
X147712419Y-122816880D02*
X147795752Y-122150214D01*
X147783848Y-122245452D02*
X147837419Y-122197833D01*
X147938610Y-122150214D01*
X148081467Y-122150214D01*
X148170752Y-122197833D01*
X148206467Y-122293071D01*
X148140991Y-122816880D01*
X148206467Y-122293071D02*
X148265991Y-122197833D01*
X148367181Y-122150214D01*
X148510038Y-122150214D01*
X148599324Y-122197833D01*
X148635038Y-122293071D01*
X148569562Y-122816880D01*
X149129086Y-122150214D02*
X149004086Y-123150214D01*
X149123133Y-122197833D02*
X149224324Y-122150214D01*
X149414800Y-122150214D01*
X149504086Y-122197833D01*
X149545752Y-122245452D01*
X149581467Y-122340690D01*
X149545752Y-122626404D01*
X149486229Y-122721642D01*
X149432657Y-122769261D01*
X149331467Y-122816880D01*
X149140991Y-122816880D01*
X149051705Y-122769261D01*
X150379086Y-122816880D02*
X150444562Y-122293071D01*
X150408848Y-122197833D01*
X150319562Y-122150214D01*
X150129086Y-122150214D01*
X150027895Y-122197833D01*
X150385038Y-122769261D02*
X150283848Y-122816880D01*
X150045752Y-122816880D01*
X149956467Y-122769261D01*
X149920752Y-122674023D01*
X149932657Y-122578785D01*
X149992181Y-122483547D01*
X150093372Y-122435928D01*
X150331467Y-122435928D01*
X150432657Y-122388309D01*
X151289800Y-122769261D02*
X151188610Y-122816880D01*
X150998133Y-122816880D01*
X150908848Y-122769261D01*
X150867181Y-122721642D01*
X150831467Y-122626404D01*
X150867181Y-122340690D01*
X150926705Y-122245452D01*
X150980276Y-122197833D01*
X151081467Y-122150214D01*
X151271943Y-122150214D01*
X151361229Y-122197833D01*
X151652895Y-122150214D02*
X152033848Y-122150214D01*
X151837419Y-121816880D02*
X151730276Y-122674023D01*
X151765991Y-122769261D01*
X151855276Y-122816880D01*
X151950514Y-122816880D01*
X152712419Y-122816880D02*
X152777895Y-122293071D01*
X152742181Y-122197833D01*
X152652895Y-122150214D01*
X152462419Y-122150214D01*
X152361229Y-122197833D01*
X152718372Y-122769261D02*
X152617181Y-122816880D01*
X152379086Y-122816880D01*
X152289800Y-122769261D01*
X152254086Y-122674023D01*
X152265991Y-122578785D01*
X152325514Y-122483547D01*
X152426705Y-122435928D01*
X152664800Y-122435928D01*
X152765991Y-122388309D01*
X153188610Y-122816880D02*
X153313610Y-121816880D01*
X153265991Y-122197833D02*
X153367181Y-122150214D01*
X153557657Y-122150214D01*
X153646943Y-122197833D01*
X153688610Y-122245452D01*
X153724324Y-122340690D01*
X153688610Y-122626404D01*
X153629086Y-122721642D01*
X153575514Y-122769261D01*
X153474324Y-122816880D01*
X153283848Y-122816880D01*
X153194562Y-122769261D01*
X154236229Y-122816880D02*
X154146943Y-122769261D01*
X154111229Y-122674023D01*
X154218372Y-121816880D01*
X155004086Y-122769261D02*
X154902895Y-122816880D01*
X154712419Y-122816880D01*
X154623133Y-122769261D01*
X154587419Y-122674023D01*
X154635038Y-122293071D01*
X154694562Y-122197833D01*
X154795752Y-122150214D01*
X154986229Y-122150214D01*
X155075514Y-122197833D01*
X155111229Y-122293071D01*
X155099324Y-122388309D01*
X154611229Y-122483547D01*
X156224324Y-122150214D02*
X156331467Y-122816880D01*
X156581467Y-122340690D01*
X156712419Y-122816880D01*
X156986229Y-122150214D01*
X157283848Y-122816880D02*
X157367181Y-122150214D01*
X157408848Y-121816880D02*
X157355276Y-121864500D01*
X157396943Y-121912119D01*
X157450514Y-121864500D01*
X157408848Y-121816880D01*
X157396943Y-121912119D01*
X157700514Y-122150214D02*
X158081467Y-122150214D01*
X157885038Y-121816880D02*
X157777895Y-122674023D01*
X157813610Y-122769261D01*
X157902895Y-122816880D01*
X157998133Y-122816880D01*
X158331467Y-122816880D02*
X158456467Y-121816880D01*
X158760038Y-122816880D02*
X158825514Y-122293071D01*
X158789800Y-122197833D01*
X158700514Y-122150214D01*
X158557657Y-122150214D01*
X158456467Y-122197833D01*
X158402895Y-122245452D01*
X160313610Y-121816880D02*
X160504086Y-121816880D01*
X160593372Y-121864500D01*
X160676705Y-121959738D01*
X160700514Y-122150214D01*
X160658848Y-122483547D01*
X160587419Y-122674023D01*
X160480276Y-122769261D01*
X160379086Y-122816880D01*
X160188610Y-122816880D01*
X160099324Y-122769261D01*
X160015991Y-122674023D01*
X159992181Y-122483547D01*
X160033848Y-122150214D01*
X160105276Y-121959738D01*
X160212419Y-121864500D01*
X160313610Y-121816880D01*
X161045752Y-122816880D02*
X161170752Y-121816880D01*
X161551705Y-121816880D01*
X161640991Y-121864500D01*
X161682657Y-121912119D01*
X161718372Y-122007357D01*
X161700514Y-122150214D01*
X161640991Y-122245452D01*
X161587419Y-122293071D01*
X161486229Y-122340690D01*
X161105276Y-122340690D01*
X162521943Y-122816880D02*
X162045752Y-122816880D01*
X162170752Y-121816880D01*
X162920752Y-121912119D02*
X162974324Y-121864500D01*
X163075514Y-121816880D01*
X163313610Y-121816880D01*
X163402895Y-121864500D01*
X163444562Y-121912119D01*
X163480276Y-122007357D01*
X163468372Y-122102595D01*
X163402895Y-122245452D01*
X162760038Y-122816880D01*
X163379086Y-122816880D01*
X164557657Y-122531166D02*
X165033848Y-122531166D01*
X164426705Y-122816880D02*
X164885038Y-121816880D01*
X165093372Y-122816880D01*
X165438610Y-122721642D02*
X165480276Y-122769261D01*
X165426705Y-122816880D01*
X165385038Y-122769261D01*
X165438610Y-122721642D01*
X165426705Y-122816880D01*
X166301705Y-122293071D02*
X166438610Y-122340690D01*
X166480276Y-122388309D01*
X166515991Y-122483547D01*
X166498133Y-122626404D01*
X166438610Y-122721642D01*
X166385038Y-122769261D01*
X166283848Y-122816880D01*
X165902895Y-122816880D01*
X166027895Y-121816880D01*
X166361229Y-121816880D01*
X166450514Y-121864500D01*
X166492181Y-121912119D01*
X166527895Y-122007357D01*
X166515991Y-122102595D01*
X166456467Y-122197833D01*
X166402895Y-122245452D01*
X166301705Y-122293071D01*
X165968372Y-122293071D01*
X166914800Y-122721642D02*
X166956467Y-122769261D01*
X166902895Y-122816880D01*
X166861229Y-122769261D01*
X166914800Y-122721642D01*
X166902895Y-122816880D01*
X168224324Y-121769261D02*
X167206467Y-123054976D01*
X169504086Y-121816880D02*
X169694562Y-121816880D01*
X169783848Y-121864500D01*
X169867181Y-121959738D01*
X169890991Y-122150214D01*
X169849324Y-122483547D01*
X169777895Y-122674023D01*
X169670752Y-122769261D01*
X169569562Y-122816880D01*
X169379086Y-122816880D01*
X169289800Y-122769261D01*
X169206467Y-122674023D01*
X169182657Y-122483547D01*
X169224324Y-122150214D01*
X169295752Y-121959738D01*
X169402895Y-121864500D01*
X169504086Y-121816880D01*
X170236229Y-122816880D02*
X170361229Y-121816880D01*
X170742181Y-121816880D01*
X170831467Y-121864500D01*
X170873133Y-121912119D01*
X170908848Y-122007357D01*
X170890991Y-122150214D01*
X170831467Y-122245452D01*
X170777895Y-122293071D01*
X170676705Y-122340690D01*
X170295752Y-122340690D01*
X171712419Y-122816880D02*
X171236229Y-122816880D01*
X171361229Y-121816880D01*
X172075514Y-121816880D02*
X172694562Y-121816880D01*
X172313610Y-122197833D01*
X172456467Y-122197833D01*
X172545752Y-122245452D01*
X172587419Y-122293071D01*
X172623133Y-122388309D01*
X172593372Y-122626404D01*
X172533848Y-122721642D01*
X172480276Y-122769261D01*
X172379086Y-122816880D01*
X172093372Y-122816880D01*
X172004086Y-122769261D01*
X171962419Y-122721642D01*
X173760038Y-122816880D02*
X173885038Y-121816880D01*
X174123133Y-121816880D01*
X174260038Y-121864500D01*
X174343372Y-121959738D01*
X174379086Y-122054976D01*
X174402895Y-122245452D01*
X174385038Y-122388309D01*
X174313610Y-122578785D01*
X174254086Y-122674023D01*
X174146943Y-122769261D01*
X173998133Y-122816880D01*
X173760038Y-122816880D01*
X174771943Y-122721642D02*
X174813610Y-122769261D01*
X174760038Y-122816880D01*
X174718372Y-122769261D01*
X174771943Y-122721642D01*
X174760038Y-122816880D01*
D11*
X134596214Y-111115428D02*
X135262880Y-111115428D01*
X134215261Y-111222571D02*
X134929547Y-111329714D01*
X134929547Y-111051142D01*
X134881928Y-110879714D02*
X134881928Y-110536857D01*
X134262880Y-110236857D02*
X134262880Y-110151142D01*
X134310500Y-110108285D01*
X134405738Y-110065428D01*
X134596214Y-110044000D01*
X134929547Y-110044000D01*
X135120023Y-110065428D01*
X135215261Y-110108285D01*
X135262880Y-110151142D01*
X135262880Y-110236857D01*
X135215261Y-110279714D01*
X135120023Y-110322571D01*
X134929547Y-110344000D01*
X134596214Y-110344000D01*
X134405738Y-110322571D01*
X134310500Y-110279714D01*
X134262880Y-110236857D01*
X135262880Y-109851142D02*
X134262880Y-109851142D01*
X134262880Y-109679714D01*
X134310500Y-109636857D01*
X134358119Y-109615428D01*
X134453357Y-109594000D01*
X134596214Y-109594000D01*
X134691452Y-109615428D01*
X134739071Y-109636857D01*
X134786690Y-109679714D01*
X134786690Y-109851142D01*
X135262880Y-109058285D02*
X134262880Y-109058285D01*
X134977166Y-108908285D01*
X134262880Y-108758285D01*
X135262880Y-108758285D01*
X135262880Y-108479714D02*
X135215261Y-108522571D01*
X135167642Y-108544000D01*
X135072404Y-108565428D01*
X134786690Y-108565428D01*
X134691452Y-108544000D01*
X134643833Y-108522571D01*
X134596214Y-108479714D01*
X134596214Y-108415428D01*
X134643833Y-108372571D01*
X134691452Y-108351142D01*
X134786690Y-108329714D01*
X135072404Y-108329714D01*
X135167642Y-108351142D01*
X135215261Y-108372571D01*
X135262880Y-108415428D01*
X135262880Y-108479714D01*
X135262880Y-107944000D02*
X134262880Y-107944000D01*
X135215261Y-107944000D02*
X135262880Y-107986857D01*
X135262880Y-108072571D01*
X135215261Y-108115428D01*
X135167642Y-108136857D01*
X135072404Y-108158285D01*
X134786690Y-108158285D01*
X134691452Y-108136857D01*
X134643833Y-108115428D01*
X134596214Y-108072571D01*
X134596214Y-107986857D01*
X134643833Y-107944000D01*
X135215261Y-107558285D02*
X135262880Y-107601142D01*
X135262880Y-107686857D01*
X135215261Y-107729714D01*
X135120023Y-107751142D01*
X134739071Y-107751142D01*
X134643833Y-107729714D01*
X134596214Y-107686857D01*
X134596214Y-107601142D01*
X134643833Y-107558285D01*
X134739071Y-107536857D01*
X134834309Y-107536857D01*
X134929547Y-107751142D01*
X135215261Y-107022571D02*
X135262880Y-106958285D01*
X135262880Y-106851142D01*
X135215261Y-106808285D01*
X135167642Y-106786857D01*
X135072404Y-106765428D01*
X134977166Y-106765428D01*
X134881928Y-106786857D01*
X134834309Y-106808285D01*
X134786690Y-106851142D01*
X134739071Y-106936857D01*
X134691452Y-106979714D01*
X134643833Y-107001142D01*
X134548595Y-107022571D01*
X134453357Y-107022571D01*
X134358119Y-107001142D01*
X134310500Y-106979714D01*
X134262880Y-106936857D01*
X134262880Y-106829714D01*
X134310500Y-106765428D01*
X134596214Y-106379714D02*
X135262880Y-106379714D01*
X134596214Y-106572571D02*
X135120023Y-106572571D01*
X135215261Y-106551142D01*
X135262880Y-106508285D01*
X135262880Y-106444000D01*
X135215261Y-106401142D01*
X135167642Y-106379714D01*
X134596214Y-106165428D02*
X135596214Y-106165428D01*
X134643833Y-106165428D02*
X134596214Y-106122571D01*
X134596214Y-106036857D01*
X134643833Y-105994000D01*
X134691452Y-105972571D01*
X134786690Y-105951142D01*
X135072404Y-105951142D01*
X135167642Y-105972571D01*
X135215261Y-105994000D01*
X135262880Y-106036857D01*
X135262880Y-106122571D01*
X135215261Y-106165428D01*
X134596214Y-105758285D02*
X135596214Y-105758285D01*
X134643833Y-105758285D02*
X134596214Y-105715428D01*
X134596214Y-105629714D01*
X134643833Y-105586857D01*
X134691452Y-105565428D01*
X134786690Y-105544000D01*
X135072404Y-105544000D01*
X135167642Y-105565428D01*
X135215261Y-105586857D01*
X135262880Y-105629714D01*
X135262880Y-105715428D01*
X135215261Y-105758285D01*
X135262880Y-105286857D02*
X135215261Y-105329714D01*
X135167642Y-105351142D01*
X135072404Y-105372571D01*
X134786690Y-105372571D01*
X134691452Y-105351142D01*
X134643833Y-105329714D01*
X134596214Y-105286857D01*
X134596214Y-105222571D01*
X134643833Y-105179714D01*
X134691452Y-105158285D01*
X134786690Y-105136857D01*
X135072404Y-105136857D01*
X135167642Y-105158285D01*
X135215261Y-105179714D01*
X135262880Y-105222571D01*
X135262880Y-105286857D01*
X135262880Y-104944000D02*
X134596214Y-104944000D01*
X134786690Y-104944000D02*
X134691452Y-104922571D01*
X134643833Y-104901142D01*
X134596214Y-104858285D01*
X134596214Y-104815428D01*
X134596214Y-104729714D02*
X134596214Y-104558285D01*
X134262880Y-104665428D02*
X135120023Y-104665428D01*
X135215261Y-104644000D01*
X135262880Y-104601142D01*
X135262880Y-104558285D01*
X135215261Y-104236857D02*
X135262880Y-104279714D01*
X135262880Y-104365428D01*
X135215261Y-104408285D01*
X135120023Y-104429714D01*
X134739071Y-104429714D01*
X134643833Y-104408285D01*
X134596214Y-104365428D01*
X134596214Y-104279714D01*
X134643833Y-104236857D01*
X134739071Y-104215428D01*
X134834309Y-104215428D01*
X134929547Y-104429714D01*
X135262880Y-103829714D02*
X134262880Y-103829714D01*
X135215261Y-103829714D02*
X135262880Y-103872571D01*
X135262880Y-103958285D01*
X135215261Y-104001142D01*
X135167642Y-104022571D01*
X135072404Y-104044000D01*
X134786690Y-104044000D01*
X134691452Y-104022571D01*
X134643833Y-104001142D01*
X134596214Y-103958285D01*
X134596214Y-103872571D01*
X134643833Y-103829714D01*
D10*
X153653285Y-91543666D02*
X154010428Y-91543666D01*
X153581857Y-91829380D02*
X153831857Y-90829380D01*
X154081857Y-91829380D01*
X154867571Y-90924619D02*
X154903285Y-90877000D01*
X154974714Y-90829380D01*
X155153285Y-90829380D01*
X155224714Y-90877000D01*
X155260428Y-90924619D01*
X155296142Y-91019857D01*
X155296142Y-91115095D01*
X155260428Y-91257952D01*
X154831857Y-91829380D01*
X155296142Y-91829380D01*
X155760428Y-90829380D02*
X155831857Y-90829380D01*
X155903285Y-90877000D01*
X155939000Y-90924619D01*
X155974714Y-91019857D01*
X156010428Y-91210333D01*
X156010428Y-91448428D01*
X155974714Y-91638904D01*
X155939000Y-91734142D01*
X155903285Y-91781761D01*
X155831857Y-91829380D01*
X155760428Y-91829380D01*
X155689000Y-91781761D01*
X155653285Y-91734142D01*
X155617571Y-91638904D01*
X155581857Y-91448428D01*
X155581857Y-91210333D01*
X155617571Y-91019857D01*
X155653285Y-90924619D01*
X155689000Y-90877000D01*
X155760428Y-90829380D01*
X156331857Y-91448428D02*
X156903285Y-91448428D01*
X157153285Y-90829380D02*
X157403285Y-91829380D01*
X157653285Y-90829380D01*
X158010428Y-91829380D02*
X157939000Y-91781761D01*
X157903285Y-91734142D01*
X157867571Y-91638904D01*
X157867571Y-91353190D01*
X157903285Y-91257952D01*
X157939000Y-91210333D01*
X158010428Y-91162714D01*
X158117571Y-91162714D01*
X158189000Y-91210333D01*
X158224714Y-91257952D01*
X158260428Y-91353190D01*
X158260428Y-91638904D01*
X158224714Y-91734142D01*
X158189000Y-91781761D01*
X158117571Y-91829380D01*
X158010428Y-91829380D01*
X158581857Y-91829380D02*
X158581857Y-91162714D01*
X158581857Y-90829380D02*
X158546142Y-90877000D01*
X158581857Y-90924619D01*
X158617571Y-90877000D01*
X158581857Y-90829380D01*
X158581857Y-90924619D01*
X159260428Y-91781761D02*
X159189000Y-91829380D01*
X159046142Y-91829380D01*
X158974714Y-91781761D01*
X158939000Y-91734142D01*
X158903285Y-91638904D01*
X158903285Y-91353190D01*
X158939000Y-91257952D01*
X158974714Y-91210333D01*
X159046142Y-91162714D01*
X159189000Y-91162714D01*
X159260428Y-91210333D01*
X159867571Y-91781761D02*
X159796142Y-91829380D01*
X159653285Y-91829380D01*
X159581857Y-91781761D01*
X159546142Y-91686523D01*
X159546142Y-91305571D01*
X159581857Y-91210333D01*
X159653285Y-91162714D01*
X159796142Y-91162714D01*
X159867571Y-91210333D01*
X159903285Y-91305571D01*
X159903285Y-91400809D01*
X159546142Y-91496047D01*
X160760428Y-91781761D02*
X160867571Y-91829380D01*
X161046142Y-91829380D01*
X161117571Y-91781761D01*
X161153285Y-91734142D01*
X161189000Y-91638904D01*
X161189000Y-91543666D01*
X161153285Y-91448428D01*
X161117571Y-91400809D01*
X161046142Y-91353190D01*
X160903285Y-91305571D01*
X160831857Y-91257952D01*
X160796142Y-91210333D01*
X160760428Y-91115095D01*
X160760428Y-91019857D01*
X160796142Y-90924619D01*
X160831857Y-90877000D01*
X160903285Y-90829380D01*
X161081857Y-90829380D01*
X161189000Y-90877000D01*
X161403285Y-91162714D02*
X161689000Y-91162714D01*
X161510428Y-90829380D02*
X161510428Y-91686523D01*
X161546142Y-91781761D01*
X161617571Y-91829380D01*
X161689000Y-91829380D01*
X162224714Y-91781761D02*
X162153285Y-91829380D01*
X162010428Y-91829380D01*
X161939000Y-91781761D01*
X161903285Y-91686523D01*
X161903285Y-91305571D01*
X161939000Y-91210333D01*
X162010428Y-91162714D01*
X162153285Y-91162714D01*
X162224714Y-91210333D01*
X162260428Y-91305571D01*
X162260428Y-91400809D01*
X161903285Y-91496047D01*
X162581857Y-91829380D02*
X162581857Y-91162714D01*
X162581857Y-91353190D02*
X162617571Y-91257952D01*
X162653285Y-91210333D01*
X162724714Y-91162714D01*
X162796142Y-91162714D01*
X163331857Y-91781761D02*
X163260428Y-91829380D01*
X163117571Y-91829380D01*
X163046142Y-91781761D01*
X163010428Y-91686523D01*
X163010428Y-91305571D01*
X163046142Y-91210333D01*
X163117571Y-91162714D01*
X163260428Y-91162714D01*
X163331857Y-91210333D01*
X163367571Y-91305571D01*
X163367571Y-91400809D01*
X163010428Y-91496047D01*
X163796142Y-91829380D02*
X163724714Y-91781761D01*
X163689000Y-91734142D01*
X163653285Y-91638904D01*
X163653285Y-91353190D01*
X163689000Y-91257952D01*
X163724714Y-91210333D01*
X163796142Y-91162714D01*
X163903285Y-91162714D01*
X163974714Y-91210333D01*
X164010428Y-91257952D01*
X164046142Y-91353190D01*
X164046142Y-91638904D01*
X164010428Y-91734142D01*
X163974714Y-91781761D01*
X163903285Y-91829380D01*
X163796142Y-91829380D01*
X165189000Y-91305571D02*
X164939000Y-91305571D01*
X164939000Y-91829380D02*
X164939000Y-90829380D01*
X165296142Y-90829380D01*
X165581857Y-91829380D02*
X165581857Y-90829380D01*
X165831857Y-91543666D01*
X166081857Y-90829380D01*
X166081857Y-91829380D01*
X166974714Y-91781761D02*
X167081857Y-91829380D01*
X167260428Y-91829380D01*
X167331857Y-91781761D01*
X167367571Y-91734142D01*
X167403285Y-91638904D01*
X167403285Y-91543666D01*
X167367571Y-91448428D01*
X167331857Y-91400809D01*
X167260428Y-91353190D01*
X167117571Y-91305571D01*
X167046142Y-91257952D01*
X167010428Y-91210333D01*
X166974714Y-91115095D01*
X166974714Y-91019857D01*
X167010428Y-90924619D01*
X167046142Y-90877000D01*
X167117571Y-90829380D01*
X167296142Y-90829380D01*
X167403285Y-90877000D01*
X167653285Y-91162714D02*
X167831857Y-91829380D01*
X168010428Y-91162714D02*
X167831857Y-91829380D01*
X167760428Y-92067476D01*
X167724714Y-92115095D01*
X167653285Y-92162714D01*
X168296142Y-91162714D02*
X168296142Y-91829380D01*
X168296142Y-91257952D02*
X168331857Y-91210333D01*
X168403285Y-91162714D01*
X168510428Y-91162714D01*
X168581857Y-91210333D01*
X168617571Y-91305571D01*
X168617571Y-91829380D01*
X168867571Y-91162714D02*
X169153285Y-91162714D01*
X168974714Y-90829380D02*
X168974714Y-91686523D01*
X169010428Y-91781761D01*
X169081857Y-91829380D01*
X169153285Y-91829380D01*
X169403285Y-91829380D02*
X169403285Y-90829380D01*
X169724714Y-91829380D02*
X169724714Y-91305571D01*
X169689000Y-91210333D01*
X169617571Y-91162714D01*
X169510428Y-91162714D01*
X169439000Y-91210333D01*
X169403285Y-91257952D01*
X170367571Y-91781761D02*
X170296142Y-91829380D01*
X170153285Y-91829380D01*
X170081857Y-91781761D01*
X170046142Y-91686523D01*
X170046142Y-91305571D01*
X170081857Y-91210333D01*
X170153285Y-91162714D01*
X170296142Y-91162714D01*
X170367571Y-91210333D01*
X170403285Y-91305571D01*
X170403285Y-91400809D01*
X170046142Y-91496047D01*
X170689000Y-91781761D02*
X170760428Y-91829380D01*
X170903285Y-91829380D01*
X170974714Y-91781761D01*
X171010428Y-91686523D01*
X171010428Y-91638904D01*
X170974714Y-91543666D01*
X170903285Y-91496047D01*
X170796142Y-91496047D01*
X170724714Y-91448428D01*
X170689000Y-91353190D01*
X170689000Y-91305571D01*
X170724714Y-91210333D01*
X170796142Y-91162714D01*
X170903285Y-91162714D01*
X170974714Y-91210333D01*
X171331857Y-91829380D02*
X171331857Y-91162714D01*
X171331857Y-90829380D02*
X171296142Y-90877000D01*
X171331857Y-90924619D01*
X171367571Y-90877000D01*
X171331857Y-90829380D01*
X171331857Y-90924619D01*
X171653285Y-91781761D02*
X171724714Y-91829380D01*
X171867571Y-91829380D01*
X171939000Y-91781761D01*
X171974714Y-91686523D01*
X171974714Y-91638904D01*
X171939000Y-91543666D01*
X171867571Y-91496047D01*
X171760428Y-91496047D01*
X171689000Y-91448428D01*
X171653285Y-91353190D01*
X171653285Y-91305571D01*
X171689000Y-91210333D01*
X171760428Y-91162714D01*
X171867571Y-91162714D01*
X171939000Y-91210333D01*
X158921142Y-93003190D02*
X158885428Y-92955571D01*
X158814000Y-92907952D01*
X158742571Y-92907952D01*
X158671142Y-92955571D01*
X158635428Y-93003190D01*
X158599714Y-93098428D01*
X158599714Y-93193666D01*
X158635428Y-93288904D01*
X158671142Y-93336523D01*
X158742571Y-93384142D01*
X158814000Y-93384142D01*
X158885428Y-93336523D01*
X158921142Y-93288904D01*
X158921142Y-92907952D02*
X158921142Y-93288904D01*
X158956857Y-93336523D01*
X158992571Y-93336523D01*
X159064000Y-93288904D01*
X159099714Y-93193666D01*
X159099714Y-92955571D01*
X159028285Y-92812714D01*
X158921142Y-92717476D01*
X158778285Y-92669857D01*
X158635428Y-92717476D01*
X158528285Y-92812714D01*
X158456857Y-92955571D01*
X158421142Y-93146047D01*
X158456857Y-93336523D01*
X158528285Y-93479380D01*
X158635428Y-93574619D01*
X158778285Y-93622238D01*
X158921142Y-93574619D01*
X159028285Y-93479380D01*
X159742571Y-92812714D02*
X159742571Y-93479380D01*
X159564000Y-92431761D02*
X159385428Y-93146047D01*
X159849714Y-93146047D01*
X160171142Y-93479380D02*
X160314000Y-93479380D01*
X160385428Y-93431761D01*
X160421142Y-93384142D01*
X160492571Y-93241285D01*
X160528285Y-93050809D01*
X160528285Y-92669857D01*
X160492571Y-92574619D01*
X160456857Y-92527000D01*
X160385428Y-92479380D01*
X160242571Y-92479380D01*
X160171142Y-92527000D01*
X160135428Y-92574619D01*
X160099714Y-92669857D01*
X160099714Y-92907952D01*
X160135428Y-93003190D01*
X160171142Y-93050809D01*
X160242571Y-93098428D01*
X160385428Y-93098428D01*
X160456857Y-93050809D01*
X160492571Y-93003190D01*
X160528285Y-92907952D01*
X160849714Y-93384142D02*
X160885428Y-93431761D01*
X160849714Y-93479380D01*
X160814000Y-93431761D01*
X160849714Y-93384142D01*
X160849714Y-93479380D01*
X161135428Y-92479380D02*
X161635428Y-92479380D01*
X161314000Y-93479380D01*
X161921142Y-93479380D02*
X161921142Y-92479380D01*
X162349714Y-93479380D02*
X162028285Y-92907952D01*
X162349714Y-92479380D02*
X161921142Y-93050809D01*
X162671142Y-93479380D02*
X162671142Y-92479380D01*
X162671142Y-92955571D02*
X163099714Y-92955571D01*
X163099714Y-93479380D02*
X163099714Y-92479380D01*
X163385428Y-92812714D02*
X163778285Y-92812714D01*
X163385428Y-93479380D01*
X163778285Y-93479380D01*
X165028285Y-93479380D02*
X164599714Y-93479380D01*
X164814000Y-93479380D02*
X164814000Y-92479380D01*
X164742571Y-92622238D01*
X164671142Y-92717476D01*
X164599714Y-92765095D01*
X165671142Y-92479380D02*
X165528285Y-92479380D01*
X165456857Y-92527000D01*
X165421142Y-92574619D01*
X165349714Y-92717476D01*
X165314000Y-92907952D01*
X165314000Y-93288904D01*
X165349714Y-93384142D01*
X165385428Y-93431761D01*
X165456857Y-93479380D01*
X165599714Y-93479380D01*
X165671142Y-93431761D01*
X165706857Y-93384142D01*
X165742571Y-93288904D01*
X165742571Y-93050809D01*
X165706857Y-92955571D01*
X165671142Y-92907952D01*
X165599714Y-92860333D01*
X165456857Y-92860333D01*
X165385428Y-92907952D01*
X165349714Y-92955571D01*
X165314000Y-93050809D01*
X166064000Y-93479380D02*
X166064000Y-92479380D01*
X166064000Y-92860333D02*
X166135428Y-92812714D01*
X166278285Y-92812714D01*
X166349714Y-92860333D01*
X166385428Y-92907952D01*
X166421142Y-93003190D01*
X166421142Y-93288904D01*
X166385428Y-93384142D01*
X166349714Y-93431761D01*
X166278285Y-93479380D01*
X166135428Y-93479380D01*
X166064000Y-93431761D01*
X166742571Y-93479380D02*
X166742571Y-92812714D01*
X166742571Y-92479380D02*
X166706857Y-92527000D01*
X166742571Y-92574619D01*
X166778285Y-92527000D01*
X166742571Y-92479380D01*
X166742571Y-92574619D01*
X166992571Y-92812714D02*
X167278285Y-92812714D01*
X167099714Y-92479380D02*
X167099714Y-93336523D01*
X167135428Y-93431761D01*
X167206857Y-93479380D01*
X167278285Y-93479380D01*
D12*
X148303500Y-93416380D02*
X147827309Y-93416380D01*
X147952309Y-92416380D01*
X148636833Y-93416380D02*
X148720166Y-92749714D01*
X148761833Y-92416380D02*
X148708261Y-92464000D01*
X148749928Y-92511619D01*
X148803500Y-92464000D01*
X148761833Y-92416380D01*
X148749928Y-92511619D01*
X149053500Y-92749714D02*
X149434452Y-92749714D01*
X149238023Y-92416380D02*
X149130880Y-93273523D01*
X149166595Y-93368761D01*
X149255880Y-93416380D01*
X149351119Y-93416380D01*
X150071357Y-93368761D02*
X149970166Y-93416380D01*
X149779690Y-93416380D01*
X149690404Y-93368761D01*
X149654690Y-93273523D01*
X149702309Y-92892571D01*
X149761833Y-92797333D01*
X149863023Y-92749714D01*
X150053500Y-92749714D01*
X150142785Y-92797333D01*
X150178500Y-92892571D01*
X150166595Y-92987809D01*
X149678500Y-93083047D01*
X150553500Y-93321142D02*
X150595166Y-93368761D01*
X150541595Y-93416380D01*
X150499928Y-93368761D01*
X150553500Y-93321142D01*
X150541595Y-93416380D01*
D13*
X124866400Y-97891600D02*
X125145800Y-97891600D01*
X124866400Y-98374200D02*
X124866400Y-97891600D01*
X130327400Y-97891600D02*
X125095000Y-97891600D01*
X130327400Y-98374200D02*
X130327400Y-97891600D01*
X130378200Y-94691200D02*
X130378200Y-92964000D01*
X133934200Y-94818200D02*
X133934200Y-92964000D01*
X133908800Y-92964000D02*
X130403600Y-92964000D01*
D14*
X132765371Y-89793819D02*
X132765371Y-90793819D01*
X132265371Y-90793819D02*
X131408228Y-90793819D01*
X131836800Y-89793819D02*
X131836800Y-90793819D01*
X130622514Y-90793819D02*
X130479657Y-90793819D01*
X130336800Y-90746200D01*
X130265371Y-90698580D01*
X130193942Y-90603342D01*
X130122514Y-90412866D01*
X130122514Y-90174771D01*
X130193942Y-89984295D01*
X130265371Y-89889057D01*
X130336800Y-89841438D01*
X130479657Y-89793819D01*
X130622514Y-89793819D01*
X130765371Y-89841438D01*
X130836800Y-89889057D01*
X130908228Y-89984295D01*
X130979657Y-90174771D01*
X130979657Y-90412866D01*
X130908228Y-90603342D01*
X130836800Y-90698580D01*
X130765371Y-90746200D01*
X130622514Y-90793819D01*
X129193942Y-90793819D02*
X129051085Y-90793819D01*
X128908228Y-90746200D01*
X128836800Y-90698580D01*
X128765371Y-90603342D01*
X128693942Y-90412866D01*
X128693942Y-90174771D01*
X128765371Y-89984295D01*
X128836800Y-89889057D01*
X128908228Y-89841438D01*
X129051085Y-89793819D01*
X129193942Y-89793819D01*
X129336800Y-89841438D01*
X129408228Y-89889057D01*
X129479657Y-89984295D01*
X129551085Y-90174771D01*
X129551085Y-90412866D01*
X129479657Y-90603342D01*
X129408228Y-90698580D01*
X129336800Y-90746200D01*
X129193942Y-90793819D01*
X128193942Y-90793819D02*
X127265371Y-90793819D01*
X127765371Y-90412866D01*
X127551085Y-90412866D01*
X127408228Y-90365247D01*
X127336800Y-90317628D01*
X127265371Y-90222390D01*
X127265371Y-89984295D01*
X127336800Y-89889057D01*
X127408228Y-89841438D01*
X127551085Y-89793819D01*
X127979657Y-89793819D01*
X128122514Y-89841438D01*
X128193942Y-89889057D01*
X126408228Y-90365247D02*
X126551085Y-90412866D01*
X126622514Y-90460485D01*
X126693942Y-90555723D01*
X126693942Y-90603342D01*
X126622514Y-90698580D01*
X126551085Y-90746200D01*
X126408228Y-90793819D01*
X126122514Y-90793819D01*
X125979657Y-90746200D01*
X125908228Y-90698580D01*
X125836800Y-90603342D01*
X125836800Y-90555723D01*
X125908228Y-90460485D01*
X125979657Y-90412866D01*
X126122514Y-90365247D01*
X126408228Y-90365247D01*
X126551085Y-90317628D01*
X126622514Y-90270009D01*
X126693942Y-90174771D01*
X126693942Y-89984295D01*
X126622514Y-89889057D01*
X126551085Y-89841438D01*
X126408228Y-89793819D01*
X126122514Y-89793819D01*
X125979657Y-89841438D01*
X125908228Y-89889057D01*
X125836800Y-89984295D01*
X125836800Y-90174771D01*
X125908228Y-90270009D01*
X125979657Y-90317628D01*
X126122514Y-90365247D01*
X171017980Y-115398180D02*
X171017980Y-115302942D01*
X171065600Y-115207704D01*
X171113219Y-115160085D01*
X171208457Y-115112466D01*
X171398933Y-115064847D01*
X171637028Y-115064847D01*
X171827504Y-115112466D01*
X171922742Y-115160085D01*
X171970361Y-115207704D01*
X172017980Y-115302942D01*
X172017980Y-115398180D01*
X171970361Y-115493419D01*
X171922742Y-115541038D01*
X171827504Y-115588657D01*
X171637028Y-115636276D01*
X171398933Y-115636276D01*
X171208457Y-115588657D01*
X171113219Y-115541038D01*
X171065600Y-115493419D01*
X171017980Y-115398180D01*
X171113219Y-114683895D02*
X171065600Y-114636276D01*
X171017980Y-114541038D01*
X171017980Y-114302942D01*
X171065600Y-114207704D01*
X171113219Y-114160085D01*
X171208457Y-114112466D01*
X171303695Y-114112466D01*
X171446552Y-114160085D01*
X172017980Y-114731514D01*
X172017980Y-114112466D01*
X170970361Y-112969609D02*
X172256076Y-113826752D01*
X171113219Y-112683895D02*
X171065600Y-112636276D01*
X171017980Y-112541038D01*
X171017980Y-112302942D01*
X171065600Y-112207704D01*
X171113219Y-112160085D01*
X171208457Y-112112466D01*
X171303695Y-112112466D01*
X171446552Y-112160085D01*
X172017980Y-112731514D01*
X172017980Y-112112466D01*
X171017980Y-111493419D02*
X171017980Y-111398180D01*
X171065600Y-111302942D01*
X171113219Y-111255323D01*
X171208457Y-111207704D01*
X171398933Y-111160085D01*
X171637028Y-111160085D01*
X171827504Y-111207704D01*
X171922742Y-111255323D01*
X171970361Y-111302942D01*
X172017980Y-111398180D01*
X172017980Y-111493419D01*
X171970361Y-111588657D01*
X171922742Y-111636276D01*
X171827504Y-111683895D01*
X171637028Y-111731514D01*
X171398933Y-111731514D01*
X171208457Y-111683895D01*
X171113219Y-111636276D01*
X171065600Y-111588657D01*
X171017980Y-111493419D01*
X171113219Y-110779133D02*
X171065600Y-110731514D01*
X171017980Y-110636276D01*
X171017980Y-110398180D01*
X171065600Y-110302942D01*
X171113219Y-110255323D01*
X171208457Y-110207704D01*
X171303695Y-110207704D01*
X171446552Y-110255323D01*
X172017980Y-110826752D01*
X172017980Y-110207704D01*
X172017980Y-109255323D02*
X172017980Y-109826752D01*
X172017980Y-109541038D02*
X171017980Y-109541038D01*
X171160838Y-109636276D01*
X171256076Y-109731514D01*
X171303695Y-109826752D01*
X173767980Y-114302942D02*
X173291790Y-114636276D01*
X173767980Y-114874371D02*
X172767980Y-114874371D01*
X172767980Y-114493419D01*
X172815600Y-114398180D01*
X172863219Y-114350561D01*
X172958457Y-114302942D01*
X173101314Y-114302942D01*
X173196552Y-114350561D01*
X173244171Y-114398180D01*
X173291790Y-114493419D01*
X173291790Y-114874371D01*
X173244171Y-113874371D02*
X173244171Y-113541038D01*
X173767980Y-113398180D02*
X173767980Y-113874371D01*
X172767980Y-113874371D01*
X172767980Y-113398180D01*
X172767980Y-113112466D02*
X173767980Y-112779133D01*
X172767980Y-112445800D01*
X173482266Y-111398180D02*
X173482266Y-110921990D01*
X173767980Y-111493419D02*
X172767980Y-111160085D01*
X173767980Y-110826752D01*
X173767980Y-109969609D02*
X173767980Y-110541038D01*
X173767980Y-110255323D02*
X172767980Y-110255323D01*
X172910838Y-110350561D01*
X173006076Y-110445800D01*
X173053695Y-110541038D01*
D15*
X135106010Y-89785961D02*
X135486963Y-89785961D01*
X135665534Y-89881200D01*
X135832201Y-90071676D01*
X135879820Y-90452628D01*
X135796486Y-91119295D01*
X135653629Y-91500247D01*
X135439344Y-91690723D01*
X135236963Y-91785961D01*
X134856010Y-91785961D01*
X134677439Y-91690723D01*
X134510772Y-91500247D01*
X134463153Y-91119295D01*
X134546486Y-90452628D01*
X134689344Y-90071676D01*
X134903629Y-89881200D01*
X135106010Y-89785961D01*
X136570296Y-91785961D02*
X136820296Y-89785961D01*
X137582201Y-89785961D01*
X137760772Y-89881200D01*
X137844105Y-89976438D01*
X137915534Y-90166914D01*
X137879820Y-90452628D01*
X137760772Y-90643104D01*
X137653629Y-90738342D01*
X137451248Y-90833580D01*
X136689344Y-90833580D01*
X139522677Y-91785961D02*
X138570296Y-91785961D01*
X138820296Y-89785961D01*
X140248867Y-89785961D02*
X141486963Y-89785961D01*
X140725058Y-90547866D01*
X141010772Y-90547866D01*
X141189344Y-90643104D01*
X141272677Y-90738342D01*
X141344105Y-90928819D01*
X141284582Y-91405009D01*
X141165534Y-91595485D01*
X141058391Y-91690723D01*
X140856010Y-91785961D01*
X140284582Y-91785961D01*
X140106010Y-91690723D01*
X140022677Y-91595485D01*
X143534582Y-91690723D02*
X143808391Y-91785961D01*
X144284582Y-91785961D01*
X144486963Y-91690723D01*
X144594105Y-91595485D01*
X144713153Y-91405009D01*
X144736963Y-91214533D01*
X144665534Y-91024057D01*
X144582201Y-90928819D01*
X144403629Y-90833580D01*
X144034582Y-90738342D01*
X143856010Y-90643104D01*
X143772677Y-90547866D01*
X143701248Y-90357390D01*
X143725058Y-90166914D01*
X143844105Y-89976438D01*
X143951248Y-89881200D01*
X144153629Y-89785961D01*
X144629820Y-89785961D01*
X144903629Y-89881200D01*
X146153629Y-89785961D02*
X146534582Y-89785961D01*
X146713153Y-89881200D01*
X146879820Y-90071676D01*
X146927439Y-90452628D01*
X146844105Y-91119295D01*
X146701248Y-91500247D01*
X146486963Y-91690723D01*
X146284582Y-91785961D01*
X145903629Y-91785961D01*
X145725058Y-91690723D01*
X145558391Y-91500247D01*
X145510772Y-91119295D01*
X145594105Y-90452628D01*
X145736963Y-90071676D01*
X145951248Y-89881200D01*
X146153629Y-89785961D01*
X148570296Y-91785961D02*
X147617915Y-91785961D01*
X147867915Y-89785961D01*
X149867915Y-89785961D02*
X150248867Y-89785961D01*
X150427439Y-89881200D01*
X150594105Y-90071676D01*
X150641725Y-90452628D01*
X150558391Y-91119295D01*
X150415534Y-91500247D01*
X150201248Y-91690723D01*
X149998867Y-91785961D01*
X149617915Y-91785961D01*
X149439344Y-91690723D01*
X149272677Y-91500247D01*
X149225058Y-91119295D01*
X149308391Y-90452628D01*
X149451248Y-90071676D01*
X149665534Y-89881200D01*
X149867915Y-89785961D01*
X151356010Y-91595485D02*
X151439344Y-91690723D01*
X151332201Y-91785961D01*
X151248867Y-91690723D01*
X151356010Y-91595485D01*
X151332201Y-91785961D01*
X151427439Y-91024057D02*
X151475058Y-89881200D01*
X151582201Y-89785961D01*
X151665534Y-89881200D01*
X151427439Y-91024057D01*
X151582201Y-89785961D01*
D13*
X125501400Y-113106200D02*
X124866400Y-113106200D01*
X125501400Y-110566200D02*
X124866400Y-110566200D01*
X125501400Y-108280200D02*
X124866400Y-108280200D01*
X125501400Y-105486200D02*
X124866400Y-105486200D01*
X125501400Y-102692200D02*
X124866400Y-102692200D01*
X125501400Y-100406200D02*
X124866400Y-100406200D01*
X124866400Y-115773200D02*
X124866400Y-98374200D01*
X125501400Y-115773200D02*
X124866400Y-115773200D01*
X130327400Y-113106200D02*
X125501400Y-113106200D01*
X125501400Y-110566200D02*
X130327400Y-110566200D01*
X125628400Y-108280200D02*
X125501400Y-108280200D01*
X125628400Y-108280200D02*
X130327400Y-108280200D01*
X125501400Y-105486200D02*
X130327400Y-105486200D01*
X125501400Y-102692200D02*
X130327400Y-102692200D01*
X125501400Y-100406200D02*
X130327400Y-100406200D01*
X125628400Y-115773200D02*
X125501400Y-115773200D01*
X125755400Y-115773200D02*
X125628400Y-115773200D01*
X125882400Y-115773200D02*
X125755400Y-115773200D01*
X130327400Y-115773200D02*
X125882400Y-115773200D01*
X130327400Y-98374200D02*
X130327400Y-115773200D01*
X130378200Y-94691200D02*
X130378200Y-94818200D01*
X133934200Y-94818200D02*
X130378200Y-94818200D01*
D10*
X126108057Y-109878761D02*
X126250914Y-109926380D01*
X126489009Y-109926380D01*
X126584247Y-109878761D01*
X126631866Y-109831142D01*
X126679485Y-109735904D01*
X126679485Y-109640666D01*
X126631866Y-109545428D01*
X126584247Y-109497809D01*
X126489009Y-109450190D01*
X126298533Y-109402571D01*
X126203295Y-109354952D01*
X126155676Y-109307333D01*
X126108057Y-109212095D01*
X126108057Y-109116857D01*
X126155676Y-109021619D01*
X126203295Y-108974000D01*
X126298533Y-108926380D01*
X126536628Y-108926380D01*
X126679485Y-108974000D01*
X127108057Y-109926380D02*
X127108057Y-108926380D01*
X127108057Y-109402571D02*
X127679485Y-109402571D01*
X127679485Y-109926380D02*
X127679485Y-108926380D01*
X128155676Y-109926380D02*
X128155676Y-108926380D01*
X128965200Y-109402571D02*
X128631866Y-109402571D01*
X128631866Y-109926380D02*
X128631866Y-108926380D01*
X129108057Y-108926380D01*
X129346152Y-108926380D02*
X129917580Y-108926380D01*
X129631866Y-109926380D02*
X129631866Y-108926380D01*
X126770000Y-104643180D02*
X126770000Y-103643180D01*
X127008095Y-103643180D01*
X127150952Y-103690800D01*
X127246190Y-103786038D01*
X127293809Y-103881276D01*
X127341428Y-104071752D01*
X127341428Y-104214609D01*
X127293809Y-104405085D01*
X127246190Y-104500323D01*
X127150952Y-104595561D01*
X127008095Y-104643180D01*
X126770000Y-104643180D01*
X127722380Y-104357466D02*
X128198571Y-104357466D01*
X127627142Y-104643180D02*
X127960476Y-103643180D01*
X128293809Y-104643180D01*
X128484285Y-103643180D02*
X129055714Y-103643180D01*
X128770000Y-104643180D02*
X128770000Y-103643180D01*
X129341428Y-104357466D02*
X129817619Y-104357466D01*
X129246190Y-104643180D02*
X129579523Y-103643180D01*
X129912857Y-104643180D01*
X127962114Y-114669866D02*
X128438304Y-114669866D01*
X127866876Y-114955580D02*
X128200209Y-113955580D01*
X128533542Y-114955580D01*
X129390685Y-114955580D02*
X128819257Y-114955580D01*
X129104971Y-114955580D02*
X129104971Y-113955580D01*
X129009733Y-114098438D01*
X128914495Y-114193676D01*
X128819257Y-114241295D01*
X125500095Y-111149800D02*
X126500095Y-111149800D01*
X126309619Y-112517180D02*
X125976285Y-112040990D01*
X125738190Y-112517180D02*
X125738190Y-111517180D01*
X126119142Y-111517180D01*
X126214380Y-111564800D01*
X126262000Y-111612419D01*
X126309619Y-111707657D01*
X126309619Y-111850514D01*
X126262000Y-111945752D01*
X126214380Y-111993371D01*
X126119142Y-112040990D01*
X125738190Y-112040990D01*
X126500095Y-111149800D02*
X127404857Y-111149800D01*
X126738190Y-111993371D02*
X127071523Y-111993371D01*
X127214380Y-112517180D02*
X126738190Y-112517180D01*
X126738190Y-111517180D01*
X127214380Y-111517180D01*
X127404857Y-111149800D02*
X128357238Y-111149800D01*
X127595333Y-112469561D02*
X127738190Y-112517180D01*
X127976285Y-112517180D01*
X128071523Y-112469561D01*
X128119142Y-112421942D01*
X128166761Y-112326704D01*
X128166761Y-112231466D01*
X128119142Y-112136228D01*
X128071523Y-112088609D01*
X127976285Y-112040990D01*
X127785809Y-111993371D01*
X127690571Y-111945752D01*
X127642952Y-111898133D01*
X127595333Y-111802895D01*
X127595333Y-111707657D01*
X127642952Y-111612419D01*
X127690571Y-111564800D01*
X127785809Y-111517180D01*
X128023904Y-111517180D01*
X128166761Y-111564800D01*
X128357238Y-111149800D02*
X129262000Y-111149800D01*
X128595333Y-111993371D02*
X128928666Y-111993371D01*
X129071523Y-112517180D02*
X128595333Y-112517180D01*
X128595333Y-111517180D01*
X129071523Y-111517180D01*
X129262000Y-111149800D02*
X130023904Y-111149800D01*
X129357238Y-111517180D02*
X129928666Y-111517180D01*
X129642952Y-112517180D02*
X129642952Y-111517180D01*
X126390590Y-107335580D02*
X125914400Y-107335580D01*
X125914400Y-106335580D01*
X126676304Y-107049866D02*
X127152495Y-107049866D01*
X126581066Y-107335580D02*
X126914400Y-106335580D01*
X127247733Y-107335580D01*
X127438209Y-106335580D02*
X128009638Y-106335580D01*
X127723923Y-107335580D02*
X127723923Y-106335580D01*
X128914400Y-107240342D02*
X128866780Y-107287961D01*
X128723923Y-107335580D01*
X128628685Y-107335580D01*
X128485828Y-107287961D01*
X128390590Y-107192723D01*
X128342971Y-107097485D01*
X128295352Y-106907009D01*
X128295352Y-106764152D01*
X128342971Y-106573676D01*
X128390590Y-106478438D01*
X128485828Y-106383200D01*
X128628685Y-106335580D01*
X128723923Y-106335580D01*
X128866780Y-106383200D01*
X128914400Y-106430819D01*
X129342971Y-107335580D02*
X129342971Y-106335580D01*
X129342971Y-106811771D02*
X129914400Y-106811771D01*
X129914400Y-107335580D02*
X129914400Y-106335580D01*
X127962114Y-101817466D02*
X128438304Y-101817466D01*
X127866876Y-102103180D02*
X128200209Y-101103180D01*
X128533542Y-102103180D01*
X129057352Y-101103180D02*
X129152590Y-101103180D01*
X129247828Y-101150800D01*
X129295447Y-101198419D01*
X129343066Y-101293657D01*
X129390685Y-101484133D01*
X129390685Y-101722228D01*
X129343066Y-101912704D01*
X129295447Y-102007942D01*
X129247828Y-102055561D01*
X129152590Y-102103180D01*
X129057352Y-102103180D01*
X128962114Y-102055561D01*
X128914495Y-102007942D01*
X128866876Y-101912704D01*
X128819257Y-101722228D01*
X128819257Y-101484133D01*
X128866876Y-101293657D01*
X128914495Y-101198419D01*
X128962114Y-101150800D01*
X129057352Y-101103180D01*
X127812895Y-98712400D02*
X127717657Y-98664780D01*
X127574800Y-98664780D01*
X127431942Y-98712400D01*
X127336704Y-98807638D01*
X127289085Y-98902876D01*
X127241466Y-99093352D01*
X127241466Y-99236209D01*
X127289085Y-99426685D01*
X127336704Y-99521923D01*
X127431942Y-99617161D01*
X127574800Y-99664780D01*
X127670038Y-99664780D01*
X127812895Y-99617161D01*
X127860514Y-99569542D01*
X127860514Y-99236209D01*
X127670038Y-99236209D01*
X128289085Y-99664780D02*
X128289085Y-98664780D01*
X128860514Y-99664780D01*
X128860514Y-98664780D01*
X129336704Y-99664780D02*
X129336704Y-98664780D01*
X129574800Y-98664780D01*
X129717657Y-98712400D01*
X129812895Y-98807638D01*
X129860514Y-98902876D01*
X129908133Y-99093352D01*
X129908133Y-99236209D01*
X129860514Y-99426685D01*
X129812895Y-99521923D01*
X129717657Y-99617161D01*
X129574800Y-99664780D01*
X129336704Y-99664780D01*
X130743485Y-94000628D02*
X131505390Y-94000628D01*
X131124438Y-94381580D02*
X131124438Y-93619676D01*
X132457771Y-93381580D02*
X131981580Y-93381580D01*
X131933961Y-93857771D01*
X131981580Y-93810152D01*
X132076819Y-93762533D01*
X132314914Y-93762533D01*
X132410152Y-93810152D01*
X132457771Y-93857771D01*
X132505390Y-93953009D01*
X132505390Y-94191104D01*
X132457771Y-94286342D01*
X132410152Y-94333961D01*
X132314914Y-94381580D01*
X132076819Y-94381580D01*
X131981580Y-94333961D01*
X131933961Y-94286342D01*
X132791104Y-93381580D02*
X133124438Y-94381580D01*
X133457771Y-93381580D01*
D13*
G04 #@! TO.C,U4*
X167649800Y-112814100D02*
X167649800Y-110614100D01*
X167649800Y-112814100D02*
X167649800Y-115014100D01*
X164429800Y-112814100D02*
X164429800Y-110614100D01*
X164429800Y-112814100D02*
X164429800Y-116414100D01*
G04 #@! TO.C,U2*
X152336500Y-106199600D02*
X154721500Y-106199600D01*
X154721500Y-106199600D02*
X154721500Y-105944600D01*
X152336500Y-106199600D02*
X149951500Y-106199600D01*
X149951500Y-106199600D02*
X149951500Y-105944600D01*
X152336500Y-95679600D02*
X154721500Y-95679600D01*
X154721500Y-95679600D02*
X154721500Y-95934600D01*
X152336500Y-95679600D02*
X149951500Y-95679600D01*
X149951500Y-95679600D02*
X149951500Y-95934600D01*
X149951500Y-95934600D02*
X148286500Y-95934600D01*
G04 #@! TO.C,X1*
X149204500Y-112455300D02*
X149144500Y-112455300D01*
X149144500Y-112455300D02*
X149144500Y-106975300D01*
X149144500Y-106975300D02*
X149204500Y-106975300D01*
X154284500Y-112455300D02*
X151404500Y-112455300D01*
X156484500Y-106515300D02*
X156484500Y-106975300D01*
X156484500Y-106975300D02*
X156544500Y-106975300D01*
X156544500Y-106975300D02*
X156544500Y-112455300D01*
X156544500Y-112455300D02*
X156484500Y-112455300D01*
X151404500Y-106975300D02*
X154284500Y-106975300D01*
X154284500Y-106975300D02*
X154284500Y-106515300D01*
G04 #@! TO.C,U6*
X134254600Y-112955500D02*
X134254600Y-114755500D01*
X137474600Y-114755500D02*
X137474600Y-112305500D01*
G04 #@! TO.C,U5*
X137881700Y-115836700D02*
X137881700Y-118221700D01*
X137881700Y-118221700D02*
X138136700Y-118221700D01*
X137881700Y-115836700D02*
X137881700Y-113451700D01*
X137881700Y-113451700D02*
X138136700Y-113451700D01*
X148401700Y-115836700D02*
X148401700Y-118221700D01*
X148401700Y-118221700D02*
X148146700Y-118221700D01*
X148401700Y-115836700D02*
X148401700Y-113451700D01*
X148401700Y-113451700D02*
X148146700Y-113451700D01*
X148146700Y-113451700D02*
X148146700Y-111786700D01*
G04 #@! TO.C,U3*
X162655400Y-112852200D02*
X162655400Y-110652200D01*
X162655400Y-112852200D02*
X162655400Y-115052200D01*
X157435400Y-112852200D02*
X157435400Y-110652200D01*
X157435400Y-112852200D02*
X157435400Y-116452200D01*
G04 #@! TO.C,U1*
X142087600Y-111315000D02*
X145947600Y-111315000D01*
X145947600Y-111315000D02*
X145947600Y-111025000D01*
X142087600Y-111315000D02*
X138227600Y-111315000D01*
X138227600Y-111315000D02*
X138227600Y-111025000D01*
X142087600Y-95695000D02*
X145947600Y-95695000D01*
X145947600Y-95695000D02*
X145947600Y-95985000D01*
X142087600Y-95695000D02*
X138227600Y-95695000D01*
X138227600Y-95695000D02*
X138227600Y-95985000D01*
X138227600Y-95985000D02*
X136437600Y-95985000D01*
G04 #@! TO.C,J2*
X165296000Y-94216000D02*
X165796000Y-94766000D01*
X166296000Y-94216000D02*
X165296000Y-94216000D01*
X165796000Y-94766000D02*
X166296000Y-94216000D01*
D10*
X171596000Y-107066000D02*
X163846000Y-107066000D01*
X159496000Y-107066000D02*
X157096000Y-107066000D01*
X157096000Y-107066000D02*
X157096000Y-95266000D01*
X157096000Y-95266000D02*
X157196000Y-95266000D01*
X159796000Y-95266000D02*
X163546000Y-95266000D01*
X168046000Y-95266000D02*
X171596000Y-95266000D01*
X171596000Y-95266000D02*
X171596000Y-107066000D01*
X171596000Y-103966000D02*
X175196000Y-103966000D01*
X175196000Y-103966000D02*
X175196000Y-97766000D01*
X175196000Y-97766000D02*
X171596000Y-97766000D01*
D13*
G04 #@! TO.C,J1*
X130838900Y-115706200D02*
X133498900Y-115706200D01*
X130838900Y-97866200D02*
X130838900Y-115706200D01*
X133498900Y-97866200D02*
X133498900Y-115706200D01*
X130838900Y-97866200D02*
X133498900Y-97866200D01*
X130838900Y-96596200D02*
X130838900Y-95266200D01*
X130838900Y-95266200D02*
X132168900Y-95266200D01*
G04 #@! TO.C,C6*
X135295100Y-100240220D02*
X135295100Y-100521380D01*
X134275100Y-100240220D02*
X134275100Y-100521380D01*
G04 #@! TO.C,U4*
D10*
X167994080Y-113588704D02*
X168803604Y-113588704D01*
X168898842Y-113541085D01*
X168946461Y-113493466D01*
X168994080Y-113398228D01*
X168994080Y-113207752D01*
X168946461Y-113112514D01*
X168898842Y-113064895D01*
X168803604Y-113017276D01*
X167994080Y-113017276D01*
X168327414Y-112112514D02*
X168994080Y-112112514D01*
X167946461Y-112350609D02*
X168660747Y-112588704D01*
X168660747Y-111969657D01*
X166606480Y-114623942D02*
X165606480Y-114623942D01*
X166606480Y-114235371D01*
X165606480Y-114235371D01*
X166082671Y-113911561D02*
X166082671Y-113684895D01*
X166606480Y-113587752D02*
X166606480Y-113911561D01*
X165606480Y-113911561D01*
X165606480Y-113587752D01*
X165606480Y-112972514D02*
X165606480Y-113296323D01*
X166082671Y-113328704D01*
X166035052Y-113296323D01*
X165987433Y-113231561D01*
X165987433Y-113069657D01*
X166035052Y-113004895D01*
X166082671Y-112972514D01*
X166177909Y-112940133D01*
X166416004Y-112940133D01*
X166511242Y-112972514D01*
X166558861Y-113004895D01*
X166606480Y-113069657D01*
X166606480Y-113231561D01*
X166558861Y-113296323D01*
X166511242Y-113328704D01*
X165606480Y-112324895D02*
X165606480Y-112648704D01*
X166082671Y-112681085D01*
X166035052Y-112648704D01*
X165987433Y-112583942D01*
X165987433Y-112422038D01*
X166035052Y-112357276D01*
X166082671Y-112324895D01*
X166177909Y-112292514D01*
X166416004Y-112292514D01*
X166511242Y-112324895D01*
X166558861Y-112357276D01*
X166606480Y-112422038D01*
X166606480Y-112583942D01*
X166558861Y-112648704D01*
X166511242Y-112681085D01*
X165606480Y-112065847D02*
X165606480Y-111644895D01*
X165987433Y-111871561D01*
X165987433Y-111774419D01*
X166035052Y-111709657D01*
X166082671Y-111677276D01*
X166177909Y-111644895D01*
X166416004Y-111644895D01*
X166511242Y-111677276D01*
X166558861Y-111709657D01*
X166606480Y-111774419D01*
X166606480Y-111968704D01*
X166558861Y-112033466D01*
X166511242Y-112065847D01*
X165701719Y-111385847D02*
X165654100Y-111353466D01*
X165606480Y-111288704D01*
X165606480Y-111126800D01*
X165654100Y-111062038D01*
X165701719Y-111029657D01*
X165796957Y-110997276D01*
X165892195Y-110997276D01*
X166035052Y-111029657D01*
X166606480Y-111418228D01*
X166606480Y-110997276D01*
G04 #@! TO.C,U2*
X152501695Y-94422980D02*
X152501695Y-95232504D01*
X152549314Y-95327742D01*
X152596933Y-95375361D01*
X152692171Y-95422980D01*
X152882647Y-95422980D01*
X152977885Y-95375361D01*
X153025504Y-95327742D01*
X153073123Y-95232504D01*
X153073123Y-94422980D01*
X153501695Y-94518219D02*
X153549314Y-94470600D01*
X153644552Y-94422980D01*
X153882647Y-94422980D01*
X153977885Y-94470600D01*
X154025504Y-94518219D01*
X154073123Y-94613457D01*
X154073123Y-94708695D01*
X154025504Y-94851552D01*
X153454076Y-95422980D01*
X154073123Y-95422980D01*
X152312690Y-103296742D02*
X152788880Y-103296742D01*
X151788880Y-103630076D02*
X152312690Y-103296742D01*
X151788880Y-102963409D01*
X152503166Y-102677695D02*
X152503166Y-102201504D01*
X152788880Y-102772933D02*
X151788880Y-102439600D01*
X152788880Y-102106266D01*
X152693642Y-101201504D02*
X152741261Y-101249123D01*
X152788880Y-101391980D01*
X152788880Y-101487219D01*
X152741261Y-101630076D01*
X152646023Y-101725314D01*
X152550785Y-101772933D01*
X152360309Y-101820552D01*
X152217452Y-101820552D01*
X152026976Y-101772933D01*
X151931738Y-101725314D01*
X151836500Y-101630076D01*
X151788880Y-101487219D01*
X151788880Y-101391980D01*
X151836500Y-101249123D01*
X151884119Y-101201504D01*
X151788880Y-100296742D02*
X151788880Y-100772933D01*
X152265071Y-100820552D01*
X152217452Y-100772933D01*
X152169833Y-100677695D01*
X152169833Y-100439600D01*
X152217452Y-100344361D01*
X152265071Y-100296742D01*
X152360309Y-100249123D01*
X152598404Y-100249123D01*
X152693642Y-100296742D01*
X152741261Y-100344361D01*
X152788880Y-100439600D01*
X152788880Y-100677695D01*
X152741261Y-100772933D01*
X152693642Y-100820552D01*
X152788880Y-99296742D02*
X152788880Y-99868171D01*
X152788880Y-99582457D02*
X151788880Y-99582457D01*
X151931738Y-99677695D01*
X152026976Y-99772933D01*
X152074595Y-99868171D01*
X151884119Y-98915790D02*
X151836500Y-98868171D01*
X151788880Y-98772933D01*
X151788880Y-98534838D01*
X151836500Y-98439600D01*
X151884119Y-98391980D01*
X151979357Y-98344361D01*
X152074595Y-98344361D01*
X152217452Y-98391980D01*
X152788880Y-98963409D01*
X152788880Y-98344361D01*
G04 #@! TO.C,X1*
X152060376Y-113142780D02*
X152727042Y-114142780D01*
X152727042Y-113142780D02*
X152060376Y-114142780D01*
X153631804Y-114142780D02*
X153060376Y-114142780D01*
X153346090Y-114142780D02*
X153346090Y-113142780D01*
X153250852Y-113285638D01*
X153155614Y-113380876D01*
X153060376Y-113428495D01*
D16*
X148752690Y-110898571D02*
X148752690Y-111184285D01*
X148752690Y-111041428D02*
X148252690Y-111041428D01*
X148324119Y-111089047D01*
X148371738Y-111136666D01*
X148395547Y-111184285D01*
X148419357Y-110470000D02*
X148752690Y-110470000D01*
X148228880Y-110589047D02*
X148586023Y-110708095D01*
X148586023Y-110398571D01*
X148705071Y-110208095D02*
X148728880Y-110184285D01*
X148752690Y-110208095D01*
X148728880Y-110231904D01*
X148705071Y-110208095D01*
X148752690Y-110208095D01*
X148252690Y-110017619D02*
X148252690Y-109708095D01*
X148443166Y-109874761D01*
X148443166Y-109803333D01*
X148466976Y-109755714D01*
X148490785Y-109731904D01*
X148538404Y-109708095D01*
X148657452Y-109708095D01*
X148705071Y-109731904D01*
X148728880Y-109755714D01*
X148752690Y-109803333D01*
X148752690Y-109946190D01*
X148728880Y-109993809D01*
X148705071Y-110017619D01*
X148752690Y-109231904D02*
X148752690Y-109517619D01*
X148752690Y-109374761D02*
X148252690Y-109374761D01*
X148324119Y-109422380D01*
X148371738Y-109470000D01*
X148395547Y-109517619D01*
X148466976Y-108946190D02*
X148443166Y-108993809D01*
X148419357Y-109017619D01*
X148371738Y-109041428D01*
X148347928Y-109041428D01*
X148300309Y-109017619D01*
X148276500Y-108993809D01*
X148252690Y-108946190D01*
X148252690Y-108850952D01*
X148276500Y-108803333D01*
X148300309Y-108779523D01*
X148347928Y-108755714D01*
X148371738Y-108755714D01*
X148419357Y-108779523D01*
X148443166Y-108803333D01*
X148466976Y-108850952D01*
X148466976Y-108946190D01*
X148490785Y-108993809D01*
X148514595Y-109017619D01*
X148562214Y-109041428D01*
X148657452Y-109041428D01*
X148705071Y-109017619D01*
X148728880Y-108993809D01*
X148752690Y-108946190D01*
X148752690Y-108850952D01*
X148728880Y-108803333D01*
X148705071Y-108779523D01*
X148657452Y-108755714D01*
X148562214Y-108755714D01*
X148514595Y-108779523D01*
X148490785Y-108803333D01*
X148466976Y-108850952D01*
X148752690Y-108541428D02*
X148252690Y-108541428D01*
X148609833Y-108374761D01*
X148252690Y-108208095D01*
X148752690Y-108208095D01*
X148752690Y-107970000D02*
X148252690Y-107970000D01*
X148490785Y-107970000D02*
X148490785Y-107684285D01*
X148752690Y-107684285D02*
X148252690Y-107684285D01*
X148419357Y-107493809D02*
X148419357Y-107231904D01*
X148752690Y-107493809D01*
X148752690Y-107231904D01*
G04 #@! TO.C,U6*
D10*
X135115395Y-115949480D02*
X135115395Y-116759004D01*
X135163014Y-116854242D01*
X135210633Y-116901861D01*
X135305871Y-116949480D01*
X135496347Y-116949480D01*
X135591585Y-116901861D01*
X135639204Y-116854242D01*
X135686823Y-116759004D01*
X135686823Y-115949480D01*
X136591585Y-115949480D02*
X136401109Y-115949480D01*
X136305871Y-115997100D01*
X136258252Y-116044719D01*
X136163014Y-116187576D01*
X136115395Y-116378052D01*
X136115395Y-116759004D01*
X136163014Y-116854242D01*
X136210633Y-116901861D01*
X136305871Y-116949480D01*
X136496347Y-116949480D01*
X136591585Y-116901861D01*
X136639204Y-116854242D01*
X136686823Y-116759004D01*
X136686823Y-116520909D01*
X136639204Y-116425671D01*
X136591585Y-116378052D01*
X136496347Y-116330433D01*
X136305871Y-116330433D01*
X136210633Y-116378052D01*
X136163014Y-116425671D01*
X136115395Y-116520909D01*
D17*
X134226104Y-111810390D02*
X134261819Y-111822295D01*
X134321342Y-111822295D01*
X134345152Y-111810390D01*
X134357057Y-111798485D01*
X134368961Y-111774676D01*
X134368961Y-111750866D01*
X134357057Y-111727057D01*
X134345152Y-111715152D01*
X134321342Y-111703247D01*
X134273723Y-111691342D01*
X134249914Y-111679438D01*
X134238009Y-111667533D01*
X134226104Y-111643723D01*
X134226104Y-111619914D01*
X134238009Y-111596104D01*
X134249914Y-111584200D01*
X134273723Y-111572295D01*
X134333247Y-111572295D01*
X134368961Y-111584200D01*
X134476104Y-111822295D02*
X134476104Y-111572295D01*
X134618961Y-111822295D01*
X134618961Y-111572295D01*
X134714200Y-111572295D02*
X134880866Y-111572295D01*
X134773723Y-111822295D01*
X135083247Y-111655628D02*
X135083247Y-111822295D01*
X135023723Y-111560390D02*
X134964200Y-111738961D01*
X135118961Y-111738961D01*
X135333247Y-111822295D02*
X135214200Y-111822295D01*
X135214200Y-111572295D01*
X135380866Y-111572295D02*
X135464200Y-111822295D01*
X135547533Y-111572295D01*
X135773723Y-111798485D02*
X135761819Y-111810390D01*
X135726104Y-111822295D01*
X135702295Y-111822295D01*
X135666580Y-111810390D01*
X135642771Y-111786580D01*
X135630866Y-111762771D01*
X135618961Y-111715152D01*
X135618961Y-111679438D01*
X135630866Y-111631819D01*
X135642771Y-111608009D01*
X135666580Y-111584200D01*
X135702295Y-111572295D01*
X135726104Y-111572295D01*
X135761819Y-111584200D01*
X135773723Y-111596104D01*
X136011819Y-111822295D02*
X135868961Y-111822295D01*
X135940390Y-111822295D02*
X135940390Y-111572295D01*
X135916580Y-111608009D01*
X135892771Y-111631819D01*
X135868961Y-111643723D01*
X136249914Y-111584200D02*
X136226104Y-111572295D01*
X136190390Y-111572295D01*
X136154676Y-111584200D01*
X136130866Y-111608009D01*
X136118961Y-111631819D01*
X136107057Y-111679438D01*
X136107057Y-111715152D01*
X136118961Y-111762771D01*
X136130866Y-111786580D01*
X136154676Y-111810390D01*
X136190390Y-111822295D01*
X136214200Y-111822295D01*
X136249914Y-111810390D01*
X136261819Y-111798485D01*
X136261819Y-111715152D01*
X136214200Y-111715152D01*
X136499914Y-111822295D02*
X136357057Y-111822295D01*
X136428485Y-111822295D02*
X136428485Y-111572295D01*
X136404676Y-111608009D01*
X136380866Y-111631819D01*
X136357057Y-111643723D01*
X136714200Y-111655628D02*
X136714200Y-111822295D01*
X136654676Y-111560390D02*
X136595152Y-111738961D01*
X136749914Y-111738961D01*
X136845152Y-111822295D02*
X136845152Y-111572295D01*
X136904676Y-111572295D01*
X136940390Y-111584200D01*
X136964200Y-111608009D01*
X136976104Y-111631819D01*
X136988009Y-111679438D01*
X136988009Y-111715152D01*
X136976104Y-111762771D01*
X136964200Y-111786580D01*
X136940390Y-111810390D01*
X136904676Y-111822295D01*
X136845152Y-111822295D01*
X137178485Y-111691342D02*
X137214200Y-111703247D01*
X137226104Y-111715152D01*
X137238009Y-111738961D01*
X137238009Y-111774676D01*
X137226104Y-111798485D01*
X137214200Y-111810390D01*
X137190390Y-111822295D01*
X137095152Y-111822295D01*
X137095152Y-111572295D01*
X137178485Y-111572295D01*
X137202295Y-111584200D01*
X137214200Y-111596104D01*
X137226104Y-111619914D01*
X137226104Y-111643723D01*
X137214200Y-111667533D01*
X137202295Y-111679438D01*
X137178485Y-111691342D01*
X137095152Y-111691342D01*
X137309438Y-111572295D02*
X137392771Y-111822295D01*
X137476104Y-111572295D01*
G04 #@! TO.C,U5*
D10*
X148728180Y-116611304D02*
X149537704Y-116611304D01*
X149632942Y-116563685D01*
X149680561Y-116516066D01*
X149728180Y-116420828D01*
X149728180Y-116230352D01*
X149680561Y-116135114D01*
X149632942Y-116087495D01*
X149537704Y-116039876D01*
X148728180Y-116039876D01*
X148728180Y-115087495D02*
X148728180Y-115563685D01*
X149204371Y-115611304D01*
X149156752Y-115563685D01*
X149109133Y-115468447D01*
X149109133Y-115230352D01*
X149156752Y-115135114D01*
X149204371Y-115087495D01*
X149299609Y-115039876D01*
X149537704Y-115039876D01*
X149632942Y-115087495D01*
X149680561Y-115135114D01*
X149728180Y-115230352D01*
X149728180Y-115468447D01*
X149680561Y-115563685D01*
X149632942Y-115611304D01*
X139879795Y-115289080D02*
X140546461Y-115289080D01*
X140117890Y-116289080D01*
X141355985Y-115622414D02*
X141355985Y-116289080D01*
X141117890Y-115241461D02*
X140879795Y-115955747D01*
X141498842Y-115955747D01*
X141879795Y-116289080D02*
X141879795Y-115289080D01*
X141879795Y-115765271D02*
X142451223Y-115765271D01*
X142451223Y-116289080D02*
X142451223Y-115289080D01*
X143498842Y-116193842D02*
X143451223Y-116241461D01*
X143308366Y-116289080D01*
X143213128Y-116289080D01*
X143070271Y-116241461D01*
X142975033Y-116146223D01*
X142927414Y-116050985D01*
X142879795Y-115860509D01*
X142879795Y-115717652D01*
X142927414Y-115527176D01*
X142975033Y-115431938D01*
X143070271Y-115336700D01*
X143213128Y-115289080D01*
X143308366Y-115289080D01*
X143451223Y-115336700D01*
X143498842Y-115384319D01*
X144403604Y-115289080D02*
X143927414Y-115289080D01*
X143879795Y-115765271D01*
X143927414Y-115717652D01*
X144022652Y-115670033D01*
X144260747Y-115670033D01*
X144355985Y-115717652D01*
X144403604Y-115765271D01*
X144451223Y-115860509D01*
X144451223Y-116098604D01*
X144403604Y-116193842D01*
X144355985Y-116241461D01*
X144260747Y-116289080D01*
X144022652Y-116289080D01*
X143927414Y-116241461D01*
X143879795Y-116193842D01*
X144927414Y-116289080D02*
X145117890Y-116289080D01*
X145213128Y-116241461D01*
X145260747Y-116193842D01*
X145355985Y-116050985D01*
X145403604Y-115860509D01*
X145403604Y-115479557D01*
X145355985Y-115384319D01*
X145308366Y-115336700D01*
X145213128Y-115289080D01*
X145022652Y-115289080D01*
X144927414Y-115336700D01*
X144879795Y-115384319D01*
X144832176Y-115479557D01*
X144832176Y-115717652D01*
X144879795Y-115812890D01*
X144927414Y-115860509D01*
X145022652Y-115908128D01*
X145213128Y-115908128D01*
X145308366Y-115860509D01*
X145355985Y-115812890D01*
X145403604Y-115717652D01*
X146308366Y-115289080D02*
X145832176Y-115289080D01*
X145784557Y-115765271D01*
X145832176Y-115717652D01*
X145927414Y-115670033D01*
X146165509Y-115670033D01*
X146260747Y-115717652D01*
X146308366Y-115765271D01*
X146355985Y-115860509D01*
X146355985Y-116098604D01*
X146308366Y-116193842D01*
X146260747Y-116241461D01*
X146165509Y-116289080D01*
X145927414Y-116289080D01*
X145832176Y-116241461D01*
X145784557Y-116193842D01*
G04 #@! TO.C,U3*
X163091880Y-113588704D02*
X163901404Y-113588704D01*
X163996642Y-113541085D01*
X164044261Y-113493466D01*
X164091880Y-113398228D01*
X164091880Y-113207752D01*
X164044261Y-113112514D01*
X163996642Y-113064895D01*
X163901404Y-113017276D01*
X163091880Y-113017276D01*
X163091880Y-112636323D02*
X163091880Y-112017276D01*
X163472833Y-112350609D01*
X163472833Y-112207752D01*
X163520452Y-112112514D01*
X163568071Y-112064895D01*
X163663309Y-112017276D01*
X163901404Y-112017276D01*
X163996642Y-112064895D01*
X164044261Y-112112514D01*
X164091880Y-112207752D01*
X164091880Y-112493466D01*
X164044261Y-112588704D01*
X163996642Y-112636323D01*
X158203733Y-108859580D02*
X157798971Y-108859580D01*
X157798971Y-107859580D01*
X158487066Y-108859580D02*
X158487066Y-107859580D01*
X158770400Y-108573866D01*
X159053733Y-107859580D01*
X159053733Y-108859580D01*
X159418019Y-107954819D02*
X159458495Y-107907200D01*
X159539447Y-107859580D01*
X159741828Y-107859580D01*
X159822780Y-107907200D01*
X159863257Y-107954819D01*
X159903733Y-108050057D01*
X159903733Y-108145295D01*
X159863257Y-108288152D01*
X159377542Y-108859580D01*
X159903733Y-108859580D01*
X160308495Y-108859580D02*
X160470400Y-108859580D01*
X160551352Y-108811961D01*
X160591828Y-108764342D01*
X160672780Y-108621485D01*
X160713257Y-108431009D01*
X160713257Y-108050057D01*
X160672780Y-107954819D01*
X160632304Y-107907200D01*
X160551352Y-107859580D01*
X160389447Y-107859580D01*
X160308495Y-107907200D01*
X160268019Y-107954819D01*
X160227542Y-108050057D01*
X160227542Y-108288152D01*
X160268019Y-108383390D01*
X160308495Y-108431009D01*
X160389447Y-108478628D01*
X160551352Y-108478628D01*
X160632304Y-108431009D01*
X160672780Y-108383390D01*
X160713257Y-108288152D01*
X161239447Y-107859580D02*
X161320400Y-107859580D01*
X161401352Y-107907200D01*
X161441828Y-107954819D01*
X161482304Y-108050057D01*
X161522780Y-108240533D01*
X161522780Y-108478628D01*
X161482304Y-108669104D01*
X161441828Y-108764342D01*
X161401352Y-108811961D01*
X161320400Y-108859580D01*
X161239447Y-108859580D01*
X161158495Y-108811961D01*
X161118019Y-108764342D01*
X161077542Y-108669104D01*
X161037066Y-108478628D01*
X161037066Y-108240533D01*
X161077542Y-108050057D01*
X161118019Y-107954819D01*
X161158495Y-107907200D01*
X161239447Y-107859580D01*
X161846590Y-107954819D02*
X161887066Y-107907200D01*
X161968019Y-107859580D01*
X162170400Y-107859580D01*
X162251352Y-107907200D01*
X162291828Y-107954819D01*
X162332304Y-108050057D01*
X162332304Y-108145295D01*
X162291828Y-108288152D01*
X161806114Y-108859580D01*
X162332304Y-108859580D01*
G04 #@! TO.C,U1*
X141376495Y-93889580D02*
X141376495Y-94699104D01*
X141424114Y-94794342D01*
X141471733Y-94841961D01*
X141566971Y-94889580D01*
X141757447Y-94889580D01*
X141852685Y-94841961D01*
X141900304Y-94794342D01*
X141947923Y-94699104D01*
X141947923Y-93889580D01*
X142947923Y-94889580D02*
X142376495Y-94889580D01*
X142662209Y-94889580D02*
X142662209Y-93889580D01*
X142566971Y-94032438D01*
X142471733Y-94127676D01*
X142376495Y-94175295D01*
X139699028Y-103591190D02*
X139699028Y-104067380D01*
X139365695Y-103067380D02*
X139699028Y-103591190D01*
X140032361Y-103067380D01*
X140365695Y-104067380D02*
X140365695Y-103067380D01*
X140699028Y-103781666D01*
X141032361Y-103067380D01*
X141032361Y-104067380D01*
X141841885Y-103543571D02*
X141508552Y-103543571D01*
X141508552Y-104067380D02*
X141508552Y-103067380D01*
X141984742Y-103067380D01*
X142318076Y-103162619D02*
X142365695Y-103115000D01*
X142460933Y-103067380D01*
X142699028Y-103067380D01*
X142794266Y-103115000D01*
X142841885Y-103162619D01*
X142889504Y-103257857D01*
X142889504Y-103353095D01*
X142841885Y-103495952D01*
X142270457Y-104067380D01*
X142889504Y-104067380D01*
X143746647Y-103067380D02*
X143556171Y-103067380D01*
X143460933Y-103115000D01*
X143413314Y-103162619D01*
X143318076Y-103305476D01*
X143270457Y-103495952D01*
X143270457Y-103876904D01*
X143318076Y-103972142D01*
X143365695Y-104019761D01*
X143460933Y-104067380D01*
X143651409Y-104067380D01*
X143746647Y-104019761D01*
X143794266Y-103972142D01*
X143841885Y-103876904D01*
X143841885Y-103638809D01*
X143794266Y-103543571D01*
X143746647Y-103495952D01*
X143651409Y-103448333D01*
X143460933Y-103448333D01*
X143365695Y-103495952D01*
X143318076Y-103543571D01*
X143270457Y-103638809D01*
X144222838Y-103162619D02*
X144270457Y-103115000D01*
X144365695Y-103067380D01*
X144603790Y-103067380D01*
X144699028Y-103115000D01*
X144746647Y-103162619D01*
X144794266Y-103257857D01*
X144794266Y-103353095D01*
X144746647Y-103495952D01*
X144175219Y-104067380D01*
X144794266Y-104067380D01*
G04 #@! TO.C,R8*
X164272933Y-108859580D02*
X163939600Y-108383390D01*
X163701504Y-108859580D02*
X163701504Y-107859580D01*
X164082457Y-107859580D01*
X164177695Y-107907200D01*
X164225314Y-107954819D01*
X164272933Y-108050057D01*
X164272933Y-108192914D01*
X164225314Y-108288152D01*
X164177695Y-108335771D01*
X164082457Y-108383390D01*
X163701504Y-108383390D01*
X164844361Y-108288152D02*
X164749123Y-108240533D01*
X164701504Y-108192914D01*
X164653885Y-108097676D01*
X164653885Y-108050057D01*
X164701504Y-107954819D01*
X164749123Y-107907200D01*
X164844361Y-107859580D01*
X165034838Y-107859580D01*
X165130076Y-107907200D01*
X165177695Y-107954819D01*
X165225314Y-108050057D01*
X165225314Y-108097676D01*
X165177695Y-108192914D01*
X165130076Y-108240533D01*
X165034838Y-108288152D01*
X164844361Y-108288152D01*
X164749123Y-108335771D01*
X164701504Y-108383390D01*
X164653885Y-108478628D01*
X164653885Y-108669104D01*
X164701504Y-108764342D01*
X164749123Y-108811961D01*
X164844361Y-108859580D01*
X165034838Y-108859580D01*
X165130076Y-108811961D01*
X165177695Y-108764342D01*
X165225314Y-108669104D01*
X165225314Y-108478628D01*
X165177695Y-108383390D01*
X165130076Y-108335771D01*
X165034838Y-108288152D01*
G04 #@! TO.C,R7*
X165022233Y-118625880D02*
X164688900Y-118149690D01*
X164450804Y-118625880D02*
X164450804Y-117625880D01*
X164831757Y-117625880D01*
X164926995Y-117673500D01*
X164974614Y-117721119D01*
X165022233Y-117816357D01*
X165022233Y-117959214D01*
X164974614Y-118054452D01*
X164926995Y-118102071D01*
X164831757Y-118149690D01*
X164450804Y-118149690D01*
X165355566Y-117625880D02*
X166022233Y-117625880D01*
X165593661Y-118625880D01*
G04 #@! TO.C,R5*
X168984633Y-108935780D02*
X168651300Y-108459590D01*
X168413204Y-108935780D02*
X168413204Y-107935780D01*
X168794157Y-107935780D01*
X168889395Y-107983400D01*
X168937014Y-108031019D01*
X168984633Y-108126257D01*
X168984633Y-108269114D01*
X168937014Y-108364352D01*
X168889395Y-108411971D01*
X168794157Y-108459590D01*
X168413204Y-108459590D01*
X169889395Y-107935780D02*
X169413204Y-107935780D01*
X169365585Y-108411971D01*
X169413204Y-108364352D01*
X169508442Y-108316733D01*
X169746538Y-108316733D01*
X169841776Y-108364352D01*
X169889395Y-108411971D01*
X169937014Y-108507209D01*
X169937014Y-108745304D01*
X169889395Y-108840542D01*
X169841776Y-108888161D01*
X169746538Y-108935780D01*
X169508442Y-108935780D01*
X169413204Y-108888161D01*
X169365585Y-108840542D01*
G04 #@! TO.C,R3*
X166749433Y-118625880D02*
X166416100Y-118149690D01*
X166178004Y-118625880D02*
X166178004Y-117625880D01*
X166558957Y-117625880D01*
X166654195Y-117673500D01*
X166701814Y-117721119D01*
X166749433Y-117816357D01*
X166749433Y-117959214D01*
X166701814Y-118054452D01*
X166654195Y-118102071D01*
X166558957Y-118149690D01*
X166178004Y-118149690D01*
X167082766Y-117625880D02*
X167701814Y-117625880D01*
X167368480Y-118006833D01*
X167511338Y-118006833D01*
X167606576Y-118054452D01*
X167654195Y-118102071D01*
X167701814Y-118197309D01*
X167701814Y-118435404D01*
X167654195Y-118530642D01*
X167606576Y-118578261D01*
X167511338Y-118625880D01*
X167225623Y-118625880D01*
X167130385Y-118578261D01*
X167082766Y-118530642D01*
G04 #@! TO.C,J2*
X168962666Y-93418380D02*
X168962666Y-94132666D01*
X168915047Y-94275523D01*
X168819809Y-94370761D01*
X168676952Y-94418380D01*
X168581714Y-94418380D01*
X169391238Y-93513619D02*
X169438857Y-93466000D01*
X169534095Y-93418380D01*
X169772190Y-93418380D01*
X169867428Y-93466000D01*
X169915047Y-93513619D01*
X169962666Y-93608857D01*
X169962666Y-93704095D01*
X169915047Y-93846952D01*
X169343619Y-94418380D01*
X169962666Y-94418380D01*
D16*
X158568047Y-100540333D02*
X158806142Y-100540333D01*
X158520428Y-100683190D02*
X158687095Y-100183190D01*
X158853761Y-100683190D01*
X159234714Y-100349857D02*
X159234714Y-100683190D01*
X159020428Y-100349857D02*
X159020428Y-100611761D01*
X159044238Y-100659380D01*
X159091857Y-100683190D01*
X159163285Y-100683190D01*
X159210904Y-100659380D01*
X159234714Y-100635571D01*
X159687095Y-100683190D02*
X159687095Y-100183190D01*
X159687095Y-100659380D02*
X159639476Y-100683190D01*
X159544238Y-100683190D01*
X159496619Y-100659380D01*
X159472809Y-100635571D01*
X159449000Y-100587952D01*
X159449000Y-100445095D01*
X159472809Y-100397476D01*
X159496619Y-100373666D01*
X159544238Y-100349857D01*
X159639476Y-100349857D01*
X159687095Y-100373666D01*
X159925190Y-100683190D02*
X159925190Y-100349857D01*
X159925190Y-100183190D02*
X159901380Y-100207000D01*
X159925190Y-100230809D01*
X159949000Y-100207000D01*
X159925190Y-100183190D01*
X159925190Y-100230809D01*
X160234714Y-100683190D02*
X160187095Y-100659380D01*
X160163285Y-100635571D01*
X160139476Y-100587952D01*
X160139476Y-100445095D01*
X160163285Y-100397476D01*
X160187095Y-100373666D01*
X160234714Y-100349857D01*
X160306142Y-100349857D01*
X160353761Y-100373666D01*
X160377571Y-100397476D01*
X160401380Y-100445095D01*
X160401380Y-100587952D01*
X160377571Y-100635571D01*
X160353761Y-100659380D01*
X160306142Y-100683190D01*
X160234714Y-100683190D01*
X160758523Y-100183190D02*
X160758523Y-100540333D01*
X160734714Y-100611761D01*
X160687095Y-100659380D01*
X160615666Y-100683190D01*
X160568047Y-100683190D01*
X161210904Y-100683190D02*
X161210904Y-100421285D01*
X161187095Y-100373666D01*
X161139476Y-100349857D01*
X161044238Y-100349857D01*
X160996619Y-100373666D01*
X161210904Y-100659380D02*
X161163285Y-100683190D01*
X161044238Y-100683190D01*
X160996619Y-100659380D01*
X160972809Y-100611761D01*
X160972809Y-100564142D01*
X160996619Y-100516523D01*
X161044238Y-100492714D01*
X161163285Y-100492714D01*
X161210904Y-100468904D01*
X161663285Y-100659380D02*
X161615666Y-100683190D01*
X161520428Y-100683190D01*
X161472809Y-100659380D01*
X161449000Y-100635571D01*
X161425190Y-100587952D01*
X161425190Y-100445095D01*
X161449000Y-100397476D01*
X161472809Y-100373666D01*
X161520428Y-100349857D01*
X161615666Y-100349857D01*
X161663285Y-100373666D01*
X161877571Y-100683190D02*
X161877571Y-100183190D01*
X161925190Y-100492714D02*
X162068047Y-100683190D01*
X162068047Y-100349857D02*
X161877571Y-100540333D01*
X162258523Y-100230809D02*
X162282333Y-100207000D01*
X162329952Y-100183190D01*
X162449000Y-100183190D01*
X162496619Y-100207000D01*
X162520428Y-100230809D01*
X162544238Y-100278428D01*
X162544238Y-100326047D01*
X162520428Y-100397476D01*
X162234714Y-100683190D01*
X162544238Y-100683190D01*
X162639476Y-100730809D02*
X163020428Y-100730809D01*
X163401380Y-100207000D02*
X163353761Y-100183190D01*
X163282333Y-100183190D01*
X163210904Y-100207000D01*
X163163285Y-100254619D01*
X163139476Y-100302238D01*
X163115666Y-100397476D01*
X163115666Y-100468904D01*
X163139476Y-100564142D01*
X163163285Y-100611761D01*
X163210904Y-100659380D01*
X163282333Y-100683190D01*
X163329952Y-100683190D01*
X163401380Y-100659380D01*
X163425190Y-100635571D01*
X163425190Y-100468904D01*
X163329952Y-100468904D01*
X163639476Y-100683190D02*
X163639476Y-100349857D01*
X163639476Y-100445095D02*
X163663285Y-100397476D01*
X163687095Y-100373666D01*
X163734714Y-100349857D01*
X163782333Y-100349857D01*
X164020428Y-100683190D02*
X163972809Y-100659380D01*
X163949000Y-100635571D01*
X163925190Y-100587952D01*
X163925190Y-100445095D01*
X163949000Y-100397476D01*
X163972809Y-100373666D01*
X164020428Y-100349857D01*
X164091857Y-100349857D01*
X164139476Y-100373666D01*
X164163285Y-100397476D01*
X164187095Y-100445095D01*
X164187095Y-100587952D01*
X164163285Y-100635571D01*
X164139476Y-100659380D01*
X164091857Y-100683190D01*
X164020428Y-100683190D01*
X164615666Y-100349857D02*
X164615666Y-100683190D01*
X164401380Y-100349857D02*
X164401380Y-100611761D01*
X164425190Y-100659380D01*
X164472809Y-100683190D01*
X164544238Y-100683190D01*
X164591857Y-100659380D01*
X164615666Y-100635571D01*
X164853761Y-100349857D02*
X164853761Y-100683190D01*
X164853761Y-100397476D02*
X164877571Y-100373666D01*
X164925190Y-100349857D01*
X164996619Y-100349857D01*
X165044238Y-100373666D01*
X165068047Y-100421285D01*
X165068047Y-100683190D01*
X165520428Y-100683190D02*
X165520428Y-100183190D01*
X165520428Y-100659380D02*
X165472809Y-100683190D01*
X165377571Y-100683190D01*
X165329952Y-100659380D01*
X165306142Y-100635571D01*
X165282333Y-100587952D01*
X165282333Y-100445095D01*
X165306142Y-100397476D01*
X165329952Y-100373666D01*
X165377571Y-100349857D01*
X165472809Y-100349857D01*
X165520428Y-100373666D01*
X165639476Y-100730809D02*
X166020428Y-100730809D01*
X166115666Y-100659380D02*
X166187095Y-100683190D01*
X166306142Y-100683190D01*
X166353761Y-100659380D01*
X166377571Y-100635571D01*
X166401380Y-100587952D01*
X166401380Y-100540333D01*
X166377571Y-100492714D01*
X166353761Y-100468904D01*
X166306142Y-100445095D01*
X166210904Y-100421285D01*
X166163285Y-100397476D01*
X166139476Y-100373666D01*
X166115666Y-100326047D01*
X166115666Y-100278428D01*
X166139476Y-100230809D01*
X166163285Y-100207000D01*
X166210904Y-100183190D01*
X166329952Y-100183190D01*
X166401380Y-100207000D01*
X166568047Y-100349857D02*
X166663285Y-100683190D01*
X166758523Y-100445095D01*
X166853761Y-100683190D01*
X166949000Y-100349857D01*
X167139476Y-100683190D02*
X167139476Y-100349857D01*
X167139476Y-100183190D02*
X167115666Y-100207000D01*
X167139476Y-100230809D01*
X167163285Y-100207000D01*
X167139476Y-100183190D01*
X167139476Y-100230809D01*
X167306142Y-100349857D02*
X167496619Y-100349857D01*
X167377571Y-100183190D02*
X167377571Y-100611761D01*
X167401380Y-100659380D01*
X167449000Y-100683190D01*
X167496619Y-100683190D01*
X167877571Y-100659380D02*
X167829952Y-100683190D01*
X167734714Y-100683190D01*
X167687095Y-100659380D01*
X167663285Y-100635571D01*
X167639476Y-100587952D01*
X167639476Y-100445095D01*
X167663285Y-100397476D01*
X167687095Y-100373666D01*
X167734714Y-100349857D01*
X167829952Y-100349857D01*
X167877571Y-100373666D01*
X168091857Y-100683190D02*
X168091857Y-100183190D01*
X168306142Y-100683190D02*
X168306142Y-100421285D01*
X168282333Y-100373666D01*
X168234714Y-100349857D01*
X168163285Y-100349857D01*
X168115666Y-100373666D01*
X168091857Y-100397476D01*
G04 #@! TO.C,J1*
D10*
X131835566Y-116495580D02*
X131835566Y-117209866D01*
X131787947Y-117352723D01*
X131692709Y-117447961D01*
X131549852Y-117495580D01*
X131454614Y-117495580D01*
X132835566Y-117495580D02*
X132264138Y-117495580D01*
X132549852Y-117495580D02*
X132549852Y-116495580D01*
X132454614Y-116638438D01*
X132359376Y-116733676D01*
X132264138Y-116781295D01*
G04 #@! TO.C,C13*
X158919942Y-118975142D02*
X158872323Y-119022761D01*
X158729466Y-119070380D01*
X158634228Y-119070380D01*
X158491371Y-119022761D01*
X158396133Y-118927523D01*
X158348514Y-118832285D01*
X158300895Y-118641809D01*
X158300895Y-118498952D01*
X158348514Y-118308476D01*
X158396133Y-118213238D01*
X158491371Y-118118000D01*
X158634228Y-118070380D01*
X158729466Y-118070380D01*
X158872323Y-118118000D01*
X158919942Y-118165619D01*
X159872323Y-119070380D02*
X159300895Y-119070380D01*
X159586609Y-119070380D02*
X159586609Y-118070380D01*
X159491371Y-118213238D01*
X159396133Y-118308476D01*
X159300895Y-118356095D01*
X160205657Y-118070380D02*
X160824704Y-118070380D01*
X160491371Y-118451333D01*
X160634228Y-118451333D01*
X160729466Y-118498952D01*
X160777085Y-118546571D01*
X160824704Y-118641809D01*
X160824704Y-118879904D01*
X160777085Y-118975142D01*
X160729466Y-119022761D01*
X160634228Y-119070380D01*
X160348514Y-119070380D01*
X160253276Y-119022761D01*
X160205657Y-118975142D01*
G04 #@! TO.C,C6*
X135129542Y-102935066D02*
X135177161Y-102982685D01*
X135224780Y-103125542D01*
X135224780Y-103220780D01*
X135177161Y-103363638D01*
X135081923Y-103458876D01*
X134986685Y-103506495D01*
X134796209Y-103554114D01*
X134653352Y-103554114D01*
X134462876Y-103506495D01*
X134367638Y-103458876D01*
X134272400Y-103363638D01*
X134224780Y-103220780D01*
X134224780Y-103125542D01*
X134272400Y-102982685D01*
X134320019Y-102935066D01*
X134224780Y-102077923D02*
X134224780Y-102268400D01*
X134272400Y-102363638D01*
X134320019Y-102411257D01*
X134462876Y-102506495D01*
X134653352Y-102554114D01*
X135034304Y-102554114D01*
X135129542Y-102506495D01*
X135177161Y-102458876D01*
X135224780Y-102363638D01*
X135224780Y-102173161D01*
X135177161Y-102077923D01*
X135129542Y-102030304D01*
X135034304Y-101982685D01*
X134796209Y-101982685D01*
X134700971Y-102030304D01*
X134653352Y-102077923D01*
X134605733Y-102173161D01*
X134605733Y-102363638D01*
X134653352Y-102458876D01*
X134700971Y-102506495D01*
X134796209Y-102554114D01*
G04 #@! TO.C,C4*
X135070142Y-96381866D02*
X135117761Y-96429485D01*
X135165380Y-96572342D01*
X135165380Y-96667580D01*
X135117761Y-96810438D01*
X135022523Y-96905676D01*
X134927285Y-96953295D01*
X134736809Y-97000914D01*
X134593952Y-97000914D01*
X134403476Y-96953295D01*
X134308238Y-96905676D01*
X134213000Y-96810438D01*
X134165380Y-96667580D01*
X134165380Y-96572342D01*
X134213000Y-96429485D01*
X134260619Y-96381866D01*
X134498714Y-95524723D02*
X135165380Y-95524723D01*
X134117761Y-95762819D02*
X134832047Y-96000914D01*
X134832047Y-95381866D01*
G04 #@! TO.C,C3*
X135154942Y-98109066D02*
X135202561Y-98156685D01*
X135250180Y-98299542D01*
X135250180Y-98394780D01*
X135202561Y-98537638D01*
X135107323Y-98632876D01*
X135012085Y-98680495D01*
X134821609Y-98728114D01*
X134678752Y-98728114D01*
X134488276Y-98680495D01*
X134393038Y-98632876D01*
X134297800Y-98537638D01*
X134250180Y-98394780D01*
X134250180Y-98299542D01*
X134297800Y-98156685D01*
X134345419Y-98109066D01*
X134250180Y-97775733D02*
X134250180Y-97156685D01*
X134631133Y-97490019D01*
X134631133Y-97347161D01*
X134678752Y-97251923D01*
X134726371Y-97204304D01*
X134821609Y-97156685D01*
X135059704Y-97156685D01*
X135154942Y-97204304D01*
X135202561Y-97251923D01*
X135250180Y-97347161D01*
X135250180Y-97632876D01*
X135202561Y-97728114D01*
X135154942Y-97775733D01*
G04 #@! TO.C,C2*
X135405833Y-120816642D02*
X135358214Y-120864261D01*
X135215357Y-120911880D01*
X135120119Y-120911880D01*
X134977261Y-120864261D01*
X134882023Y-120769023D01*
X134834404Y-120673785D01*
X134786785Y-120483309D01*
X134786785Y-120340452D01*
X134834404Y-120149976D01*
X134882023Y-120054738D01*
X134977261Y-119959500D01*
X135120119Y-119911880D01*
X135215357Y-119911880D01*
X135358214Y-119959500D01*
X135405833Y-120007119D01*
X135786785Y-120007119D02*
X135834404Y-119959500D01*
X135929642Y-119911880D01*
X136167738Y-119911880D01*
X136262976Y-119959500D01*
X136310595Y-120007119D01*
X136358214Y-120102357D01*
X136358214Y-120197595D01*
X136310595Y-120340452D01*
X135739166Y-120911880D01*
X136358214Y-120911880D01*
G04 #@! TD*
M02*
