G04 #@! TF.GenerationSoftware,KiCad,Pcbnew,(5.1.9)-1*
G04 #@! TF.CreationDate,2021-01-15T03:22:01+08:00*
G04 #@! TF.ProjectId,opl3,6f706c33-2e6b-4696-9361-645f70636258,rev?*
G04 #@! TF.SameCoordinates,Original*
G04 #@! TF.FileFunction,Paste,Bot*
G04 #@! TF.FilePolarity,Positive*
%FSLAX46Y46*%
G04 Gerber Fmt 4.6, Leading zero omitted, Abs format (unit mm)*
G04 Created by KiCad (PCBNEW (5.1.9)-1) date 2021-01-15 03:22:01*
%MOMM*%
%LPD*%
G01*
G04 APERTURE LIST*
G04 APERTURE END LIST*
G04 #@! TO.C,R22*
G36*
G01*
X166673700Y-106494000D02*
X166472700Y-106494000D01*
G75*
G02*
X166393200Y-106414500I0J79500D01*
G01*
X166393200Y-106255500D01*
G75*
G02*
X166472700Y-106176000I79500J0D01*
G01*
X166673700Y-106176000D01*
G75*
G02*
X166753200Y-106255500I0J-79500D01*
G01*
X166753200Y-106414500D01*
G75*
G02*
X166673700Y-106494000I-79500J0D01*
G01*
G37*
G36*
G01*
X166673700Y-107184000D02*
X166472700Y-107184000D01*
G75*
G02*
X166393200Y-107104500I0J79500D01*
G01*
X166393200Y-106945500D01*
G75*
G02*
X166472700Y-106866000I79500J0D01*
G01*
X166673700Y-106866000D01*
G75*
G02*
X166753200Y-106945500I0J-79500D01*
G01*
X166753200Y-107104500D01*
G75*
G02*
X166673700Y-107184000I-79500J0D01*
G01*
G37*
G04 #@! TD*
G04 #@! TO.C,R12*
G36*
G01*
X161599300Y-109094100D02*
X161599300Y-109295100D01*
G75*
G02*
X161519800Y-109374600I-79500J0D01*
G01*
X161360800Y-109374600D01*
G75*
G02*
X161281300Y-109295100I0J79500D01*
G01*
X161281300Y-109094100D01*
G75*
G02*
X161360800Y-109014600I79500J0D01*
G01*
X161519800Y-109014600D01*
G75*
G02*
X161599300Y-109094100I0J-79500D01*
G01*
G37*
G36*
G01*
X162289300Y-109094100D02*
X162289300Y-109295100D01*
G75*
G02*
X162209800Y-109374600I-79500J0D01*
G01*
X162050800Y-109374600D01*
G75*
G02*
X161971300Y-109295100I0J79500D01*
G01*
X161971300Y-109094100D01*
G75*
G02*
X162050800Y-109014600I79500J0D01*
G01*
X162209800Y-109014600D01*
G75*
G02*
X162289300Y-109094100I0J-79500D01*
G01*
G37*
G04 #@! TD*
G04 #@! TO.C,R11*
G36*
G01*
X158424300Y-109094100D02*
X158424300Y-109295100D01*
G75*
G02*
X158344800Y-109374600I-79500J0D01*
G01*
X158185800Y-109374600D01*
G75*
G02*
X158106300Y-109295100I0J79500D01*
G01*
X158106300Y-109094100D01*
G75*
G02*
X158185800Y-109014600I79500J0D01*
G01*
X158344800Y-109014600D01*
G75*
G02*
X158424300Y-109094100I0J-79500D01*
G01*
G37*
G36*
G01*
X159114300Y-109094100D02*
X159114300Y-109295100D01*
G75*
G02*
X159034800Y-109374600I-79500J0D01*
G01*
X158875800Y-109374600D01*
G75*
G02*
X158796300Y-109295100I0J79500D01*
G01*
X158796300Y-109094100D01*
G75*
G02*
X158875800Y-109014600I79500J0D01*
G01*
X159034800Y-109014600D01*
G75*
G02*
X159114300Y-109094100I0J-79500D01*
G01*
G37*
G04 #@! TD*
G04 #@! TO.C,R10*
G36*
G01*
X165616200Y-105015200D02*
X165616200Y-104814200D01*
G75*
G02*
X165695700Y-104734700I79500J0D01*
G01*
X165854700Y-104734700D01*
G75*
G02*
X165934200Y-104814200I0J-79500D01*
G01*
X165934200Y-105015200D01*
G75*
G02*
X165854700Y-105094700I-79500J0D01*
G01*
X165695700Y-105094700D01*
G75*
G02*
X165616200Y-105015200I0J79500D01*
G01*
G37*
G36*
G01*
X164926200Y-105015200D02*
X164926200Y-104814200D01*
G75*
G02*
X165005700Y-104734700I79500J0D01*
G01*
X165164700Y-104734700D01*
G75*
G02*
X165244200Y-104814200I0J-79500D01*
G01*
X165244200Y-105015200D01*
G75*
G02*
X165164700Y-105094700I-79500J0D01*
G01*
X165005700Y-105094700D01*
G75*
G02*
X164926200Y-105015200I0J79500D01*
G01*
G37*
G04 #@! TD*
G04 #@! TO.C,R9*
G36*
G01*
X165698000Y-98585600D02*
X165899000Y-98585600D01*
G75*
G02*
X165978500Y-98665100I0J-79500D01*
G01*
X165978500Y-98824100D01*
G75*
G02*
X165899000Y-98903600I-79500J0D01*
G01*
X165698000Y-98903600D01*
G75*
G02*
X165618500Y-98824100I0J79500D01*
G01*
X165618500Y-98665100D01*
G75*
G02*
X165698000Y-98585600I79500J0D01*
G01*
G37*
G36*
G01*
X165698000Y-97895600D02*
X165899000Y-97895600D01*
G75*
G02*
X165978500Y-97975100I0J-79500D01*
G01*
X165978500Y-98134100D01*
G75*
G02*
X165899000Y-98213600I-79500J0D01*
G01*
X165698000Y-98213600D01*
G75*
G02*
X165618500Y-98134100I0J79500D01*
G01*
X165618500Y-97975100D01*
G75*
G02*
X165698000Y-97895600I79500J0D01*
G01*
G37*
G04 #@! TD*
G04 #@! TO.C,R6*
G36*
G01*
X166510800Y-98585600D02*
X166711800Y-98585600D01*
G75*
G02*
X166791300Y-98665100I0J-79500D01*
G01*
X166791300Y-98824100D01*
G75*
G02*
X166711800Y-98903600I-79500J0D01*
G01*
X166510800Y-98903600D01*
G75*
G02*
X166431300Y-98824100I0J79500D01*
G01*
X166431300Y-98665100D01*
G75*
G02*
X166510800Y-98585600I79500J0D01*
G01*
G37*
G36*
G01*
X166510800Y-97895600D02*
X166711800Y-97895600D01*
G75*
G02*
X166791300Y-97975100I0J-79500D01*
G01*
X166791300Y-98134100D01*
G75*
G02*
X166711800Y-98213600I-79500J0D01*
G01*
X166510800Y-98213600D01*
G75*
G02*
X166431300Y-98134100I0J79500D01*
G01*
X166431300Y-97975100D01*
G75*
G02*
X166510800Y-97895600I79500J0D01*
G01*
G37*
G04 #@! TD*
G04 #@! TO.C,R4*
G36*
G01*
X158202800Y-111497800D02*
X158001800Y-111497800D01*
G75*
G02*
X157922300Y-111418300I0J79500D01*
G01*
X157922300Y-111259300D01*
G75*
G02*
X158001800Y-111179800I79500J0D01*
G01*
X158202800Y-111179800D01*
G75*
G02*
X158282300Y-111259300I0J-79500D01*
G01*
X158282300Y-111418300D01*
G75*
G02*
X158202800Y-111497800I-79500J0D01*
G01*
G37*
G36*
G01*
X158202800Y-112187800D02*
X158001800Y-112187800D01*
G75*
G02*
X157922300Y-112108300I0J79500D01*
G01*
X157922300Y-111949300D01*
G75*
G02*
X158001800Y-111869800I79500J0D01*
G01*
X158202800Y-111869800D01*
G75*
G02*
X158282300Y-111949300I0J-79500D01*
G01*
X158282300Y-112108300D01*
G75*
G02*
X158202800Y-112187800I-79500J0D01*
G01*
G37*
G04 #@! TD*
G04 #@! TO.C,R2*
G36*
G01*
X162127100Y-111510500D02*
X161926100Y-111510500D01*
G75*
G02*
X161846600Y-111431000I0J79500D01*
G01*
X161846600Y-111272000D01*
G75*
G02*
X161926100Y-111192500I79500J0D01*
G01*
X162127100Y-111192500D01*
G75*
G02*
X162206600Y-111272000I0J-79500D01*
G01*
X162206600Y-111431000D01*
G75*
G02*
X162127100Y-111510500I-79500J0D01*
G01*
G37*
G36*
G01*
X162127100Y-112200500D02*
X161926100Y-112200500D01*
G75*
G02*
X161846600Y-112121000I0J79500D01*
G01*
X161846600Y-111962000D01*
G75*
G02*
X161926100Y-111882500I79500J0D01*
G01*
X162127100Y-111882500D01*
G75*
G02*
X162206600Y-111962000I0J-79500D01*
G01*
X162206600Y-112121000D01*
G75*
G02*
X162127100Y-112200500I-79500J0D01*
G01*
G37*
G04 #@! TD*
G04 #@! TO.C,R1*
G36*
G01*
X153008500Y-103369800D02*
X152807500Y-103369800D01*
G75*
G02*
X152728000Y-103290300I0J79500D01*
G01*
X152728000Y-103131300D01*
G75*
G02*
X152807500Y-103051800I79500J0D01*
G01*
X153008500Y-103051800D01*
G75*
G02*
X153088000Y-103131300I0J-79500D01*
G01*
X153088000Y-103290300D01*
G75*
G02*
X153008500Y-103369800I-79500J0D01*
G01*
G37*
G36*
G01*
X153008500Y-104059800D02*
X152807500Y-104059800D01*
G75*
G02*
X152728000Y-103980300I0J79500D01*
G01*
X152728000Y-103821300D01*
G75*
G02*
X152807500Y-103741800I79500J0D01*
G01*
X153008500Y-103741800D01*
G75*
G02*
X153088000Y-103821300I0J-79500D01*
G01*
X153088000Y-103980300D01*
G75*
G02*
X153008500Y-104059800I-79500J0D01*
G01*
G37*
G04 #@! TD*
G04 #@! TO.C,C22*
G36*
G01*
X165647200Y-106866000D02*
X165848200Y-106866000D01*
G75*
G02*
X165927700Y-106945500I0J-79500D01*
G01*
X165927700Y-107104500D01*
G75*
G02*
X165848200Y-107184000I-79500J0D01*
G01*
X165647200Y-107184000D01*
G75*
G02*
X165567700Y-107104500I0J79500D01*
G01*
X165567700Y-106945500D01*
G75*
G02*
X165647200Y-106866000I79500J0D01*
G01*
G37*
G36*
G01*
X165647200Y-106176000D02*
X165848200Y-106176000D01*
G75*
G02*
X165927700Y-106255500I0J-79500D01*
G01*
X165927700Y-106414500D01*
G75*
G02*
X165848200Y-106494000I-79500J0D01*
G01*
X165647200Y-106494000D01*
G75*
G02*
X165567700Y-106414500I0J79500D01*
G01*
X165567700Y-106255500D01*
G75*
G02*
X165647200Y-106176000I79500J0D01*
G01*
G37*
G04 #@! TD*
G04 #@! TO.C,C21*
G36*
G01*
X165698000Y-100096900D02*
X165899000Y-100096900D01*
G75*
G02*
X165978500Y-100176400I0J-79500D01*
G01*
X165978500Y-100335400D01*
G75*
G02*
X165899000Y-100414900I-79500J0D01*
G01*
X165698000Y-100414900D01*
G75*
G02*
X165618500Y-100335400I0J79500D01*
G01*
X165618500Y-100176400D01*
G75*
G02*
X165698000Y-100096900I79500J0D01*
G01*
G37*
G36*
G01*
X165698000Y-99406900D02*
X165899000Y-99406900D01*
G75*
G02*
X165978500Y-99486400I0J-79500D01*
G01*
X165978500Y-99645400D01*
G75*
G02*
X165899000Y-99724900I-79500J0D01*
G01*
X165698000Y-99724900D01*
G75*
G02*
X165618500Y-99645400I0J79500D01*
G01*
X165618500Y-99486400D01*
G75*
G02*
X165698000Y-99406900I79500J0D01*
G01*
G37*
G04 #@! TD*
G04 #@! TO.C,C20*
G36*
G01*
X158814600Y-111869800D02*
X159015600Y-111869800D01*
G75*
G02*
X159095100Y-111949300I0J-79500D01*
G01*
X159095100Y-112108300D01*
G75*
G02*
X159015600Y-112187800I-79500J0D01*
G01*
X158814600Y-112187800D01*
G75*
G02*
X158735100Y-112108300I0J79500D01*
G01*
X158735100Y-111949300D01*
G75*
G02*
X158814600Y-111869800I79500J0D01*
G01*
G37*
G36*
G01*
X158814600Y-111179800D02*
X159015600Y-111179800D01*
G75*
G02*
X159095100Y-111259300I0J-79500D01*
G01*
X159095100Y-111418300D01*
G75*
G02*
X159015600Y-111497800I-79500J0D01*
G01*
X158814600Y-111497800D01*
G75*
G02*
X158735100Y-111418300I0J79500D01*
G01*
X158735100Y-111259300D01*
G75*
G02*
X158814600Y-111179800I79500J0D01*
G01*
G37*
G04 #@! TD*
G04 #@! TO.C,C19*
G36*
G01*
X162738900Y-111882500D02*
X162939900Y-111882500D01*
G75*
G02*
X163019400Y-111962000I0J-79500D01*
G01*
X163019400Y-112121000D01*
G75*
G02*
X162939900Y-112200500I-79500J0D01*
G01*
X162738900Y-112200500D01*
G75*
G02*
X162659400Y-112121000I0J79500D01*
G01*
X162659400Y-111962000D01*
G75*
G02*
X162738900Y-111882500I79500J0D01*
G01*
G37*
G36*
G01*
X162738900Y-111192500D02*
X162939900Y-111192500D01*
G75*
G02*
X163019400Y-111272000I0J-79500D01*
G01*
X163019400Y-111431000D01*
G75*
G02*
X162939900Y-111510500I-79500J0D01*
G01*
X162738900Y-111510500D01*
G75*
G02*
X162659400Y-111431000I0J79500D01*
G01*
X162659400Y-111272000D01*
G75*
G02*
X162738900Y-111192500I79500J0D01*
G01*
G37*
G04 #@! TD*
G04 #@! TO.C,C18*
G36*
G01*
X155176800Y-100405100D02*
X155176800Y-100204100D01*
G75*
G02*
X155256300Y-100124600I79500J0D01*
G01*
X155415300Y-100124600D01*
G75*
G02*
X155494800Y-100204100I0J-79500D01*
G01*
X155494800Y-100405100D01*
G75*
G02*
X155415300Y-100484600I-79500J0D01*
G01*
X155256300Y-100484600D01*
G75*
G02*
X155176800Y-100405100I0J79500D01*
G01*
G37*
G36*
G01*
X154486800Y-100405100D02*
X154486800Y-100204100D01*
G75*
G02*
X154566300Y-100124600I79500J0D01*
G01*
X154725300Y-100124600D01*
G75*
G02*
X154804800Y-100204100I0J-79500D01*
G01*
X154804800Y-100405100D01*
G75*
G02*
X154725300Y-100484600I-79500J0D01*
G01*
X154566300Y-100484600D01*
G75*
G02*
X154486800Y-100405100I0J79500D01*
G01*
G37*
G04 #@! TD*
G04 #@! TO.C,C16*
G36*
G01*
X155163400Y-104504300D02*
X155163400Y-104004300D01*
G75*
G02*
X155388400Y-103779300I225000J0D01*
G01*
X155838400Y-103779300D01*
G75*
G02*
X156063400Y-104004300I0J-225000D01*
G01*
X156063400Y-104504300D01*
G75*
G02*
X155838400Y-104729300I-225000J0D01*
G01*
X155388400Y-104729300D01*
G75*
G02*
X155163400Y-104504300I0J225000D01*
G01*
G37*
G36*
G01*
X153613400Y-104504300D02*
X153613400Y-104004300D01*
G75*
G02*
X153838400Y-103779300I225000J0D01*
G01*
X154288400Y-103779300D01*
G75*
G02*
X154513400Y-104004300I0J-225000D01*
G01*
X154513400Y-104504300D01*
G75*
G02*
X154288400Y-104729300I-225000J0D01*
G01*
X153838400Y-104729300D01*
G75*
G02*
X153613400Y-104504300I0J225000D01*
G01*
G37*
G04 #@! TD*
G04 #@! TO.C,C15*
G36*
G01*
X154513400Y-102493000D02*
X154513400Y-102993000D01*
G75*
G02*
X154288400Y-103218000I-225000J0D01*
G01*
X153838400Y-103218000D01*
G75*
G02*
X153613400Y-102993000I0J225000D01*
G01*
X153613400Y-102493000D01*
G75*
G02*
X153838400Y-102268000I225000J0D01*
G01*
X154288400Y-102268000D01*
G75*
G02*
X154513400Y-102493000I0J-225000D01*
G01*
G37*
G36*
G01*
X156063400Y-102493000D02*
X156063400Y-102993000D01*
G75*
G02*
X155838400Y-103218000I-225000J0D01*
G01*
X155388400Y-103218000D01*
G75*
G02*
X155163400Y-102993000I0J225000D01*
G01*
X155163400Y-102493000D01*
G75*
G02*
X155388400Y-102268000I225000J0D01*
G01*
X155838400Y-102268000D01*
G75*
G02*
X156063400Y-102493000I0J-225000D01*
G01*
G37*
G04 #@! TD*
G04 #@! TO.C,C14*
G36*
G01*
X151443000Y-96607800D02*
X151443000Y-96406800D01*
G75*
G02*
X151522500Y-96327300I79500J0D01*
G01*
X151681500Y-96327300D01*
G75*
G02*
X151761000Y-96406800I0J-79500D01*
G01*
X151761000Y-96607800D01*
G75*
G02*
X151681500Y-96687300I-79500J0D01*
G01*
X151522500Y-96687300D01*
G75*
G02*
X151443000Y-96607800I0J79500D01*
G01*
G37*
G36*
G01*
X150753000Y-96607800D02*
X150753000Y-96406800D01*
G75*
G02*
X150832500Y-96327300I79500J0D01*
G01*
X150991500Y-96327300D01*
G75*
G02*
X151071000Y-96406800I0J-79500D01*
G01*
X151071000Y-96607800D01*
G75*
G02*
X150991500Y-96687300I-79500J0D01*
G01*
X150832500Y-96687300D01*
G75*
G02*
X150753000Y-96607800I0J79500D01*
G01*
G37*
G04 #@! TD*
G04 #@! TO.C,C1*
G36*
G01*
X153230000Y-109983100D02*
X153230000Y-110184100D01*
G75*
G02*
X153150500Y-110263600I-79500J0D01*
G01*
X152991500Y-110263600D01*
G75*
G02*
X152912000Y-110184100I0J79500D01*
G01*
X152912000Y-109983100D01*
G75*
G02*
X152991500Y-109903600I79500J0D01*
G01*
X153150500Y-109903600D01*
G75*
G02*
X153230000Y-109983100I0J-79500D01*
G01*
G37*
G36*
G01*
X153920000Y-109983100D02*
X153920000Y-110184100D01*
G75*
G02*
X153840500Y-110263600I-79500J0D01*
G01*
X153681500Y-110263600D01*
G75*
G02*
X153602000Y-110184100I0J79500D01*
G01*
X153602000Y-109983100D01*
G75*
G02*
X153681500Y-109903600I79500J0D01*
G01*
X153840500Y-109903600D01*
G75*
G02*
X153920000Y-109983100I0J-79500D01*
G01*
G37*
G04 #@! TD*
M02*
